<svg width="64" height="64" viewBox="0 0 64 64" fill="none" xmlns="http://www.w3.org/2000/svg">
<g filter="url(#filter0_i)">
<path fill-rule="evenodd" clip-rule="evenodd" d="M33.3228 0.486094C33.4347 0.582469 44.7307 10.2026 55.6307 10.2026C56.7182 10.2026 57.5999 11.0421 57.5999 12.0776V34.5324C57.5999 49.9319 47.6886 58.4292 32.7023 63.8768C32.4761 63.9589 32.238 64 31.9999 64C31.7618 64 31.5237 63.959 31.2975 63.8768C20.6093 59.9916 6.3999 52.7229 6.3999 34.5324V12.0776C6.3999 11.0421 7.28159 10.2026 8.36913 10.2026C19.2981 10.2026 30.5645 0.583219 30.677 0.486094C31.4276 -0.162031 32.572 -0.162031 33.3228 0.486094Z" fill="#F2FFF5"/>
</g>
<g clip-path="url(#clip0)">
<path d="M18.5867 34.96L22.7333 29.1334L18.3867 26.28L12.3267 38.0134L18.8933 37.6134L14.9733 43.96L24.1 34.6734L18.5867 34.96Z" fill="#FFCC00"/>
<path d="M34.6734 21.7933C34.3134 18.9933 31.7534 17.0199 28.9534 17.3799C28.8934 17.3866 28.84 17.3999 28.78 17.4133C27.8067 15.5999 25.7934 14.4799 23.6267 14.7599C23.3067 14.7999 22.9934 14.8733 22.7 14.9733C21.4734 13.7733 19.7934 13.0266 17.9467 13.0266C15.0067 13.0266 12.5067 14.8999 11.5534 17.5133C11.42 17.5066 11.28 17.4933 11.14 17.4933C7.93337 17.4933 5.33337 20.0933 5.33337 23.2999C5.33337 26.3599 7.70004 28.8599 10.7 29.0866C11.74 31.5066 14.1467 33.1999 16.9467 33.1999C18.4867 33.1999 19.9 32.6799 21.04 31.8199C22.2734 32.7799 23.82 33.3599 25.5 33.3599C29.3867 33.3599 32.5534 30.3066 32.7467 26.4666C34.1267 25.3866 34.9134 23.6466 34.6734 21.7933Z" fill="#1A2C58"/>
<path opacity="0.2" d="M34.6734 21.7933C34.5068 20.5133 33.8801 19.4066 32.9801 18.6133C32.9068 20.1199 32.1801 21.4866 31.0334 22.3866C30.8401 26.2266 27.6734 29.2799 23.7868 29.2799C22.1001 29.2799 20.5601 28.6999 19.3268 27.7399C18.1868 28.5999 16.7734 29.1199 15.2334 29.1199C12.4334 29.1199 10.0268 27.4266 8.98675 25.0066C7.56675 24.8999 6.29342 24.2799 5.34009 23.3399C5.36009 26.3799 7.72009 28.8599 10.7068 29.0866C11.7468 31.5066 14.1534 33.1999 16.9534 33.1999C18.4934 33.1999 19.9068 32.6799 21.0468 31.8199C22.2801 32.7799 23.8268 33.3599 25.5068 33.3599C29.3934 33.3599 32.5601 30.3066 32.7534 26.4666C34.1268 25.3866 34.9134 23.6466 34.6734 21.7933Z" fill="#214389"/>
<path d="M33.2069 48.4267C32.4136 50.1001 30.5669 52.1267 29.4536 53.0134C29.8602 50.9667 31.1736 49.0401 30.9136 46.9067C30.6269 44.5134 28.5869 43.9467 27.9002 41.8401C27.7136 46.0667 23.6336 46.8734 25.4402 50.7867C26.0869 52.1734 27.5069 52.7201 28.6869 52.9201C27.5536 52.8134 25.6469 52.6334 24.8269 52.3201C22.0202 51.2201 19.5402 48.2067 21.4936 44.2867C22.0269 43.2201 22.6669 42.6934 23.7336 41.4334C23.3269 43.2667 24.4402 44.3534 25.5269 44.7801C24.8936 43.0001 25.1469 40.8467 26.0602 39.2134C27.0069 37.5134 28.0536 37.1401 28.3069 34.9934C28.7469 38.4401 30.0136 40.4667 31.9136 42.9934C33.0469 44.5001 34.0936 46.5601 33.2069 48.4267Z" fill="#FF3B30"/>
<path d="M29.4536 53.0136C29.4536 53.0136 28.707 52.9336 28.687 52.9269C27.507 52.7269 26.087 52.1803 25.4403 50.7936C23.627 46.8736 27.7136 46.0669 27.9003 41.8469C28.5803 43.9536 30.6203 44.5136 30.9136 46.9136C31.1736 49.0403 30.3203 51.3269 29.4536 53.0136Z" fill="#FF9500"/>
<path d="M29.747 50.0801C29.6604 50.9867 29.387 51.7267 29.4537 53.0201C28.907 52.7467 27.0004 51.5867 27.3404 50.0801C27.6804 48.6134 28.427 48.1601 28.5404 47.1468C28.587 47.1401 29.887 48.5667 29.747 50.0801Z" fill="#FFCC00"/>
<path d="M26.2932 13.1731C25.0132 17.9664 26.8132 24.5331 30.2399 28.1998C33.6732 31.8664 38.7999 34.8798 39.3799 37.3931C39.9599 39.9064 38.0999 42.5064 36.6265 44.4264C35.1532 46.3464 34.0932 50.4731 37.5065 53.0131C37.4732 51.7331 36.6465 48.7598 39.9665 46.4998C41.5199 45.4398 48.4665 42.5531 50.9799 40.3664C53.4865 38.1798 55.5199 33.1731 54.5332 26.6798C53.5465 20.1931 57.1532 16.2464 58.1999 13.8864C54.9465 13.7731 28.9199 13.7064 26.2932 13.1731Z" fill="#1D61AE"/>
<path d="M30.2467 28.1998C26.82 24.5331 25.02 17.9664 26.3 13.1731C26.82 13.2798 28.2667 13.3664 30.2667 13.4398C28.9534 17.9931 30.0667 24.0864 32.8667 27.8331C35.8734 31.8531 40.64 35.4131 40.94 37.9731C41.24 40.5331 39.1067 42.9131 37.4267 44.6598C36.1334 46.0064 34.94 48.6931 35.9 51.1864C34.5867 48.7931 35.48 45.9264 36.6334 44.4264C38.1067 42.5064 39.9667 39.9064 39.3867 37.3931C38.8067 34.8798 33.6734 31.8664 30.2467 28.1998Z" fill="#214389"/>
<path d="M38.5267 46.0599C39.8734 44.7532 46.2267 40.7065 48.32 38.1199C50.4134 35.5332 51.5534 30.2532 49.4667 24.0265C48.04 19.7799 48.9267 16.3332 49.8334 13.7732C53.9134 13.8132 57.1734 13.8465 58.1934 13.8799C57.1467 16.2399 53.5467 20.1865 54.5267 26.6732C55.5134 33.1599 53.4867 38.1732 50.9734 40.3599C48.4667 42.5465 41.5134 45.4399 39.96 46.4932C36.64 48.7599 37.4667 51.7265 37.5 53.0065C37.3867 52.9199 37.2867 52.8265 37.18 52.7399C36.8734 51.4265 35.7534 48.7532 38.5267 46.0599Z" fill="#214389"/>
<path d="M26.2932 13.1733C26.2799 14.4666 33.6799 15.9399 41.8132 16.0266C49.9532 16.1199 58.1799 15.1799 58.1932 13.8799C58.2066 12.5866 49.9999 11.4333 41.8666 11.3399C33.7332 11.2533 26.3066 11.8799 26.2932 13.1733Z" fill="#1D61AE"/>
<path d="M28.5265 13.5733C28.5132 14.6866 34.8732 15.9533 41.8732 16.0333C48.8665 16.1133 55.9465 15.2999 55.9598 14.1866C55.9665 13.0733 48.9132 12.0799 41.9198 11.9999C34.9198 11.9199 28.5398 12.4599 28.5265 13.5733Z" fill="#1A2C58"/>
<path d="M55.4668 18.9868C55.8468 19.1401 56.1935 19.4668 56.0935 19.8135C56.0135 20.1535 55.7268 20.4468 55.4268 20.6735C54.8135 21.1535 54.0468 21.3802 53.2735 21.5868C51.7135 21.9868 50.1068 22.1735 48.4935 22.2135C47.6868 22.2468 46.8735 22.2335 46.0602 22.2001C45.2468 22.1801 44.4335 22.1068 43.6202 22.0401C41.9935 21.8935 40.3668 21.6735 38.7135 21.4601C40.2668 22.0601 41.8735 22.4935 43.5202 22.7801C45.1602 23.0735 46.8402 23.2135 48.5202 23.1668C50.2002 23.1068 51.8935 22.8668 53.4935 22.2868C53.9002 22.1335 54.2735 22.0001 54.6735 21.7868C55.0602 21.5802 55.4202 21.3268 55.7335 21.0135C56.0268 20.7002 56.3335 20.3201 56.3535 19.8268C56.3668 19.5801 56.2335 19.3402 56.0535 19.2068C55.8802 19.0935 55.6668 19.0268 55.4668 18.9868Z" fill="#F2F9FF"/>
<path d="M25.94 17.5466C25.74 17.6066 25.56 17.76 25.4666 17.9666C25.3733 18.1733 25.36 18.4066 25.38 18.62C25.42 19.06 25.5733 19.4733 25.7666 19.86C25.9666 20.24 26.22 20.6066 26.5 20.9266C26.7733 21.2466 27.08 21.5533 27.4 21.8333C28.04 22.4066 28.7933 22.8533 29.5733 23.2133C30.3533 23.5666 31.1733 23.8133 31.9933 24.0066C33.6466 24.3666 35.3333 24.4733 36.9933 24.4133C38.66 24.36 40.3066 24.1533 41.9266 23.7866C40.2733 23.7533 38.6266 23.7466 37.0066 23.6666C35.38 23.5733 33.7666 23.4266 32.2066 23.0733C30.6466 22.7333 29.1466 22.18 27.8733 21.2533C27.5533 21.02 27.2533 20.76 26.96 20.4933C26.66 20.2266 26.4066 19.94 26.1733 19.62C25.94 19.3 25.7466 18.9533 25.6466 18.58C25.5333 18.22 25.5533 17.7666 25.94 17.5466Z" fill="#F2F9FF"/>
<path d="M54.3598 24.4465C54.7131 24.5865 54.9331 24.8999 54.9531 25.2199C54.9798 25.5399 54.8331 25.8465 54.6131 26.0599C54.3998 26.2732 54.0798 26.4265 53.7664 26.5799C53.4531 26.7332 53.1198 26.8732 52.7864 27.0065C52.1131 27.2599 51.4331 27.4999 50.7398 27.6999C50.0531 27.9132 49.3531 28.1065 48.6531 28.2865C47.2531 28.6532 45.8331 28.9532 44.4065 29.2332C42.9798 29.5065 41.5398 29.7265 40.0731 29.9399C41.5398 30.1265 43.0331 30.1065 44.5065 29.9665C45.9864 29.8399 47.4464 29.5732 48.8931 29.2132C50.3331 28.8332 51.7531 28.3732 53.0998 27.7065C53.4331 27.5399 53.7664 27.3599 54.0931 27.1532C54.4064 26.9399 54.7464 26.7332 55.0064 26.3732C55.2531 26.0265 55.3664 25.5665 55.2398 25.1665C55.1798 24.9665 55.0598 24.7865 54.8998 24.6599C54.7331 24.5265 54.5464 24.4665 54.3598 24.4465Z" fill="#F2F9FF"/>
<path d="M27.3268 23.8066C27.1868 24.2133 27.2468 24.68 27.4068 25.0933C27.5668 25.5066 27.8068 25.88 28.0868 26.2266C28.6534 26.9066 29.3668 27.4533 30.1601 27.86C30.9401 28.28 31.8334 28.5266 32.6934 28.6466C33.5601 28.7666 34.4268 28.7933 35.2868 28.7933C37.0068 28.7666 38.7201 28.5733 40.3934 28.1866C42.0601 27.8066 43.7134 27.2533 45.1668 26.3466C43.5534 26.88 41.9134 27.2066 40.2601 27.44C38.6068 27.6666 36.9401 27.8066 35.2801 27.8266C34.4468 27.8466 33.6201 27.82 32.8068 27.74C31.9934 27.6733 31.2268 27.4866 30.4734 27.18C29.7334 26.8666 29.0268 26.4466 28.4268 25.9C28.1268 25.6333 27.8601 25.32 27.6468 24.9733C27.4401 24.6333 27.2868 24.24 27.3268 23.8066Z" fill="#F2F9FF"/>
<path d="M26.2933 13.1731C26.0799 13.2398 25.9066 13.4198 25.8199 13.6331C25.7333 13.8531 25.7266 14.0931 25.7666 14.3264C25.8466 14.7931 26.0999 15.1998 26.3999 15.5464C26.9999 16.2531 27.8333 16.6998 28.6066 17.1131C30.2199 17.9198 31.9866 18.3731 33.7533 18.5798C35.5333 18.7931 37.3133 18.7731 39.0733 18.6331C40.8333 18.4931 42.5733 18.2198 44.2933 17.8398C42.5333 17.8131 40.7799 17.8598 39.0399 17.8598C37.2999 17.8598 35.5733 17.8264 33.8666 17.6398C32.1599 17.4531 30.4799 17.1064 28.8799 16.4998C28.0666 16.1998 27.2999 15.8398 26.6799 15.2731C26.3733 14.9998 26.1066 14.6664 25.9733 14.2731C25.9133 14.0798 25.8866 13.8664 25.9266 13.6664C25.9733 13.4664 26.0999 13.2731 26.2933 13.1731Z" fill="#F2F9FF"/>
<path d="M57.5067 13.2334C57.7933 13.3934 58.0333 13.6401 58.1067 13.9334C58.18 14.2267 58.0933 14.5267 57.96 14.7934C57.68 15.3401 57.22 15.7934 56.72 16.1734C56.4667 16.3601 56.2133 16.5334 55.9333 16.6801C55.66 16.8201 55.36 16.9401 55.0666 17.0667C54.4733 17.3067 53.86 17.5067 53.24 17.6934C52 18.0601 50.74 18.3734 49.46 18.6134C48.18 18.8734 46.8933 19.0601 45.5667 19.2334C46.88 19.5001 48.24 19.5134 49.5733 19.4001C50.9133 19.2667 52.24 19.0067 53.52 18.5867C54.1666 18.3801 54.7933 18.1267 55.4067 17.8201C56.0133 17.5134 56.6133 17.1267 57.12 16.6467C57.62 16.1667 58.0733 15.6134 58.3 14.9267C58.4066 14.5934 58.4533 14.2001 58.2933 13.8601C58.1467 13.5134 57.8133 13.3267 57.5067 13.2334Z" fill="#F2F9FF"/>
<path d="M34.56 32.1199C34.4066 32.2132 34.2533 32.3399 34.18 32.5332C34.1066 32.7199 34.1333 32.9532 34.2133 33.1399C34.3933 33.5132 34.7 33.7732 35.0133 33.9865C35.66 34.3999 36.3866 34.6265 37.1133 34.7732C38.5733 35.0265 40.0333 35.0132 41.48 34.8999C42.9266 34.7665 44.3533 34.5065 45.74 34.1399C47.1333 33.7732 48.4933 33.3132 49.8133 32.7332C48.3933 32.9465 46.9933 33.2065 45.5933 33.4265C44.1933 33.6465 42.8 33.8465 41.4 33.9532C40.0066 34.0665 38.6 34.1065 37.2266 33.9865C36.5466 33.9265 35.8666 33.7999 35.2533 33.5399C34.9533 33.4065 34.6533 33.2399 34.4666 32.9932C34.3733 32.8732 34.3133 32.7265 34.3333 32.5665C34.3533 32.4065 34.44 32.2532 34.56 32.1199Z" fill="#F2F9FF"/>
<path d="M54.7267 31.7998C55 32.3731 55.08 32.9998 54.8867 33.5331C54.7134 34.0731 54.3134 34.4998 53.8667 34.8531C53.64 35.0331 53.3867 35.1798 53.1334 35.3265C52.8667 35.4731 52.6 35.6131 52.3267 35.7398C51.78 35.9931 51.22 36.2265 50.6467 36.4065C49.5 36.7865 48.3 37.0331 47.08 37.2331C45.86 37.4331 44.62 37.5798 43.3667 37.7865C44.62 37.9798 45.8867 38.0465 47.16 37.9865C48.4334 37.9265 49.7134 37.7198 50.9467 37.3198C51.56 37.1065 52.16 36.8598 52.7334 36.5465C53.02 36.3865 53.3 36.2198 53.5667 36.0398C53.8467 35.8598 54.1067 35.6465 54.3534 35.4131C54.84 34.9465 55.2467 34.3331 55.34 33.6331C55.4334 32.9398 55.1667 32.2531 54.7267 31.7998Z" fill="#F2F9FF"/>
<path d="M39.3732 39.4199C39.1732 39.4333 38.9666 39.4533 38.7666 39.5466C38.5732 39.6333 38.3732 39.8133 38.3332 40.0799C38.2932 40.3333 38.3799 40.5733 38.4999 40.7666C38.6199 40.9599 38.7666 41.1266 38.9266 41.2733C39.2532 41.5599 39.6199 41.7866 40.0132 41.9466C40.2066 42.0266 40.4132 42.0933 40.6132 42.1533C40.7999 42.2133 40.9999 42.2666 41.1932 42.3199C41.9666 42.5333 42.7732 42.6799 43.5866 42.7399C44.3999 42.7866 45.2332 42.7466 46.0132 42.4933C45.1999 42.4066 44.4332 42.2999 43.6599 42.1399C42.8932 41.9999 42.1332 41.8066 41.3599 41.6399C40.9732 41.5399 40.5732 41.4799 40.2332 41.3599C39.8799 41.2333 39.5332 41.0933 39.2332 40.8799C38.9399 40.6799 38.6532 40.3999 38.6266 40.0999C38.6066 39.7999 39.0066 39.5466 39.3732 39.4199Z" fill="#F2F9FF"/>
<path d="M44.4001 44.4001C44.5534 44.4268 44.7001 44.5135 44.7534 44.6268C44.8001 44.7468 44.7401 44.8668 44.6467 44.9535C44.4534 45.1401 44.1667 45.2401 43.8867 45.3201C43.3134 45.4601 42.6934 45.5001 42.0867 45.5201C41.4734 45.5401 40.8601 45.5201 40.2467 45.4935C39.6334 45.4601 39.0134 45.4201 38.3867 45.3535C39.5534 45.8401 40.8334 46.0201 42.1067 45.9935C42.7467 45.9668 43.3867 45.9001 44.0067 45.6668C44.3134 45.5468 44.6201 45.3868 44.8334 45.0935C44.9334 44.9468 44.9867 44.7201 44.8667 44.5535C44.7401 44.4068 44.5534 44.3801 44.4001 44.4001Z" fill="#F2F9FF"/>
<path d="M35.8331 45.88C35.6665 45.8533 35.4665 45.8733 35.2998 46.0133C35.1331 46.1533 35.0865 46.42 35.1531 46.62C35.2665 47.04 35.7065 47.2933 36.0465 47.3533C36.3798 47.4467 36.7131 47.5 37.0598 47.54C37.3998 47.5667 37.7465 47.58 38.0998 47.5267C37.4665 47.2067 36.8131 47.0467 36.1665 46.9C35.9865 46.86 35.8798 46.84 35.7531 46.7667C35.6398 46.7 35.5331 46.6067 35.4731 46.5C35.4065 46.3867 35.3931 46.2667 35.4531 46.1533C35.5198 46.0267 35.6731 45.94 35.8331 45.88Z" fill="#F2F9FF"/>
<path opacity="0.3" d="M56.0599 19.4602C56.0532 19.4602 56.0532 19.4535 56.0466 19.4535C55.9399 19.2535 55.7132 19.0801 55.4666 18.9868C55.6666 19.0268 55.8732 19.0935 56.0532 19.2202C56.2332 19.3535 56.3666 19.5935 56.3532 19.8402C56.3532 19.8668 56.3466 19.8802 56.3399 19.9068C56.3066 19.7202 56.1999 19.5602 56.0599 19.4602Z" fill="white"/>
<path opacity="0.3" d="M27.9997 24.0599C27.9531 24.1932 27.9331 24.3399 27.9331 24.4866C27.9131 24.2599 27.9264 24.0266 27.9997 23.8132C27.9864 23.8932 27.9931 23.9732 27.9997 24.0599Z" fill="white"/>
<path opacity="0.3" d="M54.8932 24.8932C54.8799 24.8799 54.8532 24.8732 54.8332 24.8599C54.7332 24.6799 54.5732 24.5265 54.3599 24.4465C54.5399 24.4665 54.7332 24.5332 54.8932 24.6532C55.0465 24.7799 55.1665 24.9599 55.2332 25.1599C55.2799 25.3065 55.2799 25.4599 55.2732 25.6065C55.2665 25.5399 55.2599 25.4665 55.2399 25.3932C55.1732 25.1999 55.0532 25.0199 54.8932 24.8932Z" fill="white"/>
<path opacity="0.3" d="M26.2732 18.0066C26.2199 18.0666 26.1666 18.1333 26.1332 18.2066C26.0732 18.34 26.0466 18.4866 26.0399 18.6333C26.0399 18.6266 26.0399 18.6266 26.0399 18.62C26.0266 18.4 26.0332 18.1733 26.1266 17.9666C26.2199 17.76 26.3999 17.6066 26.5999 17.5466C26.4132 17.66 26.3132 17.82 26.2732 18.0066Z" fill="white"/>
<path opacity="0.3" d="M44.8598 44.5667C44.9332 44.6667 44.9398 44.7934 44.9132 44.9067C44.8998 44.8734 44.8932 44.8334 44.8665 44.8067C44.8398 44.7667 44.8065 44.7401 44.7732 44.7134C44.7732 44.6867 44.7665 44.66 44.7598 44.6267C44.7065 44.5134 44.5598 44.4267 44.4065 44.4C44.5532 44.38 44.7398 44.4067 44.8598 44.5667Z" fill="white"/>
<path opacity="0.3" d="M54.7266 31.7998C55.1199 32.2065 55.3799 32.8065 55.3532 33.4331C55.3199 32.9798 55.1466 32.5531 54.8866 32.2198C54.8399 32.0798 54.7866 31.9398 54.7266 31.7998Z" fill="white"/>
<path opacity="0.3" d="M38.3332 40.0799C38.3732 39.8199 38.5732 39.6333 38.7665 39.5466C38.9599 39.4533 39.1732 39.4266 39.3732 39.4199C39.1332 39.4999 38.8865 39.6333 38.7465 39.8066C38.5599 39.8933 38.3732 40.0733 38.3399 40.3199C38.3399 40.3266 38.3399 40.3266 38.3399 40.3333C38.3265 40.2533 38.3199 40.1666 38.3332 40.0799Z" fill="white"/>
<path opacity="0.3" d="M35.8332 45.8798C35.6732 45.9398 35.5198 46.0264 35.4532 46.1464C35.4532 46.1531 35.4465 46.1598 35.4465 46.1598C35.3932 46.1798 35.3465 46.2064 35.2998 46.2464C35.2132 46.3198 35.1598 46.4264 35.1398 46.5398C35.0998 46.3531 35.1465 46.1331 35.2998 46.0064C35.4665 45.8731 35.6665 45.8598 35.8332 45.8798Z" fill="white"/>
<path opacity="0.3" d="M35.2267 32.1201C35.1134 32.2468 35.0334 32.3868 35.0067 32.5334C34.94 32.6001 34.8867 32.6801 34.8467 32.7735C34.8267 32.8201 34.82 32.8601 34.8134 32.9068C34.7934 32.7801 34.8 32.6468 34.8467 32.5334C34.9267 32.3401 35.08 32.2068 35.2267 32.1201Z" fill="white"/>
<path opacity="0.3" d="M58.3 14.0999C58.24 13.9599 58.14 13.8466 58.04 13.7532C57.9334 13.5399 57.74 13.3532 57.5067 13.2266C57.8134 13.3199 58.1467 13.5132 58.3 13.8599C58.3867 14.0532 58.4067 14.2666 58.3934 14.4732C58.38 14.3466 58.3534 14.2199 58.3 14.0999Z" fill="white"/>
<path opacity="0.3" d="M26.5999 13.6665C26.5999 13.6732 26.5999 13.6798 26.5999 13.6865C26.5599 13.7398 26.5199 13.8065 26.4932 13.8665C26.4466 13.9732 26.4266 14.0798 26.4199 14.1932C26.3999 13.9998 26.4132 13.8065 26.4866 13.6265C26.5732 13.4065 26.7465 13.2265 26.9599 13.1665C26.7665 13.2732 26.6399 13.4665 26.5999 13.6665Z" fill="white"/>
</g>
<defs>
<filter id="filter0_i" x="6.3999" y="0" width="51.2" height="64" filterUnits="userSpaceOnUse" color-interpolation-filters="sRGB">
<feFlood flood-opacity="0" result="BackgroundImageFix"/>
<feBlend mode="normal" in="SourceGraphic" in2="BackgroundImageFix" result="shape"/>
<feColorMatrix in="SourceAlpha" type="matrix" values="0 0 0 0 0 0 0 0 0 0 0 0 0 0 0 0 0 0 127 0" result="hardAlpha"/>
<feOffset/>
<feGaussianBlur stdDeviation="4"/>
<feComposite in2="hardAlpha" operator="arithmetic" k2="-1" k3="1"/>
<feColorMatrix type="matrix" values="0 0 0 0 0.164706 0 0 0 0 0.67451 0 0 0 0 0.494118 0 0 0 0.2 0"/>
<feBlend mode="normal" in2="shape" result="effect1_innerShadow"/>
</filter>
<clipPath id="clip0">
<rect width="53.3333" height="53.3333" fill="white" transform="translate(5.33337 5.33325)"/>
</clipPath>
</defs>
</svg>
