<svg width="64" height="64" viewBox="0 0 64 64" fill="none" xmlns="http://www.w3.org/2000/svg">
<g filter="url(#filter0_i)">
<path fill-rule="evenodd" clip-rule="evenodd" d="M33.3228 0.486094C33.4347 0.582469 44.7307 10.2026 55.6307 10.2026C56.7182 10.2026 57.5999 11.0421 57.5999 12.0776V34.5324C57.5999 49.9319 47.6886 58.4292 32.7023 63.8768C32.4761 63.9589 32.238 64 31.9999 64C31.7618 64 31.5237 63.959 31.2975 63.8768C20.6093 59.9916 6.3999 52.7229 6.3999 34.5324V12.0776C6.3999 11.0421 7.28159 10.2026 8.36913 10.2026C19.2981 10.2026 30.5645 0.583219 30.677 0.486094C31.4276 -0.162031 32.572 -0.162031 33.3228 0.486094Z" fill="#F2FFF5"/>
</g>
<g clip-path="url(#clip0)">
<path d="M48.6658 35.7454L15.6456 29.8153C15.1033 29.7179 14.7449 29.2026 14.8423 28.6603L18.1374 10.3124C18.2348 9.7701 18.7501 9.41171 19.2924 9.5091L52.3126 15.4392C52.8549 15.5366 53.2133 16.0519 53.1159 16.5942L49.8181 34.9572C49.7084 35.4817 49.2081 35.8428 48.6658 35.7454Z" fill="#1D61AE"/>
<path d="M25.4944 19.6415L21.2313 18.8759C20.8999 18.8164 20.6775 18.4966 20.737 18.1652L21.5053 13.887C21.5648 13.5556 21.8847 13.3331 22.2161 13.3926L26.4792 14.1582C26.8106 14.2178 27.033 14.5376 26.9735 14.869L26.2079 19.1321C26.1457 19.4786 25.8259 19.701 25.4944 19.6415Z" fill="#F7C23E"/>
<path d="M24.4787 13.798L24.1925 13.7466L23.2078 19.2299L23.494 19.2813L24.4787 13.798Z" fill="#007AFF"/>
<path d="M26.7869 15.923L21.3036 14.9382L21.2522 15.2245L26.7355 16.2092L26.7869 15.923Z" fill="#007AFF"/>
<path d="M23.691 17.404L20.9493 16.9116L20.8979 17.1978L23.6396 17.6902L23.691 17.404Z" fill="#007AFF"/>
<path d="M58.6667 27.3717L54.0788 34.6274L44.8568 49.1387L43.9024 50.6565L43.2585 51.6684L42.7756 52.4273L41.5567 51.6684L39.9814 50.6565L37.5782 49.1387L33.8411 46.77L32.4382 45.8731L31.9668 45.5741L31.5068 45.2751L31.4838 45.2636L30.9204 44.9187L32.6567 42.1935L33.3696 41.0666L34.4505 39.3533L39.1995 31.8677L46.8231 19.863L58.6667 27.3717Z" fill="#2AAC7E"/>
<path d="M47.4326 21.738L41.2578 31.4544C41.6602 31.3509 42.0972 31.2934 42.5456 31.2934L46.9381 24.3827L47.8235 22.9799L49.5138 24.0493L53.7338 26.7285L55.4242 27.7978L54.5388 29.2007L51.4341 34.0991L50.1463 36.1229C50.3417 36.5369 50.4912 36.9623 50.5602 37.3533L52.6415 34.0761L56.7235 27.6484L47.4326 21.738ZM47.0416 40.9868L42.6491 47.8976L41.8672 49.1279L41.7637 49.2889L41.4992 49.1279L40.0849 48.231L36.3593 45.8738L35.8534 45.5518L34.416 44.6434L34.1746 44.4939L34.3126 44.287L35.06 43.0911L35.4049 42.5622L39.4525 36.1689C39.257 35.7549 39.119 35.341 39.05 34.9385L35.037 41.2858L33.9446 42.9991L33.5881 43.5626L33.2202 44.1375L32.8867 44.6664L33.1167 44.8159L33.5881 45.1149L34.0481 45.4023L35.4624 46.2992L39.9354 49.1394L42.1777 50.5538L43.0746 49.1394L48.3295 40.8374C47.9385 40.9524 47.5016 40.9983 47.0416 40.9868Z" fill="#34C759"/>
<path d="M46.5932 33.3168C49.0424 34.8691 50.2153 37.3873 49.2264 38.9511C48.2375 40.5149 45.4548 40.5264 43.0056 38.9741C40.5564 37.4218 39.3835 34.9036 40.3724 33.3398C41.3613 31.7759 44.144 31.7644 46.5932 33.3168Z" fill="#34C759"/>
<path d="M47.6281 22.3467L49.7784 23.715C49.1574 24.7039 47.6856 24.8879 46.4897 24.1405L47.6281 22.3467Z" fill="#34C759"/>
<path d="M53.9175 26.3369L56.0678 27.7053L54.9409 29.4876C53.745 28.7401 53.2966 27.3258 53.9175 26.3369Z" fill="#34C759"/>
<path d="M34.6575 42.7913C35.8419 43.5387 36.3018 44.953 35.6809 45.9419L33.5306 44.5736L34.6575 42.7913Z" fill="#34C759"/>
<path d="M43.0972 48.1499L41.9588 49.9322L39.8086 48.5638C40.441 47.5864 41.9129 47.391 43.0972 48.1499Z" fill="#34C759"/>
<path d="M43.14 46.5622L42.2468 46.4963L40.7119 46.3803L30.3776 45.6101L30.5461 43.4568L30.5937 42.7023L30.6425 42.0042L30.7243 41.0386L31.0441 36.6585L31.4286 31.5974L31.5262 30.1116L31.7081 27.8627L31.7313 27.4124L32.388 18.6363L45.1504 19.5884L44.3485 30.4257L43.6038 40.2435L43.4769 42.0766L43.3829 43.2838L43.1485 46.4198L43.14 46.5622Z" fill="#2AAC7E"/>
<path d="M43.0472 29.1768L43.6856 20.6288L33.6789 19.8806L33.1272 27.42L32.9563 29.729L32.9075 30.3376C32.997 30.248 33.1062 30.1657 33.2018 30.0896C33.4067 29.9313 33.6275 29.7901 33.8777 29.66L34.0498 27.4074L34.4294 22.2101L34.5442 20.7084L36.3637 20.8414L40.9217 21.1943L42.7314 21.3236L42.6203 22.8155L42.6166 22.8254L42.2126 28.3269L42.0649 30.2752C42.4073 30.5266 42.6994 30.7927 42.924 31.0895L43.0472 29.1768ZM41.8827 44.7476L41.9084 44.4102L41.9572 43.8016L42.006 43.1931L42.1427 41.3637L42.6298 34.8635C42.3649 35.1225 42.0251 35.3422 41.6559 35.551L41.1738 42.0978L41.0944 42.9971L41.0236 43.9333L40.9833 44.4891L40.722 44.4695L39.1969 44.3572L39.1736 44.3597L34.6217 44.0204L32.8022 43.8873L32.9207 42.3757L32.9671 41.8334L33.0733 40.3845L33.1416 39.425L33.4687 34.9357C33.1361 34.688 32.8477 34.4121 32.6132 34.1116L32.1628 40.0658L32.0945 41.0253L31.9883 42.4743L31.8283 44.5747L39.7874 45.1717L41.3161 45.2741L41.8388 45.3132L41.8827 44.7476Z" fill="#34C759"/>
<path d="M37.9917 29.5555C40.6283 29.7483 42.6521 31.2787 42.5276 32.9559C42.4031 34.6331 40.1694 35.8449 37.5364 35.6422C34.8997 35.4494 32.876 33.919 33.0005 32.2418C33.125 30.5646 35.3551 29.3626 37.9917 29.5555Z" fill="#34C759"/>
<path d="M34.1146 20.3017L36.4334 20.4763C36.3516 21.5314 35.2514 22.3171 33.9742 22.2304L34.1146 20.3017Z" fill="#34C759"/>
<path d="M40.8797 20.7986L43.1986 20.9731L43.0582 22.9018C41.7749 22.8017 40.804 21.8672 40.8797 20.7986Z" fill="#34C759"/>
<path d="M32.469 42.2969C33.7425 42.3934 34.7232 43.3316 34.6377 44.3965L32.3188 44.222L32.469 42.2969Z" fill="#34C759"/>
<path d="M41.5594 42.9814L41.4093 44.9064L39.0904 44.7319C39.1759 43.6669 40.2761 42.8813 41.5594 42.9814Z" fill="#34C759"/>
<path d="M36.2725 50.6687H11.5343V54.9965H36.2725V50.6687Z" fill="#FF9500"/>
<path d="M36.2899 50.6697C36.2899 50.6886 36.2899 50.6886 36.271 50.7075C36.1765 51.0476 34.419 51.35 31.6976 51.5579C29.562 51.728 26.8785 51.8036 23.9303 51.8036C17.089 51.8036 11.5518 51.2933 11.5518 50.6697C11.5518 50.613 11.5896 50.5941 11.6463 50.5374C11.7407 50.4618 11.9486 50.3862 12.2321 50.2917C12.9125 50.1027 14.0464 49.9515 15.5393 49.8381C15.7094 49.8192 15.8795 49.8003 16.0496 49.7814C16.5221 49.7436 17.0323 49.7058 17.5804 49.6869C17.8072 49.6869 18.0151 49.668 18.2607 49.6491H18.393C18.8277 49.6302 19.319 49.6113 19.7915 49.5924C20.0183 49.5735 20.2451 49.5736 20.4719 49.5736C20.9632 49.5547 21.4735 49.5357 22.0026 49.5357C22.2294 49.5357 22.4562 49.5168 22.683 49.5357C23.0988 49.5168 23.5145 49.5168 23.9492 49.5168H24.913C25.4233 49.5168 25.9335 49.5357 26.4438 49.5357C26.6706 49.5546 26.8974 49.5547 27.1241 49.5547C27.6533 49.5735 28.1636 49.5924 28.6549 49.6113C28.9006 49.6113 29.1085 49.6302 29.3353 49.6491H29.4676C29.9022 49.668 30.318 49.6869 30.7338 49.7247C31.7543 49.8003 32.6614 49.857 33.4362 49.9704C33.663 49.9893 33.8709 50.0082 34.041 50.046C35.4584 50.2161 36.2899 50.424 36.2899 50.6697Z" fill="#FFCC00"/>
<path d="M23.9122 51.2934C18.4883 51.2934 14.5953 50.9911 12.8755 50.6698C14.5953 50.3485 18.4883 50.0461 23.9122 50.0461C29.3361 50.0461 33.2292 50.3485 34.949 50.6698C33.2103 50.9911 29.3172 51.2934 23.9122 51.2934Z" fill="#FF9500"/>
<path d="M23.9122 50.3676C28.4101 50.3676 31.8307 50.5755 33.8528 50.84C34.2686 50.7833 34.6466 50.7266 34.949 50.6888C33.2292 50.3676 29.3361 50.0652 23.9122 50.0652C18.4883 50.0652 14.5953 50.3676 12.8755 50.6888C13.1779 50.7455 13.5558 50.8022 13.9716 50.84C15.9937 50.5755 19.4144 50.3676 23.9122 50.3676Z" fill="black" fill-opacity="0.1"/>
<path d="M36.2725 54.9967C36.2725 55.129 35.989 55.2613 35.4787 55.4125C33.7023 55.8471 29.2044 56.1495 23.9128 56.1495C17.0905 56.1495 11.5343 55.6393 11.5343 55.0156C11.5343 54.8644 11.8745 54.7132 12.4981 54.5809C12.706 54.5431 12.9139 54.4864 13.1785 54.4675C13.6131 54.392 14.1234 54.3353 14.7093 54.2786C14.936 54.2408 15.1439 54.2219 15.3896 54.203C15.8621 54.1463 16.3723 54.1274 16.9204 54.0707C17.1472 54.0707 17.355 54.0518 17.6007 54.0329C18.0921 54.014 18.6023 53.9762 19.1315 53.9573C19.3583 53.9573 19.5662 53.9384 19.8119 53.9384C20.3032 53.9195 20.8135 53.9006 21.3426 53.8817H22.023C22.5143 53.8628 23.0246 53.8628 23.5538 53.8628H24.2341C24.7633 53.8628 25.2735 53.8628 25.7649 53.8817H26.4452C26.9744 53.9006 27.4846 53.9195 27.9949 53.9384C28.2406 53.9384 28.4485 53.9573 28.6752 53.9573C29.2044 53.9762 29.7147 54.014 30.206 54.0329C30.4517 54.0518 30.6596 54.0707 30.8864 54.0707C31.4344 54.1274 31.9447 54.1652 32.4172 54.203C32.6439 54.2219 32.8707 54.2408 33.0975 54.2786C33.4566 54.3164 33.7967 54.3542 34.0991 54.3919C34.2881 54.4108 34.4582 54.4297 34.6094 54.4675C34.874 54.5053 35.0818 54.562 35.2897 54.5809C35.9323 54.6943 36.2725 54.8455 36.2725 54.9967Z" fill="#FF9500"/>
<path d="M13.1777 51.709H12.4973V54.7138H13.1777V51.709Z" fill="#FFCC00"/>
<path d="M15.3892 51.9741H14.7089V54.979H15.3892V51.9741Z" fill="#FFCC00"/>
<path d="M17.5997 52.1633H16.9193V55.1682H17.5997V52.1633Z" fill="#FFCC00"/>
<path d="M19.8107 52.314H19.1304V55.3188H19.8107V52.314Z" fill="#FFCC00"/>
<path d="M22.0228 52.3899H21.3424V55.3947H22.0228V52.3899Z" fill="#FFCC00"/>
<path d="M24.2332 52.4272H23.5529V55.4321H24.2332V52.4272Z" fill="#FFCC00"/>
<path d="M26.4635 52.3899H25.7832V55.3947H26.4635V52.3899Z" fill="#FFCC00"/>
<path d="M28.6757 52.314H27.9954V55.3188H28.6757V52.314Z" fill="#FFCC00"/>
<path d="M30.886 52.1633H30.2057V55.1682H30.886V52.1633Z" fill="#FFCC00"/>
<path d="M33.0969 51.9741H32.4165V54.979H33.0969V51.9741Z" fill="#FFCC00"/>
<path d="M35.3079 51.7097H34.6276V54.7146H35.3079V51.7097Z" fill="#FFCC00"/>
<path d="M34.703 49.6489C34.703 49.6489 34.2494 49.7623 33.4179 49.9513C32.9265 50.0457 32.3029 50.178 31.5658 50.2914C31.1312 50.3859 30.6965 50.4426 30.2051 50.5182C30.2051 50.5182 30.2051 50.5182 30.1862 50.5182C30.1107 50.5371 30.0351 50.5371 29.9595 50.556C29.6949 50.5938 29.3925 50.6316 29.0901 50.6694C27.1436 50.8962 24.8191 51.1041 22.3245 51.1041C19.1684 51.1041 16.2769 50.9907 14.0658 50.8017C13.8957 50.8017 13.7256 50.7828 13.5556 50.7639C13.5367 50.7639 13.5367 50.7639 13.5178 50.7639C13.4044 50.7639 13.2721 50.745 13.1587 50.7261C12.9697 50.7072 12.7807 50.6883 12.6106 50.6505C12.2327 50.6127 11.8925 50.556 11.5901 50.5182C11.6846 50.4237 11.8925 50.367 12.1949 50.2725C11.0987 50.1402 10.3617 49.9702 10.0593 49.7812C10.1349 49.7245 10.2672 49.6867 10.4373 49.63C10.9665 49.4599 11.8925 49.3276 13.102 49.1953C13.3288 49.1575 13.5367 49.1386 13.7823 49.1197C14.2548 49.063 14.7651 49.0441 15.3131 49.0063C15.5399 48.9874 15.7478 48.9685 15.9935 48.9685C16.4848 48.9307 16.9951 48.9118 17.5242 48.8929C17.751 48.874 17.9589 48.8551 18.2046 48.8551C18.6959 48.8362 19.2062 48.8173 19.7354 48.7984H20.4157C20.9071 48.7795 21.4173 48.7795 21.9465 48.7795H22.6268C23.156 48.7795 23.6852 48.7984 24.1765 48.8173C24.4222 48.7984 24.6301 48.8173 24.8569 48.8173C25.386 48.8362 25.8963 48.8551 26.3876 48.874C26.6333 48.8929 26.8412 48.9118 27.068 48.9307C27.5972 48.9496 28.1074 48.9874 28.5988 49.0063C28.8256 49.0252 29.0523 49.0441 29.2791 49.0441C29.8272 49.1008 30.3374 49.1197 30.8099 49.1764C31.0556 49.1953 31.2635 49.2142 31.4902 49.2331C33.5124 49.4788 34.703 49.6489 34.703 49.6489Z" fill="black" fill-opacity="0.1"/>
<path d="M34.7026 45.321V49.6488H9.94556V45.321H11.1929C11.2307 45.321 11.2685 45.3399 11.2874 45.321H34.7026Z" fill="#FF9500"/>
<path d="M34.7029 45.3215C34.7029 45.9452 29.1467 46.4554 22.3243 46.4554C16.1823 46.4554 11.0986 46.0396 10.1159 45.4916C10.0025 45.4349 9.9458 45.3971 9.9458 45.3215C9.9458 45.2648 9.9836 45.227 10.0592 45.1892C10.3805 44.9624 11.3443 44.7545 12.7617 44.6034C13.0641 44.5467 13.3853 44.5278 13.7255 44.5089C13.9523 44.49 14.1602 44.4711 14.4058 44.4333C14.8783 44.3955 15.3886 44.3577 15.9366 44.3388C16.1634 44.3388 16.3713 44.3199 16.617 44.301C17.1083 44.2821 17.6186 44.2632 18.1667 44.2443C18.3934 44.2254 18.6202 44.2254 18.847 44.2254C19.3384 44.2065 19.8486 44.1876 20.3778 44.1876C20.6046 44.1876 20.8313 44.1687 21.0581 44.1876C21.4739 44.1687 21.8897 44.1687 22.3243 44.1687H23.2693C23.7984 44.1687 24.3087 44.1876 24.8 44.1876C25.0457 44.2065 25.2536 44.2065 25.4804 44.2065C26.0095 44.2254 26.5198 44.2443 27.0112 44.2632C27.2568 44.2632 27.4647 44.2821 27.6915 44.301C28.2207 44.3199 28.7309 44.3577 29.2223 44.3766C29.468 44.3955 29.6758 44.4144 29.9026 44.4333C30.6208 44.49 31.2822 44.5467 31.8681 44.6223C32.1516 44.6601 32.4539 44.6979 32.6807 44.7168C32.7941 44.7357 32.8886 44.7357 32.9831 44.7546C34.0792 44.9246 34.7029 45.1325 34.7029 45.3215Z" fill="#FFCC00"/>
<path d="M22.3238 45.9636C16.9 45.9636 13.0069 45.6423 11.2871 45.3399C13.0069 45.0187 16.9 44.7163 22.3238 44.7163C27.7477 44.7163 31.6408 45.0376 33.3606 45.3399C31.6219 45.6423 27.7477 45.9636 22.3238 45.9636Z" fill="#FF9500"/>
<path d="M22.3238 45.0187C26.8217 45.0187 30.2423 45.2266 32.2645 45.4911C32.6802 45.4344 33.0582 45.3966 33.3606 45.34C31.6408 45.0187 27.7477 44.7163 22.3238 44.7163C16.9 44.7163 13.0069 45.0376 11.2871 45.34C11.5895 45.3966 11.9675 45.4533 12.3832 45.4911C14.4054 45.2266 17.826 45.0187 22.3238 45.0187Z" fill="black" fill-opacity="0.1"/>
<path d="M34.7025 49.6485C34.7025 49.7619 34.4568 49.9131 34.0222 50.0265C33.5875 50.1399 32.9261 50.2533 32.1134 50.3478H32.0567C31.7354 50.3856 31.3953 50.4234 31.0551 50.4423C30.8094 50.4801 30.5637 50.499 30.2803 50.5179C30.1858 50.5179 30.0724 50.5178 29.959 50.5367C29.3164 50.5934 28.6172 50.6123 27.8613 50.6501C26.1982 50.7446 24.3272 50.7635 22.324 50.7635C20.3396 50.7635 18.4498 50.7257 16.7867 50.6501C16.5221 50.6312 16.2576 50.6312 16.0119 50.6123C15.3315 50.5556 14.689 50.5367 14.0842 50.48H14.0653C13.3661 50.4234 12.7613 50.3667 12.2133 50.2722C11.1172 50.1399 10.3801 49.9698 10.0966 49.7808C10.0022 49.743 9.96436 49.6863 9.96436 49.6296C9.96436 49.4784 10.3045 49.3272 10.9282 49.1949C11.1361 49.1571 11.3439 49.1194 11.6085 49.0816H11.6274C12.0432 49.006 12.5535 48.9493 13.1393 48.8926C13.3661 48.8548 13.574 48.8359 13.8197 48.817C14.2921 48.7603 14.8024 48.7225 15.3504 48.6847C15.5772 48.6847 15.7851 48.6658 16.0308 48.6469C16.5221 48.628 17.0324 48.5902 17.5616 48.5713C17.7883 48.5713 17.9962 48.5524 18.2419 48.5524C18.7333 48.5335 19.2435 48.5146 19.7727 48.4957H20.453C20.9444 48.4768 21.4547 48.4768 21.9838 48.4768H22.6642C23.1933 48.4768 23.6847 48.4768 24.1949 48.4957H24.8942C25.4233 48.5146 25.9336 48.5335 26.425 48.5524C26.6706 48.5524 26.8785 48.5713 27.1053 48.5713C27.6345 48.5902 28.1447 48.628 28.6361 48.6469C28.8818 48.6658 29.0897 48.6847 29.3164 48.6847C29.6755 48.7225 30.0157 48.7414 30.337 48.7603C30.507 48.7792 30.6771 48.7981 30.8472 48.817C31.0929 48.8359 31.3008 48.8548 31.5276 48.8926C32.1134 48.9493 32.6237 49.006 33.0394 49.0816C33.304 49.1194 33.5119 49.176 33.7198 49.1949H33.7387C34.3623 49.3461 34.7025 49.4973 34.7025 49.6485Z" fill="#FF9500"/>
<path d="M11.6095 46.3625H10.9292V49.3674H11.6095V46.3625Z" fill="#FFCC00"/>
<path d="M13.801 46.6255H13.1206V49.6304H13.801V46.6255Z" fill="#FFCC00"/>
<path d="M16.0131 46.8325H15.3328V49.8374H16.0131V46.8325Z" fill="#FFCC00"/>
<path d="M18.2236 46.9653H17.5432V49.9702H18.2236V46.9653Z" fill="#FFCC00"/>
<path d="M20.4539 47.0598H19.7736V50.0647H20.4539V47.0598Z" fill="#FFCC00"/>
<path d="M22.6651 47.0784H21.9847V50.0832H22.6651V47.0784Z" fill="#FFCC00"/>
<path d="M24.8764 47.0598H24.196V50.0647H24.8764V47.0598Z" fill="#FFCC00"/>
<path d="M27.0873 46.9653H26.407V49.9702H27.0873V46.9653Z" fill="#FFCC00"/>
<path d="M29.2979 46.8325H28.6176V49.8374H29.2979V46.8325Z" fill="#FFCC00"/>
<path d="M31.5087 46.6255H30.8284V49.6304H31.5087V46.6255Z" fill="#FFCC00"/>
<path d="M33.7204 46.3606H33.04V49.3655H33.7204V46.3606Z" fill="#FFCC00"/>
<path d="M33.0967 44.6236C33.0967 44.6236 32.9644 44.6614 32.6809 44.7181C32.3408 44.7748 31.7927 44.926 31.0746 45.0583C30.7155 45.1339 30.2997 45.1906 29.8651 45.2662C29.7517 45.304 29.6194 45.3229 29.4682 45.3418C29.1091 45.3985 28.7311 45.4552 28.3532 45.5119C27.087 45.7008 25.6507 45.852 24.0821 45.9465C23.0049 46.041 21.8899 46.0599 20.7371 46.0599C16.2203 46.0599 12.2705 45.8331 10.1161 45.493C10.0594 45.493 10.0027 45.4741 9.94603 45.4741V45.3229C9.94603 45.2662 9.98383 45.2284 10.0594 45.1906C9.28458 45.0583 8.73653 44.926 8.49084 44.7559C8.56644 44.6803 8.69873 44.6425 8.86881 44.6047C9.39797 44.4346 10.324 44.3023 11.5335 44.1889C11.7603 44.1512 11.9682 44.1323 12.2139 44.1134C12.6863 44.0567 13.1966 44.0189 13.7446 44C13.9714 43.9811 14.1793 43.9622 14.425 43.9622C14.9163 43.9244 15.4266 43.9055 15.9558 43.8866C16.1825 43.8677 16.3904 43.8488 16.6361 43.8488C17.1464 43.8299 17.6566 43.811 18.1858 43.7921H18.8661C19.3575 43.7732 19.8677 43.7732 20.3969 43.7732H21.0773C21.6064 43.7732 22.1167 43.7921 22.608 43.811C22.8537 43.7921 23.0616 43.811 23.2884 43.811C23.8175 43.8299 24.3278 43.8488 24.8192 43.8677C25.0648 43.8866 25.2727 43.9055 25.4995 43.9244C26.0287 43.9433 26.5389 43.9811 27.0303 44.0189C27.276 44.0378 27.4839 44.0567 27.7106 44.0567C28.2587 44.1134 28.7689 44.1323 29.2414 44.1889C29.4871 44.2078 29.695 44.2268 29.9218 44.2457C31.9061 44.4535 33.0967 44.6236 33.0967 44.6236Z" fill="black" fill-opacity="0.1"/>
<path d="M33.0967 40.2954H8.35852V44.6232H33.0967V40.2954Z" fill="#FF9500"/>
<path d="M33.0975 40.2955C33.0975 40.9002 27.5413 41.4105 20.719 41.4105C13.8777 41.4105 8.34045 40.9002 8.34045 40.2955C8.34045 40.0687 9.0397 39.8608 10.2303 39.6907C10.4193 39.6529 10.6272 39.634 10.8162 39.6151C11.3642 39.5396 11.969 39.4829 12.6493 39.4262C12.7816 39.4262 12.9139 39.4073 13.0462 39.3884C13.273 39.3695 13.4809 39.3506 13.7265 39.3317C14.199 39.3128 14.7093 39.275 15.2384 39.2561C15.4652 39.2372 15.6731 39.2372 15.9188 39.2183C16.4101 39.1994 16.9204 39.1805 17.4684 39.1616C17.6952 39.1616 17.922 39.1616 18.1488 39.1427C18.659 39.1427 19.1693 39.1238 19.6796 39.1238H21.8907C22.1175 39.1238 22.3443 39.1427 22.571 39.1427C23.1002 39.1427 23.6105 39.1616 24.1018 39.1805C24.3475 39.1805 24.5554 39.1805 24.7822 39.1994C25.3113 39.2183 25.8216 39.2372 26.3129 39.2561C26.5397 39.275 26.7665 39.2939 26.9933 39.2939C27.5413 39.3317 28.0516 39.3695 28.5241 39.3884C28.5997 39.4073 28.6564 39.4073 28.732 39.4073C28.902 39.4262 29.0532 39.4451 29.2044 39.464C30.8675 39.5962 32.1148 39.7852 32.7006 40.012C32.9652 40.1065 33.0975 40.201 33.0975 40.2955Z" fill="#FFCC00"/>
<path d="M20.7184 40.9189C15.2945 40.9189 11.4014 40.5977 9.68164 40.2953C11.4014 39.974 15.2945 39.6716 20.7184 39.6716C26.1422 39.6716 30.0353 39.974 31.7551 40.2953C30.0353 40.5977 26.1422 40.9189 20.7184 40.9189Z" fill="#FF9500"/>
<path d="M20.7184 39.974C25.2162 39.974 28.6369 40.1819 30.659 40.4465C31.0748 40.3898 31.4527 40.3331 31.7551 40.2953C30.0353 39.974 26.1422 39.6716 20.7184 39.6716C15.2945 39.6716 11.4014 39.974 9.68164 40.2953C9.98402 40.352 10.3431 40.4087 10.7778 40.4465C12.8188 40.2008 16.2205 39.974 20.7184 39.974Z" fill="black" fill-opacity="0.1"/>
<path d="M33.097 44.623C33.097 44.6797 33.0592 44.7175 33.0025 44.7553C32.8135 44.8876 32.3977 45.0199 31.793 45.1333C31.4339 45.2089 30.9992 45.2467 30.5079 45.3223H30.4512C30.3945 45.3412 30.3378 45.3412 30.2811 45.3412C29.6952 45.4168 29.0527 45.4546 28.3534 45.5113C26.2368 45.6624 23.591 45.7569 20.7373 45.7569C17.6002 45.7569 14.7465 45.6624 12.5921 45.4924C12.3086 45.4735 12.0251 45.4357 11.7983 45.4168C11.6661 45.3979 11.5527 45.379 11.4393 45.3601C11.3448 45.3601 11.2881 45.3601 11.2125 45.3412C10.7967 45.3034 10.4187 45.2656 10.0975 45.2089C9.32263 45.0766 8.77458 44.9443 8.5289 44.7742C8.4344 44.7364 8.39661 44.6797 8.39661 44.623C8.39661 44.4718 8.73678 44.3206 9.36043 44.1884C9.56831 44.1506 9.7762 44.0939 10.0408 44.075C10.4565 43.9994 10.9857 43.9427 11.5527 43.886C11.7794 43.8482 11.9873 43.8293 12.233 43.8104C12.7055 43.7537 13.2157 43.7159 13.7638 43.6781C13.9906 43.6781 14.1985 43.6592 14.4441 43.6403C14.9355 43.6214 15.4458 43.5836 15.9749 43.5647C16.2017 43.5647 16.4096 43.5458 16.6553 43.5458C17.1655 43.5269 17.6758 43.508 18.2049 43.4891H18.8853C19.3766 43.4702 19.8869 43.4702 20.4161 43.4702H21.0964C21.6256 43.4702 22.1358 43.4702 22.6272 43.4891H23.3075C23.8367 43.508 24.347 43.5269 24.8383 43.5458C25.084 43.5458 25.2919 43.5647 25.5187 43.5647C26.0478 43.5836 26.5581 43.6214 27.0494 43.6403C27.2951 43.6592 27.503 43.6781 27.7298 43.6781C28.2778 43.7348 28.7881 43.7726 29.2606 43.8104C29.5063 43.8293 29.7141 43.8482 29.9409 43.886C30.5268 43.9427 31.037 43.9994 31.4717 44.075C31.7174 44.1128 31.9442 44.1506 32.152 44.1884C32.7568 44.3017 33.097 44.4718 33.097 44.623Z" fill="#FF9500"/>
<path d="M10.0031 41.3154H9.32275V44.3203H10.0031V41.3154Z" fill="#FFCC00"/>
<path d="M12.2142 41.5815H11.5338V44.5864H12.2142V41.5815Z" fill="#FFCC00"/>
<path d="M14.4255 41.7705H13.7451V44.7754H14.4255V41.7705Z" fill="#FFCC00"/>
<path d="M16.6366 41.9204H15.9563V44.9253H16.6366V41.9204Z" fill="#FFCC00"/>
<path d="M18.8484 42.0156H18.1681V45.0205H18.8484V42.0156Z" fill="#FFCC00"/>
<path d="M21.0589 42.0337H20.3785V45.0386H21.0589V42.0337Z" fill="#FFCC00"/>
<path d="M23.2884 42.0156H22.608V45.0205H23.2884V42.0156Z" fill="#FFCC00"/>
<path d="M25.5005 41.9204H24.8202V44.9253H25.5005V41.9204Z" fill="#FFCC00"/>
<path d="M27.7116 41.7705H27.0312V44.7754H27.7116V41.7705Z" fill="#FFCC00"/>
<path d="M29.9222 41.5815H29.2418V44.5864H29.9222V41.5815Z" fill="#FFCC00"/>
<path d="M32.1333 41.3159H31.453V44.3208H32.1333V41.3159Z" fill="#FFCC00"/>
<path d="M33.0969 40.2945C31.1881 40.6158 27.6919 40.8426 23.6098 40.8804C23.1752 40.8993 22.7216 40.8993 22.268 40.8993C19.2821 40.8993 16.5985 40.6347 14.4819 40.3134C14.4441 40.3323 14.4063 40.3323 14.3685 40.3134C14.1417 40.2756 13.9338 40.2378 13.7259 40.2189C13.2724 40.1244 12.8377 40.0677 12.4408 39.9732C11.7794 39.8599 11.2313 39.7276 10.8155 39.6331C10.2675 39.5386 9.98401 39.4441 9.98401 39.4441C9.98401 39.4441 11.1368 39.274 13.0456 39.085C13.2724 39.0661 13.4802 39.0283 13.7259 39.0094C14.1795 38.9716 14.6897 38.9338 15.2378 38.896C15.4646 38.8771 15.6725 38.8582 15.9181 38.8393C16.4095 38.8015 16.9198 38.7637 17.4678 38.7448C17.6946 38.7448 17.9025 38.7259 18.1482 38.707C18.6395 38.6881 19.1498 38.6692 19.6789 38.6503C19.9057 38.6503 20.1136 38.6314 20.3593 38.6503C20.8507 38.6314 21.3609 38.6125 21.8901 38.6125H22.5704C23.0996 38.6125 23.6098 38.6125 24.1012 38.6314H24.7815C25.3107 38.6503 25.821 38.6692 26.3123 38.6881C26.5391 38.6881 26.7659 38.707 26.9927 38.707C27.5218 38.7259 28.0321 38.7637 28.5235 38.7826C28.7691 38.8015 28.977 38.8204 29.2038 38.8204C29.7519 38.8771 30.2621 38.9149 30.7346 38.9527C30.9803 38.9716 31.1881 38.9905 31.4149 39.0283C32.6433 39.1417 33.5694 39.2929 34.0796 39.463C34.2497 39.5197 34.3631 39.5575 34.4576 39.6331C34.193 39.8032 33.5883 39.9354 32.6811 40.0677C32.9646 40.1055 33.0969 40.2 33.0969 40.2945Z" fill="black" fill-opacity="0.1"/>
<path d="M34.6271 35.0977H9.88892V39.4254H34.6271V35.0977Z" fill="#FF9500"/>
<path d="M34.6281 35.0968C34.6281 35.7204 29.0908 36.2307 22.2684 36.2307C15.4272 36.2307 9.88989 35.7204 9.88989 35.0968C9.88989 35.059 9.90879 35.0212 9.94659 35.0023C10.0222 34.9078 10.2112 34.8322 10.4946 34.7566C11.175 34.5487 12.3845 34.3786 13.972 34.2652C14.0098 34.2652 14.0476 34.2463 14.0854 34.2463C14.5578 34.2085 15.0681 34.1707 15.6161 34.1329C15.8429 34.114 16.0508 34.0951 16.2965 34.0762C16.5044 34.0762 16.7123 34.0573 16.9012 34.0573C17.2036 34.0384 17.506 34.0195 17.8462 34.0195C18.073 34.0006 18.2808 34.0006 18.5265 33.9817C19.0179 33.9628 19.5281 33.9628 20.0573 33.9439H20.7376C21.229 33.925 21.7582 33.925 22.2684 33.925H22.9488C23.4779 33.925 23.9882 33.9439 24.4795 33.9439C24.7252 33.9439 24.9331 33.9628 25.1599 33.9628C25.6891 33.9817 26.1993 34.0006 26.6907 34.0195C26.9364 34.0195 27.1442 34.0384 27.371 34.0573H27.6167C29.2609 34.114 30.735 34.2274 31.8689 34.3597C31.8878 34.3597 31.8878 34.3597 31.8878 34.3597C31.9823 34.3786 32.0956 34.3786 32.1712 34.4164C33.7209 34.6054 34.6281 34.8511 34.6281 35.0968Z" fill="#FFCC00"/>
<path d="M22.2683 35.7214C16.8444 35.7214 12.9513 35.419 11.2316 35.0978C12.9513 34.7765 16.8444 34.4741 22.2683 34.4741C27.6922 34.4741 31.5853 34.7765 33.305 35.0978C31.5664 35.419 27.6733 35.7214 22.2683 35.7214Z" fill="#FF9500"/>
<path d="M22.2683 34.7951C26.7661 34.7951 30.1868 35.0029 32.2089 35.2675C32.6247 35.2108 33.0027 35.1541 33.305 35.1163C31.5853 34.7951 27.6922 34.4927 22.2683 34.4927C16.8444 34.4927 12.9513 34.7951 11.2316 35.1163C11.5339 35.173 11.9119 35.2297 12.3277 35.2675C14.3498 35.0029 17.7705 34.7951 22.2683 34.7951Z" fill="black" fill-opacity="0.1"/>
<path d="M34.6273 39.4246C34.6273 39.4813 34.5706 39.538 34.495 39.5947C34.2304 39.7647 33.6257 39.897 32.7185 40.0293C32.2839 40.1049 31.7736 40.1616 31.2256 40.2183C30.8854 40.2561 30.5074 40.2939 30.1105 40.3128C29.9594 40.3317 29.8082 40.3506 29.6381 40.3506C27.5781 40.5018 25.0079 40.5963 22.2488 40.5963C19.3006 40.5963 16.5981 40.5018 14.4626 40.3317C14.4248 40.3506 14.387 40.3506 14.3492 40.3317C13.9901 40.3128 13.6499 40.275 13.3287 40.2372C12.7239 40.1805 12.1759 40.1238 11.7223 40.0482C11.0419 39.9537 10.5317 39.8403 10.2293 39.727C9.98363 39.6514 9.87024 39.5569 9.87024 39.4624C9.87024 39.3112 10.2104 39.16 10.8341 39.0277C11.0419 38.971 11.2687 38.9521 11.5144 38.9143C11.9491 38.8387 12.4593 38.782 13.0452 38.7253C13.272 38.6875 13.4799 38.6686 13.7255 38.6497C14.1791 38.593 14.6894 38.5741 15.2374 38.5364C15.4642 38.5175 15.6721 38.4986 15.9178 38.4986C16.4091 38.4608 16.9194 38.4419 17.4674 38.423C17.6942 38.4041 17.9021 38.3852 18.1478 38.3852C18.6391 38.3663 19.1494 38.3474 19.6786 38.3285H20.3967C20.8881 38.3096 21.3983 38.3096 21.9275 38.3096H22.6078C23.137 38.3096 23.6473 38.3096 24.1386 38.3285H24.819C25.3481 38.3474 25.8584 38.3663 26.3497 38.3852C26.5765 38.3852 26.8033 38.4041 27.0301 38.423C27.5592 38.4419 28.0695 38.4608 28.5609 38.4986C28.8065 38.4986 29.0144 38.5175 29.2412 38.5364C29.7893 38.5741 30.2995 38.593 30.772 38.6497C31.0177 38.6686 31.2256 38.6875 31.4523 38.7253C32.0382 38.782 32.5485 38.8387 32.9831 38.9143C33.2288 38.9521 33.4556 38.9899 33.6635 39.0277C34.2871 39.1222 34.6273 39.2734 34.6273 39.4246Z" fill="#FF9500"/>
<path d="M11.5341 36.1377H10.8538V39.1426H11.5341V36.1377Z" fill="#FFCC00"/>
<path d="M13.745 36.4021H13.0647V39.407H13.745V36.4021Z" fill="#FFCC00"/>
<path d="M15.9559 36.5908H15.2755V39.5957H15.9559V36.5908Z" fill="#FFCC00"/>
<path d="M18.1674 36.7419H17.4871V39.7468H18.1674V36.7419Z" fill="#FFCC00"/>
<path d="M20.3798 36.8174H19.6995V39.8223H20.3798V36.8174Z" fill="#FFCC00"/>
<path d="M22.6083 36.8547H21.928V39.8596H22.6083V36.8547Z" fill="#FFCC00"/>
<path d="M24.8195 36.8174H24.1392V39.8223H24.8195V36.8174Z" fill="#FFCC00"/>
<path d="M27.0317 36.7419H26.3513V39.7468H27.0317V36.7419Z" fill="#FFCC00"/>
<path d="M29.243 36.5908H28.5626V39.5957H29.243V36.5908Z" fill="#FFCC00"/>
<path d="M31.4529 36.4021H30.7726V39.407H31.4529V36.4021Z" fill="#FFCC00"/>
<path d="M33.6645 36.1372H32.9841V39.1421H33.6645V36.1372Z" fill="#FFCC00"/>
<path d="M32.3976 34.2651C32.3976 34.2651 32.2086 34.3218 31.8684 34.3785C31.8684 34.3785 31.8684 34.3785 31.8495 34.3785C31.4527 34.4541 30.8668 34.5864 30.0731 34.7187C29.8085 34.7754 29.525 34.8132 29.2226 34.851C29.1848 34.8699 29.1471 34.8699 29.1282 34.8699C28.977 34.8888 28.8069 34.9266 28.6179 34.9643C28.2588 35.021 27.8808 35.0399 27.484 35.0966C25.5374 35.3423 23.0806 35.5313 20.397 35.5313C17.5812 35.5313 14.9921 35.4557 12.9132 35.3045C12.7431 35.2856 12.5731 35.2667 12.4219 35.2478C11.7982 35.1911 11.2313 35.1533 10.721 35.0777C10.4564 35.0399 10.1918 35.021 9.96506 34.9833C10.0407 34.8888 10.2296 34.8132 10.5131 34.7376C9.30361 34.5864 8.49097 34.4163 8.1886 34.2273C8.28309 34.1517 8.39648 34.1139 8.56657 34.0572C9.09573 33.906 10.0218 33.7548 11.2313 33.6226C11.458 33.5848 11.6659 33.5659 11.9116 33.547C12.3841 33.4903 12.8943 33.4714 13.4424 33.4147C13.6692 33.4147 13.8771 33.3958 14.1227 33.3769C14.6141 33.358 15.1244 33.3202 15.6535 33.3013C15.8803 33.3013 16.0882 33.2824 16.3339 33.2824C16.8441 33.2635 17.3544 33.2446 17.8835 33.2257H18.5072C18.9985 33.2068 19.5088 33.2068 20.038 33.2068H20.7183C21.2475 33.2068 21.7577 33.2257 22.2491 33.2446C22.4948 33.2446 22.7027 33.2446 22.9294 33.2635C23.4586 33.2824 23.9689 33.3013 24.4602 33.3391C24.7059 33.358 24.9138 33.358 25.1406 33.3769C25.6697 33.4147 26.18 33.4525 26.6713 33.5092C26.917 33.5092 27.1249 33.5281 27.3517 33.5659C27.8997 33.6226 28.41 33.6793 28.8825 33.717C29.1282 33.7548 29.3549 33.7737 29.5628 33.7926C30.2432 33.8682 30.829 33.9627 31.2637 34.0383C32.0196 34.1895 32.3976 34.2651 32.3976 34.2651Z" fill="black" fill-opacity="0.1"/>
<path d="M32.7562 29.7673V34.0951H8.01807V29.7673H11.9679C11.9868 29.7673 11.9868 29.7673 12.0057 29.7673H32.7562Z" fill="#FF9500"/>
<path d="M32.7571 29.7679C32.7571 29.9002 32.4925 30.0325 32.02 30.1459C30.3002 30.5995 25.7268 30.9208 20.3785 30.9208C13.5373 30.9208 8 30.4105 8 29.7868C8 29.5601 8.69925 29.3711 9.88985 29.201C9.96545 29.1821 10.041 29.1632 10.1166 29.1632C10.9104 29.0498 11.912 28.9553 13.0648 28.8986C13.0837 28.8797 13.0837 28.8797 13.1026 28.8797C13.3105 28.8608 13.5184 28.8608 13.7451 28.8419C14.2176 28.8041 14.7279 28.7852 15.257 28.7663C15.4838 28.7474 15.6917 28.7285 15.9374 28.7285C16.4287 28.7096 16.9579 28.6907 17.4871 28.6718C17.7138 28.6718 17.9217 28.6529 18.1674 28.6529C18.6588 28.6529 19.169 28.634 19.6982 28.634H20.3974C20.9077 28.634 21.4179 28.634 21.9282 28.6529H22.6086C23.1377 28.6718 23.648 28.6718 24.1393 28.6907C24.3661 28.7096 24.5929 28.7096 24.8197 28.7285C25.3488 28.7474 25.8591 28.7663 26.3505 28.7852C26.5772 28.8041 26.804 28.823 27.0308 28.8419C27.5789 28.8797 28.0891 28.9175 28.5616 28.9364C28.8073 28.9553 29.0152 28.9742 29.2419 29.012C29.7711 29.0498 30.2247 29.0876 30.6593 29.1632C31.9255 29.3333 32.7004 29.5412 32.7571 29.749C32.7571 29.749 32.7571 29.749 32.7571 29.7679Z" fill="#FFCC00"/>
<path d="M20.3779 30.3911C14.954 30.3911 11.061 30.0698 9.34119 29.7674C11.061 29.4462 14.954 29.1438 20.3779 29.1438C25.8018 29.1438 29.6949 29.4651 31.4147 29.7674C29.6949 30.0698 25.8018 30.3911 20.3779 30.3911Z" fill="#FF9500"/>
<path d="M20.3779 29.4462C24.8758 29.4462 28.2964 29.6541 30.3185 29.9186C30.7343 29.8619 31.1123 29.8052 31.4147 29.7674C29.6949 29.4462 25.8018 29.1438 20.3779 29.1438C14.954 29.1438 11.061 29.4651 9.34119 29.7674C9.64356 29.8241 10.0215 29.8808 10.4373 29.9186C12.4594 29.673 15.899 29.4462 20.3779 29.4462Z" fill="black" fill-opacity="0.1"/>
<path d="M32.7562 34.0759C32.7562 34.1893 32.5483 34.3027 32.1515 34.435C31.7357 34.5484 31.1121 34.6618 30.3183 34.7374C29.9781 34.794 29.6191 34.8318 29.2222 34.8507C29.1844 34.8696 29.1466 34.8696 29.1277 34.8696C28.882 34.8885 28.6175 34.9263 28.334 34.9452C27.5402 35.0019 26.6709 35.0586 25.726 35.0964C24.1196 35.172 22.2864 35.2287 20.3966 35.2287C18.4689 35.2287 16.6547 35.172 15.0294 35.1153C14.727 35.0964 14.4247 35.0775 14.1601 35.0775C14.1223 35.0775 14.1034 35.0586 14.0845 35.0775C13.4986 35.0208 12.9317 34.983 12.4025 34.9452C12.3836 34.9641 12.3647 34.9641 12.3458 34.9452C11.6466 34.9074 11.0229 34.8507 10.4749 34.7751C9.26537 34.624 8.45273 34.4539 8.15036 34.2649C8.07476 34.2082 8.01807 34.1515 8.01807 34.0948C8.01807 33.9436 8.35824 33.7924 8.98189 33.6412C9.18977 33.5845 9.39766 33.5656 9.66224 33.5278C10.0969 33.4523 10.6072 33.3956 11.1741 33.3389C11.4009 33.3011 11.6088 33.2822 11.8545 33.2633C12.3269 33.2066 12.8372 33.1688 13.3852 33.1499C13.612 33.131 13.8199 33.1121 14.0656 33.1121C14.557 33.0743 15.0672 33.0554 15.5964 33.0365C15.8232 33.0176 16.031 32.9987 16.2767 32.9987C16.787 32.9798 17.2972 32.9609 17.8264 32.942H18.5067C18.9981 32.9231 19.5084 32.9231 20.0375 32.9231H20.7179C21.247 32.9231 21.7573 32.9231 22.2486 32.942H22.929C23.4582 32.9609 23.9684 32.9798 24.4598 32.9987C24.7055 32.9987 24.9133 33.0176 25.1401 33.0365C25.6693 33.0554 26.1795 33.0743 26.6709 33.1121C26.9166 33.1121 27.1245 33.131 27.3512 33.1499C27.8993 33.1877 28.4096 33.2255 28.882 33.2633C29.1277 33.2822 29.3356 33.3011 29.5624 33.3389C30.1482 33.3956 30.6585 33.4523 31.0932 33.5278C31.3577 33.5656 31.5656 33.5845 31.7735 33.6412C32.4161 33.7735 32.7562 33.9247 32.7562 34.0759Z" fill="#FF9500"/>
<path d="M9.66289 30.7874H8.98254V33.7922H9.66289V30.7874Z" fill="#FFCC00"/>
<path d="M11.8737 31.0525H11.1934V34.0574H11.8737V31.0525Z" fill="#FFCC00"/>
<path d="M14.0853 31.26H13.4049V34.2649H14.0853V31.26Z" fill="#FFCC00"/>
<path d="M16.2958 31.3921H15.6155V34.397H16.2958V31.3921Z" fill="#FFCC00"/>
<path d="M18.5082 31.4871H17.8279V34.4919H18.5082V31.4871Z" fill="#FFCC00"/>
<path d="M20.7181 31.5051H20.0377V34.51H20.7181V31.5051Z" fill="#FFCC00"/>
<path d="M22.9485 31.4871H22.2682V34.4919H22.9485V31.4871Z" fill="#FFCC00"/>
<path d="M25.1609 31.3921H24.4806V34.397H25.1609V31.3921Z" fill="#FFCC00"/>
<path d="M27.371 31.26H26.6907V34.2649H27.371V31.26Z" fill="#FFCC00"/>
<path d="M29.5814 31.0525H28.901V34.0574H29.5814V31.0525Z" fill="#FFCC00"/>
<path d="M31.7925 30.7874H31.1122V33.7922H31.7925V30.7874Z" fill="#FFCC00"/>
<path d="M32.7382 29.7307C32.7571 29.7496 32.7571 29.7496 32.7571 29.7685V30.052C32.5303 30.0898 32.2846 30.1276 32.0201 30.1465C29.7522 30.43 26.2182 30.6 22.2495 30.6C20.3597 30.6 18.5643 30.5056 16.9957 30.3544C15.6918 30.2599 14.52 30.0898 13.4995 29.9386C13.4239 29.9386 13.3672 29.9197 13.2916 29.9197C12.9893 29.863 12.6869 29.8252 12.4223 29.7685C12.3467 29.7685 12.3089 29.7496 12.2333 29.7307C12.2144 29.7307 12.1955 29.7307 12.1955 29.7307C11.7609 29.6362 11.3829 29.5795 11.0805 29.5228C10.4758 29.3905 10.0978 29.2961 10.0033 29.2772C10.0978 29.2583 10.4191 29.2016 10.9482 29.126C11.4774 29.0504 12.1955 28.9559 13.0649 28.8614C13.0838 28.8425 13.0838 28.8425 13.1027 28.8425C13.3105 28.8236 13.5184 28.8047 13.7452 28.7669C14.1988 28.7102 14.709 28.6724 15.2571 28.6346C15.4839 28.5968 15.6917 28.5779 15.9374 28.559C16.4288 28.5212 16.939 28.4834 17.4871 28.4645C17.7139 28.4456 17.9218 28.4267 18.1675 28.4078C18.6588 28.3889 19.1691 28.37 19.6982 28.3322H20.3975C20.8888 28.3133 21.3991 28.2944 21.9283 28.2944H22.6086C23.1378 28.2944 23.648 28.2944 24.1394 28.3133H24.8197C25.3489 28.3322 25.8591 28.3511 26.3505 28.37C26.5773 28.37 26.8041 28.3889 27.0309 28.4078C27.56 28.4267 28.0703 28.4456 28.5616 28.4834C28.8073 28.4834 29.0152 28.5023 29.242 28.5212C29.79 28.559 30.3003 28.5968 30.7728 28.6346C31.0184 28.6535 31.2263 28.6724 31.4531 28.7102C32.6815 28.8236 33.6075 28.9559 34.1178 29.126C34.2879 29.1827 34.4013 29.2205 34.4958 29.2772C34.2312 29.4472 33.6264 29.5984 32.7382 29.7307Z" fill="black" fill-opacity="0.1"/>
<path d="M34.6279 24.8167H9.88977V29.1444H34.6279V24.8167Z" fill="#FF9500"/>
<path d="M34.629 24.8168C34.629 25.4404 29.0917 25.9507 22.2505 25.9507C15.4092 25.9507 9.87195 25.4404 9.87195 24.8168C9.87195 24.1931 15.4092 23.6829 22.2505 23.6829C29.0917 23.664 34.629 24.1742 34.629 24.8168Z" fill="#FFCC00"/>
<path d="M22.2689 25.4409C16.845 25.4409 12.9519 25.1196 11.2322 24.8173C12.9519 24.496 16.845 24.1936 22.2689 24.1936C27.6928 24.1936 31.5859 24.5149 33.3056 24.8173C31.567 25.1196 27.6739 25.4409 22.2689 25.4409Z" fill="#FF9500"/>
<path d="M22.2689 24.496C26.7668 24.496 30.1874 24.7039 32.2095 24.9684C32.6253 24.9117 33.0033 24.8551 33.3056 24.8173C31.5859 24.496 27.6928 24.1936 22.2689 24.1936C16.845 24.1936 12.9519 24.5149 11.2322 24.8173C11.5346 24.874 11.9125 24.9306 12.3283 24.9684C14.3504 24.7039 17.7711 24.496 22.2689 24.496Z" fill="black" fill-opacity="0.1"/>
<path d="M34.6279 29.1267C34.6279 29.1834 34.5712 29.2401 34.4956 29.2779C34.2311 29.448 33.6263 29.5992 32.7381 29.7125C32.6625 29.7314 32.5869 29.7503 32.5113 29.7503C31.3585 29.9204 29.7899 30.0338 27.9568 30.1283C27.8623 30.1472 27.7489 30.1472 27.6544 30.1472C26.0102 30.2228 24.177 30.2606 22.2683 30.2606C18.8477 30.2606 15.7483 30.1472 13.5183 29.9204C13.4427 29.9204 13.386 29.9015 13.3104 29.9015C12.819 29.8448 12.3844 29.807 12.0064 29.7503C11.9875 29.7503 11.9875 29.7503 11.9686 29.7503C11.515 29.6747 11.1182 29.618 10.7969 29.5425C10.4378 29.448 10.1921 29.3724 10.0221 29.2779C9.94647 29.2401 9.90867 29.2023 9.90867 29.1645C9.88977 29.1456 9.88977 29.1456 9.88977 29.1267C9.88977 28.9755 10.2299 28.8243 10.8536 28.692C11.0615 28.6542 11.2883 28.5975 11.5339 28.5786C11.9686 28.503 12.4789 28.4463 13.0647 28.3896C13.2915 28.3518 13.4994 28.3329 13.7451 28.3141C14.1986 28.2574 14.7089 28.2385 15.2569 28.1818C15.4837 28.1818 15.6916 28.1629 15.9373 28.144C16.4287 28.1251 16.9389 28.0873 17.487 28.0684C17.7138 28.0684 17.9216 28.0495 18.1673 28.0495C18.6587 28.0306 19.1689 28.0117 19.6981 27.9928H20.3973C20.8887 27.9739 21.399 27.9739 21.9281 27.9739H22.6085C23.1376 27.9739 23.6479 27.9739 24.1392 27.9928H24.8196C25.3488 28.0117 25.859 28.0306 26.3504 28.0495C26.5772 28.0495 26.8039 28.0684 27.0307 28.0684C27.5599 28.0873 28.0701 28.1251 28.5615 28.144C28.8072 28.1629 29.0151 28.1818 29.2418 28.1818C29.7899 28.2385 30.3002 28.2574 30.7726 28.3141C31.0183 28.3329 31.2262 28.3518 31.453 28.3896C32.0388 28.4463 32.5491 28.503 32.9838 28.5786C33.2294 28.6164 33.4562 28.6542 33.6641 28.692C34.2878 28.8243 34.6279 28.9755 34.6279 29.1267Z" fill="#FF9500"/>
<path d="M11.5341 25.8374H10.8538V28.8423H11.5341V25.8374Z" fill="#FFCC00"/>
<path d="M13.745 26.1025H13.0647V29.1074H13.745V26.1025Z" fill="#FFCC00"/>
<path d="M15.9559 26.3093H15.2755V29.3142H15.9559V26.3093Z" fill="#FFCC00"/>
<path d="M18.1674 26.4421H17.4871V29.447H18.1674V26.4421Z" fill="#FFCC00"/>
<path d="M20.3798 26.5171H19.6995V29.522H20.3798V26.5171Z" fill="#FFCC00"/>
<path d="M22.6087 26.5557H21.9283V29.5605H22.6087V26.5557Z" fill="#FFCC00"/>
<path d="M24.8193 26.5171H24.1389V29.522H24.8193V26.5171Z" fill="#FFCC00"/>
<path d="M27.0317 26.4421H26.3513V29.447H27.0317V26.4421Z" fill="#FFCC00"/>
<path d="M29.243 26.3093H28.5626V29.3142H29.243V26.3093Z" fill="#FFCC00"/>
<path d="M31.4526 26.1025H30.7722V29.1074H31.4526V26.1025Z" fill="#FFCC00"/>
<path d="M33.6645 25.8369H32.9841V28.8418H33.6645V25.8369Z" fill="#FFCC00"/>
<path d="M53.0912 43.9365C53.0912 50.4754 47.7807 55.7859 41.2418 55.7859C34.7029 55.7859 29.3925 50.4754 29.3925 43.9365C29.3925 37.3976 34.7029 32.0872 41.2418 32.0872C47.7807 32.0872 53.0912 37.3976 53.0912 43.9365Z" fill="#FFCC00"/>
<path d="M41.2418 34.9219C46.2121 34.9219 50.2564 38.9662 50.2564 43.9365C50.2564 48.9068 46.2121 52.9511 41.2418 52.9511C36.2715 52.9511 32.2272 48.9068 32.2272 43.9365C32.2272 38.9662 36.2715 34.9219 41.2418 34.9219ZM41.2418 32.0872C34.7029 32.0872 29.3925 37.3976 29.3925 43.9365C29.3925 50.4754 34.7029 55.7859 41.2418 55.7859C47.7807 55.7859 53.0912 50.4754 53.0912 43.9365C53.0912 37.3976 47.7807 32.0872 41.2418 32.0872Z" fill="#FF9500"/>
<path d="M35.2318 50.6451C33.3986 49.001 32.2269 46.6008 32.2269 43.9362C32.2269 38.9658 36.2712 34.9216 41.2415 34.9216C43.3582 34.9216 45.3047 35.6586 46.8355 36.887C45.2291 35.4507 43.1314 34.5625 40.8258 34.5625C35.8554 34.5625 31.8112 38.6068 31.8112 43.5771C31.8112 46.4497 33.153 48.9821 35.2318 50.6451Z" fill="black" fill-opacity="0.1"/>
<path d="M29.8082 44.409C29.8082 37.8701 35.1187 32.5596 41.6576 32.5596C45.1538 32.5596 48.291 34.0904 50.4643 36.4905C48.291 33.8069 44.9648 32.0872 41.2418 32.0872C34.7029 32.0872 29.3925 37.3976 29.3925 43.9365C29.3925 46.9792 30.5453 49.7384 32.4351 51.855C30.7909 49.814 29.8082 47.2249 29.8082 44.409Z" fill="white" fill-opacity="0.2"/>
<path d="M52.6755 43.4641C52.6755 50.003 47.365 55.3134 40.8261 55.3134C37.3299 55.3134 34.1927 53.7827 32.0194 51.3826C34.1927 54.0661 37.5189 55.7859 41.2419 55.7859C47.7808 55.7859 53.0913 50.4754 53.0913 43.9365C53.0913 40.8939 51.9384 38.1158 50.0486 36.0181C51.6928 38.0591 52.6755 40.6482 52.6755 43.4641Z" fill="black" fill-opacity="0.1"/>
<path d="M37.9535 47.2629H40.2591V41.7067H38.2181V39.9113C39.4465 39.6657 40.2213 39.3633 41.0339 38.853H43.1695V47.2629H45.0971V49.6063H37.9346V47.2629H37.9535Z" fill="black" fill-opacity="0.1"/>
<path d="M37.6704 46.9789H39.976V41.4228H37.935V39.6274C39.1634 39.3817 39.9382 39.0794 40.7508 38.5691H42.8864V46.9789H44.814V49.3223H37.6515V46.9789H37.6704Z" fill="#FF9500"/>
</g>
<defs>
<filter id="filter0_i" x="6.3999" y="0" width="51.2" height="64" filterUnits="userSpaceOnUse" color-interpolation-filters="sRGB">
<feFlood flood-opacity="0" result="BackgroundImageFix"/>
<feBlend mode="normal" in="SourceGraphic" in2="BackgroundImageFix" result="shape"/>
<feColorMatrix in="SourceAlpha" type="matrix" values="0 0 0 0 0 0 0 0 0 0 0 0 0 0 0 0 0 0 127 0" result="hardAlpha"/>
<feOffset/>
<feGaussianBlur stdDeviation="4"/>
<feComposite in2="hardAlpha" operator="arithmetic" k2="-1" k3="1"/>
<feColorMatrix type="matrix" values="0 0 0 0 0.164706 0 0 0 0 0.67451 0 0 0 0 0.494118 0 0 0 0.2 0"/>
<feBlend mode="normal" in2="shape" result="effect1_innerShadow"/>
</filter>
<clipPath id="clip0">
<rect width="53.3333" height="53.3333" fill="white" transform="translate(5.33337 5.33325)"/>
</clipPath>
</defs>
</svg>
