<svg width="64" height="64" viewBox="0 0 64 64" fill="none" xmlns="http://www.w3.org/2000/svg">
<g filter="url(#filter0_i)">
<path fill-rule="evenodd" clip-rule="evenodd" d="M33.3228 0.486094C33.4347 0.582469 44.7307 10.2026 55.6307 10.2026C56.7182 10.2026 57.5999 11.0421 57.5999 12.0776V34.5324C57.5999 49.9319 47.6886 58.4292 32.7023 63.8768C32.4761 63.9589 32.238 64 31.9999 64C31.7618 64 31.5237 63.959 31.2975 63.8768C20.6093 59.9916 6.3999 52.7229 6.3999 34.5324V12.0776C6.3999 11.0421 7.28159 10.2026 8.36913 10.2026C19.2981 10.2026 30.5645 0.583219 30.677 0.486094C31.4276 -0.162031 32.572 -0.162031 33.3228 0.486094Z" fill="#F2FFF5"/>
</g>
<g clip-path="url(#clip0)">
<path d="M48.6844 18.1416H13.8859V48.081H48.6844V18.1416Z" fill="#1D61AE"/>
<path d="M48.6844 44.8623H13.8859V48.081H48.6844V44.8623Z" fill="#1A2C58"/>
<path d="M48.6847 17.8433H48.2521V48.074H48.6847V17.8433Z" fill="black" fill-opacity="0.1"/>
<path d="M14.3184 17.8433H13.8859V48.074H14.3184V17.8433Z" fill="black" fill-opacity="0.1"/>
<path d="M45.8486 35.0259H38.4192V43.1905H45.8486V35.0259Z" fill="white" fill-opacity="0.1"/>
<path d="M45.6013 35.345H38.6594V42.8714H45.6013V35.345Z" fill="#68CBDA"/>
<path d="M45.6013 37.9463H38.6594V38.2931H45.6013V37.9463Z" fill="white" fill-opacity="0.1"/>
<path d="M45.6013 38.2444H38.6594V38.2929H45.6013V38.2444Z" fill="black" fill-opacity="0.1"/>
<path d="M38.783 35.5045H45.6013V35.345H38.6594V42.8714H38.783V35.5045Z" fill="black" fill-opacity="0.1"/>
<path d="M46.4596 43.2737H37.8011L38.0552 43.6413H46.2055L46.4596 43.2737Z" fill="white" fill-opacity="0.1"/>
<path d="M46.1987 43.6411H38.0621V43.6897H46.1987V43.6411Z" fill="black" fill-opacity="0.1"/>
<path d="M24.1577 35.0259H16.7214V43.1905H24.1577V35.0259Z" fill="white" fill-opacity="0.1"/>
<path d="M23.9105 35.345H16.9686V42.8714H23.9105V35.345Z" fill="#68CBDA"/>
<path d="M23.9105 37.9463H16.9686V38.2931H23.9105V37.9463Z" fill="white" fill-opacity="0.1"/>
<path d="M23.9105 38.2444H16.9686V38.2929H23.9105V38.2444Z" fill="black" fill-opacity="0.1"/>
<path d="M17.0922 35.5045H23.9105V35.345H16.9686V42.8714H17.0922V35.5045Z" fill="black" fill-opacity="0.1"/>
<path d="M24.7688 43.2737H16.1104L16.3713 43.6413H24.5147L24.7688 43.2737Z" fill="white" fill-opacity="0.1"/>
<path d="M24.5079 43.6411H16.3713V43.6897H24.5079V43.6411Z" fill="black" fill-opacity="0.1"/>
<path d="M45.5259 8H31.2851H17.0444L12.0114 18.1417H31.2851H50.5589L45.5259 8Z" fill="#FF3B30"/>
<path d="M48.6913 18.6274H13.8859V19.7096H48.6913V18.6274Z" fill="black" fill-opacity="0.1"/>
<path d="M35.2676 18.1416H27.3026V30.7458H35.2676V18.1416Z" fill="#00BACB"/>
<path d="M36.5377 18.1416H35.2675V30.7458H36.5377V18.1416Z" fill="black" fill-opacity="0.1"/>
<path d="M33.1872 19.2651H29.3901V29.1709H33.1872V19.2651Z" fill="white" fill-opacity="0.1"/>
<path d="M32.8853 19.6538H29.6855V28.7827H32.8853V19.6538Z" fill="#68CBDA"/>
<path d="M32.8853 22.803H29.6855V23.2261H32.8853V22.803Z" fill="white" fill-opacity="0.1"/>
<path d="M32.8853 23.1636H29.6855V23.2191H32.8853V23.1636Z" fill="black" fill-opacity="0.1"/>
<path d="M29.8366 19.8411H32.8853V19.6538H29.6855V28.7827H29.8366V19.8411Z" fill="black" fill-opacity="0.1"/>
<path d="M33.9288 29.2681H28.6486L28.9575 29.712H33.6129L33.9288 29.2681Z" fill="white" fill-opacity="0.1"/>
<path d="M33.606 29.7124H28.9644V29.7748H33.606V29.7124Z" fill="black" fill-opacity="0.1"/>
<path d="M33.5581 29.1362H29.0126V29.268H33.5581V29.1362Z" fill="black" fill-opacity="0.1"/>
<path d="M48.6844 33.0906H13.8859V33.6802H48.6844V33.0906Z" fill="black" fill-opacity="0.1"/>
<path d="M48.6844 32.5771H13.8859V33.3402H48.6844V32.5771Z" fill="black" fill-opacity="0.2"/>
<path d="M37.0322 46.5549H25.538L26.5061 46.1526H36.0641L37.0322 46.5549Z" fill="black" fill-opacity="0.05"/>
<path d="M38.0004 47.4567H24.5698L25.538 47.0613H37.0322L38.0004 47.4567Z" fill="black" fill-opacity="0.05"/>
<path d="M35.4462 45.2439H27.1242L26.5062 45.6601H36.0642L35.4462 45.2439Z" fill="black" fill-opacity="0.05"/>
<path d="M38.0004 47.4568H24.5698V48.0742H38.0004V47.4568Z" fill="black" fill-opacity="0.2"/>
<path d="M50.5589 18.1416H12.0114V18.6272H50.5589V18.1416Z" fill="#FF9500"/>
<path d="M35.865 17.6561V18.6272H26.7053V17.6561L31.2852 13.0708L35.865 17.6561Z" fill="#00BACB"/>
<path d="M31.2851 13.0708L26.7052 17.6561V18.6272H26.7121H26.0323V19.7094L26.9868 18.8145H27.4468V18.5578L31.4087 14.8397L35.2676 18.6272H35.8649V17.6561L31.2851 13.0708Z" fill="black" fill-opacity="0.1"/>
<path d="M27.3026 18.1416H26.0323V30.7458H27.3026V18.1416Z" fill="black" fill-opacity="0.1"/>
<path d="M35.2676 18.6272V18.2318L31.2851 14.1738L27.3026 18.2318V18.6272H26.0323V17.9613L31.2851 12.4812L36.5378 17.9613V18.6272H35.2676Z" fill="#FFCC00"/>
<path d="M26.005 18.1764L25.8745 17.9683L31.2852 12.3079L36.6959 17.9683L36.5654 18.1764L31.2852 12.6547L26.005 18.1764Z" fill="#FF9500"/>
<path d="M33.6815 33.3472H28.8956V45.2438H33.6815V33.3472Z" fill="#FFCC00"/>
<path d="M32.9262 34.2974V39.1948H29.6441L29.3008 39.6318H33.2764V33.8604L32.9262 34.2974Z" fill="#FF9500"/>
<path d="M29.6441 34.2974H32.9262L33.2764 33.8604H29.3008V39.6318L29.6441 39.1948V34.2974Z" fill="#FF9500"/>
<path d="M29.6441 40.7071H32.9262L33.2764 40.2632H29.3008V44.8484L29.6441 44.4045V40.7071Z" fill="#FF9500"/>
<path d="M32.9262 40.7071V44.4045H29.6441L29.3008 44.8484H33.2764V40.2632L32.9262 40.7071Z" fill="#FF9500"/>
<path d="M33.5098 39.9233C33.5098 40.0551 33.4274 40.1591 33.3244 40.1591C33.2214 40.1591 33.1459 40.0551 33.1459 39.9233C33.1459 39.7915 33.2283 39.6943 33.3244 39.6943C33.4274 39.6943 33.5098 39.7915 33.5098 39.9233Z" fill="#FFCC00"/>
<path d="M33.3243 39.8191H32.5278V40.0272H33.3243C33.3724 40.0272 33.4067 39.9786 33.4067 39.9231C33.4067 39.8677 33.3724 39.8191 33.3243 39.8191Z" fill="#FFCC00"/>
<path d="M45.3885 20.9998H39.559V30.9056H45.3885V20.9998Z" fill="white" fill-opacity="0.1"/>
<path d="M45.0865 21.3882H39.8544V30.5171H45.0865V21.3882Z" fill="#68CBDA"/>
<path d="M45.0865 24.5376H39.8544V24.9607H45.0865V24.5376Z" fill="white" fill-opacity="0.1"/>
<path d="M45.0865 24.8982H39.8544V24.9606H45.0865V24.8982Z" fill="black" fill-opacity="0.1"/>
<path d="M40.0054 21.5824H45.0865V21.3882H39.8544V30.5171H40.0054V21.5824Z" fill="black" fill-opacity="0.1"/>
<path d="M46.13 31.0027H38.8174L39.1264 31.4536H45.821L46.13 31.0027Z" fill="white" fill-opacity="0.1"/>
<path d="M45.8073 31.4536H39.1332V31.5091H45.8073V31.4536Z" fill="black" fill-opacity="0.1"/>
<path d="M23.018 20.9998H17.1885V30.9056H23.018V20.9998Z" fill="white" fill-opacity="0.1"/>
<path d="M22.7158 21.3882H17.4836V30.5171H22.7158V21.3882Z" fill="#68CBDA"/>
<path d="M22.7158 24.5376H17.4836V24.9607H22.7158V24.5376Z" fill="white" fill-opacity="0.1"/>
<path d="M22.7158 24.8982H17.4836V24.9606H22.7158V24.8982Z" fill="black" fill-opacity="0.1"/>
<path d="M17.6278 21.5824H22.7158V21.3882H17.4836V30.5171H17.6278V21.5824Z" fill="black" fill-opacity="0.1"/>
<path d="M23.7526 31.0027H16.4399L16.7558 31.4536H23.4436L23.7526 31.0027Z" fill="white" fill-opacity="0.1"/>
<path d="M23.4298 31.4536H16.7557V31.516H23.4298V31.4536Z" fill="black" fill-opacity="0.1"/>
<path d="M37.0115 31.2593H25.5653L25.9567 30.739H36.6201L37.0115 31.2593Z" fill="black" fill-opacity="0.1"/>
<path d="M37.0115 31.8352H25.5653L25.9567 32.5774H36.6201L37.0115 31.8352Z" fill="black" fill-opacity="0.2"/>
<path d="M37.0115 31.2593H25.5653V31.835H37.0115V31.2593Z" fill="black" fill-opacity="0.1"/>
<path d="M46.6108 44.5364H38.5086L38.0348 43.9468H46.1371L46.6108 44.5364Z" fill="black" fill-opacity="0.1"/>
<path d="M52.1381 53.783L53.7654 43.1627C53.7654 43.1627 50.8197 43.3431 49.4327 42.9616C48.0389 42.5731 45.4571 41.6921 43.4453 41.5048C41.4403 41.3175 38.9478 42.9754 37.4784 44.0715C36.0022 45.1675 35.0478 47.8867 33.6333 48.4833C32.7544 48.8509 30.0628 48.9827 27.5978 48.7469C26.0872 48.6012 24.659 48.3168 23.7801 47.859C23.7595 47.852 23.7458 47.8451 23.7252 47.8312C21.3494 46.6311 13.5699 44.3697 11.8121 44.1131C10.0474 43.8634 9.24408 45.438 9.33335 46.0693C9.34021 46.1178 9.36768 46.1664 9.42261 46.2357C9.78652 46.6797 11.1598 47.5399 12.4919 48.2891C13.5287 48.8856 14.5449 49.4059 14.9981 49.6071C16.1035 50.1134 20.3813 52.7286 21.3288 53.1032C22.2764 53.4639 26.8288 55.2328 28.1677 55.76C29.5204 56.2942 30.5228 56.7104 31.8343 58.0284C33.1458 59.3533 35.5902 58.285 36.3661 57.6885C37.1489 57.085 43.1294 54.7126 44.6194 53.9148C46.1163 53.1171 50.5176 53.4709 52.1381 53.783Z" fill="#FDD4A6"/>
<path d="M34.4503 47.873C34.0315 48.4349 33.592 48.9066 33.1045 49.1147C32.2256 49.4823 29.534 49.6141 27.069 49.3783C25.5584 49.2326 24.1302 48.9482 23.2513 48.4904C23.2307 48.4904 23.2239 48.4765 23.1964 48.4696C20.8207 47.2626 13.0411 45.0081 11.2765 44.7445C10.5418 44.6404 9.97872 44.8624 9.57361 45.1884C9.92379 44.5641 10.6585 43.9467 11.812 44.1132C13.5698 44.3768 21.3494 46.6313 23.7251 47.8314C23.7457 47.8452 23.7595 47.8522 23.7801 47.8591C24.6589 48.317 26.0803 48.6014 27.5977 48.747C30.0696 48.9898 32.7612 48.858 33.6332 48.4834C33.9285 48.3655 34.1963 48.1366 34.4503 47.873Z" fill="#F0BD89"/>
<path d="M48.9041 43.5928C47.5102 43.2043 44.9285 42.3233 42.9167 42.136C40.9117 41.9487 38.4192 43.6066 36.9498 44.6957C36.7782 44.8206 36.6134 44.9801 36.4554 45.1466C36.7782 44.7235 37.1146 44.3419 37.4854 44.0714C38.9548 42.9823 41.4473 41.3175 43.4522 41.5048C45.4572 41.6921 48.0458 42.573 49.4397 42.9615C50.8267 43.343 53.7723 43.1627 53.7723 43.1627L53.6556 43.9465C52.454 43.9396 49.9409 43.8772 48.9041 43.5928Z" fill="#F0BD89"/>
<path d="M27.8726 50.7656C26.4306 50.502 25.2771 48.962 23.9244 48.192C23.2996 47.8313 23.3408 48.3654 23.3271 49.1423C23.3065 49.9956 24.4119 50.6338 24.9338 50.9182C25.8745 51.4315 29.0055 51.6257 29.7334 51.82C30.3376 51.9864 30.9762 52.1321 31.6079 52.139C32.5211 52.139 34.2995 51.8408 34.8282 51.6188C35.3569 51.3968 37.6434 50.9251 38.4193 50.939C39.3256 50.9529 41.5572 50.4881 42.3674 49.5169C43.1776 48.5458 42.3331 48.1226 42.3331 48.1226L34.3887 49.9054C32.8575 50.273 31.2645 50.4465 29.7128 50.7586C29.0605 50.8835 28.4493 50.8765 27.8726 50.7656Z" fill="#F0BD89"/>
<path d="M40.383 42.2539C38.2819 43.0308 35.5697 45.1465 33.5853 45.1535C31.601 45.1604 26.4787 45.4517 25.3663 45.5835C24.2608 45.7153 23.1554 46.853 23.1348 48.2057C23.1142 49.5792 24.3913 50.7584 25.4762 50.9665C26.5611 51.1816 30.5779 51.6533 31.9237 51.5492C33.2763 51.4452 38.124 50.7376 40.7675 50.3838C43.411 50.037 44.5852 45.8957 44.5852 45.8957L40.6508 42.1151C40.6576 42.1221 42.491 41.4769 40.383 42.2539Z" fill="#FDD4A6"/>
<path d="M33.0496 45.785C31.0859 46.0971 25.9361 46.0833 24.8306 46.2151C24.3775 46.2705 23.9243 46.4995 23.5466 46.8394C23.9723 46.1526 24.6658 45.667 25.3662 45.5838C26.4717 45.452 31.594 45.1607 33.5852 45.1537C35.5764 45.1468 38.2818 43.031 40.3829 42.2541L40.6507 42.1223L40.9802 42.4137C38.9409 43.2391 35.5352 45.3896 33.0496 45.785Z" fill="#F0BD89"/>
<path d="M26.7465 46.5064C27.2683 46.5272 27.5773 46.8602 27.6048 47.2972C27.6391 47.7342 27.6185 48.7678 27.5705 49.0869C27.5224 49.406 27.4331 50.0165 26.7259 50.0789C26.1148 50.1344 25.2565 49.8985 24.7347 49.7182C24.2952 49.5656 23.6429 48.7262 23.691 48.0811C23.7391 47.436 24.3296 46.7423 24.8033 46.5827C25.2771 46.4371 26.1766 46.4856 26.7465 46.5064Z" fill="#FFEBCA"/>
<path d="M12.493 48.2891C12.6647 47.9076 12.6784 47.3873 12.4518 47.2139C12.1978 47.0127 11.1335 46.4647 10.7009 46.2358C10.2615 46.0207 9.71902 46.0832 9.4375 46.2358C9.78768 46.6797 11.1609 47.5399 12.493 48.2891Z" fill="#FFEBCA"/>
<path d="M49.3459 41.3245H48.8809C48.3286 41.3245 47.8809 41.7722 47.8809 42.3245V52.5957C47.8809 53.148 48.3286 53.5957 48.8809 53.5957H49.3459C49.8981 53.5957 50.3459 53.148 50.3459 52.5957V42.3245C50.3459 41.7722 49.8981 41.3245 49.3459 41.3245Z" fill="#214389"/>
<path d="M59 40.6655H50.5288C49.9765 40.6655 49.5288 41.1132 49.5288 41.6655V53.2548C49.5288 53.8071 49.9765 54.2548 50.5288 54.2548H59C59.5522 54.2548 60 53.8071 60 53.2548V41.6655C60 41.1132 59.5522 40.6655 59 40.6655Z" fill="#1A2C58"/>
<path d="M52.9343 43.5999C52.9343 43.0727 52.5086 42.6426 51.9867 42.6426C51.4649 42.6426 51.0392 43.0727 51.0392 43.5999C51.0392 44.1271 51.4649 44.5502 51.9867 44.5502C52.5154 44.5572 52.9343 44.1271 52.9343 43.5999Z" fill="#FFCC00"/>
</g>
<defs>
<filter id="filter0_i" x="6.3999" y="0" width="51.2" height="64" filterUnits="userSpaceOnUse" color-interpolation-filters="sRGB">
<feFlood flood-opacity="0" result="BackgroundImageFix"/>
<feBlend mode="normal" in="SourceGraphic" in2="BackgroundImageFix" result="shape"/>
<feColorMatrix in="SourceAlpha" type="matrix" values="0 0 0 0 0 0 0 0 0 0 0 0 0 0 0 0 0 0 127 0" result="hardAlpha"/>
<feOffset/>
<feGaussianBlur stdDeviation="4"/>
<feComposite in2="hardAlpha" operator="arithmetic" k2="-1" k3="1"/>
<feColorMatrix type="matrix" values="0 0 0 0 0.164706 0 0 0 0 0.67451 0 0 0 0 0.494118 0 0 0 0.2 0"/>
<feBlend mode="normal" in2="shape" result="effect1_innerShadow"/>
</filter>
<clipPath id="clip0">
<rect width="50.6667" height="50.6667" fill="white" transform="translate(9.33337 8)"/>
</clipPath>
</defs>
</svg>
