<svg width="64" height="64" viewBox="0 0 64 64" fill="none" xmlns="http://www.w3.org/2000/svg">
<g filter="url(#filter0_i)">
<path fill-rule="evenodd" clip-rule="evenodd" d="M33.3228 0.486094C33.4347 0.582469 44.7307 10.2026 55.6307 10.2026C56.7182 10.2026 57.5999 11.0421 57.5999 12.0776V34.5324C57.5999 49.9319 47.6886 58.4292 32.7023 63.8768C32.4761 63.9589 32.238 64 31.9999 64C31.7618 64 31.5237 63.959 31.2975 63.8768C20.6093 59.9916 6.3999 52.7229 6.3999 34.5324V12.0776C6.3999 11.0421 7.28159 10.2026 8.36913 10.2026C19.2981 10.2026 30.5645 0.583219 30.677 0.486094C31.4276 -0.162031 32.572 -0.162031 33.3228 0.486094Z" fill="#F2FFF5"/>
</g>
<g clip-path="url(#clip0)">
<path d="M49.2996 16.3155C49.2996 25.0482 34.827 34.223 32.376 35.7142C32.1545 35.8489 31.8958 35.8494 31.6738 35.7156C29.2199 34.2363 14.7511 25.1397 14.7511 16.3155C14.7511 10.9887 19.0733 6.6665 24.3929 6.6665C27.1657 6.6665 29.6566 7.82862 31.4139 9.69605C31.7372 10.0396 32.3001 10.0404 32.6242 9.69761C34.2029 8.02792 36.3705 6.91917 38.7905 6.70264C39.0724 6.68096 39.3543 6.6665 39.6434 6.6665C44.869 6.6665 49.1261 10.8152 49.2924 15.9903C49.2996 16.1059 49.2996 16.1999 49.2996 16.3155Z" fill="#FF2D55"/>
<path d="M23.6413 10.5261C27.0528 10.5261 30.0812 11.4006 32.0255 13.9014C33.9625 11.4006 36.9982 10.5261 40.4024 10.5261C42.6719 10.5261 44.7752 11.2488 46.5026 12.4631C44.9197 10.0201 42.1732 8.40112 39.0436 8.40112C36.1887 8.40112 33.6517 9.75271 32.0255 11.8487C30.3993 9.75271 27.8623 8.40112 25.0001 8.40112C21.8705 8.40112 19.124 10.0201 17.5411 12.4631C19.2686 11.2488 21.3718 10.5261 23.6413 10.5261Z" fill="white" fill-opacity="0.1"/>
<path d="M28.1586 28.5447H28.1514C27.8478 28.5374 27.5949 28.3278 27.537 28.0315L24.8917 14.9999L22.4632 23.16C22.3837 23.4347 22.1307 23.6154 21.8488 23.6154H13.8731C13.5198 23.6154 13.2334 23.329 13.2334 22.9757C13.2334 22.6224 13.5198 22.3361 13.8731 22.3361H21.3718L24.393 12.1811C24.4797 11.8992 24.7472 11.7041 25.0363 11.7258C25.3326 11.7402 25.5783 11.9498 25.6362 12.2389L28.202 24.873L30.1101 16.525C30.1752 16.2359 30.4281 16.0335 30.7245 16.0263C30.7245 16.0263 30.7245 16.0263 30.7317 16.0263C31.0208 16.0263 31.281 16.2286 31.3533 16.5105L32.7988 22.3433H50.1273C50.4805 22.3433 50.7669 22.6297 50.7669 22.9829C50.7669 23.3362 50.4806 23.6226 50.1273 23.6226H32.3001C32.011 23.6226 31.7508 23.4274 31.6785 23.1383L30.7462 19.4233L28.773 28.0532C28.7152 28.3423 28.455 28.5447 28.1586 28.5447Z" fill="#FFCC00"/>
<path d="M55.9274 23.9262C55.8118 24.2587 55.6961 24.5912 55.5949 24.9309C54.6915 27.7135 54.1422 30.5034 53.7808 31.9851C53.3688 33.6403 53.1086 36.076 52.5448 37.1602C52.1144 37.9986 48.8267 36.2952 47.0977 35.9782C46.84 35.9309 46.7437 35.6514 46.9506 35.4906C48.4178 34.3558 49.0322 33.7342 49.4586 32.8886C49.979 31.8695 51.504 27.6485 51.7353 26.6872C51.9666 25.7331 53.1736 23.4058 53.629 22.8926C54.0482 22.4084 55.1974 21.7579 55.8045 22.0036C56.2021 22.1482 56.3611 22.6975 55.9274 23.9262Z" fill="#F0BD89"/>
<path d="M58.2475 23.7818C58.0885 24.1143 57.9295 24.4468 57.7777 24.7865C56.5129 27.5836 55.6094 30.4241 55.0601 31.9275C54.4385 33.6043 53.8748 36.1123 53.1665 37.1748C52.4581 38.2373 46.0182 42.1041 45.2232 42.8124C44.4281 43.5208 42.2743 44.5254 42.2743 49.4836C42.2743 50.3619 42.558 51.9999 42.7507 53.0111C42.8367 53.4624 42.4924 53.8853 42.0329 53.8853H34.9212C34.3967 53.8853 34.0428 53.3404 34.1804 52.8343C34.4709 51.7662 34.552 50.4999 34.4178 48.7392C34.3527 47.9008 33.8974 44.164 33.8034 43.4557C33.536 41.4464 35.2779 39.5672 36.7812 38.671C38.2918 37.7892 42.2743 34.5078 43.1561 33.1779C44.0378 31.8552 46.8061 27.8583 47.1675 27.1572C47.8179 25.914 49.8273 25.7044 49.3864 28.1835C49.0336 30.1351 47.9194 32.8033 47.1157 34.3688C46.9872 34.619 47.2887 34.9144 47.5288 34.768C49.1912 33.7561 49.9068 33.1779 50.4488 32.3539C51.1066 31.3493 53.1881 27.1283 53.5423 26.1525C53.8965 25.184 55.4287 22.9001 55.9564 22.423C56.4551 21.9677 57.7271 21.4256 58.3343 21.7509C58.739 21.9605 58.8474 22.5459 58.2475 23.7818Z" fill="#FDD4A6"/>
<path d="M46.6541 35.2234C46.2494 35.6354 46.0759 36.1774 45.888 36.7051L45.3821 38.3313C45.3315 38.4686 45.2881 38.5987 45.2303 38.7433C45.158 38.8951 45.0857 39.0179 44.9918 39.148C44.8111 39.3866 44.6231 39.6034 44.4063 39.8058C44.1967 40.0081 43.9871 40.1961 43.7703 40.384C43.5534 40.5719 43.3294 40.7454 43.1487 40.9622C43.4161 40.4418 43.857 40.0515 44.2039 39.6178C44.3846 39.401 44.5653 39.1842 44.7099 38.9601C44.7821 38.8517 44.8544 38.7288 44.8978 38.6204C44.9484 38.4975 44.9918 38.3602 45.0351 38.2229C45.223 37.688 45.3893 37.1387 45.6278 36.6111C45.8808 36.0979 46.1482 35.527 46.6541 35.2234Z" fill="#F0BD89"/>
<path d="M58.2478 23.7818C58.2274 23.8243 58.207 23.8669 58.1867 23.9095C57.9902 24.3208 57.3298 24.4039 57.3298 23.948C57.3298 23.5397 57.5885 22.9688 57.8734 22.4784C58.0549 22.1658 58.5604 22.0225 58.6402 22.375C58.6969 22.6254 58.6114 23.0359 58.2478 23.7818Z" fill="#FFEBCA"/>
<path d="M47.7021 26.5503C47.2685 27.1791 46.7915 27.9236 46.9721 28.3428C47.1528 28.762 47.9479 28.9427 48.1719 28.8487C48.396 28.762 49.1694 27.4321 49.2344 27.0779C49.2995 26.7238 48.0852 25.9938 47.7021 26.5503Z" fill="#FFEBCA"/>
<path d="M42.7514 47.2068H33.7168C33.3176 47.2068 32.994 47.5304 32.994 47.9296V48.609C32.994 49.0081 33.3176 49.3317 33.7168 49.3317H42.7514C43.1506 49.3317 43.4742 49.0081 43.4742 48.609V47.9296C43.4742 47.5304 43.1506 47.2068 42.7514 47.2068Z" fill="#214389"/>
<path d="M43.3152 48.6306H33.1531C32.7539 48.6306 32.4303 48.9542 32.4303 49.3534V56.9497C32.4303 57.3489 32.7539 57.6725 33.1531 57.6725H43.3152C43.7144 57.6725 44.038 57.3489 44.038 56.9497V49.3534C44.038 48.9542 43.7144 48.6306 43.3152 48.6306Z" fill="#1A2C58"/>
<path d="M34.9456 51.5722C34.4975 51.5722 34.1289 51.2108 34.1289 50.7555C34.1289 50.3073 34.4975 49.9387 34.9456 49.9387C35.3938 49.9387 35.7624 50.3001 35.7624 50.7555C35.7551 51.2036 35.3938 51.5722 34.9456 51.5722Z" fill="#FFCC00"/>
<path d="M8.07286 23.9262C8.1885 24.2587 8.30415 24.5912 8.40533 24.9309C9.3088 27.7135 9.85811 30.5034 10.2195 31.9851C10.6315 33.6403 10.8989 36.076 11.4554 37.1602C11.8856 37.9981 15.1694 36.2974 16.8959 35.9788C17.156 35.9308 17.2513 35.653 17.0425 35.4906C15.5752 34.3558 14.9609 33.7342 14.5344 32.8886C14.014 31.8695 12.4962 27.6485 12.2649 26.6872C12.0336 25.7331 10.8266 23.4058 10.3713 22.8926C9.95207 22.4084 8.80286 21.7579 8.19573 22.0036C7.79821 22.1482 7.6392 22.6975 8.07286 23.9262Z" fill="#F0BD89"/>
<path d="M5.75278 23.7818C5.91179 24.1143 6.0708 24.4468 6.22258 24.7865C7.48743 27.5836 8.3909 30.4241 8.94743 31.9275C9.56902 33.6043 10.1328 36.1123 10.8411 37.1748C11.5494 38.2373 17.9893 42.1041 18.7844 42.8124C19.5794 43.5208 21.7333 44.5254 21.7333 49.4836C21.7333 50.3619 21.4496 51.9999 21.2569 53.0111C21.1709 53.4624 21.5152 53.8853 21.9746 53.8853H29.0791C29.6036 53.8853 29.9576 53.3404 29.8199 52.8343C29.5295 51.7662 29.4484 50.4999 29.5826 48.7392C29.6476 47.9008 30.103 44.164 30.1969 43.4557C30.4644 41.4464 28.7225 39.5672 27.2191 38.671C25.7085 37.7892 21.726 34.5078 20.8443 33.1779C19.9552 31.8552 17.1943 27.8583 16.8256 27.1572C16.1752 25.914 14.1731 25.7044 14.6067 28.1835C14.9595 30.1351 16.0737 32.8033 16.8774 34.3688C17.0059 34.619 16.7044 34.9144 16.4643 34.768C14.8019 33.7561 14.0936 33.1779 13.5443 32.3539C12.8865 31.3493 10.805 27.1283 10.4508 26.1525C10.0966 25.184 8.56436 22.9001 8.03674 22.423C7.53803 21.9677 6.26595 21.4256 5.65882 21.7509C5.2613 21.9605 5.16011 22.5459 5.75278 23.7818Z" fill="#FDD4A6"/>
<path d="M17.3459 35.2234C17.7507 35.6354 17.9242 36.1774 18.1049 36.7051L18.6108 38.3313C18.6614 38.4686 18.6975 38.5987 18.7626 38.7433C18.8349 38.8951 18.9144 39.0179 19.0011 39.148C19.1818 39.3866 19.3697 39.6034 19.5865 39.8058C19.7961 40.0081 20.0057 40.1961 20.2226 40.384C20.4394 40.5719 20.6635 40.7454 20.8442 40.9622C20.5767 40.4418 20.1358 40.0515 19.7889 39.6178C19.6082 39.401 19.4275 39.1842 19.283 38.9601C19.2107 38.8517 19.1384 38.7288 19.0951 38.6204C19.0445 38.4975 19.0011 38.3602 18.9577 38.2229C18.7698 37.688 18.6036 37.1387 18.3651 36.6111C18.1193 36.0979 17.8519 35.527 17.3459 35.2234Z" fill="#F0BD89"/>
<path d="M5.75271 23.7818C5.77258 23.8234 5.79245 23.8649 5.8123 23.9064C6.00953 24.3193 6.67786 24.4056 6.67786 23.948C6.67786 23.5396 6.41523 22.9683 6.12814 22.4778C5.94554 22.1658 5.44004 22.0225 5.36023 22.3751C5.30356 22.6254 5.38908 23.036 5.75271 23.7818Z" fill="#FFEBCA"/>
<path d="M16.2982 26.5503C16.7318 27.1791 17.2089 27.9236 17.0282 28.3428C16.8547 28.762 16.0524 28.9427 15.8356 28.8487C15.6115 28.762 14.8382 27.4321 14.7731 27.0779C14.7008 26.7238 15.9151 25.9938 16.2982 26.5503Z" fill="#FFEBCA"/>
<path d="M30.2834 47.2068H21.2488C20.8496 47.2068 20.526 47.5304 20.526 47.9296V48.609C20.526 49.0081 20.8496 49.3317 21.2488 49.3317H30.2834C30.6826 49.3317 31.0062 49.0081 31.0062 48.609V47.9296C31.0062 47.5304 30.6826 47.2068 30.2834 47.2068Z" fill="#214389"/>
<path d="M30.8472 48.6306H20.6851C20.2859 48.6306 19.9623 48.9542 19.9623 49.3534V56.9497C19.9623 57.3489 20.2859 57.6725 20.6851 57.6725H30.8472C31.2464 57.6725 31.57 57.3489 31.57 56.9497V49.3534C31.57 48.9542 31.2464 48.6306 30.8472 48.6306Z" fill="#1A2C58"/>
<path d="M29.0548 51.5722C29.5029 51.5722 29.8715 51.2108 29.8715 50.7555C29.8715 50.3073 29.5029 49.9387 29.0548 49.9387C28.6067 49.9387 28.238 50.3001 28.238 50.7555C28.2453 51.2036 28.6067 51.5722 29.0548 51.5722Z" fill="#FFCC00"/>
</g>
<defs>
<filter id="filter0_i" x="6.3999" y="0" width="51.2" height="64" filterUnits="userSpaceOnUse" color-interpolation-filters="sRGB">
<feFlood flood-opacity="0" result="BackgroundImageFix"/>
<feBlend mode="normal" in="SourceGraphic" in2="BackgroundImageFix" result="shape"/>
<feColorMatrix in="SourceAlpha" type="matrix" values="0 0 0 0 0 0 0 0 0 0 0 0 0 0 0 0 0 0 127 0" result="hardAlpha"/>
<feOffset/>
<feGaussianBlur stdDeviation="4"/>
<feComposite in2="hardAlpha" operator="arithmetic" k2="-1" k3="1"/>
<feColorMatrix type="matrix" values="0 0 0 0 0.164706 0 0 0 0 0.67451 0 0 0 0 0.494118 0 0 0 0.2 0"/>
<feBlend mode="normal" in2="shape" result="effect1_innerShadow"/>
</filter>
<clipPath id="clip0">
<rect width="53.3333" height="53.3333" fill="white" transform="translate(5.33337 5.33325)"/>
</clipPath>
</defs>
</svg>
