<svg width="64" height="64" viewBox="0 0 64 64" fill="none" xmlns="http://www.w3.org/2000/svg">
<g filter="url(#filter0_i)">
<path fill-rule="evenodd" clip-rule="evenodd" d="M33.3228 0.486094C33.4347 0.582469 44.7307 10.2026 55.6307 10.2026C56.7182 10.2026 57.5999 11.0421 57.5999 12.0776V34.5324C57.5999 49.9319 47.6886 58.4293 32.7023 63.8768C32.4761 63.9589 32.238 64 31.9999 64C31.7618 64 31.5237 63.959 31.2975 63.8768C20.6093 59.9916 6.3999 52.7229 6.3999 34.5324V12.0776C6.3999 11.0421 7.28159 10.2026 8.36913 10.2026C19.2981 10.2026 30.5645 0.583219 30.677 0.486094C31.4276 -0.162031 32.572 -0.162031 33.3228 0.486094Z" fill="#F2FFF5"/>
</g>
<g clip-path="url(#clip0)">
<path d="M40.268 41.5095L45.5974 38.9794L48.3008 37.6967L42.508 23.4839L38.809 22.5591C38.8089 22.5591 44.8554 32.7035 40.268 41.5095Z" fill="#1D61AE"/>
<path d="M7.75275 38.4267V31.9267C7.75275 31.4145 8.16796 30.9993 8.68015 30.9993H11.3656C11.8778 30.9993 12.293 31.4145 12.293 31.9267V34.2694" fill="#FF2D55"/>
<path d="M10.2645 38.4267V30.9993H11.3656C11.8778 30.9993 12.293 31.4145 12.293 31.9267V34.2694" fill="#FF3B30"/>
<path d="M35.1445 31.7818C31.686 31.7818 28.8823 34.5854 28.8823 38.044C28.8823 41.5025 31.686 44.3062 35.1445 44.3062L30.7662 46.6543L16.0499 45.0888L14.5288 31.7816L34.3669 30.2161" fill="#00A0CB"/>
<path d="M45.1078 15.1868H40.4324C38.1412 15.1868 36.2838 17.0442 36.2838 19.3354C36.2838 21.6267 38.1412 23.4841 40.4324 23.4841H45.1078C45.574 23.4841 45.9519 23.1062 45.9519 22.64V16.0305C45.9519 15.5646 45.574 15.1868 45.1078 15.1868Z" fill="#1D61AE"/>
<path d="M40.4324 21.791H45.9519V22.6398C45.9519 23.106 45.574 23.4839 45.1078 23.4839H40.4324C38.1412 23.4839 36.2838 21.6265 36.2838 19.3352C36.2838 19.0451 36.3138 18.7621 36.3704 18.4888C36.7612 20.374 38.4313 21.791 40.4324 21.791Z" fill="#214389"/>
<path d="M21.5295 48.0634H22.88H43.7605V44.3059H24.6108" fill="#1D61AE"/>
<path d="M15.4235 56.2043C10.9274 56.2043 7.28255 52.5594 7.28255 48.0633C7.28255 43.5672 10.9274 39.9224 15.4235 39.9224C19.9196 39.9224 23.5645 43.5672 23.5645 48.0633C23.5645 52.5594 19.9196 56.2043 15.4235 56.2043Z" fill="#2C2C2E"/>
<path d="M41.2189 23.4844L47.9777 41.5863L48.3008 37.6972L42.508 23.4844H41.2189Z" fill="#214389"/>
<path d="M15.4238 52.5176C12.9637 52.5176 10.9693 50.5233 10.9693 48.0631C10.9693 45.603 12.9637 43.6086 15.4238 43.6086C17.884 43.6086 19.8783 45.603 19.8783 48.0631C19.8783 50.5233 17.884 52.5176 15.4238 52.5176Z" fill="#9AA7B8"/>
<path d="M48.2998 56.2043C43.8037 56.2043 40.1589 52.5594 40.1589 48.0633C40.1589 43.5672 43.8037 39.9224 48.2998 39.9224C52.796 39.9224 56.4408 43.5672 56.4408 48.0633C56.4408 52.5594 52.796 56.2043 48.2998 56.2043Z" fill="#2C2C2E"/>
<path d="M48.2994 52.5176C45.8393 52.5176 43.8449 50.5233 43.8449 48.0631C43.8449 45.603 45.8393 43.6086 48.2994 43.6086C50.7596 43.6086 52.7539 45.603 52.7539 48.0631C52.7539 50.5233 50.7596 52.5176 48.2994 52.5176Z" fill="#9AA7B8"/>
<path d="M48.3004 53.3365C51.2084 53.3365 53.5742 50.9711 53.5742 48.0637H51.936C51.936 50.0679 50.305 51.6983 48.3004 51.6983C46.2957 51.6983 44.6646 50.0678 44.6646 48.0637H43.0264C43.0264 50.9711 45.3922 53.3365 48.3004 53.3365Z" fill="#1A2C58"/>
<path d="M22.8797 48.0633C25.4498 46.681 27.1992 43.9599 27.1992 40.8283C27.1992 36.2821 23.5169 32.6106 18.9815 32.6106C14.6006 32.6106 5.95822 34.9268 5.3352 46.6904C5.29572 47.4355 5.88395 48.0634 6.63 48.0634H22.8797V48.0633Z" fill="#1D61AE"/>
<path d="M24.5378 42.0808C24.5378 37.5346 20.8555 33.8631 16.32 33.8631C15.016 33.8631 13.3342 34.0691 11.5989 34.6677C14.1768 33.0803 17.0105 32.6106 18.9815 32.6106C23.5169 32.6106 27.1992 36.2822 27.1992 40.8283C27.1992 43.9599 25.4498 46.6812 22.8797 48.0634H21.9547C23.5441 46.567 24.5378 44.4405 24.5378 42.0808Z" fill="#214389"/>
<path d="M37.9341 48.0628C37.9341 42.3377 42.5753 37.6965 48.3004 37.6965C54.0255 37.6965 58.6667 42.3377 58.6667 48.0628H37.9341Z" fill="#1D61AE"/>
<path d="M46.5788 37.8397C47.1389 37.746 47.7138 37.6965 48.3004 37.6965C54.0256 37.6964 58.6667 42.3376 58.6667 48.0627H55.2236C55.2236 42.9241 51.4844 38.6598 46.5788 37.8397Z" fill="#214389"/>
<path d="M15.4236 53.3374C18.3315 53.3374 20.6973 50.9716 20.6973 48.0637H19.059C19.059 50.0683 17.4282 51.6991 15.4236 51.6991C13.419 51.6991 11.7882 50.0683 11.7882 48.0637H10.15C10.1501 50.9715 12.5157 53.3374 15.4236 53.3374Z" fill="#1A2C58"/>
<path d="M43.447 15.1868H45.1078C45.574 15.1868 45.9519 15.5647 45.9519 16.0308V22.6403C45.9519 23.1065 45.574 23.4844 45.1078 23.4844H43.447V15.1868Z" fill="#A0D9F2"/>
<path d="M43.447 21.7915H45.9519V22.6404C45.9519 23.1065 45.574 23.4844 45.1078 23.4844H43.447V21.7915Z" fill="#84BED3"/>
<path d="M17.5327 27.1677L33.4637 28.292C35.2956 28.4213 36.7156 29.9452 36.7156 31.7815H14.5291V29.967C14.5289 28.3394 15.9091 27.0532 17.5327 27.1677Z" fill="#1A2C58"/>
<path d="M37.8715 10.8184H39.5098V18.8621H37.8715V10.8184Z" fill="#FFCC00"/>
<path d="M11.5618 39.1422H19.5461C19.9985 39.1422 20.3652 38.7755 20.3652 38.3231C20.3652 37.8707 19.9985 37.5039 19.5461 37.5039H11.5618C11.1094 37.5039 10.7426 37.8707 10.7426 38.3231C10.7426 38.7755 11.1094 39.1422 11.5618 39.1422Z" fill="#214389"/>
<path d="M13.6494 41.7848H19.5461C19.9985 41.7848 20.3652 41.418 20.3652 40.9657C20.3652 40.5133 19.9985 40.1465 19.5461 40.1465H13.6494C13.197 40.1465 12.8302 40.5133 12.8302 40.9657C12.8302 41.418 13.197 41.7848 13.6494 41.7848Z" fill="#214389"/>
<path d="M15.737 44.3944H19.5461C19.9985 44.3944 20.3652 44.0277 20.3652 43.5753C20.3652 43.1229 19.9985 42.7561 19.5461 42.7561H15.737C15.2846 42.7561 14.9178 43.1229 14.9178 43.5753C14.9178 44.0278 15.2846 44.3944 15.737 44.3944Z" fill="#214389"/>
<path d="M38.6913 21.7419C37.3619 21.7419 36.2842 20.6642 36.2842 19.3348C36.2842 18.0054 37.3619 16.9277 38.6913 16.9277C40.0207 16.9277 41.0984 18.0054 41.0984 19.3348C41.0984 20.6642 40.0207 21.7419 38.6913 21.7419Z" fill="#1A2C58"/>
<path d="M38.6912 12.7529C39.5126 12.7529 40.1785 12.0869 40.1785 11.2656V6.6162C40.1785 5.79474 39.5125 5.12891 38.6912 5.12891C37.8697 5.12891 37.2039 5.79485 37.2039 6.6162V11.2655C37.2039 12.0869 37.8697 12.7529 38.6912 12.7529Z" fill="#FF9500"/>
</g>
<defs>
<filter id="filter0_i" x="6.3999" y="0" width="51.2" height="64" filterUnits="userSpaceOnUse" color-interpolation-filters="sRGB">
<feFlood flood-opacity="0" result="BackgroundImageFix"/>
<feBlend mode="normal" in="SourceGraphic" in2="BackgroundImageFix" result="shape"/>
<feColorMatrix in="SourceAlpha" type="matrix" values="0 0 0 0 0 0 0 0 0 0 0 0 0 0 0 0 0 0 127 0" result="hardAlpha"/>
<feOffset/>
<feGaussianBlur stdDeviation="4"/>
<feComposite in2="hardAlpha" operator="arithmetic" k2="-1" k3="1"/>
<feColorMatrix type="matrix" values="0 0 0 0 0.164706 0 0 0 0 0.67451 0 0 0 0 0.494118 0 0 0 0.2 0"/>
<feBlend mode="normal" in2="shape" result="effect1_innerShadow"/>
</filter>
<clipPath id="clip0">
<rect width="53.3333" height="53.3333" fill="white" transform="translate(5.33337 5.33325)"/>
</clipPath>
</defs>
</svg>
