<svg width="64" height="64" viewBox="0 0 64 64" fill="none" xmlns="http://www.w3.org/2000/svg">
<g filter="url(#filter0_i)">
<path fill-rule="evenodd" clip-rule="evenodd" d="M33.3228 0.486094C33.4347 0.582469 44.7307 10.2026 55.6307 10.2026C56.7182 10.2026 57.5999 11.0421 57.5999 12.0776V34.5324C57.5999 49.9319 47.6886 58.4292 32.7023 63.8768C32.4761 63.9589 32.238 64 31.9999 64C31.7618 64 31.5237 63.959 31.2975 63.8768C20.6093 59.9916 6.3999 52.7229 6.3999 34.5324V12.0776C6.3999 11.0421 7.28159 10.2026 8.36913 10.2026C19.2981 10.2026 30.5645 0.583219 30.677 0.486094C31.4276 -0.162031 32.572 -0.162031 33.3228 0.486094Z" fill="#F2FFF5"/>
</g>
<g clip-path="url(#clip0)">
<path d="M56.6588 49.9638H51.9166C51.5402 49.9638 51.2266 49.6501 51.2266 49.2863V36.6279C51.2266 36.2515 51.5402 35.9504 51.9166 35.9504H56.6588C57.0351 35.9504 57.3362 36.2641 57.3362 36.6279V49.2863C57.3362 49.6501 57.0351 49.9638 56.6588 49.9638Z" fill="#1A2C58"/>
<path d="M52.8678 24.6275C52.8682 24.6152 52.8684 24.6044 52.8684 24.5922C52.8678 24.3831 52.8685 22.2954 53.1068 21.7236C53.2322 21.41 53.5208 20.7702 54.2484 20.7702C54.9761 20.7702 57.4726 20.7325 57.8615 20.8455C58.2379 20.9584 58.7021 21.3347 58.6644 21.9871C58.6268 22.6395 58.4763 23.5553 57.4852 23.9316C56.4941 24.308 55.2395 24.3582 54.7753 24.6091C54.5012 24.7538 54.2686 25.3146 54.1282 25.733C54.0341 26.0132 53.7774 26.2149 53.4817 26.2149C53.1187 26.2149 52.8276 25.9146 52.839 25.5518L52.8678 24.6275Z" fill="#1D61AE"/>
<path d="M57.455 23.8765C57.5079 23.8641 57.5258 23.9118 57.4749 23.9309C56.4838 24.3072 55.2293 24.3574 54.7651 24.5958C54.491 24.748 54.2585 25.3068 54.1181 25.7227C54.024 26.0013 53.7684 26.2016 53.4744 26.2016C53.1106 26.2016 52.8198 25.8992 52.834 25.5358L52.8704 24.6043C52.8706 24.5986 52.8707 24.6013 52.8707 24.5956C52.8707 24.3213 53.1223 24.1071 53.3947 24.1398C54.7014 24.2967 56.3058 24.145 57.455 23.8765Z" fill="#1A2C58"/>
<path d="M11.1324 24.6314C11.1318 24.6165 11.1316 24.6026 11.1316 24.5877C11.1321 24.3552 11.1298 22.2916 10.8932 21.7236C10.7677 21.41 10.4792 20.7702 9.75154 20.7702C9.0239 20.7702 6.52735 20.7325 6.13844 20.8455C5.76207 20.9584 5.29789 21.3347 5.33552 21.9871C5.37316 22.6395 5.52371 23.5553 6.5148 23.9316C7.50589 24.308 8.76044 24.3582 9.22463 24.6091C9.49814 24.7535 9.73024 25.3119 9.87078 25.73C9.96556 26.0119 10.2239 26.2149 10.5214 26.2149C10.8887 26.2149 11.1823 25.9096 11.168 25.5425L11.1324 24.6314Z" fill="#1D61AE"/>
<path d="M6.54869 23.8753C6.49825 23.8634 6.47988 23.9114 6.52752 23.9319C7.51862 24.3082 8.78571 24.3584 9.23735 24.5968C9.51141 24.749 9.74389 25.3078 9.88434 25.7237C9.97844 26.0023 10.234 26.2026 10.5281 26.2026C10.8918 26.2026 11.1826 25.9002 11.1684 25.5367L11.132 24.6052C11.1318 24.5996 11.1317 24.6022 11.1317 24.5966C11.1317 24.3224 10.88 24.1085 10.6078 24.1412C9.30442 24.2978 7.68986 24.145 6.54869 23.8753Z" fill="#1A2C58"/>
<path d="M7.3548 49.9638H12.097C12.4734 49.9638 12.787 49.6501 12.787 49.2863V36.6279C12.787 36.2515 12.4859 35.9504 12.097 35.9504H7.3548C6.97843 35.9504 6.66479 36.2641 6.66479 36.6279V49.2863C6.66479 49.6501 6.97843 49.9638 7.3548 49.9638Z" fill="#1A2C58"/>
<path d="M56.4826 29.6905C55.9181 28.2979 53.2459 25.1239 52.33 23.3675C51.9537 22.6399 46.9229 13.1555 45.9318 12.8419C44.9407 12.5408 33.3487 12.5408 32.0063 12.5408C30.664 12.5408 19.0719 12.5408 18.0808 12.8419C17.0897 13.143 12.059 22.6274 11.6826 23.3675C10.7668 25.1365 8.09462 28.2979 7.53007 29.6905C6.9028 31.2461 7.26662 42.8005 7.53007 43.7163C7.79353 44.6322 9.16099 45.1716 9.77572 45.2469C10.3768 45.322 31.9306 45.2471 32.0061 45.2469C32.0085 45.2469 32.0042 45.2469 32.0065 45.2469C32.0821 45.2471 53.6358 45.322 54.237 45.2469C54.8517 45.1716 56.2191 44.6322 56.4826 43.7163C56.7461 42.8005 57.1099 31.2461 56.4826 29.6905Z" fill="#1D61AE"/>
<g opacity="0.1">
<path opacity="0.1" d="M55.5795 36.3255C56.2155 36.169 56.8304 36.6531 56.8192 37.308C56.7671 40.3756 56.6158 43.2758 56.4837 43.7159C56.2203 44.6317 54.8528 45.1712 54.2381 45.2339C53.6244 45.309 32.0832 45.2341 32.0077 45.2339C32.0054 45.2339 32.0096 45.2339 32.0073 45.2339C31.9317 45.2341 10.378 45.309 9.7643 45.2339C9.16212 45.1586 7.78212 44.6192 7.51866 43.7159C7.39767 43.2759 7.24774 40.3767 7.19571 37.3098C7.1846 36.6543 7.80006 36.17 8.43645 36.3274C12.7014 37.3824 26.6538 40.7301 31.9698 40.7301C37.3089 40.7195 51.308 37.3767 55.5795 36.3255Z" fill="#1A2C58"/>
</g>
<path d="M45.1668 32.462C46.8856 30.9064 52.782 28.2718 53.3591 28.0836C53.9362 27.8954 54.9272 28.1213 54.9649 28.8991C55.0025 29.6894 54.8143 31.8222 53.8985 32.462C52.9827 33.1144 48.6419 34.1431 47.5756 34.0678C46.4967 33.9926 44.2761 33.2775 45.1668 32.462Z" fill="#FFCC00"/>
<path d="M49.2709 38.4349L52.1439 37.6571C52.7586 37.494 53.3859 37.8578 53.5489 38.4726L54.3895 41.6089C54.5526 42.2111 54.1888 42.8384 53.574 43.0141L52.3069 43.3528C51.6922 43.5159 50.8768 43.2524 50.4628 42.7757L49.3838 41.496C48.9824 41.0193 48.5307 40.2039 48.3927 39.6895C48.2798 39.15 48.6562 38.6106 49.2709 38.4349Z" fill="#F2F9FF"/>
<path d="M53.2714 41.4456C53.2714 42.1482 52.6943 42.7253 51.9918 42.7253C51.2893 42.7253 50.7122 42.1482 50.7122 41.4456C50.7122 40.7431 51.2893 40.166 51.9918 40.166C52.6943 40.166 53.2714 40.7431 53.2714 41.4456Z" fill="#FF9500"/>
<path d="M50.8633 22.8648C49.9901 23.6007 32.212 23.4437 32.0092 23.4419C32.0029 23.4418 32.012 23.4418 32.0057 23.4419C31.8028 23.4439 14.0247 23.6132 13.1515 22.8648C13.0888 22.8146 13.2394 22.4257 13.5279 21.8486C14.6068 19.603 17.6052 14.4217 18.0568 14.2084C18.4457 14.0202 24.5428 13.9198 28.5449 13.8697C30.4565 13.8456 31.8842 13.8331 31.9998 13.8321C32.0055 13.832 32.0093 13.832 32.015 13.8321C32.1312 13.8331 33.5701 13.8456 35.47 13.8697C39.472 13.9198 45.5691 14.0202 45.958 14.2084C46.4097 14.4342 49.4206 19.603 50.4869 21.8486C50.7755 22.4257 50.9135 22.8146 50.8633 22.8648Z" fill="#B4E5FA"/>
<path d="M34.8206 13.8622C35.1799 13.8665 35.4693 14.1591 35.4693 14.5184C35.4693 14.881 35.1754 15.1749 34.8128 15.1749H29.1881C28.8255 15.1749 28.5316 14.881 28.5316 14.5184C28.5316 14.1591 28.821 13.8665 29.1803 13.8622C30.7588 13.8433 31.8844 13.8335 31.9866 13.8326C31.9923 13.8325 31.9961 13.8325 32.0018 13.8326C32.1044 13.8335 33.2394 13.8433 34.8206 13.8622Z" fill="#1A2C58"/>
<path d="M50.8625 22.8651C49.9893 23.601 32.2111 23.444 32.0083 23.4422C32.002 23.4421 32.0111 23.4421 32.0048 23.4422C31.802 23.4441 14.0239 23.6135 13.1507 22.8651C13.1114 22.8336 13.1558 22.6692 13.2655 22.4088C13.4125 22.0597 13.7663 21.8489 14.1451 21.8489H49.8684C50.2535 21.8489 50.6123 22.067 50.754 22.4251C50.8532 22.6761 50.8932 22.8343 50.8625 22.8651Z" fill="#1A2C58"/>
<path d="M44.5542 19.0759H38.5878C38.0355 19.0759 37.5878 19.5236 37.5878 20.0759V21.6662C37.5878 22.2185 38.0355 22.6662 38.5878 22.6662H44.5542C45.1064 22.6662 45.5542 22.2185 45.5542 21.6662V20.0759C45.5542 19.5236 45.1064 19.0759 44.5542 19.0759Z" fill="#1A2C58"/>
<path d="M25.4233 19.0759H19.4569C18.9046 19.0759 18.4569 19.5236 18.4569 20.0759V21.6662C18.4569 22.2185 18.9046 22.6662 19.4569 22.6662H25.4233C25.9756 22.6662 26.4233 22.2185 26.4233 21.6662V20.0759C26.4233 19.5236 25.9756 19.0759 25.4233 19.0759Z" fill="#1A2C58"/>
<g opacity="0.2">
<path opacity="0.2" d="M45.9575 14.2099C45.8592 14.1771 45.7897 14.295 45.8509 14.3786C47.0753 16.0499 50.6492 22.4376 50.3986 22.6404C49.5377 23.3766 31.7381 23.2193 31.5443 23.2175C31.5383 23.2175 31.5469 23.2175 31.5409 23.2175C31.3488 23.2192 16.2609 23.3503 13.2079 22.8015C13.1755 22.7957 13.151 22.8247 13.151 22.8576C13.151 22.8731 13.1533 22.8814 13.166 22.8902C14.2085 23.6131 31.8034 23.4577 32.0051 23.4559C32.0114 23.4558 32.0024 23.4558 32.0086 23.4559C32.2115 23.4579 49.9896 23.6272 50.8628 22.8788C51.1388 22.6279 46.522 14.4859 45.9575 14.2099Z" fill="#1A2C58"/>
</g>
<path d="M32.0069 41.1945C29.3332 41.1945 22.9328 40.6941 20.2383 40.5661C19.6375 40.5376 19.4307 40.965 19.8668 41.3792C20.6465 42.1199 21.8763 43.0944 22.811 43.2143C23.4885 43.3021 29.7111 43.6659 32.0069 43.6659C34.3153 43.6659 40.5253 43.3021 41.2027 43.2143C42.1341 43.1028 43.3584 42.1328 44.1385 41.3905C44.5778 40.9725 44.3672 40.5414 43.7616 40.5712C41.059 40.7044 34.6759 41.1945 32.0069 41.1945Z" fill="#214389"/>
<path d="M18.8474 32.462C17.1287 30.9064 11.2323 28.2718 10.6552 28.0836C10.0781 27.8954 9.08701 28.1213 9.04937 28.8991C9.01173 29.6894 9.19992 31.8222 10.1157 32.462C11.0316 33.1144 15.3723 34.1431 16.4387 34.0678C17.505 33.9926 19.7381 33.2775 18.8474 32.462Z" fill="#FFCC00"/>
<path d="M41.9181 32.5766C40.0238 32.5139 34.4787 32.3884 31.9947 32.3884C29.5107 32.3884 23.9655 32.5139 22.0712 32.5766C21.3686 32.6017 20.0137 33.4046 20.6535 34.5588C21.0801 35.3366 22.3848 36.5535 23.1877 37.6826C23.539 38.197 24.3294 38.6988 24.9315 38.8117C27.0768 39.2383 30.1881 40.1666 31.9947 40.1666C33.7887 40.1666 36.9125 39.2383 39.0578 38.8117C39.66 38.6988 40.4503 38.1844 40.8141 37.6826C41.6045 36.5535 42.9092 35.3492 43.3483 34.5588C43.9756 33.4046 42.6207 32.6142 41.9181 32.5766Z" fill="#214389"/>
<path d="M32.0069 40.4042C30.7398 40.4042 28.8831 39.9651 27.0891 39.5385C26.2987 39.3503 25.5585 39.1747 24.8936 39.0492C24.2287 38.9112 23.3882 38.3718 23.0118 37.8198C22.648 37.3054 22.1713 36.766 21.7071 36.2516C21.1927 35.6745 20.7034 35.11 20.4651 34.6834C20.1514 34.1063 20.2769 33.6296 20.4525 33.341C20.7913 32.7514 21.544 32.375 22.0834 32.3625C23.9151 32.2998 29.4853 32.1743 32.0069 32.1743C34.5286 32.1743 40.1113 32.2998 41.9304 32.3625C42.4699 32.375 43.2352 32.7514 43.5613 33.341C43.7244 33.6296 43.8624 34.1063 43.5488 34.6834C43.3104 35.1225 42.8211 35.6745 42.3068 36.2516C41.8426 36.766 41.3784 37.3054 41.0146 37.8198C40.6257 38.3718 39.7977 38.9112 39.1202 39.0492C38.4679 39.1747 37.7151 39.3503 36.9373 39.5385C35.1308 39.9651 33.274 40.4042 32.0069 40.4042ZM32.0069 32.626C29.4853 32.626 23.9151 32.7514 22.096 32.8141C21.7573 32.8267 21.1049 33.1027 20.8414 33.5669C20.6909 33.8429 20.6909 34.144 20.8665 34.4576C21.0798 34.8591 21.5565 35.386 22.0458 35.9505C22.51 36.4774 22.9867 37.0169 23.3756 37.5563C23.7018 38.008 24.4294 38.4847 24.9815 38.5976C25.6464 38.7356 26.3991 38.9113 27.1895 39.0869C28.9584 39.5009 30.79 39.94 31.9944 39.94C33.2113 39.94 35.0429 39.5009 36.7993 39.0869C37.5897 38.8987 38.3424 38.7231 39.0073 38.5976C39.5593 38.4847 40.287 38.008 40.6131 37.5563C40.9895 37.0169 41.4788 36.4774 41.943 35.9505C42.4448 35.386 42.909 34.8591 43.1348 34.4576C43.3104 34.144 43.3104 33.8429 43.1599 33.5669C42.8964 33.1027 42.2566 32.8267 41.9053 32.8141C40.0862 32.7514 34.5286 32.626 32.0069 32.626Z" fill="#E3E3E3"/>
<path d="M14.7448 38.4349L11.8719 37.6571C11.2572 37.494 10.6299 37.8578 10.4668 38.4726L9.62628 41.6089C9.46319 42.2111 9.82701 42.8384 10.4292 43.0141L11.6837 43.3528C12.2985 43.5159 13.1139 43.2524 13.5279 42.7757L14.6068 41.496C15.0083 41.0193 15.4474 40.2039 15.5979 39.6895C15.7359 39.15 15.347 38.6106 14.7448 38.4349Z" fill="#F2F9FF"/>
<path d="M10.7429 41.4456C10.7429 42.1482 11.32 42.7253 12.0226 42.7253C12.7251 42.7253 13.3022 42.1482 13.3022 41.4456C13.3022 40.7431 12.7377 40.166 12.0226 40.166C11.32 40.166 10.7429 40.7431 10.7429 41.4456Z" fill="#FF9500"/>
</g>
<defs>
<filter id="filter0_i" x="6.3999" y="0" width="51.2" height="64" filterUnits="userSpaceOnUse" color-interpolation-filters="sRGB">
<feFlood flood-opacity="0" result="BackgroundImageFix"/>
<feBlend mode="normal" in="SourceGraphic" in2="BackgroundImageFix" result="shape"/>
<feColorMatrix in="SourceAlpha" type="matrix" values="0 0 0 0 0 0 0 0 0 0 0 0 0 0 0 0 0 0 127 0" result="hardAlpha"/>
<feOffset/>
<feGaussianBlur stdDeviation="4"/>
<feComposite in2="hardAlpha" operator="arithmetic" k2="-1" k3="1"/>
<feColorMatrix type="matrix" values="0 0 0 0 0.164706 0 0 0 0 0.67451 0 0 0 0 0.494118 0 0 0 0.2 0"/>
<feBlend mode="normal" in2="shape" result="effect1_innerShadow"/>
</filter>
<clipPath id="clip0">
<rect width="53.3333" height="53.3333" fill="white" transform="translate(5.33337 5.33325)"/>
</clipPath>
</defs>
</svg>
