<svg width="1140" height="320" viewBox="0 0 1140 320" fill="none" xmlns="http://www.w3.org/2000/svg">
<g clip-path="url(#clip0)">
<path d="M122.039 307.81C118.926 306 115.19 305.709 111.596 305.46C105.03 305.012 98.455 304.555 91.8887 304.107C86.5095 303.734 80.9975 303.377 75.8258 304.879C70.6459 306.382 65.7813 310.134 64.5112 315.372L64.478 315.546C73.8169 317.464 83.1973 319.381 92.7189 319.88C102.24 320.378 111.978 319.398 120.769 315.696C122.62 314.915 124.679 313.654 124.762 311.645C124.82 310.009 123.467 308.64 122.039 307.81Z" fill="#F2F2F7"/>
<path d="M100.066 281.91L95.6246 298.629C95.6246 298.629 111.123 308.756 110.6 311.927L77.8848 304.481L83.7372 278.149L100.066 281.91Z" fill="url(#paint0_linear)"/>
<path d="M77.8848 304.473L78.5821 301.841L109.695 309.968C109.695 309.968 111.007 310.931 110.608 311.919L77.8848 304.473Z" fill="#1C1C1E"/>
<path d="M25.0793 86.273C23.1737 82.4849 22.5596 76.788 24.4689 72.223C27.6867 64.5178 36.8871 61.2211 36.0377 52.5758C35.8237 50.3984 34.8175 48.6629 33.3636 47.562C29.537 44.665 23.5025 46.3543 19.2137 48.5119C16.4748 49.8913 13.9429 51.8196 11.6206 54.2994L10.1205 39.0305C15.2452 35.2507 21.4951 33.2053 27.761 32.5916C40.6003 31.3344 50.6238 35.9546 51.8826 48.7702C53.0312 60.4581 45.204 65.797 39.9993 71.7522C37.1104 75.0576 36.4919 77.5727 36.7759 80.4667C36.9231 81.9629 37.5219 83.8022 38.4498 84.9637L25.0793 86.273ZM34.7172 107.006C22.2369 108.228 20.4651 91.5001 33.0723 90.2655C45.4907 89.05 47.1491 105.788 34.7172 107.006Z" fill="url(#paint1_linear)"/>
<path d="M45.084 230.707C53.8252 221.758 67.5306 217.998 79.6172 221.227C69.1161 228.267 57.32 232.044 44.6772 232.143" fill="url(#paint2_linear)"/>
<path d="M56.7973 189.234C55.3611 179.057 59.3208 167.61 66.9331 160.213C67.1904 170.291 62.9319 181.647 56.7973 189.234Z" fill="url(#paint3_linear)"/>
<path d="M50.7041 208.452C56.1331 198.075 65.0487 189.558 75.6577 184.602C72.4783 196.315 62.4587 205.903 50.6045 208.56" fill="url(#paint4_linear)"/>
<path d="M49.4502 212.163C55.5931 212.337 61.8191 212.121 67.7628 210.544C73.7065 208.975 79.4011 205.945 83.3525 201.238C71.3987 201.255 59.4698 204.891 49.5415 211.557" fill="url(#paint5_linear)"/>
<path d="M52.5634 199.943C49.4422 188.246 44.2954 180.161 35.1059 173.611C34.4086 179.298 35.8115 185.225 38.9743 189.998C42.1454 194.779 47.0514 198.374 52.5634 199.943Z" fill="url(#paint6_linear)"/>
<path d="M29.3616 220.114C29.2038 213.316 33.5786 206.641 39.8792 204.085C39.3729 210.12 34.6245 217.101 29.3616 220.114Z" fill="url(#paint7_linear)"/>
<path d="M26.4311 210.255C25.7338 200.484 18.794 191.452 9.53809 188.256C11.6549 198.027 17.3081 206.162 26.4311 210.255Z" fill="url(#paint8_linear)"/>
<path d="M30.8557 227.751C28.689 224.647 25.1527 222.721 21.4919 221.766C17.831 220.812 14.0041 220.72 10.2271 220.646C15.3323 226.257 22.9944 229.453 30.5734 229.121" fill="url(#paint9_linear)"/>
<path d="M35.2471 252.672C28.4318 250.564 20.8278 251.112 14.3778 254.167C7.92769 257.222 2.6896 262.758 0 269.366C12.8088 266.934 25.4433 261.248 35.2471 252.672Z" fill="url(#paint10_linear)"/>
<path d="M49.3009 244.016C47.1758 250.3 47.5826 257.904 52.306 263.316C54.2319 256.866 53.0946 249.569 49.3009 244.016Z" fill="url(#paint11_linear)"/>
<path d="M57.6021 240.52C58.1914 248.606 63.3631 256.193 70.6599 259.713C71.0252 259.887 71.4402 260.053 71.8138 259.904C72.3866 259.671 72.4447 258.883 72.37 258.269C71.4485 250.208 65.4799 242.421 57.6021 240.52Z" fill="url(#paint12_linear)"/>
<path d="M63.0229 239.706C66.6174 243.591 71.8638 245.899 77.16 245.924C82.4562 245.949 87.7191 243.699 91.3551 239.847C82.3482 238.86 71.9634 238.204 63.0229 239.706Z" fill="url(#paint13_linear)"/>
<path d="M64.3762 167.709C64.3845 167.709 64.3513 167.801 64.2932 167.975C64.2268 168.158 64.1355 168.415 64.0193 168.739C63.7619 169.419 63.3967 170.399 62.9318 171.653C62.4504 172.914 61.8859 174.467 61.2384 176.276C60.9146 177.181 60.566 178.144 60.1924 179.165C59.8355 180.194 59.4619 181.282 59.0717 182.419C57.4779 186.977 55.7014 192.455 53.7921 198.549C51.9161 204.65 49.9404 211.391 47.9979 218.505C46.0803 225.627 44.3868 232.443 42.9424 238.66C41.5395 244.894 40.3358 250.514 39.4642 255.271C39.2401 256.458 39.0242 257.587 38.825 258.658C38.6424 259.729 38.468 260.741 38.3103 261.688C37.9866 263.58 37.7043 265.208 37.5134 266.544C37.3142 267.864 37.1481 268.902 37.0402 269.615C36.9821 269.956 36.9406 270.221 36.9074 270.412C36.8742 270.595 36.8576 270.686 36.8493 270.686C36.841 270.686 36.8493 270.595 36.8742 270.412C36.8991 270.213 36.9323 269.948 36.9738 269.607C37.0734 268.885 37.2063 267.847 37.3806 266.519C37.5466 265.174 37.8039 263.547 38.1194 261.646C38.2688 260.7 38.4348 259.687 38.6092 258.608C38.8001 257.537 39.0076 256.4 39.2235 255.213C40.0619 250.456 41.249 244.82 42.6353 238.577C44.0631 232.343 45.7482 225.528 47.6658 218.397C49.6083 211.283 51.5923 204.542 53.485 198.441C55.4192 192.348 57.2123 186.877 58.8393 182.328C59.2378 181.191 59.6279 180.103 59.9849 179.074C60.3667 178.053 60.7237 177.09 61.0557 176.193C61.7198 174.392 62.3009 172.84 62.799 171.586C63.2888 170.341 63.6789 169.37 63.9446 168.689C64.0774 168.374 64.177 168.124 64.2517 167.942C64.3264 167.792 64.3679 167.709 64.3762 167.709Z" fill="#1C1C1E"/>
<path d="M14.9091 193.468C14.9174 193.468 14.9672 193.509 15.0668 193.617C15.1747 193.733 15.3159 193.883 15.4985 194.074C15.872 194.472 16.4199 195.07 17.1006 195.867C18.462 197.444 20.3796 199.793 22.4051 202.939C24.4306 206.069 26.5059 210.062 27.9504 214.802C29.4363 219.525 30.3577 224.888 31.2792 230.5C33.1137 241.731 35.3551 251.784 36.9821 259.064C37.8039 262.684 38.468 265.622 38.9329 267.673C39.157 268.677 39.3314 269.457 39.4559 270.014C39.5057 270.271 39.5472 270.47 39.5804 270.628C39.6053 270.769 39.6219 270.835 39.6136 270.835C39.6053 270.835 39.5887 270.769 39.5472 270.636C39.5057 270.478 39.4559 270.279 39.3895 270.03C39.2484 269.474 39.0574 268.694 38.8084 267.698C38.3186 265.647 37.613 262.717 36.7497 259.106C35.0645 251.842 32.7734 241.789 30.9388 230.549C30.0174 224.938 29.1125 219.592 27.6515 214.893C26.232 210.178 24.1982 206.21 22.2059 203.072C20.2136 199.926 18.3292 197.56 17.0093 195.958C16.3452 195.153 15.8139 194.539 15.457 194.124C15.291 193.924 15.1581 193.767 15.0502 193.65C14.9506 193.534 14.9008 193.476 14.9091 193.468Z" fill="#1C1C1E"/>
<path d="M65.713 239.316C65.713 239.324 65.6051 239.349 65.3892 239.374C65.1402 239.399 64.8247 239.432 64.4595 239.474C64.252 239.49 64.0278 239.515 63.7871 239.54C63.538 239.582 63.2724 239.615 62.9902 239.656C62.4174 239.739 61.7699 239.822 61.056 239.98C60.699 240.055 60.3255 240.121 59.9353 240.204C59.5534 240.304 59.1467 240.403 58.7399 240.511C57.9098 240.702 57.0465 241.001 56.125 241.283C54.3154 241.914 52.3646 242.736 50.4221 243.799C48.4879 244.878 46.7695 246.115 45.3085 247.352C44.5946 247.991 43.9139 248.597 43.3494 249.236C42.7434 249.834 42.2537 250.465 41.7971 251.029C41.3156 251.577 40.9836 252.141 40.6515 252.615C40.3112 253.079 40.0621 253.511 39.8629 253.868C39.672 254.192 39.5142 254.457 39.3814 254.673C39.2652 254.856 39.2071 254.947 39.1905 254.947C39.1822 254.939 39.2237 254.839 39.315 254.648C39.4312 254.424 39.5723 254.142 39.7384 253.81C39.921 253.445 40.1534 252.996 40.4772 252.515C40.8009 252.034 41.1247 251.452 41.5979 250.888C42.0461 250.307 42.5276 249.668 43.1336 249.053C43.6981 248.398 44.3788 247.783 45.0927 247.128C46.562 245.866 48.2887 244.604 50.2478 243.516C52.2068 242.446 54.1825 241.624 56.0171 241.001C56.9469 240.727 57.8185 240.437 58.6569 240.254C59.072 240.154 59.4787 240.063 59.8689 239.972C60.2591 239.905 60.6409 239.831 60.9979 239.773C61.7118 239.631 62.3759 239.565 62.9487 239.499C63.2309 239.465 63.5048 239.432 63.7539 239.407C63.9946 239.391 64.2271 239.382 64.4346 239.374C64.8081 239.358 65.1236 239.349 65.3726 239.333C65.6051 239.308 65.713 239.308 65.713 239.316Z" fill="#1C1C1E"/>
<path d="M68.2777 193.684C68.2943 193.701 68.0619 193.925 67.6302 194.307C67.1404 194.73 66.5178 195.27 65.779 195.917C64.2018 197.262 62.0103 199.105 59.578 201.122C57.1457 203.139 54.9293 204.949 53.3106 206.252C52.5385 206.866 51.891 207.373 51.3847 207.771C50.9281 208.128 50.6625 208.311 50.6542 208.294C50.6375 208.278 50.87 208.054 51.3016 207.672C51.7914 207.248 52.414 206.709 53.1528 206.061C54.7301 204.716 56.9216 202.874 59.3539 200.856C61.7861 198.839 64.0026 197.029 65.613 195.734C66.385 195.12 67.0325 194.614 67.5389 194.207C68.0038 193.858 68.2611 193.667 68.2777 193.684Z" fill="#1C1C1E"/>
<path d="M70.4945 205.596C70.5194 205.688 65.796 207.165 59.9353 208.892C54.0746 210.627 49.3014 211.955 49.2765 211.864C49.2516 211.772 53.975 210.295 59.8357 208.56C65.6963 206.833 70.4696 205.505 70.4945 205.596Z" fill="#1C1C1E"/>
<path d="M53.0369 200.857C53.0203 200.865 52.846 200.624 52.5472 200.176C52.2151 199.67 51.8 199.031 51.302 198.275C50.2477 196.673 48.7452 194.49 46.9687 192.174C45.1922 189.849 43.4822 187.832 42.2204 186.38C41.6227 185.699 41.1246 185.126 40.7262 184.67C40.3692 184.263 40.1866 184.03 40.2032 184.014C40.2198 183.997 40.4439 184.196 40.8258 184.578C41.2076 184.952 41.7555 185.516 42.403 186.214C43.7146 187.616 45.4579 189.625 47.2427 191.958C49.0274 194.291 50.4967 196.507 51.5095 198.142C52.0159 198.964 52.406 199.628 52.6634 200.102C52.9207 200.575 53.0535 200.84 53.0369 200.857Z" fill="#1C1C1E"/>
<path d="M36.6167 207.464C36.6582 207.497 36.21 208.178 35.5044 209.29C34.7988 210.402 33.8358 211.946 32.848 213.69C31.8601 215.433 31.0217 217.052 30.424 218.222C29.8263 219.401 29.4693 220.131 29.4195 220.106C29.378 220.09 29.6603 219.318 30.1999 218.114C30.7394 216.91 31.5447 215.267 32.5408 213.515C33.537 211.764 34.5331 210.228 35.2968 209.149C36.0605 208.078 36.5752 207.439 36.6167 207.464Z" fill="#1C1C1E"/>
<path d="M30.9966 228.076C30.9717 228.126 30.0669 227.686 28.5975 227.014C27.1199 226.349 25.0612 225.478 22.7286 224.664C20.3959 223.851 18.2459 223.245 16.677 222.846C15.108 222.448 14.1285 222.224 14.1368 222.174C14.1451 222.149 14.3941 222.174 14.8424 222.249C15.2906 222.315 15.9381 222.44 16.7351 222.606C18.3206 222.946 20.5038 223.519 22.8448 224.341C25.1857 225.162 27.2444 226.075 28.7055 226.798C29.436 227.163 30.0171 227.47 30.4072 227.694C30.7974 227.918 31.0049 228.051 30.9966 228.076Z" fill="#1C1C1E"/>
<path d="M35.4216 252.714C35.4216 252.722 35.322 252.756 35.1311 252.814C34.8986 252.872 34.6164 252.947 34.276 253.03C33.4791 253.212 32.4166 253.461 31.1299 253.752C28.4818 254.366 24.7877 255.138 20.8612 256.466C16.9347 257.803 13.5644 259.505 11.2816 260.966C10.136 261.696 9.23948 262.335 8.64179 262.8C8.0358 263.265 7.70375 263.522 7.68715 263.506C7.67885 263.497 7.75356 263.423 7.89468 263.282C8.0441 263.149 8.25163 262.941 8.55048 262.7C9.13157 262.202 10.0032 261.522 11.1405 260.766C13.4067 259.239 16.7936 257.487 20.745 256.143C24.7047 254.806 28.4154 254.075 31.0801 253.519C32.3751 253.27 33.4459 253.054 34.2511 252.897C34.9983 252.756 35.4133 252.689 35.4216 252.714Z" fill="#1C1C1E"/>
<path d="M51.4099 258.782C51.3186 258.798 50.7541 255.478 50.1564 251.377C49.5587 247.268 49.1437 243.931 49.2433 243.922C49.3346 243.906 49.8991 247.226 50.4968 251.327C51.0945 255.428 51.5095 258.765 51.4099 258.782Z" fill="#1C1C1E"/>
<path d="M68.0622 252.739C68.0207 252.773 67.4645 252.075 66.5597 250.955C65.6631 249.834 64.4096 248.29 63.0067 246.613C61.5955 244.936 60.2922 243.442 59.3376 242.363C58.3912 241.284 57.8019 240.611 57.8434 240.578C57.86 240.561 58.026 240.711 58.3165 240.985C58.6071 241.267 59.0221 241.674 59.5202 242.197C60.5164 243.234 61.8529 244.712 63.2724 246.389C64.6836 248.074 65.9039 249.643 66.7589 250.805C67.1823 251.386 67.5226 251.859 67.7467 252.191C67.9709 252.532 68.0871 252.723 68.0622 252.739Z" fill="#1C1C1E"/>
<path d="M23.999 268.18V276.406H26.0577L33.3711 299.492H49.5835L56.6727 276.639L59.4122 276.406V268.18H23.999Z" fill="url(#paint14_linear)"/>
<path d="M58.0423 276.638C58.0423 276.729 50.8783 276.812 42.0458 276.812C33.2133 276.812 26.0493 276.738 26.0493 276.638C26.0493 276.547 33.2133 276.464 42.0458 276.464C50.8783 276.464 58.0423 276.538 58.0423 276.638Z" fill="#1C1C1E"/>
<path d="M69.7057 223.71C69.714 223.735 69.3405 223.835 68.6681 223.993C67.9376 224.167 66.9746 224.399 65.8208 224.682C63.4217 225.279 60.1261 226.176 56.5565 227.379C52.9787 228.583 49.8159 229.853 47.5414 230.833C46.4539 231.306 45.5491 231.704 44.8601 232.003C44.2292 232.285 43.8722 232.427 43.8639 232.41C43.8556 232.385 44.1877 232.202 44.802 231.887C45.4163 231.563 46.3211 231.132 47.4418 230.609C49.6914 229.571 52.8625 228.259 56.4486 227.056C60.0348 225.852 63.3553 224.98 65.7709 224.449C66.9829 224.184 67.9625 223.984 68.6432 223.868C69.3239 223.744 69.7057 223.685 69.7057 223.71Z" fill="#1C1C1E"/>
<path d="M85.8292 294.9C85.1568 294.925 84.5591 295.539 84.5591 296.212C84.5591 296.884 85.1817 297.499 85.8541 297.482C86.5265 297.465 87.2653 296.751 87.1906 296.079C87.1159 295.407 86.3522 294.726 85.6964 294.909" fill="#F2F2F7"/>
<path d="M96.7866 294.662C96.687 294.794 96.0063 294.404 95.0849 294.263C94.1718 294.097 93.3998 294.246 93.3499 294.089C93.2835 293.956 94.1054 293.516 95.1845 293.699C96.2554 293.873 96.8946 294.554 96.7866 294.662Z" fill="#1C1C1E"/>
<path d="M88.6352 285.156L88.3281 302.447C88.3281 302.447 105.802 308.565 106.06 311.77L72.5059 312.384L71.875 285.421L88.6352 285.156Z" fill="url(#paint15_linear)"/>
<path d="M77.9262 301.186C77.2787 301.377 76.8471 302.116 77.0048 302.763C77.1708 303.419 77.9179 303.867 78.5654 303.685C79.2129 303.51 79.7608 302.639 79.5284 302.008C79.2959 301.377 78.3911 300.895 77.8017 301.227" fill="#F2F2F7"/>
<path d="M72.5054 312.383L72.5469 309.66L104.698 310.092C104.698 310.092 106.2 310.714 106.051 311.769L72.5054 312.383Z" fill="#1C1C1E"/>
<path d="M88.867 302.273C88.867 302.439 88.0452 302.522 87.2483 303.07C86.4348 303.593 86.0363 304.307 85.8869 304.249C85.7375 304.224 85.9616 303.236 86.9411 302.597C87.9124 301.941 88.9002 302.116 88.867 302.273Z" fill="#1C1C1E"/>
<path d="M92.4203 303.659C92.4618 303.817 91.7562 304.107 91.2083 304.813C90.6439 305.502 90.5193 306.249 90.3533 306.249C90.2039 306.274 90.0711 305.319 90.7601 304.456C91.4491 303.593 92.412 303.501 92.4203 303.659Z" fill="#1C1C1E"/>
<path d="M94.4952 307.835C94.3458 307.876 94.1051 307.054 94.5118 306.15C94.9103 305.245 95.674 304.871 95.7487 305.012C95.84 305.145 95.3585 305.635 95.0348 306.382C94.6861 307.121 94.6529 307.818 94.4952 307.835Z" fill="#1C1C1E"/>
<path d="M88.5023 298.322C88.4359 298.471 87.6805 298.264 86.7591 298.339C85.8293 298.397 85.1154 298.72 85.0324 298.588C84.9328 298.471 85.6301 297.849 86.7175 297.774C87.805 297.683 88.5853 298.189 88.5023 298.322Z" fill="#1C1C1E"/>
<path d="M68.5544 139.567L64.7026 163.516L67.5168 183.306L67.633 187.606L70.4803 208.716C70.3226 212.726 69.5091 229.478 68.8948 232.931C68.1393 237.215 70.2396 298.063 70.2396 298.063L89.5898 297.208C89.5898 297.208 96.9032 206.982 96.8783 205.994C96.8534 204.998 106.939 138.496 106.939 138.496L68.5544 139.567Z" fill="#1C1C1E"/>
<path d="M117.473 143.263C117.473 143.263 120.536 210.038 119.524 218.281C118.71 224.922 98.4053 296.694 98.4053 296.694L80.6572 293.648L87.6386 216.189L90.1622 138.962L117.473 143.263Z" fill="#1C1C1E"/>
<path d="M103.975 169.735C104.083 169.752 101.684 189.401 98.6046 213.624C95.5248 237.855 89.6973 297.234 89.5894 297.218C89.4815 297.201 95.1346 237.806 98.2061 213.574C101.286 189.351 103.868 169.719 103.975 169.735Z" fill="#8E8E93"/>
<path d="M98.6376 28.6389C97.6082 26.6134 96.5706 24.5629 96.0144 22.3631C95.4582 20.155 95.425 17.7476 96.363 15.6806C96.9109 14.4686 97.7743 13.4061 98.2059 12.1526C98.8036 10.4259 98.5546 8.3838 99.6254 6.89788C101.302 4.58183 104.88 5.12141 107.47 3.90942C109.487 2.96308 110.89 0.929273 113.015 0.248571C114.867 -0.34912 116.884 0.223667 118.677 0.987382C120.462 1.7511 122.205 2.73065 124.139 2.97968C125.517 3.16231 126.912 2.96308 128.298 2.98798C129.684 3.02119 131.154 3.32834 132.133 4.30788C133.113 5.29573 133.312 7.11371 132.258 8.01024C134.682 7.59518 136.964 10.0191 136.94 12.4763C136.906 14.9335 135.055 17.1001 132.814 18.1212C130.581 19.1422 128.024 19.2086 125.567 19.0177C118.627 18.4781 111.646 15.8383 106.922 10.7248" fill="#1C1C1E"/>
<path d="M100.14 19.9567L95.4086 54.3321C94.6034 60.1762 101.875 70.9014 107.761 71.4161C113.248 71.8976 115.124 67.9462 115.871 62.4923C116.228 59.9023 116.527 52.3813 116.577 52.1157C116.577 52.1157 125.443 52.4976 127.269 43.9224C128.149 39.7801 129.269 31.0969 130.191 23.2274C131.179 14.7767 125.509 6.99013 117.166 5.32157L116.336 5.15555C107.279 3.89376 101.153 10.8751 100.14 19.9567Z" fill="#F7F7FC"/>
<path opacity="0.2" d="M116.568 52.1238C116.568 52.1238 111.09 51.3601 106.034 46.5786C106.034 46.5786 107.686 53.7841 116.419 54.7221L116.568 52.1238Z" fill="url(#paint16_linear)"/>
<path d="M126.331 30.5394C126.223 31.1953 125.584 31.6435 124.903 31.5439C124.222 31.4443 123.749 30.8383 123.857 30.1825C123.965 29.5267 124.604 29.0784 125.285 29.178C125.966 29.2777 126.439 29.8836 126.331 30.5394Z" fill="#1C1C1E"/>
<path d="M127.493 27.078C127.31 27.2108 126.513 26.3309 125.193 26.0735C123.874 25.7913 122.77 26.281 122.662 26.0901C122.603 26.0071 122.819 25.7498 123.301 25.5256C123.774 25.3015 124.546 25.1438 125.368 25.3181C126.19 25.4841 126.821 25.9241 127.161 26.3143C127.501 26.7044 127.584 27.0282 127.493 27.078Z" fill="#1C1C1E"/>
<path d="M114.012 28.4152C113.904 29.071 113.264 29.5193 112.584 29.4197C111.903 29.3201 111.43 28.7141 111.538 28.0583C111.646 27.4025 112.285 26.9542 112.966 27.0538C113.646 27.1534 114.111 27.7594 114.012 28.4152Z" fill="#1C1C1E"/>
<path d="M114.46 24.7382C114.278 24.871 113.481 23.9911 112.161 23.7337C110.841 23.4515 109.737 23.9413 109.629 23.7503C109.571 23.6673 109.787 23.41 110.268 23.1858C110.741 22.9617 111.513 22.804 112.335 22.9783C113.157 23.1443 113.788 23.5926 114.128 23.9745C114.469 24.3646 114.552 24.6801 114.46 24.7382Z" fill="#1C1C1E"/>
<path d="M117.299 35.4879C117.307 35.4132 118.154 35.4298 119.524 35.5294C119.864 35.5626 120.204 35.5626 120.304 35.3385C120.429 35.1144 120.362 34.7159 120.279 34.2926C120.121 33.4126 119.964 32.4912 119.798 31.5282C119.142 27.5935 118.743 24.3892 118.901 24.3643C119.059 24.3394 119.723 27.5104 120.371 31.4452C120.52 32.4165 120.669 33.3379 120.81 34.2178C120.86 34.6246 120.993 35.1061 120.719 35.5792C120.578 35.8117 120.296 35.9445 120.063 35.9611C119.831 35.986 119.64 35.9528 119.474 35.9279C118.121 35.7287 117.282 35.5626 117.299 35.4879Z" fill="#1C1C1E"/>
<path d="M113.223 35.6278C113.439 35.661 113.157 37.0889 114.178 38.359C115.199 39.6291 116.759 39.7702 116.734 39.9694C116.734 40.0607 116.336 40.1769 115.689 40.069C115.049 39.9611 114.169 39.5793 113.539 38.8072C112.916 38.0352 112.758 37.1387 112.825 36.541C112.899 35.9184 113.132 35.5946 113.223 35.6278Z" fill="#1C1C1E"/>
<path d="M115.838 19.6241C115.639 19.9562 114.352 19.5245 112.766 19.4C111.181 19.2423 109.844 19.4498 109.703 19.0846C109.645 18.9102 109.927 18.6197 110.5 18.3707C111.073 18.1216 111.936 17.9556 112.883 18.0386C113.837 18.1216 114.659 18.4371 115.174 18.7857C115.697 19.1261 115.921 19.4664 115.838 19.6241Z" fill="#1C1C1E"/>
<path d="M127.776 23.1607C127.485 23.418 126.638 22.9199 125.542 22.6875C124.463 22.4136 123.484 22.4883 123.334 22.1313C123.268 21.957 123.475 21.6914 123.94 21.4838C124.397 21.2846 125.111 21.185 125.858 21.3593C126.605 21.5336 127.203 21.9321 127.518 22.3222C127.842 22.7041 127.9 23.0362 127.776 23.1607Z" fill="#1C1C1E"/>
<path d="M99.5679 26.4567C99.435 26.3653 94.0143 23.5263 93.0265 29.4451C92.0386 35.3556 98.1815 35.1315 98.223 34.9655C98.2563 34.7994 99.5679 26.4567 99.5679 26.4567Z" fill="#F7F7FC"/>
<path opacity="0.2" d="M96.7866 32.4235C96.7617 32.3986 96.6704 32.4816 96.4878 32.5314C96.3052 32.5812 96.0063 32.5895 95.7158 32.4152C95.1264 32.0831 94.7694 31.0039 94.9189 29.9331C94.9936 29.3935 95.1928 28.8954 95.4501 28.5053C95.6992 28.1068 96.0312 27.8495 96.355 27.8412C96.6787 27.8246 96.8697 28.0487 96.9195 28.223C96.9693 28.4057 96.9112 28.5136 96.9444 28.5302C96.961 28.5468 97.0855 28.4555 97.0772 28.1981C97.0689 28.0736 97.0274 27.9242 96.9029 27.7914C96.7783 27.6502 96.5791 27.5589 96.355 27.5423C95.8901 27.5008 95.4169 27.8495 95.1264 28.2811C94.8109 28.7128 94.5785 29.2607 94.4955 29.8667C94.3378 31.0621 94.7611 32.2823 95.5747 32.6725C95.9731 32.8468 96.3384 32.7804 96.5459 32.6725C96.7534 32.5646 96.8032 32.4318 96.7866 32.4235Z" fill="url(#paint17_linear)"/>
<path d="M131.884 15.2495C130.871 17.4327 125.65 18.2794 121.823 17.1256C118.295 16.063 117.017 13.8217 114.775 11.8709C113.356 10.634 113.356 10.634 111.04 10.3932C109.164 10.2023 107.661 12.0618 106.25 13.307C107.039 18.0055 104.947 22.6625 102.913 26.9708C102.689 27.444 102.431 27.9587 101.958 28.1911C101.153 28.5896 100.198 27.9587 99.7169 27.2033C98.9532 25.9913 98.8619 24.4805 98.8868 23.0526C98.9532 19.7903 99.526 16.5113 100.846 13.5311C102.174 10.551 104.274 7.87796 107.03 6.1264C110.475 3.94317 114.809 3.32058 118.793 4.17561C122.778 5.03893 126.397 7.32178 129.103 10.3683C130.365 11.7795 131.461 13.4066 131.884 15.2495Z" fill="#1C1C1E"/>
<path d="M119.856 29.5429C119.906 29.5429 119.889 29.0365 120.122 28.1649C120.354 27.3181 120.935 26.073 122.214 25.1266C123.45 24.172 125.484 23.6407 127.452 24.3712C128.423 24.7199 129.344 25.384 130 26.2971C130.673 27.1936 131.054 28.3475 131.063 29.5429C131.054 30.7299 130.673 31.8838 130 32.7887C129.344 33.7018 128.423 34.3659 127.452 34.7145C125.484 35.445 123.45 34.9138 122.214 33.9591C120.935 33.0045 120.354 31.7676 120.122 30.9209C119.889 30.0575 119.906 29.5429 119.856 29.5429C119.839 29.5429 119.831 29.6674 119.823 29.9081C119.814 30.1489 119.839 30.5058 119.939 30.9624C120.122 31.8506 120.678 33.1788 122.006 34.2248C123.293 35.2707 125.459 35.8933 127.593 35.1213C128.647 34.756 129.651 34.0421 130.365 33.0626C131.104 32.0913 131.519 30.8296 131.528 29.5429C131.519 28.2479 131.096 26.9944 130.365 26.0231C129.651 25.0353 128.647 24.3297 127.593 23.9644C125.459 23.1924 123.284 23.815 122.006 24.861C120.678 25.9069 120.122 27.2351 119.939 28.1234C119.839 28.5716 119.814 28.9369 119.823 29.1776C119.831 29.4184 119.839 29.5429 119.856 29.5429Z" fill="#1C1C1E"/>
<path d="M105.827 27.0953C105.876 27.0953 105.86 26.5889 106.092 25.7173C106.325 24.8705 106.906 23.6254 108.184 22.679C109.421 21.7244 111.455 21.1931 113.422 21.9236C114.394 22.2723 115.315 22.9364 115.971 23.8495C116.643 24.746 117.025 25.8999 117.033 27.0953C117.025 28.2824 116.643 29.4362 115.971 30.3411C115.315 31.2542 114.394 31.9183 113.422 32.267C111.455 32.9975 109.421 32.4662 108.184 31.5115C106.906 30.5569 106.325 29.32 106.092 28.4733C105.86 27.6017 105.876 27.0953 105.827 27.0953C105.81 27.0953 105.802 27.2198 105.793 27.4605C105.785 27.7013 105.81 28.0582 105.91 28.5148C106.092 29.403 106.648 30.7312 107.977 31.7772C109.263 32.8231 111.43 33.4457 113.563 32.6737C114.618 32.3085 115.622 31.5946 116.336 30.615C117.075 29.6438 117.49 28.382 117.498 27.0953C117.49 25.8003 117.067 24.5468 116.336 23.5756C115.622 22.5877 114.618 21.8821 113.563 21.5168C111.43 20.7448 109.255 21.3674 107.977 22.4134C106.648 23.4593 106.092 24.7875 105.91 25.6758C105.81 26.124 105.785 26.4893 105.793 26.73C105.802 26.9708 105.81 27.0953 105.827 27.0953Z" fill="#1C1C1E"/>
<path d="M117.382 27.2934C117.441 27.4096 118.196 27.061 119.068 27.3266C119.948 27.584 120.379 28.2979 120.495 28.2232C120.554 28.1983 120.52 27.9741 120.329 27.6753C120.138 27.3847 119.748 27.0278 119.209 26.8617C118.669 26.704 118.154 26.7787 117.831 26.9199C117.499 27.0693 117.349 27.2436 117.382 27.2934Z" fill="#1C1C1E"/>
<path d="M97.874 25.5762C97.874 25.709 99.7584 25.792 102.083 25.7588C104.407 25.7256 106.291 25.5928 106.291 25.46C106.291 25.3271 104.407 25.2441 102.083 25.2773C99.7584 25.3105 97.874 25.4517 97.874 25.5762Z" fill="#1C1C1E"/>
<path d="M135.288 97.7383L120.537 107.476L120.752 111.336L124.604 119.454C124.604 119.454 126.381 121.14 131.61 115.852C136.832 110.564 143.448 100.046 143.448 100.046L135.288 97.7383Z" fill="#F7F7FC"/>
<path d="M160.125 77.4413C159.959 77.0511 159.594 76.7855 159.162 76.7274L151.932 75.7561C151.293 75.6814 150.654 75.8724 150.172 76.2874L129.477 94.0604L130.415 94.9735L138.177 96.8413L160.258 77.765L160.125 77.4413Z" fill="#1C1C1E"/>
<path d="M154.389 78.912C154.497 79.078 154.779 79.0946 155.003 78.9535C155.236 78.804 155.327 78.555 155.219 78.389C155.111 78.223 154.829 78.2063 154.605 78.3475C154.364 78.4886 154.273 78.7459 154.389 78.912Z" fill="white"/>
<path d="M160.266 77.7651C160.258 77.7983 159.76 77.7568 158.847 77.6572C157.867 77.541 156.564 77.3915 154.995 77.2089C154.173 77.1093 153.285 76.9931 152.339 76.8769C151.89 76.7938 151.434 76.9101 151.085 77.2006C150.703 77.5327 150.305 77.873 149.906 78.2217C148.271 79.6246 146.486 81.1603 144.619 82.779C140.858 85.9999 137.438 88.9054 134.948 90.989C133.736 91.9851 132.739 92.8152 131.984 93.4378C131.278 94.0106 130.88 94.3178 130.855 94.2929C130.838 94.268 131.195 93.9193 131.868 93.3133C132.598 92.6658 133.57 91.8025 134.74 90.7648C137.181 88.6231 140.568 85.6845 144.328 82.4636C146.212 80.8614 148.005 79.334 149.641 77.9311C150.048 77.5825 150.454 77.2421 150.844 76.9184C151.276 76.5531 151.89 76.4286 152.388 76.5282C153.335 76.6693 154.223 76.7938 155.037 76.9101C156.597 77.1508 157.892 77.35 158.872 77.4994C159.768 77.6406 160.266 77.7319 160.266 77.7651Z" fill="#8E8E93"/>
<path d="M152.754 81.4772C152.754 81.4772 152.098 81.1617 151.185 82.9465C150.272 84.7396 147.524 89.8365 147.524 89.8365L144.428 86.8896L139.713 86.2089C139.713 86.2089 138.468 86.8481 139.049 87.5454C139.638 88.251 142.369 89.5626 142.369 89.5626L143.631 93.2068L138.368 88.5664C138.368 88.5664 136.193 88.5249 136.434 89.9278C136.683 91.3308 139.696 96.3613 139.696 96.3613L136.716 95.2739L133.711 92.053C133.711 92.053 132.582 91.7956 132.731 92.8582C132.881 93.9207 135.687 98.4034 135.687 98.4034L139.638 101.907C139.638 101.907 142.187 102.413 142.635 101.749C143.083 101.085 143.432 100.055 143.432 100.055C143.432 100.055 144.86 100.072 145.283 99.4992C145.706 98.9264 145.839 97.8638 145.839 97.8638C145.839 97.8638 147.815 98.8102 148.396 97.7227C148.977 96.6353 149.4 94.2943 149.442 93.3397C149.483 92.3933 152.903 84.4158 152.887 84.1419C152.879 83.8679 154.207 81.2945 152.754 81.4772Z" fill="#F7F7FC"/>
<path opacity="0.2" d="M142.801 101.798C142.801 101.856 142.303 101.923 141.506 101.831C140.709 101.74 139.613 101.45 138.534 100.852C137.455 100.246 136.624 99.4738 136.126 98.8429C135.628 98.212 135.421 97.7555 135.471 97.7223C135.587 97.631 136.683 99.2912 138.766 100.42C140.825 101.591 142.817 101.649 142.801 101.798Z" fill="url(#paint18_linear)"/>
<path opacity="0.2" d="M142.178 99.8544C142.078 99.9374 141.389 99.2899 140.725 98.3352C140.061 97.3806 139.679 96.509 139.795 96.4426C139.911 96.3761 140.468 97.1233 141.123 98.053C141.771 98.991 142.277 99.763 142.178 99.8544Z" fill="url(#paint19_linear)"/>
<path opacity="0.2" d="M145.681 96.5844C145.582 96.6674 144.893 96.0282 144.295 95.0487C143.689 94.0691 143.431 93.1726 143.556 93.1228C143.681 93.073 144.129 93.8533 144.71 94.7996C145.291 95.746 145.789 96.5014 145.681 96.5844Z" fill="url(#paint20_linear)"/>
<path opacity="0.2" d="M149.101 94.1191C148.96 94.1357 148.744 93.1479 148.28 92.0106C147.823 90.8734 147.3 90.01 147.416 89.9187C147.516 89.8357 148.246 90.616 148.736 91.828C149.226 93.04 149.234 94.1108 149.101 94.1191Z" fill="url(#paint21_linear)"/>
<path d="M129.02 100.046L138.733 108.779C138.733 108.779 123.525 125.39 118.826 129.068C114.128 132.745 120.329 103.998 120.329 103.998L129.02 100.046Z" fill="url(#paint22_linear)"/>
<path d="M96.0233 48.0885L91.9806 53.6918L76.2581 59.511L69.1273 112.988L63.3164 160.811C63.3164 160.811 74.2824 162.762 77.0052 158.786C80.1762 154.145 104.939 158.329 106.591 159.574L109.812 148.766L112.418 161.284C112.418 161.284 117.001 162.314 119.391 155.473L118.379 131.748C118.379 131.748 121.599 88.9638 121.417 82.5137C121.234 76.0637 116.868 58.1496 116.868 58.1496L115.241 63.4292L101.079 51.3509L96.0233 48.0885Z" fill="url(#paint23_linear)"/>
<path d="M80.8068 57.8755C80.8068 57.8755 70.4717 57.8423 67.1346 76.9767C63.7975 96.1194 58.9911 116.648 61.4649 124.327C63.9387 132.006 73.6428 154.129 73.6428 154.129L86.9497 149.33L81.4875 114.59L87.8047 80.5878C87.813 80.5961 88.5933 59.2702 80.8068 57.8755Z" fill="url(#paint24_linear)"/>
<path d="M92.4116 156.761L86.9494 149.339L75.6431 153.407C75.6431 153.407 75.2695 157.01 75.7095 161.268C76.108 165.029 76.7555 169.055 76.7555 169.055L90.1454 161.916C90.1454 161.916 90.7099 164.705 91.457 166.257C92.2041 167.818 94.7858 166.166 94.7858 166.166L92.4116 156.761Z" fill="#F7F7FC"/>
<path d="M87.8131 80.597C87.8131 80.597 87.7882 80.8045 87.7218 81.203C87.647 81.6181 87.5474 82.2075 87.4146 82.9795C87.1324 84.5567 86.7173 86.8479 86.1943 89.7865C85.1152 95.697 83.5545 104.197 81.6452 114.624V114.574C83.2142 124.469 85.0903 136.315 87.1407 149.306L87.1656 149.464L87.0161 149.522C82.7576 151.058 78.2832 152.677 73.7093 154.329L73.5349 154.395L73.4602 154.221C72.1071 151.083 70.6793 147.771 69.2349 144.409C66.6947 138.39 64.221 132.513 62.0875 126.727C61.8136 126.005 61.5812 125.274 61.3321 124.552C61.2159 124.187 61.1412 123.805 61.0499 123.431C60.9503 123.058 60.8673 122.684 60.8424 122.303C60.751 121.547 60.6431 120.792 60.6431 120.036C60.6099 119.281 60.585 118.534 60.6182 117.795C60.6846 114.823 60.9752 111.926 61.3487 109.12C62.0792 103.5 63.0754 98.2123 63.9802 93.2647C64.9017 88.3172 65.765 83.71 66.5453 79.5012C66.9023 77.3927 67.3256 75.3921 67.7407 73.5078C68.0063 72.578 68.272 71.6732 68.521 70.8015C68.8198 69.9382 69.1436 69.1247 69.4424 68.3195C70.754 65.1733 72.4392 62.6829 74.2156 61.0559C75.9755 59.4039 77.7105 58.5904 78.9141 58.2168C79.5201 58.0259 79.9933 57.9512 80.3171 57.9097C80.4665 57.9014 80.591 57.8931 80.6823 57.8848C80.7653 57.8848 80.8068 57.8931 80.8068 57.8931C80.8068 57.8931 80.6408 57.9097 80.3254 57.9512C80.0099 58.0093 79.5367 58.0923 78.939 58.2916C77.752 58.6817 76.0502 59.5118 74.3236 61.1638C72.5803 62.7908 70.9284 65.2729 69.65 68.4025C69.3594 69.1994 69.0357 70.0129 68.7451 70.868C68.4961 71.7396 68.2471 72.6361 67.9814 73.5576C67.5747 75.4336 67.1679 77.4259 66.8192 79.5428C66.0472 83.7515 65.2088 88.367 64.2957 93.3145C63.4074 98.2621 62.4196 103.55 61.7057 109.162C61.3321 111.959 61.0499 114.848 60.9918 117.795C60.9586 118.534 60.9835 119.273 61.0167 120.011C61.0167 120.758 61.1246 121.497 61.2159 122.236C61.2408 122.61 61.3321 122.975 61.4234 123.332C61.5148 123.697 61.5812 124.062 61.6974 124.419C61.9464 125.142 62.1788 125.864 62.4528 126.586C64.5862 132.355 67.06 138.233 69.6002 144.243C71.0446 147.605 72.4724 150.917 73.8255 154.046L73.5764 153.939C78.1587 152.287 82.6331 150.676 86.8916 149.149L86.7671 149.356C84.7416 136.365 82.8904 124.511 81.3464 114.607V114.582L81.3547 114.557C83.3221 104.139 84.9242 95.6472 86.0366 89.745C86.6011 86.8147 87.041 84.5235 87.3399 82.9546C87.4893 82.1909 87.6055 81.6015 87.6885 81.1864C87.755 80.7962 87.8131 80.597 87.8131 80.597Z" fill="white"/>
<path d="M115.24 63.4042C115.257 63.4125 115.149 63.6615 114.933 64.1098C114.684 64.6162 114.361 65.2554 113.97 66.044C113.09 67.7457 111.895 70.0618 110.492 72.768L110.359 73.0336L110.185 72.7929C108.948 71.0994 107.529 69.2649 105.968 67.3888C102.905 63.703 99.8749 60.5984 97.6004 58.4317C96.4714 57.3443 95.5334 56.4893 94.8859 55.8916C94.2384 55.3022 93.8814 54.9618 93.898 54.9452C93.9146 54.9203 94.3048 55.2192 94.9855 55.7754C95.6662 56.3398 96.6374 57.1617 97.7913 58.2242C100.116 60.341 103.195 63.4291 106.267 67.1315C107.836 69.0075 109.247 70.8587 110.476 72.5771L110.168 72.602C111.621 69.929 112.858 67.6378 113.771 65.9444C114.203 65.1807 114.551 64.5498 114.825 64.06C115.083 63.6283 115.224 63.3959 115.24 63.4042Z" fill="white"/>
<path d="M118.727 66.2605C118.86 66.2107 119.532 68.643 119.051 71.8805L118.968 72.4533L118.685 71.9303C118.536 71.6564 118.387 71.3575 118.245 71.0504C117.498 69.3652 117.092 67.7631 116.676 66.659C116.278 65.5466 115.954 64.8908 116.004 64.8576C116.046 64.8327 116.469 65.447 116.942 66.5594C117.432 67.6552 117.88 69.249 118.611 70.8843C118.744 71.1832 118.893 71.4654 119.034 71.7394L118.669 71.7892C118.951 70.2867 118.876 68.8505 118.851 67.8627C118.818 66.8582 118.685 66.2771 118.727 66.2605Z" fill="white"/>
<path d="M115.921 66.1685C115.929 66.1685 115.938 66.2432 115.938 66.3844C115.938 66.5504 115.946 66.7579 115.946 67.0152C115.954 67.5714 115.946 68.385 115.938 69.4309C115.905 71.5311 115.822 74.5611 115.614 78.3049C115.216 85.7927 114.302 96.1111 113.364 107.5C112.393 118.881 111.505 129.183 110.866 136.679C110.525 140.39 110.26 143.403 110.06 145.52C109.961 146.541 109.878 147.346 109.82 147.919C109.787 148.177 109.77 148.376 109.745 148.542C109.728 148.683 109.712 148.758 109.703 148.749C109.695 148.749 109.695 148.675 109.703 148.534C109.712 148.367 109.72 148.16 109.737 147.903C109.778 147.322 109.828 146.516 109.903 145.495C110.069 143.378 110.293 140.357 110.575 136.646C111.189 129.15 112.028 118.84 112.958 107.459C113.896 96.0613 114.85 85.7512 115.323 78.28C115.564 74.5445 115.697 71.5145 115.772 69.4226C115.805 68.4016 115.838 67.5963 115.855 67.0152C115.863 66.7579 115.88 66.5504 115.888 66.3844C115.905 66.2349 115.913 66.1685 115.921 66.1685Z" fill="white"/>
<path d="M121.499 84.7554C121.607 84.7637 121.018 95.3395 120.171 108.372C119.324 121.405 118.552 131.965 118.444 131.956C118.336 131.948 118.926 121.372 119.773 108.339C120.611 95.3063 121.383 84.7471 121.499 84.7554Z" fill="white"/>
<path d="M90.3948 71.9711C90.3201 71.9711 90.3201 71.0165 89.9466 69.5471C89.5813 68.0861 88.7346 66.1104 87.174 64.4087C85.6133 62.7069 83.7123 61.7025 82.2845 61.2127C80.8484 60.7063 79.8938 60.6316 79.9104 60.5569C79.9104 60.532 80.1511 60.5237 80.5828 60.5735C81.0144 60.615 81.6287 60.7229 82.3758 60.9471C83.8535 61.3787 85.8458 62.3832 87.4645 64.143C89.0832 65.9029 89.9134 67.9782 90.2205 69.489C90.3782 70.2527 90.4363 70.8753 90.4446 71.307C90.4446 71.7304 90.4197 71.9711 90.3948 71.9711Z" fill="white"/>
<path opacity="0.2" d="M118.993 128.745C121.906 120.883 122.363 112.159 120.454 103.999C119.931 112.308 119.499 120.626 118.968 128.936" fill="url(#paint25_linear)"/>
<path opacity="0.2" d="M87.2568 83.5605C83.845 101.275 81.0807 118.077 81.4626 115.753L86.9497 149.331L90.1872 154.129C87.3731 131.592 85.0404 106.007 87.2568 83.5605Z" fill="url(#paint26_linear)"/>
<path d="M90.1122 162.048C90.162 162.147 86.6921 164.09 82.3589 166.398C78.0256 168.705 74.4644 170.498 74.4146 170.399C74.3648 170.299 77.8347 168.357 82.1679 166.049C86.5012 163.741 90.0624 161.948 90.1122 162.048Z" fill="#8E8E93"/>
<path d="M84.2848 100.769C84.2516 100.827 83.1642 100.32 81.3794 99.5815C79.5946 98.8427 77.0877 97.9213 74.2403 97.1327C71.4013 96.3524 68.7698 95.8543 66.8605 95.572C64.9512 95.2815 63.7559 95.1653 63.7559 95.0989C63.7559 95.0657 64.063 95.0657 64.6026 95.0906C65.1422 95.1072 65.9308 95.1653 66.8937 95.2732C68.8279 95.4807 71.4843 95.9373 74.3482 96.7259C77.2122 97.5228 79.7192 98.5024 81.4873 99.3159C82.3673 99.7227 83.0729 100.071 83.5543 100.337C84.0441 100.586 84.3014 100.744 84.2848 100.769Z" fill="white"/>
<path d="M82.9405 127.723C82.9488 127.748 82.7164 127.873 82.2847 128.055C81.853 128.246 81.2138 128.495 80.4086 128.777C78.8065 129.342 76.5568 130.014 74.0166 130.521C71.4765 131.019 69.1355 131.268 67.442 131.351C66.5953 131.392 65.9063 131.409 65.4331 131.392C64.96 131.384 64.6943 131.367 64.6943 131.334C64.6943 131.268 65.7403 131.201 67.4171 131.044C69.094 130.886 71.41 130.595 73.9336 130.097C76.4572 129.599 78.7069 128.985 80.3173 128.487C81.9277 128.005 82.9156 127.665 82.9405 127.723Z" fill="white"/>
<path d="M89.9962 75.1266C89.9298 75.1764 89.2574 74.1304 87.8794 72.7026C87.1987 71.9887 86.3104 71.2084 85.2728 70.4281C84.2102 69.6644 82.9899 68.9173 81.6285 68.2698C80.2588 67.6472 78.8891 67.1989 77.6273 66.8835C76.3572 66.5929 75.1868 66.4186 74.1989 66.3688C72.2232 66.2443 70.9946 66.4103 70.9863 66.3273C70.9863 66.2941 71.2852 66.2443 71.8414 66.1696C72.1153 66.128 72.4639 66.0865 72.8624 66.0782C73.2609 66.0699 73.7174 66.0284 74.2155 66.0616C75.22 66.0782 76.4153 66.2194 77.7186 66.4933C79.0136 66.7921 80.4165 67.2404 81.8195 67.8713C83.2141 68.5271 84.4593 69.3074 85.5218 70.1043C86.5761 70.9179 87.456 71.7397 88.1201 72.4951C88.4688 72.8521 88.7344 73.2256 88.9834 73.5328C89.2325 73.8399 89.4234 74.1221 89.5728 74.3629C89.8717 74.8361 90.0211 75.11 89.9962 75.1266Z" fill="white"/>
<path d="M110.5 137.942C110.492 137.975 110.118 137.934 109.454 137.834C108.782 137.743 107.819 137.585 106.623 137.378C104.233 136.971 100.945 136.357 97.3261 135.609C93.7067 134.862 90.4443 134.124 88.0868 133.551C86.908 133.268 85.9617 133.019 85.3059 132.845C84.6501 132.671 84.2931 132.555 84.3014 132.53C84.3097 132.505 84.6833 132.555 85.3474 132.687C86.0945 132.837 87.0408 133.028 88.1532 133.26C90.6104 133.775 93.8395 134.447 97.4091 135.194C100.979 135.925 104.216 136.581 106.673 137.087C107.794 137.319 108.732 137.519 109.479 137.676C110.143 137.818 110.508 137.909 110.5 137.942Z" fill="white"/>
<path d="M112.75 108.181C112.742 108.298 106.076 107.899 97.8744 107.285C89.6644 106.671 83.0151 106.073 83.0234 105.957C83.0317 105.841 89.6893 106.239 97.8993 106.853C106.109 107.468 112.759 108.065 112.75 108.181Z" fill="white"/>
<path d="M114.925 81.9908C114.925 82.024 114.543 82.0655 113.854 82.1236C113.165 82.1817 112.161 82.2481 110.924 82.3145C108.45 82.4391 105.021 82.5387 101.244 82.5138C97.4591 82.4889 94.0389 82.3477 91.5652 82.1983C90.3283 82.1236 89.3321 82.0406 88.6348 81.9742C87.9458 81.9078 87.564 81.858 87.564 81.8248C87.564 81.7916 87.9458 81.7916 88.6431 81.8082C89.4234 81.8331 90.403 81.858 91.5735 81.8912C94.0472 81.9659 97.4674 82.0572 101.244 82.0821C105.021 82.107 108.442 82.0572 110.915 82.0074C112.086 81.9908 113.065 81.9742 113.846 81.9576C114.543 81.9493 114.925 81.9576 114.925 81.9908Z" fill="white"/>
<path d="M97.2597 57.534C97.268 57.6004 96.5043 57.7332 95.2757 57.9989C94.0472 58.2562 92.3703 58.663 90.5523 59.2441C88.7344 59.8335 87.1405 60.4809 85.9866 60.9873C84.8411 61.4937 84.1355 61.8258 84.1106 61.7676C84.0857 61.7178 84.7332 61.2862 85.8621 60.7051C86.9828 60.124 88.5849 59.4184 90.4195 58.829C92.2541 58.2396 93.9724 57.8744 95.2176 57.6917C96.4711 57.5091 97.2514 57.4759 97.2597 57.534Z" fill="white"/>
<path d="M113.87 66.9069C113.846 66.9318 113.58 66.691 113.107 66.2511C112.575 65.7447 111.903 65.1221 111.114 64.375C109.438 62.7894 107.105 60.6145 104.457 58.2902C101.809 55.9658 99.3599 53.9237 97.5751 52.4627C96.7367 51.7737 96.0311 51.1926 95.4583 50.7277C94.9602 50.3126 94.6946 50.0719 94.7112 50.047C94.7278 50.0221 95.0266 50.2213 95.5579 50.5866C96.0892 50.9601 96.8363 51.5163 97.7577 52.2136C99.5923 53.6165 102.083 55.6255 104.731 57.9581C107.379 60.2908 109.687 62.5072 111.314 64.1508C112.127 64.9727 112.775 65.6534 113.206 66.1265C113.663 66.6163 113.895 66.8903 113.87 66.9069Z" fill="white"/>
<path d="M121.483 82.472C121.458 82.5965 120.105 82.4554 118.428 82.3807C116.751 82.306 115.39 82.3309 115.381 82.2064C115.373 82.0901 116.743 81.8743 118.453 81.949C120.155 82.0154 121.499 82.3558 121.483 82.472Z" fill="white"/>
<path d="M119.524 110.157C119.524 110.274 118.129 110.34 116.419 110.299C114.709 110.257 113.323 110.133 113.323 110.008C113.323 109.892 114.717 109.825 116.427 109.867C118.137 109.908 119.524 110.033 119.524 110.157Z" fill="white"/>
<path d="M118.552 137.826C118.577 137.942 116.826 138.366 114.643 138.764C112.459 139.162 110.675 139.395 110.65 139.279C110.625 139.162 112.376 138.739 114.56 138.341C116.751 137.934 118.536 137.71 118.552 137.826Z" fill="white"/>
<path d="M131.536 116.192C131.478 116.217 131.063 115.478 130.382 114.291C129.701 113.104 128.755 111.46 127.651 109.692C126.547 107.924 125.492 106.355 124.712 105.218C123.94 104.089 123.459 103.383 123.508 103.35C123.55 103.317 124.123 103.948 124.961 105.043C125.8 106.131 126.904 107.683 128.016 109.468C129.128 111.253 130.033 112.921 130.647 114.15C131.262 115.378 131.586 116.167 131.536 116.192Z" fill="white"/>
<path d="M96.197 298.578C96.1555 298.736 95.342 298.628 94.4371 298.96C93.524 299.267 92.9595 299.873 92.8267 299.774C92.6855 299.707 93.1421 298.811 94.2462 298.42C95.342 298.03 96.2634 298.437 96.197 298.578Z" fill="#1C1C1E"/>
<path d="M99.3022 300.778C99.3022 300.944 98.5467 301.052 97.8494 301.608C97.1355 302.139 96.8367 302.837 96.6789 302.795C96.5212 302.787 96.6291 301.824 97.5008 301.151C98.3807 300.479 99.3354 300.628 99.3022 300.778Z" fill="#1C1C1E"/>
<path d="M100.314 305.329C100.165 305.329 100.124 304.482 100.73 303.701C101.336 302.913 102.166 302.738 102.199 302.888C102.257 303.037 101.668 303.403 101.178 304.05C100.68 304.689 100.48 305.353 100.314 305.329Z" fill="#1C1C1E"/>
</g>
<path d="M1076.72 80.0642C1076.22 75.8103 1077.62 70.1951 1081.02 66.5298C1086.75 60.3416 1096.62 60.4122 1098.81 51.9195C1099.37 49.7805 1099.02 47.7854 1098.02 46.2363C1095.4 42.1598 1089.09 41.6651 1084.27 42.2209C1081.2 42.5772 1078.13 43.5259 1075.06 45.0705L1078.94 30.0711C1085.12 28.2676 1091.75 28.4995 1097.91 30.0946C1110.52 33.3634 1118.42 41.2269 1115.16 53.8161C1112.19 65.2978 1102.91 67.6407 1095.91 71.4792C1092.02 73.6097 1090.56 75.7797 1089.82 78.6225C1089.44 80.0923 1089.37 82.0444 1089.85 83.4681L1076.72 80.0642ZM1078.65 103.072C1066.39 99.8947 1070.52 83.4175 1082.91 86.627C1095.1 89.7891 1090.86 106.237 1078.65 103.072Z" fill="url(#paint27_linear)"/>
<path d="M1078.27 305.549C1075.17 303.743 1071.44 303.453 1067.85 303.204C1061.29 302.757 1054.73 302.301 1048.18 301.854C1042.81 301.481 1037.31 301.124 1032.14 302.624C1026.97 304.124 1022.12 307.87 1020.85 313.098L1020.82 313.272C1030.14 315.186 1039.5 317.1 1049.01 317.598C1058.51 318.095 1068.23 317.117 1077.01 313.421C1078.85 312.642 1080.91 311.383 1080.99 309.378C1081.06 307.737 1079.7 306.378 1078.27 305.549Z" fill="#F2F2F7"/>
<path d="M1059.47 140.56C1067.07 144.496 1072.89 151.274 1077.08 158.732C1081.27 166.189 1083.97 174.376 1086.64 182.505L1088.98 224.417C1080.14 209.378 1073.04 191.703 1071.13 174.36C1073.09 174.186 1075.05 174.012 1077.01 173.838C1073.07 173.233 1069.75 170.374 1067.65 166.993C1065.54 163.604 1064.46 159.701 1063.4 155.848C1065.79 156.204 1068.18 156.561 1070.57 156.917C1064.96 153.163 1060.89 147.164 1059.47 140.56Z" fill="url(#paint28_linear)"/>
<path d="M1059.47 140.56C1067.07 144.496 1072.89 151.274 1077.08 158.732C1081.27 166.189 1083.97 174.376 1086.64 182.505L1088.98 224.417C1080.14 209.378 1073.04 191.703 1071.13 174.36C1073.09 174.186 1075.05 174.012 1077.01 173.838C1073.07 173.233 1069.75 170.374 1067.65 166.993C1065.54 163.604 1064.46 159.701 1063.4 155.848C1065.79 156.204 1068.18 156.561 1070.57 156.917C1064.96 153.163 1060.89 147.164 1059.47 140.56Z" fill="#1C1C1E"/>
<path d="M1090.3 234.246C1090.3 234.246 1109.49 211.285 1109.26 189.359H1101.52C1101.52 189.359 1109.93 183.824 1109.27 180.725C1108.61 177.626 1108.39 165.884 1108.39 165.884L1101.3 167.657C1101.3 167.657 1106.61 164.997 1107.28 160.796C1107.95 156.587 1105.73 137.097 1105.73 137.097C1105.73 137.097 1097.1 146.179 1094.44 155.476C1091.78 164.774 1084.81 175.629 1086.86 203.976C1088.9 232.324 1090.3 234.246 1090.3 234.246Z" fill="url(#paint29_linear)"/>
<path d="M1080.57 236.408C1080.57 236.408 1059.78 222.562 1055.16 204.887L1061.39 203.188C1061.39 203.188 1053.41 200.578 1053.27 197.943C1053.13 195.308 1050.74 185.82 1050.74 185.82L1056.82 185.696C1056.82 185.696 1051.96 184.718 1050.51 181.486C1049.05 178.246 1046.58 162.096 1046.58 162.096C1046.58 162.096 1055.51 167.507 1059.68 174.401C1063.85 181.296 1071.83 188.497 1076.38 211.731C1080.94 234.966 1080.57 236.408 1080.57 236.408Z" fill="url(#paint30_linear)"/>
<path d="M1100.47 157.117C1100.48 157.117 1100.47 157.2 1100.44 157.366C1100.41 157.548 1100.36 157.788 1100.31 158.078C1100.18 158.733 1100 159.653 1099.77 160.821C1099.53 162.006 1099.24 163.465 1098.92 165.155C1098.6 166.845 1098.23 168.768 1097.85 170.906C1097.07 175.165 1096.23 180.261 1095.36 185.921C1094.51 191.588 1093.66 197.828 1092.9 204.399C1092.14 210.97 1091.56 217.243 1091.08 222.952C1090.64 228.662 1090.3 233.816 1090.09 238.141C1089.96 240.304 1089.89 242.259 1089.82 243.983C1089.73 245.707 1089.68 247.182 1089.65 248.4C1089.61 249.585 1089.58 250.521 1089.55 251.192C1089.53 251.49 1089.53 251.731 1089.51 251.921C1089.5 252.087 1089.49 252.17 1089.48 252.17C1089.48 252.17 1089.47 252.087 1089.47 251.921C1089.47 251.731 1089.47 251.49 1089.46 251.192C1089.47 250.521 1089.48 249.593 1089.48 248.4C1089.49 247.19 1089.52 245.707 1089.58 243.983C1089.63 242.259 1089.67 240.304 1089.78 238.133C1089.95 233.799 1090.26 228.645 1090.69 222.927C1091.13 217.21 1091.72 210.929 1092.47 204.358C1093.24 197.787 1094.1 191.539 1094.97 185.871C1095.86 180.203 1096.73 175.115 1097.56 170.856C1097.94 168.726 1098.34 166.804 1098.69 165.114C1099.03 163.423 1099.34 161.973 1099.61 160.788C1099.88 159.628 1100.07 158.716 1100.22 158.062C1100.29 157.772 1100.35 157.54 1100.4 157.357C1100.45 157.192 1100.47 157.117 1100.47 157.117Z" fill="#1C1C1E"/>
<path d="M1092.96 248.307C1092.96 248.307 1110.51 228.387 1115.97 216.339L1111.85 214.582C1114.83 215.071 1117.89 213.795 1120.2 211.847C1122.51 209.9 1124.21 207.34 1125.88 204.812L1120.46 203.893C1125.39 202.509 1129.73 199.145 1132.31 194.72C1125.91 195.772 1120.12 199.285 1115.35 203.677C1111.49 207.232 1108.22 211.367 1105.08 215.585C1103.55 217.64 1102.2 219.835 1101.08 222.147C1098.14 228.246 1092.95 240.991 1092.96 248.307Z" fill="url(#paint31_linear)"/>
<path d="M1054.89 173.689C1054.9 173.689 1054.94 173.747 1055 173.871C1055.09 174.02 1055.19 174.203 1055.31 174.435C1055.58 174.965 1055.97 175.694 1056.45 176.614C1057.43 178.503 1058.8 181.271 1060.45 184.71C1063.75 191.587 1068.05 201.216 1072.25 212.071C1076.44 222.935 1079.74 232.953 1081.93 240.262C1083.02 243.916 1083.87 246.882 1084.41 248.946C1084.68 249.948 1084.88 250.744 1085.03 251.324C1085.09 251.572 1085.14 251.78 1085.18 251.945C1085.22 252.086 1085.22 252.161 1085.22 252.161C1085.22 252.161 1085.19 252.094 1085.14 251.954C1085.09 251.796 1085.03 251.589 1084.95 251.349C1084.78 250.777 1084.55 249.99 1084.25 248.995C1083.65 246.949 1082.76 243.99 1081.63 240.353C1079.37 233.077 1076.03 223.084 1071.84 212.229C1067.64 201.382 1063.39 191.745 1060.17 184.842C1058.56 181.387 1057.23 178.603 1056.29 176.689C1055.84 175.752 1055.48 175.015 1055.23 174.476C1055.12 174.244 1055.03 174.045 1054.96 173.896C1054.9 173.764 1054.88 173.697 1054.89 173.689Z" fill="#1C1C1E"/>
<path d="M1091.46 256.844C1091.43 256.844 1091.47 256.33 1091.56 255.402C1091.65 254.474 1091.84 253.14 1092.13 251.499C1092.7 248.218 1093.79 243.718 1095.58 238.954C1097.39 234.189 1099.54 230.087 1101.28 227.253C1102.15 225.828 1102.9 224.701 1103.45 223.947C1103.99 223.185 1104.3 222.779 1104.33 222.795C1104.35 222.812 1104.08 223.259 1103.59 224.038C1103.08 224.817 1102.39 225.969 1101.55 227.402C1099.88 230.27 1097.79 234.363 1095.99 239.103C1094.21 243.843 1093.07 248.301 1092.43 251.557C1092.1 253.181 1091.87 254.507 1091.73 255.427C1091.59 256.338 1091.5 256.844 1091.46 256.844Z" fill="#1C1C1E"/>
<path d="M1106.73 252.152H1068.3V259.991H1106.73V252.152Z" fill="url(#paint32_linear)"/>
<path d="M1103.07 260L1098.91 286.367H1075.69L1071.81 260H1103.07Z" fill="url(#paint33_linear)"/>
<path d="M1070.66 260C1070.66 259.884 1077.92 259.785 1086.89 259.785C1095.86 259.785 1103.12 259.884 1103.12 260C1103.12 260.116 1095.86 260.216 1086.89 260.216C1077.92 260.216 1070.66 260.116 1070.66 260Z" fill="#1C1C1E"/>
<path d="M1040.37 294.38L1040.74 285.224L1056.69 284.619L1056.45 295.831L1050.65 299.327L1040.37 294.38Z" fill="#F7F7FC"/>
<path d="M1056.79 293.742L1056.79 294.794C1056.79 294.794 1074.51 302.111 1074.66 305.484L1039.33 304.962L1039.99 293.212C1045.22 295.731 1050.71 296.087 1056.79 293.742Z" fill="url(#paint34_linear)"/>
<path d="M1043.52 297.032C1042.83 297.206 1042.35 297.968 1042.5 298.665C1042.65 299.361 1043.42 299.858 1044.11 299.692C1044.8 299.526 1045.41 298.631 1045.18 297.96C1044.95 297.289 1044.02 296.75 1043.39 297.073" fill="white"/>
<path d="M1039.35 304.961L1039.51 302.136L1073.3 303.669C1073.3 303.669 1074.87 304.373 1074.67 305.483L1039.35 304.961Z" fill="white"/>
<path d="M1056.91 294.894C1056.9 295.068 1056.04 295.134 1055.18 295.673C1054.31 296.195 1053.86 296.932 1053.7 296.866C1053.55 296.833 1053.82 295.805 1054.86 295.167C1055.92 294.512 1056.95 294.736 1056.91 294.894Z" fill="#1C1C1E"/>
<path d="M1060.6 296.476C1060.63 296.641 1059.89 296.923 1059.29 297.644C1058.67 298.348 1058.51 299.136 1058.34 299.127C1058.18 299.152 1058.08 298.141 1058.83 297.255C1059.58 296.376 1060.6 296.318 1060.6 296.476Z" fill="#1C1C1E"/>
<path d="M1062.64 300.944C1062.48 300.977 1062.26 300.115 1062.71 299.179C1063.16 298.234 1063.98 297.878 1064.05 298.019C1064.14 298.159 1063.61 298.665 1063.26 299.436C1062.87 300.206 1062.81 300.935 1062.64 300.944Z" fill="#1C1C1E"/>
<path d="M1019.03 273.938L1019.28 301.341L1031.92 300.429L1034.69 273.73L1019.03 273.938Z" fill="#F7F7FC"/>
<path d="M1032.35 295.052C1032.35 295.052 1023.47 301.217 1019.15 295.905L1018.03 298.491L1013.01 316.878C1012.69 318.071 1013.26 319.381 1014.43 319.828C1015.34 320.176 1016.34 319.977 1017.02 319.339C1020.67 315.942 1034.04 303.38 1033.91 301.681L1033.85 297.173C1033.84 296.228 1033.24 295.392 1032.35 295.052Z" fill="url(#paint35_linear)"/>
<path d="M1014.87 319.943L1033.92 300.106V301.092C1034.01 302.161 1033.53 302.583 1033.01 303.271C1031.47 305.301 1027.21 309.85 1017.09 319.338C1016.51 319.885 1015.67 320.117 1014.87 319.943Z" fill="white"/>
<path d="M1031.11 297.173C1030.52 297.57 1030.32 298.457 1030.71 299.054C1031.1 299.65 1032.02 299.857 1032.62 299.468C1033.23 299.079 1033.5 298.026 1033.05 297.471C1032.59 296.916 1031.5 296.733 1031.01 297.255" fill="white"/>
<path d="M1020.35 309.793C1020.22 309.86 1019.68 308.642 1018.26 307.979C1016.86 307.283 1015.55 307.606 1015.51 307.465C1015.5 307.407 1015.79 307.225 1016.36 307.15C1016.91 307.075 1017.72 307.15 1018.5 307.523C1019.27 307.896 1019.83 308.476 1020.09 308.957C1020.38 309.429 1020.41 309.777 1020.35 309.793Z" fill="#1C1C1E"/>
<path d="M1018.64 312.9C1018.53 312.999 1017.77 312.245 1016.53 311.897C1015.3 311.524 1014.24 311.748 1014.2 311.599C1014.14 311.483 1015.29 310.986 1016.69 311.408C1018.09 311.814 1018.77 312.842 1018.64 312.9Z" fill="#1C1C1E"/>
<path d="M1023.52 305.807C1023.41 305.915 1022.24 304.747 1020.37 304.042C1018.51 303.313 1016.83 303.388 1016.83 303.23C1016.79 303.106 1018.57 302.783 1020.57 303.562C1022.57 304.324 1023.64 305.741 1023.52 305.807Z" fill="#1C1C1E"/>
<path d="M1023.94 300.214C1023.87 300.355 1022.55 299.816 1020.84 299.75C1019.12 299.667 1017.76 300.09 1017.71 299.94C1017.64 299.824 1019.02 299.153 1020.86 299.236C1022.71 299.311 1024.01 300.106 1023.94 300.214Z" fill="#1C1C1E"/>
<path d="M1019.86 299.699C1019.83 299.691 1019.84 299.376 1019.99 298.829C1020.15 298.282 1020.48 297.495 1021.13 296.691C1021.46 296.31 1021.83 295.813 1022.55 295.631C1022.9 295.539 1023.38 295.68 1023.6 296.037C1023.82 296.385 1023.84 296.774 1023.77 297.139C1023.47 298.589 1021.93 299.757 1020.21 299.666C1018.49 299.542 1017.14 298.332 1016.71 296.956C1016.63 296.608 1016.61 296.186 1016.86 295.838C1017.12 295.481 1017.62 295.407 1017.95 295.531C1018.63 295.755 1018.99 296.227 1019.35 296.592C1020.04 297.371 1020.41 298.125 1020.62 298.655C1020.81 299.185 1020.86 299.5 1020.82 299.509C1020.73 299.55 1020.44 298.282 1019.07 296.832C1018.73 296.492 1018.33 296.07 1017.83 295.937C1017.59 295.871 1017.36 295.929 1017.24 296.103C1017.11 296.269 1017.1 296.567 1017.19 296.849C1017.55 297.976 1018.78 299.078 1020.24 299.161C1021.68 299.252 1023.04 298.216 1023.3 297.056C1023.36 296.774 1023.33 296.476 1023.21 296.285C1023.09 296.095 1022.87 296.003 1022.63 296.053C1022.14 296.153 1021.74 296.575 1021.41 296.931C1020.11 298.423 1019.96 299.741 1019.86 299.699Z" fill="#1C1C1E"/>
<path d="M1061.05 134.238L1061.33 137.254L1068.7 150.471C1068.7 150.471 1072 170.333 1070.25 183.575C1068.08 199.998 1065.29 223.764 1064.29 235.149C1063.71 241.878 1057.76 291.587 1057.76 291.587L1039.77 291.413C1039.77 291.413 1040.72 237.337 1040.95 227.178C1041.13 219.206 1040.5 184.826 1040.5 184.826L1039.72 139.177L1062.35 133.476" fill="#1C1C1E"/>
<path d="M1034.74 292.293L1040.44 181.554L1043.8 138.846L1018.4 132.126L1017.49 137.404C1017.49 137.404 1008.21 160.291 1008.53 167.003C1009.4 185.821 1011.74 234.089 1011.74 234.089L1017.58 291.928L1034.74 292.293Z" fill="#1C1C1E"/>
<path d="M1041.44 142.607C1041.42 142.607 1041.4 142.748 1041.37 143.03C1041.34 143.361 1041.31 143.759 1041.27 144.239C1041.18 145.283 1041.09 146.808 1041.02 148.681C1040.85 152.435 1040.74 157.622 1040.65 163.356C1040.56 169.057 1040.48 174.211 1040.42 178.031C1040.38 179.854 1040.34 181.354 1040.31 182.473C1040.3 182.953 1040.3 183.351 1040.29 183.682C1040.29 183.956 1040.3 184.105 1040.31 184.105C1040.33 184.105 1040.35 183.964 1040.38 183.691C1040.41 183.359 1040.45 182.962 1040.49 182.481C1040.57 181.437 1040.65 179.912 1040.74 178.039C1040.9 174.286 1041.01 169.098 1041.1 163.364C1041.19 157.663 1041.27 152.509 1041.33 148.689C1041.37 146.866 1041.41 145.366 1041.44 144.248C1041.45 143.767 1041.46 143.369 1041.46 143.038C1041.46 142.756 1041.46 142.607 1041.44 142.607Z" fill="#8E8E93"/>
<path d="M1012.42 152.949C1012.41 152.982 1012.65 153.065 1013.09 153.206C1013.32 153.28 1013.58 153.355 1013.91 153.413C1014.24 153.471 1014.6 153.57 1015.01 153.595C1015.84 153.711 1016.84 153.728 1017.93 153.645C1019.03 153.537 1020.23 153.313 1021.44 152.916C1022.64 152.501 1023.73 151.963 1024.67 151.391C1025.6 150.794 1026.38 150.181 1026.96 149.593C1027.28 149.319 1027.51 149.021 1027.73 148.781C1027.96 148.54 1028.13 148.308 1028.26 148.118C1028.53 147.737 1028.67 147.521 1028.65 147.505C1028.58 147.455 1027.97 148.275 1026.76 149.352C1026.15 149.899 1025.37 150.471 1024.46 151.026C1023.53 151.565 1022.47 152.079 1021.3 152.485C1020.13 152.866 1018.97 153.098 1017.91 153.222C1016.84 153.322 1015.87 153.338 1015.06 153.264C1013.42 153.164 1012.45 152.866 1012.42 152.949Z" fill="url(#paint36_linear)"/>
<path d="M1058.82 144.397C1058.78 144.421 1059.02 145.076 1059.64 146.029C1060.24 146.982 1061.26 148.2 1062.63 149.269C1064 150.33 1065.44 151.017 1066.51 151.365C1067.58 151.722 1068.28 151.796 1068.29 151.747C1068.34 151.606 1065.56 151.017 1062.9 148.913C1060.2 146.858 1058.95 144.314 1058.82 144.397Z" fill="url(#paint37_linear)"/>
<path d="M1047.39 242.632C1047.41 242.682 1048.27 242.326 1049.61 241.646C1050.94 240.967 1052.76 239.956 1054.69 238.713C1056.62 237.47 1058.29 236.243 1059.47 235.315C1060.65 234.379 1061.33 233.749 1061.29 233.708C1061.25 233.658 1060.5 234.197 1059.28 235.058C1058.06 235.92 1056.37 237.105 1054.45 238.332C1052.54 239.566 1050.75 240.61 1049.46 241.364C1048.17 242.118 1047.36 242.574 1047.39 242.632Z" fill="#8E8E93"/>
<path d="M1028.17 65.76L1048.46 64.169L1056.29 69.8203L1051.39 116.514L1057.88 139.401H1021.58L1016.9 97.3227L1028.17 65.76Z" fill="#F7F7FC"/>
<path d="M1005.01 143.179C999.801 139.516 990.901 132.349 990.056 128.297C988.946 122.969 1004.71 80.5673 1007.81 77.0207C1010.92 73.4659 1025.6 66.5965 1025.6 66.5965L1026.42 65.2624C1027.3 63.8206 1028.64 60.9121 1030.33 60.9121L1030.57 62.9422L1030.88 67.3506C1031.27 69.6376 1033 80.153 1034.92 85.5971C1036.69 90.6104 1037.63 95.8805 1037.68 101.2C1037.84 117.64 1038.11 153.504 1037.59 158.268C1036.93 164.483 1034.16 176.532 1034.16 176.532C1034.16 176.532 1012.3 169.331 1007.24 158.003C1005.05 153.056 1005.01 143.179 1005.01 143.179Z" fill="url(#paint38_linear)"/>
<path d="M1090.15 118.602C1090.15 118.602 1080.02 90.1554 1076.89 81.2641C1074.14 73.4584 1068.27 71.6105 1068.27 71.6105L1054.45 66.4233C1053.89 64.302 1051.26 62.5121 1049.23 61.9404L1047.92 61.3603L1046.4 63.349C1046.4 63.349 1049.55 66.1996 1049.99 69.0915C1050.24 70.7156 1051.17 77.179 1049.81 81.4216C1048.39 85.8216 1047.6 90.3874 1047.4 94.9946C1046.99 104.499 1046.56 120.26 1047.77 125.845C1049.54 134.056 1054.95 173.831 1054.95 173.831C1054.95 173.831 1067.37 165.594 1070.44 161.435C1074.12 156.463 1072.86 147.025 1069.37 137.446C1069.04 136.534 1069.54 138.382 1069.37 137.446C1069.74 137.603 1070.09 137.744 1070.46 137.827C1077.73 139.501 1080.2 141.257 1087.59 134.951C1094.97 128.654 1090.15 118.602 1090.15 118.602Z" fill="url(#paint39_linear)"/>
<path d="M1025.52 72.9364C1025.54 72.9944 1024.54 73.2679 1022.95 73.7899C1021.37 74.312 1019.21 75.124 1016.92 76.2261C1014.63 77.3365 1012.66 78.538 1011.28 79.4578C1009.89 80.3776 1009.06 80.999 1009.02 80.9493C1009.01 80.9245 1009.2 80.7504 1009.55 80.4439C1009.91 80.1373 1010.44 79.7229 1011.12 79.2258C1012.48 78.2397 1014.44 76.9884 1016.75 75.8698C1019.05 74.7511 1021.25 73.9722 1022.86 73.5165C1023.67 73.2845 1024.33 73.127 1024.79 73.0359C1025.26 72.953 1025.52 72.9116 1025.52 72.9364Z" fill="white"/>
<path d="M1069.27 79.0026C1069.24 79.0441 1068.63 78.5966 1067.62 77.9088C1066.62 77.2211 1065.2 76.3013 1063.58 75.4064C1061.95 74.5114 1060.42 73.8154 1059.3 73.3348C1058.18 72.8541 1057.47 72.589 1057.49 72.531C1057.51 72.4813 1058.24 72.6636 1059.4 73.0779C1060.55 73.4922 1062.11 74.1634 1063.76 75.0583C1065.4 75.9615 1066.81 76.9228 1067.78 77.6768C1068.76 78.4392 1069.31 78.9612 1069.27 79.0026Z" fill="white"/>
<path d="M1027.3 138.804C1027.32 138.804 1027.31 139.094 1027.27 139.607C1027.25 139.864 1027.23 140.179 1027.15 140.544C1027.07 140.9 1027.01 141.323 1026.86 141.762C1026.72 142.209 1026.57 142.698 1026.34 143.195C1026.15 143.709 1025.86 144.215 1025.57 144.762C1024.94 145.822 1024.13 146.916 1023.12 147.919C1022.09 148.905 1020.98 149.692 1019.91 150.305C1019.37 150.579 1018.85 150.86 1018.33 151.043C1017.82 151.258 1017.33 151.399 1016.89 151.523C1016.45 151.664 1016.03 151.714 1015.66 151.78C1015.3 151.855 1014.98 151.88 1014.72 151.888C1014.21 151.913 1013.92 151.921 1013.92 151.888C1013.91 151.805 1015.06 151.78 1016.81 151.25C1017.25 151.117 1017.72 150.96 1018.2 150.736C1018.7 150.545 1019.2 150.264 1019.74 149.982C1020.77 149.369 1021.85 148.598 1022.85 147.629C1023.83 146.651 1024.63 145.59 1025.26 144.571C1025.55 144.049 1025.85 143.552 1026.04 143.055C1026.28 142.574 1026.44 142.102 1026.59 141.671C1027.16 139.947 1027.21 138.795 1027.3 138.804Z" fill="white"/>
<path d="M1009.93 88.3066C1009.82 88.3315 1009.27 86.1853 1008.7 83.5088C1008.13 80.8406 1007.75 78.653 1007.86 78.6282C1007.96 78.6033 1008.51 80.7495 1009.08 83.426C1009.65 86.1025 1010.03 88.2818 1009.93 88.3066Z" fill="white"/>
<path d="M1072.76 77.5765C1072.85 77.6593 1071.31 79.1923 1070.04 81.5042C1068.74 83.8078 1068.23 85.9126 1068.11 85.8794C1068.06 85.8711 1068.13 85.3242 1068.37 84.479C1068.61 83.6338 1069.04 82.4903 1069.7 81.3136C1070.35 80.137 1071.1 79.1675 1071.7 78.5294C1072.3 77.8748 1072.73 77.5433 1072.76 77.5765Z" fill="white"/>
<path d="M1084.45 118.783C1084.42 118.8 1084.15 118.51 1083.67 117.971C1083.43 117.698 1083.14 117.375 1082.77 117.01C1082.42 116.645 1082.03 116.215 1081.55 115.775C1080.63 114.872 1079.47 113.861 1078.14 112.809C1076.79 111.773 1075.25 110.704 1073.55 109.718C1071.84 108.74 1070.15 107.936 1068.59 107.282C1067 106.644 1065.55 106.147 1064.31 105.807C1063.7 105.616 1063.13 105.492 1062.63 105.359C1062.13 105.227 1061.7 105.136 1061.34 105.061C1060.64 104.912 1060.25 104.813 1060.25 104.788C1060.26 104.763 1060.65 104.804 1061.37 104.912C1061.72 104.962 1062.16 105.028 1062.67 105.144C1063.18 105.252 1063.76 105.359 1064.38 105.533C1065.64 105.848 1067.11 106.321 1068.71 106.942C1070.3 107.588 1072.02 108.392 1073.74 109.378C1075.46 110.381 1077 111.466 1078.36 112.527C1079.69 113.604 1080.84 114.648 1081.74 115.585C1082.2 116.041 1082.58 116.488 1082.93 116.869C1083.28 117.25 1083.56 117.59 1083.78 117.88C1084.23 118.444 1084.47 118.767 1084.45 118.783Z" fill="white"/>
<path d="M1067.06 91.8369C1067.17 91.8203 1067.66 95.2425 1068.16 99.4686C1068.65 103.695 1068.97 107.133 1068.86 107.142C1068.75 107.158 1068.26 103.736 1067.77 99.51C1067.28 95.284 1066.96 91.8451 1067.06 91.8369Z" fill="white"/>
<path d="M1069.52 137.51C1069.51 137.535 1069.18 137.336 1068.59 136.963C1068.02 136.574 1067.19 136.01 1066.25 135.206C1065.31 134.403 1064.24 133.367 1063.27 132.016C1062.3 130.682 1061.46 129.058 1060.82 127.268C1060.5 126.373 1060.24 125.486 1060.02 124.616C1059.81 123.738 1059.7 122.885 1059.55 122.097C1059.25 120.515 1058.68 119.147 1057.83 118.277C1057.01 117.391 1056.11 116.927 1055.5 116.62C1054.87 116.355 1054.52 116.206 1054.53 116.173C1054.54 116.148 1054.91 116.247 1055.57 116.479C1056.2 116.753 1057.15 117.184 1058.04 118.087C1058.96 118.973 1059.59 120.415 1059.9 122.023C1060.08 122.827 1060.19 123.68 1060.4 124.525C1060.61 125.379 1060.88 126.257 1061.19 127.135C1061.82 128.9 1062.64 130.491 1063.57 131.809C1064.49 133.135 1065.54 134.171 1066.44 134.999C1067.35 135.828 1068.15 136.416 1068.69 136.839C1069.23 137.253 1069.53 137.485 1069.52 137.51Z" fill="white"/>
<path d="M1018.27 137.337C1018.27 137.337 1010.19 140.809 1012.83 145.076C1014.63 148.01 1018.38 150.636 1018.38 150.636C1022.16 148.465 1024.81 146.203 1026.66 142.01L1018.27 137.337Z" fill="#F7F7FC"/>
<path d="M1005.01 143.179C1005.03 143.146 1005.54 143.544 1006.59 144.049C1007.64 144.53 1009.28 145.118 1011.41 145.234L1011.29 145.334C1011.5 143.884 1012.19 142.276 1013.39 140.843C1014.59 139.417 1016.22 138.133 1018.2 137.188L1018.19 137.197C1018.64 136.915 1019.06 136.492 1019.36 136.003C1019.65 135.515 1019.94 134.926 1019.85 134.388C1019.74 133.824 1019.38 133.294 1018.97 132.821C1018.55 132.349 1018.06 131.91 1017.54 131.529L1017.52 131.512L1017.5 131.496C1016.75 130.609 1016.01 129.648 1015.39 128.587C1014.77 127.527 1014.18 126.458 1013.42 125.471C1013.09 125.049 1012.75 124.643 1012.41 124.237C1012.07 123.814 1011.77 123.383 1011.47 122.952C1010.87 122.091 1010.31 121.229 1009.77 120.367L1009.74 120.326V120.276C1009.6 118.395 1009.5 116.58 1009.58 114.807C1009.68 113.067 1009.78 111.393 1009.87 109.802C1010.06 106.645 1010.23 103.828 1010.37 101.458C1010.53 99.1375 1010.66 97.2647 1010.74 95.9306C1010.79 95.3092 1010.82 94.812 1010.85 94.4474C1010.89 94.1076 1010.9 93.9336 1010.92 93.9336C1010.93 93.9336 1010.94 94.1076 1010.93 94.4474C1010.91 94.8203 1010.9 95.3175 1010.88 95.9389C1010.82 97.273 1010.73 99.1457 1010.62 101.474C1010.5 103.836 1010.36 106.653 1010.2 109.819C1010.12 111.401 1010.03 113.075 1009.94 114.824C1009.87 116.555 1009.98 118.378 1010.12 120.243L1010.09 120.16C1010.63 121.005 1011.19 121.867 1011.79 122.729C1012.09 123.151 1012.39 123.582 1012.72 123.988C1013.05 124.394 1013.4 124.809 1013.73 125.239C1014.51 126.242 1015.12 127.352 1015.73 128.388C1016.34 129.424 1017.05 130.369 1017.8 131.247L1017.77 131.214C1018.32 131.628 1018.82 132.067 1019.26 132.573C1019.69 133.07 1020.09 133.642 1020.22 134.321C1020.28 134.661 1020.21 135.042 1020.09 135.332C1019.99 135.631 1019.85 135.921 1019.67 136.194C1019.33 136.733 1018.9 137.172 1018.36 137.503L1018.35 137.512C1016.42 138.415 1014.8 139.666 1013.62 141.042C1012.45 142.425 1011.76 143.967 1011.53 145.375L1011.52 145.483L1011.42 145.475C1009.23 145.326 1007.59 144.696 1006.54 144.174C1006.02 143.909 1005.63 143.66 1005.39 143.478C1005.13 143.287 1005 143.188 1005.01 143.179Z" fill="white"/>
<path d="M1009.9 120.665C1009.89 120.732 1009.37 120.616 1008.54 120.599C1007.71 120.582 1006.56 120.707 1005.38 121.146C1004.2 121.593 1003.25 122.265 1002.64 122.828C1002.03 123.392 1001.72 123.814 1001.67 123.773C1001.63 123.748 1001.86 123.267 1002.44 122.629C1003.02 121.991 1003.99 121.254 1005.24 120.781C1006.48 120.317 1007.7 120.226 1008.55 120.317C1009.42 120.417 1009.92 120.624 1009.9 120.665Z" fill="white"/>
<path d="M1033.23 151.614C1033.26 151.68 1032.64 151.746 1032.26 152.492C1032.08 152.849 1031.98 153.362 1032.18 153.826C1032.37 154.299 1032.94 154.597 1033.54 154.572C1034.14 154.547 1034.68 154.191 1034.83 153.71C1034.99 153.23 1034.84 152.724 1034.64 152.385C1034.19 151.672 1033.56 151.664 1033.58 151.597C1033.58 151.581 1033.73 151.539 1033.98 151.606C1034.23 151.664 1034.58 151.854 1034.86 152.235C1035.13 152.608 1035.36 153.188 1035.17 153.826C1034.99 154.473 1034.29 154.945 1033.56 154.97C1032.83 155.011 1032.09 154.614 1031.85 153.984C1031.6 153.371 1031.78 152.766 1032.01 152.376C1032.26 151.978 1032.59 151.755 1032.83 151.672C1033.08 151.572 1033.23 151.597 1033.23 151.614Z" fill="white"/>
<path d="M1034.49 140.868C1034.52 140.934 1033.9 141 1033.52 141.746C1033.34 142.103 1033.24 142.616 1033.44 143.08C1033.63 143.553 1034.2 143.851 1034.8 143.826C1035.4 143.801 1035.94 143.445 1036.09 142.964C1036.25 142.484 1036.1 141.978 1035.9 141.639C1035.45 140.926 1034.82 140.918 1034.84 140.851C1034.84 140.835 1034.98 140.793 1035.24 140.86C1035.49 140.918 1035.84 141.108 1036.12 141.489C1036.39 141.862 1036.62 142.442 1036.43 143.08C1036.25 143.727 1035.55 144.199 1034.82 144.224C1034.09 144.265 1033.35 143.868 1033.11 143.238C1032.86 142.625 1033.04 142.02 1033.27 141.63C1033.52 141.232 1033.85 141.009 1034.09 140.926C1034.35 140.826 1034.49 140.843 1034.49 140.868Z" fill="white"/>
<path opacity="0.2" d="M1009.28 119.928C1009.38 119.986 1009.49 120.052 1009.59 120.11C1007.86 118.826 1005.55 118.337 1003.46 118.826C1001.36 119.314 999.495 120.748 998.5 122.662C998.136 123.375 997.92 124.336 998.484 124.908C998.923 125.347 999.66 125.33 1000.22 125.065C1000.77 124.8 1001.2 124.328 1001.66 123.905C1003.87 121.817 1006.89 120.607 1009.94 120.582" fill="url(#paint40_linear)"/>
<path opacity="0.2" d="M1047.1 116.041C1047.2 117.615 1049.09 119.314 1050.67 119.347C1052.25 119.38 1053.95 119.049 1055.32 119.844C1057.14 120.905 1057.42 123.358 1057.72 125.446C1058.42 130.302 1060.49 135.24 1064.54 138C1065.32 138.53 1066.21 138.986 1067.15 138.977C1068.1 138.969 1069.09 138.381 1069.29 137.461C1069.29 137.461 1067.16 135.613 1065.9 134.801C1063.22 133.061 1062.04 129.664 1061.13 126.606C1060.48 124.443 1060.07 122.123 1059.06 120.101C1057.07 116.124 1054.13 115.635 1047.1 116.041Z" fill="url(#paint41_linear)"/>
<path d="M1048.18 124.427C1048.16 124.419 1048.23 124.228 1048.38 123.855C1048.56 123.449 1048.78 122.927 1049.06 122.264C1049.39 121.585 1049.66 120.706 1050.04 119.712C1050.43 118.718 1050.78 117.558 1051.18 116.273C1052.79 111.152 1054.38 103.885 1055.37 95.7562C1056.29 87.619 1056.4 80.1696 1055.78 74.8414C1055.62 73.5156 1055.51 72.2975 1055.28 71.2617C1055.05 70.2259 1054.95 69.3062 1054.71 68.5935C1054.52 67.9058 1054.37 67.3506 1054.25 66.928C1054.15 66.5468 1054.1 66.3396 1054.12 66.3396C1054.13 66.3313 1054.21 66.5302 1054.33 66.9031C1054.47 67.3174 1054.65 67.8643 1054.87 68.5521C1055.14 69.2647 1055.27 70.1762 1055.51 71.2203C1055.78 72.2644 1055.9 73.4742 1056.08 74.8083C1056.79 80.1613 1056.72 87.6439 1055.79 95.8059C1054.8 103.96 1053.16 111.243 1051.47 116.364C1051.04 117.64 1050.68 118.801 1050.26 119.795C1049.86 120.789 1049.57 121.659 1049.22 122.331C1048.91 122.977 1048.66 123.499 1048.47 123.897C1048.29 124.253 1048.19 124.435 1048.18 124.427Z" fill="white"/>
<path d="M1058.63 107.125C1058.08 105.717 1057.79 104.2 1057.78 102.684C1057.78 101.772 1057.76 100.828 1057.45 99.9659C1057.14 99.1041 1056.17 98.3003 1055.29 98.5158L1054.96 105.236L1058.63 107.125Z" fill="#F7F7FC"/>
<path d="M1055.6 91.6792L1054.51 114.848C1054.48 115.345 1054.1 115.743 1053.61 115.792L1041.86 117.011C1041.27 117.069 1040.75 116.596 1040.76 116L1041.16 93.6099C1041.17 93.1293 1041.52 92.715 1042 92.6404L1054.45 90.6434C1055.07 90.544 1055.63 91.0494 1055.6 91.6792Z" fill="#1C1C1E"/>
<path d="M1047.44 96.394C1047.54 96.0957 1047.8 95.7063 1048.28 95.7891C1048.47 95.7809 1048.86 95.9963 1048.93 96.3112C1049 96.6178 1048.88 96.9658 1048.63 97.1646C1048.38 97.3635 1048.01 97.3884 1047.75 97.2226C1047.47 97.0486 1047.34 96.6923 1047.44 96.394Z" fill="#F7F7FC"/>
<path d="M1050.48 100.86C1050.75 100.885 1057.22 103.023 1057.22 103.023L1060.86 105.815C1060.86 105.815 1062.28 107.539 1061.84 110.654C1061.4 113.77 1060.08 115.046 1056.77 116.446H1050.12L1046.4 114.275C1045.67 113.845 1045.28 113.016 1045.4 112.179L1045.43 112.038L1044.95 111.475C1044.66 111.118 1044.61 110.629 1044.81 110.215C1045.1 109.652 1045.79 109.436 1046.35 109.726L1050.49 111.848L1053.09 111.781L1053.34 110.886L1049.3 109.544L1043.98 106.619C1043.27 106.229 1043.03 105.334 1043.45 104.647C1043.8 104.058 1044.53 103.81 1045.17 104.067L1049.99 105.964L1054.92 107.265L1053.9 105.55L1047.85 102.401C1047.85 102.393 1047.12 100.545 1050.48 100.86Z" fill="#F7F7FC"/>
<path d="M1060.86 105.824C1060.8 105.906 1059.14 104.738 1057.1 103.18L1057.16 103.213C1057.08 103.189 1056.99 103.164 1056.91 103.131C1054.37 102.302 1052.33 101.54 1052.36 101.44C1052.39 101.341 1054.48 101.929 1057.03 102.758C1057.12 102.783 1057.2 102.816 1057.28 102.841L1057.32 102.849L1057.34 102.865C1059.36 104.432 1060.92 105.741 1060.86 105.824Z" fill="#8E8E93"/>
<path d="M1054.85 114.144C1054.86 114.194 1054.35 114.426 1053.47 114.683C1052.62 114.932 1051.27 115.205 1049.9 114.675C1049.23 114.426 1048.66 114.095 1048.14 113.813C1047.65 113.54 1047.19 113.283 1046.75 113.042C1045.96 112.595 1045.5 112.288 1045.52 112.239C1045.55 112.189 1046.06 112.404 1046.88 112.794C1047.34 113.018 1047.81 113.25 1048.31 113.498C1048.85 113.763 1049.42 114.078 1050.04 114.31C1051.29 114.799 1052.54 114.592 1053.41 114.418C1054.28 114.227 1054.83 114.086 1054.85 114.144Z" fill="#8E8E93"/>
<path d="M1037.39 123.781C1037.37 123.79 1037.28 123.599 1037.11 123.243C1036.94 122.845 1036.7 122.315 1036.41 121.66C1035.82 120.276 1034.98 118.263 1034.03 115.744C1032.12 110.714 1029.73 103.646 1027.85 95.6409C1026.89 91.6386 1026.24 87.7689 1025.76 84.2389C1025.57 82.4656 1025.35 80.7835 1025.29 79.2008C1025.24 78.4136 1025.2 77.643 1025.16 76.9138C1025.15 76.1763 1025.15 75.472 1025.15 74.8008C1025.11 73.4501 1025.2 72.232 1025.27 71.1631C1025.3 70.6327 1025.33 70.1355 1025.36 69.6715C1025.41 69.2158 1025.47 68.8014 1025.52 68.4286C1025.63 67.7159 1025.71 67.1442 1025.77 66.7133C1025.84 66.3238 1025.87 66.1167 1025.89 66.1167C1025.9 66.1167 1025.89 66.3238 1025.85 66.7216C1025.81 67.1607 1025.75 67.7325 1025.68 68.4451C1025.64 68.8263 1025.6 69.2406 1025.55 69.6881C1025.53 70.1438 1025.51 70.641 1025.49 71.1713C1025.44 72.2403 1025.38 73.4501 1025.44 74.7925C1025.46 75.4637 1025.46 76.168 1025.48 76.8972C1025.53 77.6264 1025.59 78.3887 1025.64 79.1759C1025.71 80.7504 1025.95 82.4242 1026.15 84.1892C1026.66 87.7026 1027.3 91.5558 1028.26 95.5415C1030.15 103.521 1032.47 110.589 1034.31 115.636C1035.23 118.163 1036.01 120.193 1036.56 121.594C1036.82 122.265 1037.02 122.804 1037.19 123.21C1037.34 123.582 1037.4 123.781 1037.39 123.781Z" fill="white"/>
<path d="M1073.06 153.685C1073.09 153.702 1072.9 153.992 1072.55 154.506C1072.2 155.019 1071.65 155.74 1070.95 156.61C1069.54 158.342 1067.43 160.613 1064.82 162.809C1062.2 165.004 1059.6 166.687 1057.66 167.78C1056.68 168.327 1055.87 168.733 1055.31 168.99C1054.75 169.255 1054.42 169.38 1054.42 169.355C1054.4 169.33 1054.7 169.148 1055.24 168.841C1055.78 168.543 1056.55 168.087 1057.51 167.515C1059.4 166.372 1061.96 164.656 1064.55 162.477C1067.14 160.298 1069.27 158.085 1070.72 156.412C1071.45 155.575 1072.03 154.887 1072.42 154.406C1072.81 153.926 1073.04 153.669 1073.06 153.685Z" fill="white"/>
<path d="M1034.81 173.019C1034.8 173.044 1034.35 172.911 1033.53 172.638C1032.71 172.372 1031.55 171.933 1030.12 171.353C1027.27 170.193 1023.42 168.362 1019.4 165.926C1015.39 163.473 1011.99 160.896 1009.65 158.899C1008.48 157.904 1007.56 157.067 1006.94 156.463C1006.32 155.866 1005.99 155.526 1006.02 155.501C1006.03 155.476 1006.4 155.775 1007.06 156.338C1007.71 156.902 1008.66 157.697 1009.85 158.667C1012.23 160.597 1015.64 163.125 1019.63 165.561C1023.62 167.989 1027.44 169.853 1030.24 171.08C1031.65 171.693 1032.8 172.173 1033.59 172.488C1034.38 172.803 1034.82 172.994 1034.81 173.019Z" fill="white"/>
<path d="M1051.76 12.4696C1052.71 11.9144 1053.37 10.9118 1053.51 9.82626C1053.65 8.74075 1053.26 7.60552 1052.49 6.8266C1051.88 6.2217 1051.08 5.84881 1050.51 5.20248C1050.05 4.67215 1049.78 3.99267 1049.42 3.38777C1048.26 1.43219 1046.06 0.205808 1043.79 0.0235083C1041.53 -0.150505 1039.24 0.653272 1037.45 2.04538C1036.73 2.60056 1036.05 3.25519 1035.18 3.50378C1034.35 3.74408 1033.45 3.56178 1032.57 3.57007C1030.5 3.58664 1028.47 4.77987 1027.45 6.5863C1026.43 8.39272 1026.45 10.7378 1027.5 12.5276C1025.26 13.3645 1023.82 15.9167 1024.26 18.2618C1024.7 20.6068 1026.98 22.463 1029.36 22.4298C1030.83 22.4049 1032.22 21.7586 1033.56 21.162C1039.01 18.7341 1044.75 16.9442 1050.61 15.8339" fill="#1C1C1E"/>
<path d="M1028.19 49.0782C1025.34 45.9211 1023.66 41.7448 1023.52 37.4939C1023.39 33.243 1024.1 27.948 1026.76 24.6252C1024.93 22.6282 1025.71 20.424 1027.04 18.0707C1028.36 15.7174 1030.71 14.1098 1033.15 12.9249C1036.77 11.1682 1040.75 10.1655 1044.78 10.0246C1048.06 9.90863 1052.43 10.4887 1052.86 12.8503C1053.31 15.3196 1051.7 16.4134 1051.7 16.4134C1051.7 16.4134 1054.95 17.3581 1057.78 20.1008C1061.86 24.0534 1063.43 28.0309 1062.86 32.4475C1062.29 36.8724 1061.32 40.3113 1058.65 43.1038" fill="url(#paint42_linear)"/>
<path d="M1055.98 48.2825C1056.41 47.8516 1057.03 47.4622 1057.65 47.2799L1057.52 47.2633C1057.64 47.2385 1057.76 47.2302 1057.87 47.2219C1058.32 47.1307 1058.77 47.1722 1059.13 47.429H1059.12C1059.8 47.7108 1060.4 48.2411 1060.71 48.9206C1061.24 50.0973 1060.96 51.5639 1060.14 52.5583C1059.43 53.4201 1058.23 53.9587 1057.15 53.6521C1056.16 53.3704 1055.45 52.4257 1055.21 51.4231C1054.93 50.3293 1055.18 49.078 1055.98 48.2825Z" fill="url(#paint43_linear)"/>
<path d="M1030.88 67.3421L1028.26 29.432C1028.25 27.7167 1029.56 26.2749 1031.26 26.1175L1048.86 21.8997C1054.48 21.3777 1058.13 28.3382 1058.42 33.9812C1058.73 40.2457 1058.88 47.9189 1058.08 52.5841C1056.47 61.9642 1049.34 63.058 1049.34 63.058C1049.34 63.0497 1049.4 68.7176 1049.4 68.7176L1042.91 86.351L1030.88 67.3421Z" fill="#F7F7FC"/>
<path d="M1055.11 41.7958C1055.13 42.4339 1054.6 42.9725 1053.94 42.9973C1053.27 43.0222 1052.72 42.5333 1052.71 41.8952C1052.69 41.2572 1053.22 40.7186 1053.89 40.6937C1054.55 40.6689 1055.1 41.1578 1055.11 41.7958Z" fill="#1C1C1E"/>
<path d="M1056.7 37.9428C1056.55 38.1003 1055.65 37.4125 1054.35 37.3959C1053.06 37.3628 1052.1 38.0174 1051.96 37.86C1051.89 37.7854 1052.05 37.5036 1052.46 37.2136C1052.87 36.9153 1053.57 36.6336 1054.38 36.6501C1055.19 36.6667 1055.87 36.9733 1056.26 37.2799C1056.65 37.5865 1056.78 37.8765 1056.7 37.9428Z" fill="#1C1C1E"/>
<path d="M1042.96 41.7958C1042.98 42.4339 1042.45 42.9725 1041.79 42.9973C1041.12 43.0222 1040.57 42.5333 1040.56 41.8952C1040.54 41.2572 1041.08 40.7186 1041.74 40.6937C1042.4 40.6689 1042.95 41.1578 1042.96 41.7958Z" fill="#1C1C1E"/>
<path d="M1043.96 38.0346C1043.81 38.192 1042.9 37.5042 1041.61 37.4877C1040.31 37.4545 1039.35 38.1091 1039.21 37.9517C1039.14 37.8771 1039.29 37.5954 1039.72 37.3054C1040.13 37.0071 1040.83 36.7253 1041.64 36.7419C1042.44 36.7585 1043.12 37.0651 1043.51 37.3717C1043.9 37.6783 1044.03 37.96 1043.96 38.0346Z" fill="#1C1C1E"/>
<path d="M1048.55 47.7036C1048.54 47.629 1049.35 47.4964 1050.66 47.3472C1050.99 47.3141 1051.31 47.2561 1051.37 47.0324C1051.45 46.7921 1051.32 46.4357 1051.16 46.0463C1050.86 45.2425 1050.54 44.3973 1050.21 43.5107C1048.89 39.9061 1047.94 36.9396 1048.09 36.8899C1048.23 36.8401 1049.42 39.7238 1050.74 43.3284C1051.05 44.215 1051.36 45.0685 1051.65 45.8806C1051.77 46.2617 1051.98 46.6843 1051.81 47.1815C1051.71 47.4301 1051.47 47.6041 1051.26 47.6621C1051.04 47.7284 1050.86 47.7284 1050.7 47.7367C1049.36 47.7864 1048.55 47.7781 1048.55 47.7036Z" fill="#1C1C1E"/>
<path opacity="0.2" d="M1049.39 63.0676C1049.39 63.0676 1043.06 63.3991 1036.84 59.5542C1036.84 59.5542 1039.98 66.2662 1049.39 65.4955L1049.39 63.0676Z" fill="url(#paint44_linear)"/>
<path opacity="0.2" d="M1048.32 50.786C1047.7 49.8911 1046.69 49.3359 1045.71 49.3608C1045.03 49.3773 1044.37 49.6839 1043.99 50.2723C1043.62 50.8606 1043.59 51.7389 1044 52.3687C1044.46 53.0813 1045.36 53.3216 1046.1 53.1476C1046.83 52.9819 1047.44 52.4847 1048.02 51.9875C1048.18 51.8467 1048.34 51.7058 1048.43 51.5069C1048.52 51.3081 1048.53 51.0346 1048.39 50.8523" fill="url(#paint45_linear)"/>
<path d="M1044.72 48.5568C1044.93 48.5485 1044.92 49.9572 1046.11 50.9681C1047.31 51.9873 1048.81 51.8465 1048.81 52.0453C1048.83 52.1365 1048.47 52.3188 1047.84 52.3271C1047.22 52.3436 1046.32 52.1282 1045.59 51.5067C1044.86 50.8852 1044.56 50.0649 1044.51 49.4849C1044.46 48.8965 1044.62 48.5485 1044.72 48.5568Z" fill="#1C1C1E"/>
<path d="M1044.52 34.5211C1044.39 34.8691 1043.1 34.6868 1041.57 34.8526C1040.05 34.9852 1038.81 35.416 1038.61 35.1012C1038.52 34.952 1038.75 34.6206 1039.24 34.2808C1039.74 33.9494 1040.53 33.6345 1041.44 33.5433C1042.35 33.4522 1043.19 33.6096 1043.74 33.8416C1044.3 34.0736 1044.58 34.3554 1044.52 34.5211Z" fill="#1C1C1E"/>
<path d="M1056.27 34.1881C1056.04 34.4781 1055.15 34.1632 1054.08 34.1383C1053 34.0721 1052.09 34.3124 1051.88 33.9975C1051.79 33.8483 1051.94 33.55 1052.34 33.2766C1052.73 33.0031 1053.39 32.7877 1054.13 32.8125C1054.86 32.8457 1055.5 33.1191 1055.87 33.4257C1056.26 33.7406 1056.38 34.0389 1056.27 34.1881Z" fill="#1C1C1E"/>
<path d="M1050.08 24.6014C1050.08 24.6014 1041.27 24.303 1034.4 34.1307C1029.88 40.6106 1028.79 48.8306 1028.79 48.8306L1025.69 33.0866L1028.38 25.9852L1034.54 22.6541L1046.11 22.2232L1050.44 24.4688" fill="url(#paint46_linear)"/>
<path d="M1032.79 25.09C1046.9 21.9743 1058.04 26.8384 1059.89 37.8923L1062.88 30.6998L1055.73 21.7588L1047.78 19.5298L1031.63 21.676L1032.79 25.09Z" fill="url(#paint47_linear)"/>
<path d="M1026.67 47.7622C1027.13 47.2981 1027.79 46.8755 1028.45 46.6849L1028.32 46.6684C1028.45 46.6435 1028.57 46.6269 1028.7 46.6187C1029.18 46.5275 1029.66 46.5689 1030.05 46.8424H1030.03C1030.77 47.149 1031.4 47.7207 1031.73 48.4499C1032.3 49.7178 1032.01 51.2922 1031.12 52.3611C1030.35 53.2892 1029.07 53.8692 1027.91 53.5378C1026.84 53.2312 1026.08 52.2202 1025.82 51.143C1025.54 49.9663 1025.8 48.624 1026.67 47.7622Z" fill="url(#paint48_linear)"/>
<path d="M1030.09 42.8145C1030.08 42.831 1029.85 42.7896 1029.47 42.5741C1029.09 42.3587 1028.59 41.9444 1028.2 41.2649C1027.81 40.5937 1027.56 39.6076 1027.83 38.5884C1027.96 38.0912 1028.16 37.6023 1028.25 37.0969C1028.35 36.5914 1028.26 36.0694 1027.9 35.6965C1027.54 35.3153 1027.03 35.0833 1026.55 34.8181C1026.06 34.5613 1025.6 34.2049 1025.28 33.7989C1024.62 32.9786 1024.35 32.0422 1024.31 31.2716C1024.26 30.4927 1024.44 29.8712 1024.62 29.4817C1024.79 29.084 1024.96 28.91 1024.97 28.9183C1025.05 28.9431 1024.44 29.7717 1024.58 31.255C1024.65 31.9759 1024.93 32.846 1025.55 33.5752C1025.85 33.9481 1026.24 34.2464 1026.72 34.495C1027.19 34.7518 1027.73 34.9839 1028.17 35.4479C1028.64 35.9119 1028.74 36.6328 1028.61 37.1797C1028.5 37.7432 1028.3 38.2321 1028.17 38.6961C1027.91 39.6159 1028.1 40.5108 1028.43 41.1572C1028.76 41.8118 1029.21 42.2261 1029.54 42.4747C1029.88 42.6902 1030.1 42.7813 1030.09 42.8145Z" fill="white"/>
<path d="M1028 23.6482C1028.08 23.6731 1027.52 24.4354 1027.54 25.8358C1027.54 26.5236 1027.73 27.3522 1028.21 28.1146C1028.67 28.8935 1029.54 29.4321 1030.4 30.1116C1030.83 30.4596 1031.24 30.8491 1031.49 31.3462C1031.74 31.8351 1031.8 32.3903 1031.75 32.8709C1031.65 33.8404 1031.35 34.6359 1031.39 35.3154C1031.4 36.0032 1031.65 36.5252 1031.93 36.7821C1032.19 37.0555 1032.43 37.0887 1032.42 37.1218C1032.42 37.1384 1032.36 37.1301 1032.25 37.1135C1032.15 37.0887 1031.99 37.0307 1031.83 36.8981C1031.5 36.6412 1031.18 36.0695 1031.12 35.332C1031.04 34.5779 1031.34 33.741 1031.4 32.8461C1031.44 32.3986 1031.38 31.9346 1031.16 31.5203C1030.94 31.0977 1030.57 30.7413 1030.16 30.4099C1029.34 29.7636 1028.4 29.1752 1027.9 28.3052C1027.39 27.4599 1027.23 26.565 1027.25 25.8441C1027.27 25.1066 1027.47 24.5432 1027.64 24.1786C1027.83 23.7974 1027.98 23.6399 1028 23.6482Z" fill="white"/>
<path d="M1037.75 30.5181C1037.77 30.5264 1037.64 30.659 1037.37 30.601C1037.24 30.5679 1037.09 30.485 1036.97 30.3358C1036.85 30.1867 1036.77 29.9629 1036.77 29.7309C1036.76 29.2503 1037.03 28.7614 1037.06 28.2725C1037.11 27.7836 1036.68 27.3445 1036.14 27.0544C1035.58 26.7727 1034.98 26.4081 1034.64 25.9192C1034.28 25.4386 1034.1 24.9248 1034.03 24.494C1033.9 23.6073 1034.16 23.0853 1034.2 23.1019C1034.26 23.1101 1034.11 23.6405 1034.3 24.436C1034.39 24.8337 1034.59 25.2812 1034.92 25.7038C1035.25 26.1347 1035.73 26.4164 1036.33 26.723C1036.62 26.8804 1036.91 27.0876 1037.11 27.3527C1037.33 27.6096 1037.45 27.9825 1037.41 28.2974C1037.34 28.9272 1037.05 29.3498 1037.04 29.7392C1037 30.1287 1037.23 30.3773 1037.42 30.4684C1037.61 30.543 1037.74 30.485 1037.75 30.5181Z" fill="white"/>
<path d="M1040.58 22.92C1040.59 22.8951 1040.67 22.8951 1040.78 22.9945C1040.88 23.094 1040.97 23.2929 1040.93 23.5414C1040.91 23.79 1040.77 24.0303 1040.69 24.2706C1040.62 24.5027 1040.61 24.7844 1040.67 25.0661C1040.79 25.6462 1041.17 26.0854 1041.42 26.4085C1041.69 26.7234 1041.86 26.9389 1041.82 26.972C1041.79 27.0051 1041.56 26.8726 1041.22 26.5991C1040.91 26.3174 1040.45 25.8533 1040.29 25.149C1040.21 24.801 1040.23 24.4447 1040.35 24.1463C1040.48 23.8563 1040.62 23.6657 1040.66 23.4917C1040.77 23.1354 1040.55 22.9614 1040.58 22.92Z" fill="white"/>
<path d="M1054.72 18.0557C1054.75 18.0723 1054.7 18.2049 1054.56 18.4286C1054.44 18.6523 1054.21 18.9589 1054 19.3484C1053.79 19.7378 1053.71 20.235 1053.86 20.8068C1053.98 21.3702 1054.28 22.0166 1054.27 22.7789C1054.27 23.5247 1054.03 24.2208 1053.66 24.7428C1053.3 25.2731 1052.82 25.6294 1052.39 25.8366C1051.52 26.2592 1050.9 26.168 1050.91 26.1266C1050.9 26.0603 1051.49 26.052 1052.27 25.5963C1052.65 25.3726 1053.07 25.0245 1053.37 24.5439C1053.69 24.0633 1053.89 23.4335 1053.89 22.7706C1053.91 22.1077 1053.65 21.4945 1053.52 20.8731C1053.37 20.2516 1053.5 19.6053 1053.77 19.2075C1054.03 18.8015 1054.28 18.528 1054.45 18.3374C1054.61 18.1551 1054.7 18.0391 1054.72 18.0557Z" fill="white"/>
<path d="M1061.29 24.7515C1061.34 24.8178 1060.86 25.025 1060.67 25.7127C1060.58 26.0691 1060.4 26.5 1060.26 26.9474C1060.12 27.4115 1059.99 27.9501 1059.71 28.4804C1059.12 29.5825 1057.96 30.0134 1057.21 30.0382C1056.42 30.0714 1055.99 29.7896 1056.01 29.7648C1056.02 29.6985 1056.47 29.8642 1057.18 29.7731C1057.87 29.6819 1058.87 29.2593 1059.37 28.3064C1059.62 27.8341 1059.75 27.312 1059.92 26.8397C1060.09 26.3508 1060.28 25.9779 1060.41 25.6216C1060.54 25.257 1060.78 25.0001 1060.96 24.8841C1061.16 24.7681 1061.27 24.735 1061.29 24.7515Z" fill="white"/>
<path d="M1062.38 34.1808C1062.42 34.1974 1062.39 34.4211 1062.18 34.7111C1061.98 34.9929 1061.58 35.3326 1061.04 35.4652C1060.5 35.5978 1059.98 35.4818 1059.68 35.316C1059.36 35.1503 1059.23 34.9763 1059.26 34.9349C1059.31 34.8437 1060.03 35.316 1060.95 35.0923C1061.87 34.8769 1062.29 34.1228 1062.38 34.1808Z" fill="white"/>
<path d="M1046.39 16.4978C1046.43 16.5559 1046 16.7713 1045.59 17.3845C1045.19 17.9728 1044.86 19.0335 1045.3 20.0444C1045.52 20.5416 1045.85 21.0802 1045.81 21.6602C1045.77 22.2237 1045.51 22.6546 1045.26 22.9529C1044.75 23.5578 1044.31 23.765 1044.29 23.7318C1044.25 23.6821 1044.63 23.3838 1045.04 22.7872C1045.24 22.4889 1045.45 22.0911 1045.45 21.6437C1045.48 21.1879 1045.19 20.7405 1044.94 20.1936C1044.7 19.6218 1044.68 19.0003 1044.79 18.4866C1044.9 17.9645 1045.13 17.5336 1045.38 17.227C1045.88 16.5973 1046.39 16.4647 1046.39 16.4978Z" fill="white"/>
<path d="M1037.42 23.1023C1037.31 23.0609 1037.62 22.2239 1037.64 21.1633C1037.69 20.1026 1037.43 19.2491 1037.54 19.216C1037.63 19.1663 1038.07 20.0198 1038.03 21.1799C1038 22.3317 1037.5 23.152 1037.42 23.1023Z" fill="white"/>
<path d="M1030.91 22.0834C1030.89 22.0586 1030.99 21.984 1031.07 21.8017C1031.16 21.6194 1031.23 21.3211 1031.16 20.9648C1031.04 20.2356 1030.32 19.3986 1029.72 18.338C1029.42 17.7994 1029.23 17.2276 1029.18 16.6807C1029.12 16.1338 1029.23 15.6283 1029.42 15.2555C1029.61 14.8826 1029.89 14.6505 1030.1 14.5511C1030.33 14.46 1030.46 14.4848 1030.46 14.5014C1030.47 14.5345 1030.34 14.5594 1030.18 14.6754C1030.01 14.7914 1029.81 15.0151 1029.67 15.3632C1029.36 16.0427 1029.49 17.1365 1030.06 18.1474C1030.63 19.1583 1031.36 20.0533 1031.43 20.9233C1031.47 21.3459 1031.35 21.694 1031.2 21.8763C1031.07 22.0668 1030.92 22.1 1030.91 22.0834Z" fill="white"/>
<path d="M1039.93 18.0136C1039.92 17.9971 1039.99 17.8893 1040.14 17.7319C1040.27 17.5662 1040.54 17.3342 1040.56 17.011C1040.57 16.7044 1040.28 16.2818 1039.96 15.9255C1039.62 15.5526 1039.16 15.2046 1038.71 14.7902C1038.28 14.3676 1037.83 13.9036 1037.74 13.2821C1037.69 12.6855 1037.93 12.2215 1038.12 11.8652C1038.53 11.1691 1038.88 10.8128 1038.91 10.8376C1038.96 10.8708 1038.69 11.2851 1038.36 11.9894C1038.21 12.3375 1038.03 12.7849 1038.09 13.2407C1038.15 13.6799 1038.56 14.119 1038.97 14.5168C1039.83 15.2957 1040.83 16.0581 1040.83 17.0441C1040.73 17.533 1040.39 17.707 1040.23 17.8479C1040.06 17.9722 1039.95 18.0385 1039.93 18.0136Z" fill="white"/>
<path d="M1048.67 16.6296C1048.63 16.5799 1049.06 16.4059 1049.19 15.7927C1049.25 15.4944 1049.23 15.1298 1049.08 14.7486C1048.93 14.3674 1048.68 13.9697 1048.41 13.5388C1048.14 13.1079 1047.91 12.6439 1047.85 12.1633C1047.78 11.6661 1047.97 11.2518 1048.14 10.9535C1048.5 10.3237 1049.01 10.2243 1049.01 10.2906C1049.02 10.332 1048.64 10.4977 1048.38 11.0861C1048.25 11.3678 1048.12 11.7324 1048.2 12.1136C1048.27 12.5113 1048.48 12.9173 1048.74 13.3399C1049 13.7625 1049.27 14.1851 1049.41 14.6326C1049.57 15.0718 1049.57 15.5275 1049.44 15.8673C1049.33 16.207 1049.12 16.439 1048.96 16.5384C1048.79 16.6462 1048.67 16.6545 1048.67 16.6296Z" fill="white"/>
<path d="M1051.69 16.4061C1051.69 16.431 1051.31 16.4393 1050.61 16.431C1049.93 16.4061 1048.93 16.431 1047.7 16.489C1045.24 16.6298 1041.85 17.1187 1038.34 18.4446C1034.83 19.7704 1031.89 21.5271 1029.81 22.828C1028.81 23.4661 1027.99 23.9964 1027.35 24.4107C1026.77 24.7836 1026.45 24.9825 1026.43 24.9659C1026.42 24.9411 1026.72 24.7091 1027.27 24.2947C1027.83 23.8804 1028.64 23.3004 1029.66 22.6126C1031.72 21.2454 1034.65 19.4389 1038.21 18.0965C1041.76 16.7541 1045.21 16.2901 1047.68 16.2238C1048.92 16.2072 1049.93 16.2238 1050.61 16.2901C1051.31 16.3315 1051.69 16.373 1051.69 16.4061Z" fill="#1C1C1E"/>
<path d="M1029.36 24.6509C1029.36 24.6509 1029.39 24.6427 1029.45 24.6178C1029.52 24.5929 1029.61 24.5515 1029.71 24.5101C1029.84 24.4604 1029.98 24.4024 1030.14 24.3278C1030.31 24.2615 1030.51 24.1952 1030.73 24.1123C1031.63 23.8057 1032.95 23.4246 1034.64 23.2505C1036.33 23.06 1038.37 23.0765 1040.58 23.3914C1041.69 23.5406 1042.84 23.7726 1044.03 24.046C1045.23 24.3195 1046.44 24.6344 1047.68 25.0404C1052.63 26.5817 1056.42 29.7885 1058.1 32.7218C1058.96 34.1802 1059.34 35.5226 1059.57 36.4341C1059.69 36.8982 1059.75 37.2545 1059.79 37.5031C1059.82 37.6108 1059.84 37.7102 1059.85 37.7848C1059.87 37.8511 1059.88 37.876 1059.88 37.876C1059.88 37.876 1059.88 37.8428 1059.87 37.7765C1059.86 37.7019 1059.84 37.6025 1059.84 37.4948C1059.8 37.2462 1059.75 36.8816 1059.65 36.4093C1059.45 35.4812 1059.08 34.1305 1058.23 32.639C1056.56 29.6476 1052.74 26.3745 1047.75 24.825C1046.51 24.4189 1045.28 24.104 1044.08 23.8306C1042.89 23.5654 1041.72 23.3334 1040.6 23.1843C1038.37 22.8859 1036.32 22.8777 1034.62 23.0931C1032.92 23.292 1031.59 23.6897 1030.7 24.0295C1030.49 24.1206 1030.29 24.1952 1030.11 24.2615C1029.95 24.3361 1029.81 24.4024 1029.69 24.4604C1029.59 24.5101 1029.51 24.5515 1029.43 24.5847C1029.38 24.6344 1029.35 24.6509 1029.36 24.6509Z" fill="#1C1C1E"/>
<path d="M1047.74 25.0241C1047.74 25.0158 1047.63 25.0158 1047.43 25.0324C1047.23 25.0407 1046.93 25.0738 1046.56 25.1318C1045.81 25.2561 1044.73 25.5296 1043.49 26.0931C1041 27.2117 1037.88 29.5153 1035.37 32.8464C1034.1 34.5037 1033.14 36.2438 1032.3 37.8348C1031.47 39.4258 1030.8 40.9091 1030.31 42.1852C1029.82 43.453 1029.52 44.5219 1029.36 45.2594C1029.28 45.6323 1029.23 45.9223 1029.2 46.1212C1029.18 46.32 1029.16 46.4278 1029.17 46.4278C1029.18 46.4278 1029.2 46.3283 1029.24 46.1295C1029.28 45.9306 1029.35 45.6488 1029.44 45.276C1029.63 44.5468 1029.95 43.4944 1030.46 42.2349C1030.96 40.9753 1031.65 39.5087 1032.48 37.926C1033.33 36.3433 1034.29 34.6197 1035.55 32.979C1038.04 29.6728 1041.12 27.3857 1043.56 26.2339C1044.79 25.6539 1045.85 25.3639 1046.59 25.2147C1046.96 25.1484 1047.25 25.0987 1047.45 25.0738C1047.63 25.049 1047.74 25.0324 1047.74 25.0241Z" fill="#1C1C1E"/>
<defs>
<linearGradient id="paint0_linear" x1="94.2489" y1="278.149" x2="94.2489" y2="311.927" gradientUnits="userSpaceOnUse">
<stop stop-color="#00E4E4"/>
<stop offset="1" stop-color="#00B373"/>
</linearGradient>
<linearGradient id="paint1_linear" x1="30.8159" y1="32.4028" x2="32.2618" y2="107.095" gradientUnits="userSpaceOnUse">
<stop stop-color="#FFCC00"/>
<stop offset="1" stop-color="#FFF5CC"/>
</linearGradient>
<linearGradient id="paint2_linear" x1="62.1472" y1="220.085" x2="62.1472" y2="232.143" gradientUnits="userSpaceOnUse">
<stop stop-color="#B5DBFF"/>
<stop offset="1" stop-color="#76E2F8"/>
</linearGradient>
<linearGradient id="paint3_linear" x1="61.7252" y1="160.213" x2="61.7252" y2="189.234" gradientUnits="userSpaceOnUse">
<stop stop-color="#B5DBFF"/>
<stop offset="1" stop-color="#76E2F8"/>
</linearGradient>
<linearGradient id="paint4_linear" x1="63.1311" y1="184.602" x2="63.1311" y2="208.56" gradientUnits="userSpaceOnUse">
<stop stop-color="#B5DBFF"/>
<stop offset="1" stop-color="#76E2F8"/>
</linearGradient>
<linearGradient id="paint5_linear" x1="66.4014" y1="201.238" x2="66.4014" y2="212.213" gradientUnits="userSpaceOnUse">
<stop stop-color="#B5DBFF"/>
<stop offset="1" stop-color="#76E2F8"/>
</linearGradient>
<linearGradient id="paint6_linear" x1="43.747" y1="173.611" x2="43.747" y2="199.943" gradientUnits="userSpaceOnUse">
<stop stop-color="#B5DBFF"/>
<stop offset="1" stop-color="#76E2F8"/>
</linearGradient>
<linearGradient id="paint7_linear" x1="34.6183" y1="204.085" x2="34.6183" y2="220.114" gradientUnits="userSpaceOnUse">
<stop stop-color="#B5DBFF"/>
<stop offset="1" stop-color="#76E2F8"/>
</linearGradient>
<linearGradient id="paint8_linear" x1="17.9846" y1="188.256" x2="17.9846" y2="210.255" gradientUnits="userSpaceOnUse">
<stop stop-color="#B5DBFF"/>
<stop offset="1" stop-color="#76E2F8"/>
</linearGradient>
<linearGradient id="paint9_linear" x1="20.5414" y1="220.646" x2="20.5414" y2="229.145" gradientUnits="userSpaceOnUse">
<stop stop-color="#B5DBFF"/>
<stop offset="1" stop-color="#76E2F8"/>
</linearGradient>
<linearGradient id="paint10_linear" x1="17.6236" y1="251.408" x2="17.6236" y2="269.366" gradientUnits="userSpaceOnUse">
<stop stop-color="#B5DBFF"/>
<stop offset="1" stop-color="#76E2F8"/>
</linearGradient>
<linearGradient id="paint11_linear" x1="50.6497" y1="244.016" x2="50.6497" y2="263.316" gradientUnits="userSpaceOnUse">
<stop stop-color="#B5DBFF"/>
<stop offset="1" stop-color="#76E2F8"/>
</linearGradient>
<linearGradient id="paint12_linear" x1="64.999" y1="240.52" x2="64.999" y2="259.962" gradientUnits="userSpaceOnUse">
<stop stop-color="#B5DBFF"/>
<stop offset="1" stop-color="#76E2F8"/>
</linearGradient>
<linearGradient id="paint13_linear" x1="77.189" y1="238.82" x2="77.189" y2="245.924" gradientUnits="userSpaceOnUse">
<stop stop-color="#B5DBFF"/>
<stop offset="1" stop-color="#76E2F8"/>
</linearGradient>
<linearGradient id="paint14_linear" x1="41.7056" y1="267.788" x2="41.7056" y2="299.492" gradientUnits="userSpaceOnUse">
<stop stop-color="#4560E6"/>
<stop offset="1" stop-color="#262680"/>
</linearGradient>
<linearGradient id="paint15_linear" x1="88.9673" y1="285.156" x2="88.9673" y2="312.384" gradientUnits="userSpaceOnUse">
<stop stop-color="#00E4E4"/>
<stop offset="1" stop-color="#00B373"/>
</linearGradient>
<linearGradient id="paint16_linear" x1="111.301" y1="46.5786" x2="111.301" y2="54.7221" gradientUnits="userSpaceOnUse">
<stop stop-opacity="0"/>
<stop offset="1"/>
</linearGradient>
<linearGradient id="paint17_linear" x1="95.7702" y1="27.539" x2="95.7702" y2="32.7798" gradientUnits="userSpaceOnUse">
<stop stop-opacity="0"/>
<stop offset="1"/>
</linearGradient>
<linearGradient id="paint18_linear" x1="139.132" y1="97.7187" x2="139.132" y2="101.876" gradientUnits="userSpaceOnUse">
<stop stop-opacity="0"/>
<stop offset="1"/>
</linearGradient>
<linearGradient id="paint19_linear" x1="140.982" y1="96.4384" x2="140.982" y2="99.8615" gradientUnits="userSpaceOnUse">
<stop stop-opacity="0"/>
<stop offset="1"/>
</linearGradient>
<linearGradient id="paint20_linear" x1="144.611" y1="93.1205" x2="144.611" y2="96.5916" gradientUnits="userSpaceOnUse">
<stop stop-opacity="0"/>
<stop offset="1"/>
</linearGradient>
<linearGradient id="paint21_linear" x1="148.287" y1="89.9127" x2="148.287" y2="94.1193" gradientUnits="userSpaceOnUse">
<stop stop-opacity="0"/>
<stop offset="1"/>
</linearGradient>
<linearGradient id="paint22_linear" x1="127.9" y1="100.046" x2="127.9" y2="129.393" gradientUnits="userSpaceOnUse">
<stop stop-color="#00E4E4"/>
<stop offset="1" stop-color="#00B373"/>
</linearGradient>
<linearGradient id="paint23_linear" x1="92.3704" y1="48.0885" x2="92.3704" y2="161.339" gradientUnits="userSpaceOnUse">
<stop stop-color="#00E4E4"/>
<stop offset="1" stop-color="#00B373"/>
</linearGradient>
<linearGradient id="paint24_linear" x1="74.3066" y1="57.8755" x2="74.3066" y2="154.129" gradientUnits="userSpaceOnUse">
<stop stop-color="#00E4E4"/>
<stop offset="1" stop-color="#00B373"/>
</linearGradient>
<linearGradient id="paint25_linear" x1="120.286" y1="103.999" x2="120.286" y2="128.936" gradientUnits="userSpaceOnUse">
<stop stop-opacity="0"/>
<stop offset="1"/>
</linearGradient>
<linearGradient id="paint26_linear" x1="85.8072" y1="83.5605" x2="85.8072" y2="154.129" gradientUnits="userSpaceOnUse">
<stop stop-opacity="0"/>
<stop offset="1"/>
</linearGradient>
<linearGradient id="paint27_linear" x1="1100.87" y1="30.977" x2="1076.29" y2="102.303" gradientUnits="userSpaceOnUse">
<stop stop-color="#FFCC00"/>
<stop offset="1" stop-color="#FFF5CC"/>
</linearGradient>
<linearGradient id="paint28_linear" x1="1074.22" y1="140.56" x2="1074.22" y2="224.417" gradientUnits="userSpaceOnUse">
<stop stop-color="#B5DBFF"/>
<stop offset="1" stop-color="#76E2F8"/>
</linearGradient>
<linearGradient id="paint29_linear" x1="1097.9" y1="137.097" x2="1097.9" y2="234.246" gradientUnits="userSpaceOnUse">
<stop stop-color="#B5DBFF"/>
<stop offset="1" stop-color="#76E2F8"/>
</linearGradient>
<linearGradient id="paint30_linear" x1="1063.58" y1="162.096" x2="1063.58" y2="236.408" gradientUnits="userSpaceOnUse">
<stop stop-color="#B5DBFF"/>
<stop offset="1" stop-color="#76E2F8"/>
</linearGradient>
<linearGradient id="paint31_linear" x1="1112.63" y1="194.72" x2="1112.63" y2="248.307" gradientUnits="userSpaceOnUse">
<stop stop-color="#B5DBFF"/>
<stop offset="1" stop-color="#76E2F8"/>
</linearGradient>
<linearGradient id="paint32_linear" x1="1087.51" y1="252.054" x2="1087.51" y2="259.991" gradientUnits="userSpaceOnUse">
<stop stop-color="#4560E6"/>
<stop offset="1" stop-color="#262680"/>
</linearGradient>
<linearGradient id="paint33_linear" x1="1087.44" y1="259.67" x2="1087.44" y2="286.367" gradientUnits="userSpaceOnUse">
<stop stop-color="#4560E6"/>
<stop offset="1" stop-color="#262680"/>
</linearGradient>
<linearGradient id="paint34_linear" x1="1057" y1="293.212" x2="1057" y2="305.484" gradientUnits="userSpaceOnUse">
<stop stop-color="#00E4E4"/>
<stop offset="1" stop-color="#00B373"/>
</linearGradient>
<linearGradient id="paint35_linear" x1="1023.41" y1="295.052" x2="1023.41" y2="319.998" gradientUnits="userSpaceOnUse">
<stop stop-color="#00E4E4"/>
<stop offset="1" stop-color="#00B373"/>
</linearGradient>
<linearGradient id="paint36_linear" x1="1020.53" y1="147.502" x2="1020.53" y2="153.696" gradientUnits="userSpaceOnUse">
<stop stop-color="#00E4E4"/>
<stop offset="1" stop-color="#00B373"/>
</linearGradient>
<linearGradient id="paint37_linear" x1="1063.55" y1="144.395" x2="1063.55" y2="151.76" gradientUnits="userSpaceOnUse">
<stop stop-color="#00E4E4"/>
<stop offset="1" stop-color="#00B373"/>
</linearGradient>
<linearGradient id="paint38_linear" x1="1013.95" y1="60.9121" x2="1013.95" y2="176.532" gradientUnits="userSpaceOnUse">
<stop stop-color="#00E4E4"/>
<stop offset="1" stop-color="#00B373"/>
</linearGradient>
<linearGradient id="paint39_linear" x1="1069.05" y1="61.3603" x2="1069.05" y2="173.831" gradientUnits="userSpaceOnUse">
<stop stop-color="#00E4E4"/>
<stop offset="1" stop-color="#00B373"/>
</linearGradient>
<linearGradient id="paint40_linear" x1="1004.04" y1="118.639" x2="1004.04" y2="125.253" gradientUnits="userSpaceOnUse">
<stop stop-opacity="0"/>
<stop offset="1"/>
</linearGradient>
<linearGradient id="paint41_linear" x1="1058.19" y1="115.924" x2="1058.19" y2="138.978" gradientUnits="userSpaceOnUse">
<stop stop-opacity="0"/>
<stop offset="1"/>
</linearGradient>
<linearGradient id="paint42_linear" x1="1043.24" y1="9.52237" x2="1043.24" y2="49.0782" gradientUnits="userSpaceOnUse">
<stop stop-color="#4560E6"/>
<stop offset="1" stop-color="#262680"/>
</linearGradient>
<linearGradient id="paint43_linear" x1="1058.04" y1="47.1778" x2="1058.04" y2="53.7389" gradientUnits="userSpaceOnUse">
<stop stop-color="#00E4E4"/>
<stop offset="1" stop-color="#00B373"/>
</linearGradient>
<linearGradient id="paint44_linear" x1="1043.12" y1="59.5542" x2="1043.12" y2="65.5571" gradientUnits="userSpaceOnUse">
<stop stop-opacity="0"/>
<stop offset="1"/>
</linearGradient>
<linearGradient id="paint45_linear" x1="1046.1" y1="49.36" x2="1046.1" y2="53.2019" gradientUnits="userSpaceOnUse">
<stop stop-opacity="0"/>
<stop offset="1"/>
</linearGradient>
<linearGradient id="paint46_linear" x1="1038.06" y1="21.8906" x2="1038.06" y2="48.8306" gradientUnits="userSpaceOnUse">
<stop stop-color="#4560E6"/>
<stop offset="1" stop-color="#262680"/>
</linearGradient>
<linearGradient id="paint47_linear" x1="1047.25" y1="19.3003" x2="1047.25" y2="37.8924" gradientUnits="userSpaceOnUse">
<stop stop-color="#4560E6"/>
<stop offset="1" stop-color="#262680"/>
</linearGradient>
<linearGradient id="paint48_linear" x1="1028.87" y1="46.5751" x2="1028.87" y2="53.6319" gradientUnits="userSpaceOnUse">
<stop stop-color="#00E4E4"/>
<stop offset="1" stop-color="#00B373"/>
</linearGradient>
<clipPath id="clip0">
<rect width="160" height="320" fill="white"/>
</clipPath>
</defs>
</svg>
