<svg width="64" height="64" viewBox="0 0 64 64" fill="none" xmlns="http://www.w3.org/2000/svg">
<path d="M55.6656 58.6818H6.84467C4.24267 58.6818 2.1333 56.5725 2.1333 53.9705V13.318C2.1333 10.716 4.24267 8.60666 6.84467 8.60666H55.6656C58.2676 8.60666 60.377 10.716 60.377 13.318V53.9705C60.377 56.5725 58.2676 58.6818 55.6656 58.6818Z" fill="url(#paint0_linear)"/>
<g style="mix-blend-mode:overlay" opacity="0.5">
<path d="M54.5769 57.5652H7.9335C5.4475 57.5652 3.43213 55.5498 3.43213 53.0638V14.2246C3.43213 11.7386 5.44738 9.72327 7.9335 9.72327H54.5768C57.0628 9.72327 59.0782 11.7385 59.0782 14.2246V53.064C59.0783 55.55 57.0629 57.5652 54.5769 57.5652Z" fill="url(#paint1_linear)"/>
</g>
<path d="M57.2204 21.7563L45.4773 1.41682C44.6952 0.0619492 42.9626 -0.4023 41.6077 0.380074L4.58301 21.7563H57.2204Z" fill="url(#paint2_linear)"/>
<path d="M2.1333 38.126H60.377V22.6995C60.377 20.7524 58.7986 19.174 56.8515 19.174H5.6588C3.71167 19.174 2.1333 20.7524 2.1333 22.6995V38.126Z" fill="url(#paint3_linear)"/>
<path d="M2.1333 32.3244V53.9706C2.1333 56.5726 4.24267 58.6821 6.8448 58.6821H55.6656C58.2676 58.6821 60.377 56.5727 60.377 53.9707V32.3244C60.377 30.7172 59.0741 29.4144 57.467 29.4144H5.0433C3.43617 29.4144 2.1333 30.7171 2.1333 32.3244Z" fill="url(#paint4_linear)"/>
<path d="M51.5903 21.1596V58.6822H55.666C58.2679 58.6822 60.3773 56.5728 60.3773 53.9708V29.9466L51.5903 21.1596Z" fill="url(#paint5_linear)"/>
<path d="M47.6172 63.9646L6.73142 59.2161C4.11042 58.9116 2.1333 56.6917 2.1333 54.0531V12.9669C2.1333 13.8499 2.79493 14.5927 3.6718 14.6945L48.8164 19.9378C51.4374 20.2423 53.4145 22.4622 53.4145 25.1008V58.8017C53.4145 61.9099 50.7046 64.3234 47.6172 63.9646Z" fill="url(#paint6_linear)"/>
<path d="M47.6172 55.7579L6.73142 51.0094C4.11042 50.7049 2.1333 48.485 2.1333 45.8464V54.0531C2.1333 56.6917 4.11042 58.9117 6.73142 59.2161L47.6172 63.9646C50.7046 64.3232 53.4146 61.9099 53.4146 58.8016V50.5949C53.4145 53.7031 50.7046 56.1164 47.6172 55.7579Z" fill="url(#paint7_linear)"/>
<path d="M5.79919 19.3707C5.76494 19.3707 5.73019 19.3687 5.69532 19.365L3.82432 19.1592C3.30757 19.1023 2.9347 18.6376 2.99157 18.121C3.04845 17.6043 3.51357 17.2318 4.02982 17.2882L5.90082 17.494C6.41757 17.5508 6.79044 18.0156 6.73357 18.5322C6.68057 19.0141 6.27282 19.3707 5.79919 19.3707Z" fill="url(#paint8_linear)"/>
<path d="M44.2448 60.8637C44.2053 60.8637 44.165 60.8611 44.1248 60.8561L40.4884 60.3937C39.9729 60.3282 39.6079 59.857 39.6735 59.3412C39.7392 58.8257 40.2103 58.4629 40.726 58.5264L44.3624 58.9887C44.8779 59.0542 45.243 59.5255 45.1773 60.0412C45.1167 60.5165 44.7117 60.8637 44.2448 60.8637ZM47.824 60.3979C47.471 60.3979 47.1324 60.1982 46.972 59.8575C46.7504 59.3874 46.952 58.8265 47.4223 58.6051C48.3772 58.1551 49.0953 57.4089 49.3927 56.5574C49.564 56.0669 50.101 55.8081 50.5915 55.9791C51.0822 56.1505 51.3412 56.6872 51.1698 57.178C50.7002 58.5227 49.6543 59.6344 48.2245 60.3079C48.0949 60.3689 47.9585 60.3979 47.824 60.3979ZM36.9722 59.939C36.9327 59.939 36.8924 59.9364 36.8522 59.9314L33.2158 59.469C32.7003 59.4035 32.3352 58.9322 32.4009 58.4165C32.4666 57.901 32.9377 57.538 33.4534 57.6016L37.0898 58.064C37.6053 58.1295 37.9704 58.6007 37.9047 59.1165C37.844 59.5916 37.4388 59.939 36.9722 59.939ZM29.6996 59.0141C29.6601 59.0141 29.6199 59.0115 29.5796 59.0065L25.9432 58.5441C25.4277 58.4786 25.0626 58.0074 25.1283 57.4916C25.1939 56.9761 25.6652 56.6114 26.1808 56.6767L29.8172 57.1391C30.3327 57.2046 30.6978 57.6759 30.6321 58.1916C30.5714 58.6667 30.1662 59.0141 29.6996 59.0141ZM22.4267 58.0892C22.3872 58.0892 22.3471 58.0866 22.3067 58.0816L18.6702 57.6191C18.1546 57.5535 17.7896 57.0824 17.8553 56.5666C17.9209 56.051 18.3923 55.688 18.9078 55.7517L22.5443 56.2142C23.0599 56.2799 23.4249 56.751 23.3592 57.2667C23.2988 57.7421 22.8936 58.0892 22.4267 58.0892ZM15.1541 57.1644C15.1146 57.1644 15.0744 57.1617 15.0341 57.1567L11.3976 56.6942C10.882 56.6286 10.517 56.1575 10.5827 55.6417C10.6483 55.1261 11.1197 54.763 11.6352 54.8269L15.2717 55.2894C15.7873 55.355 16.1523 55.8261 16.0866 56.3419C16.0261 56.8172 15.6209 57.1644 15.1541 57.1644ZM50.4924 54.1675C49.9725 54.1675 49.5513 53.7462 49.5513 53.2264V49.5607C49.5513 49.0409 49.9725 48.6196 50.4924 48.6196C51.0123 48.6196 51.4335 49.0409 51.4335 49.5607V53.2264C51.4337 53.7462 51.0124 54.1675 50.4924 54.1675ZM50.4924 46.8364C49.9725 46.8364 49.5513 46.4151 49.5513 45.8953V42.2296C49.5513 41.7098 49.9725 41.2885 50.4924 41.2885C51.0123 41.2885 51.4335 41.7098 51.4335 42.2296V45.8953C51.4337 46.415 51.0124 46.8364 50.4924 46.8364ZM50.4924 39.5051C49.9725 39.5051 49.5513 39.0839 49.5513 38.564V34.8984C49.5513 34.3785 49.9725 33.9573 50.4924 33.9573C51.0123 33.9573 51.4335 34.3785 51.4335 34.8984V38.564C51.4337 39.0838 51.0124 39.5051 50.4924 39.5051ZM50.4924 32.1739C49.9725 32.1739 49.5513 31.7526 49.5513 31.2328V27.5672C49.5513 27.0473 49.9725 26.626 50.4924 26.626C51.0123 26.626 51.4335 27.0473 51.4335 27.5672V31.2328C51.4337 31.7525 51.0124 32.1739 50.4924 32.1739ZM49.1762 25.2183C48.9438 25.2183 48.7109 25.1327 48.529 24.9603C47.8314 24.2993 46.8633 23.8782 45.8027 23.7743L45.7778 23.7717C45.2609 23.716 44.887 23.2519 44.9428 22.7352C44.9984 22.2183 45.4624 21.8443 45.9793 21.9002L45.9953 21.9019C47.4612 22.0455 48.8239 22.6468 49.8238 23.5939C50.2012 23.9514 50.2172 24.5472 49.8597 24.9245C49.6744 25.1197 49.4255 25.2183 49.1762 25.2183ZM42.2358 23.3765C42.2015 23.3765 42.1668 23.3745 42.1319 23.3708L38.4883 22.9702C37.9717 22.9133 37.5987 22.4485 37.6555 21.9319C37.7124 21.4153 38.1775 21.0434 38.6938 21.0992L42.3374 21.4998C42.854 21.5567 43.227 22.0214 43.1702 22.538C43.1173 23.0198 42.7094 23.3765 42.2358 23.3765ZM34.9487 22.5753C34.9144 22.5753 34.8797 22.5733 34.8448 22.5695L31.2011 22.1689C30.6844 22.112 30.3114 21.6473 30.3683 21.1307C30.4251 20.6139 30.8909 20.2417 31.4066 20.2979L35.0503 20.6985C35.5669 20.7554 35.9399 21.2202 35.883 21.7368C35.8301 22.2187 35.4223 22.5753 34.9487 22.5753ZM27.6612 21.7742C27.6269 21.7742 27.5922 21.7722 27.5573 21.7684L23.9137 21.3678C23.3971 21.3109 23.0241 20.8462 23.0809 20.3295C23.1377 19.8129 23.6026 19.4407 24.1192 19.4968L27.7628 19.8974C28.2794 19.9543 28.6524 20.419 28.5956 20.9357C28.5427 21.4174 28.1349 21.7742 27.6612 21.7742ZM20.3738 20.973C20.3396 20.973 20.3048 20.971 20.2699 20.9673L16.6263 20.5667C16.1096 20.5098 15.7367 20.045 15.7936 19.5284C15.8503 19.0119 16.3147 18.6398 16.8318 18.6957L20.4754 19.0963C20.9921 19.1532 21.3651 19.6179 21.3082 20.1345C21.2554 20.6163 20.8476 20.973 20.3738 20.973ZM13.0865 20.1718C13.0522 20.1718 13.0175 20.1698 12.9826 20.166L9.33895 19.7654C8.82233 19.7085 8.44933 19.2438 8.50621 18.7272C8.56308 18.2107 9.02758 17.8387 9.54445 17.8944L13.1881 18.295C13.7048 18.3519 14.0777 18.8167 14.0208 19.3333C13.9679 19.815 13.5601 20.1718 13.0865 20.1718Z" fill="url(#paint9_linear)"/>
<path d="M7.87241 56.2383C7.83291 56.2383 7.79291 56.2358 7.75253 56.2306L5.88516 55.9933C5.36954 55.9278 5.00441 55.4565 5.07016 54.9409C5.13566 54.4253 5.60691 54.0605 6.12253 54.1259L7.98991 54.3633C8.50553 54.4288 8.87066 54.9 8.80491 55.4156C8.74441 55.891 8.33916 56.2383 7.87241 56.2383Z" fill="url(#paint10_linear)"/>
<path d="M42.4513 7.00842L36.4278 10.2862C35.6432 10.713 34.6611 10.4232 34.2341 9.63854C33.8072 8.85391 34.0971 7.87179 34.8817 7.44479L40.9053 4.16717C41.69 3.74029 42.6721 4.03017 43.0991 4.81479C43.526 5.59929 43.2361 6.58154 42.4513 7.00842Z" fill="url(#paint11_linear)"/>
<defs>
<linearGradient id="paint0_linear" x1="31.2551" y1="8.60666" x2="31.2551" y2="58.6818" gradientUnits="userSpaceOnUse">
<stop stop-color="#00E4E4"/>
<stop offset="1" stop-color="#00B373"/>
</linearGradient>
<linearGradient id="paint1_linear" x1="31.2552" y1="9.72327" x2="31.2552" y2="57.5652" gradientUnits="userSpaceOnUse">
<stop stop-opacity="0"/>
<stop offset="1"/>
</linearGradient>
<linearGradient id="paint2_linear" x1="30.9017" y1="1.51323e-07" x2="30.9017" y2="21.7563" gradientUnits="userSpaceOnUse">
<stop stop-color="#EDF5FF"/>
<stop offset="1" stop-color="#D8ECFF"/>
</linearGradient>
<linearGradient id="paint3_linear" x1="31.2551" y1="18.9371" x2="31.2551" y2="38.126" gradientUnits="userSpaceOnUse">
<stop stop-color="#4560E6"/>
<stop offset="1" stop-color="#262680"/>
</linearGradient>
<linearGradient id="paint4_linear" x1="31.2551" y1="29.0485" x2="31.2551" y2="58.6821" gradientUnits="userSpaceOnUse">
<stop stop-color="#4560E6"/>
<stop offset="1" stop-color="#262680"/>
</linearGradient>
<linearGradient id="paint5_linear" x1="55.9838" y1="20.6906" x2="55.9838" y2="58.6822" gradientUnits="userSpaceOnUse">
<stop stop-color="#4560E6"/>
<stop offset="1" stop-color="#262680"/>
</linearGradient>
<linearGradient id="paint6_linear" x1="27.7739" y1="12.9669" x2="27.7739" y2="64" gradientUnits="userSpaceOnUse">
<stop stop-color="#00E4E4"/>
<stop offset="1" stop-color="#00B373"/>
</linearGradient>
<linearGradient id="paint7_linear" x1="27.0848" y1="57.7596" x2="26.1913" y2="64.5886" gradientUnits="userSpaceOnUse">
<stop stop-color="#28A679" stop-opacity="0"/>
<stop offset="1" stop-color="#28A679"/>
</linearGradient>
<linearGradient id="paint8_linear" x1="27.2097" y1="17.2826" x2="27.2097" y2="60.8637" gradientUnits="userSpaceOnUse">
<stop stop-color="#EDF5FF"/>
<stop offset="1" stop-color="#D8ECFF"/>
</linearGradient>
<linearGradient id="paint9_linear" x1="27.2097" y1="17.2826" x2="27.2097" y2="60.8637" gradientUnits="userSpaceOnUse">
<stop stop-color="#EDF5FF"/>
<stop offset="1" stop-color="#D8ECFF"/>
</linearGradient>
<linearGradient id="paint10_linear" x1="27.2097" y1="17.2826" x2="27.2097" y2="60.8637" gradientUnits="userSpaceOnUse">
<stop stop-color="#EDF5FF"/>
<stop offset="1" stop-color="#D8ECFF"/>
</linearGradient>
<linearGradient id="paint11_linear" x1="38.6666" y1="3.97018" x2="38.6666" y2="10.4831" gradientUnits="userSpaceOnUse">
<stop stop-color="#B5DBFF"/>
<stop offset="1" stop-color="#76E2F8"/>
</linearGradient>
</defs>
</svg>
