<svg width="375" height="240" viewBox="0 0 375 240" fill="none" xmlns="http://www.w3.org/2000/svg">
<g clip-path="url(#clip0)">
<path d="M67.529 230.857C65.1943 229.5 62.3926 229.282 59.6968 229.095C54.7721 228.759 49.8412 228.417 44.9164 228.08C40.882 227.8 36.748 227.533 32.8693 228.659C28.9843 229.786 25.3359 232.6 24.3833 236.529L24.3584 236.66C31.3626 238.098 38.3979 239.536 45.539 239.91C52.6802 240.283 59.9832 239.549 66.5765 236.772C67.9648 236.187 69.5089 235.24 69.5711 233.734C69.6147 232.507 68.5999 231.48 67.529 230.857Z" fill="#F2F2F7"/>
<path d="M51.0493 211.432L47.7184 223.971C47.7184 223.971 59.3422 231.567 58.95 233.945L34.4136 228.361L38.8029 208.612L51.0493 211.432Z" fill="url(#paint0_linear)"/>
<path d="M34.4136 228.355L34.9366 226.381L58.2714 232.476C58.2714 232.476 59.2551 233.198 58.9562 233.939L34.4136 228.355Z" fill="#1C1C1E"/>
<path d="M-5.19049 64.7048C-6.61972 61.8637 -7.08027 57.5911 -5.64831 54.1673C-3.23501 48.3884 3.66532 45.9159 3.02827 39.4319C2.86781 37.7988 2.11311 36.4972 1.02273 35.6715C-1.84724 33.4988 -6.37314 34.7658 -9.5897 36.384C-11.6439 37.4185 -13.5428 38.8647 -15.2845 40.7246L-16.4096 29.2729C-12.5661 26.438 -7.87871 24.904 -3.17928 24.4437C6.45021 23.5009 13.9678 26.966 14.912 36.5777C15.7734 45.3436 9.90298 49.3478 5.99946 53.8142C3.83279 56.2932 3.36892 58.1796 3.58193 60.3501C3.6923 61.4722 4.1414 62.8517 4.83738 63.7228L-5.19049 64.7048ZM2.0379 80.2546C-7.32229 81.171 -8.65118 68.6251 0.80425 67.6991C10.118 66.7875 11.3618 79.3414 2.0379 80.2546Z" fill="url(#paint1_linear)"/>
<path d="M9.81288 173.03C16.3688 166.319 26.6478 163.498 35.7128 165.92C27.837 171.2 18.9899 174.033 9.50781 174.107" fill="url(#paint2_linear)"/>
<path d="M18.5981 141.926C17.521 134.293 20.4908 125.707 26.1999 120.16C26.3929 127.718 23.199 136.235 18.5981 141.926Z" fill="url(#paint3_linear)"/>
<path d="M14.0278 156.339C18.0996 148.556 24.7863 142.169 32.743 138.452C30.3585 147.237 22.8438 154.428 13.9531 156.42" fill="url(#paint4_linear)"/>
<path d="M13.0879 159.122C17.6951 159.253 22.3645 159.091 26.8223 157.908C31.2801 156.731 35.5511 154.459 38.5146 150.929C29.5493 150.941 20.6026 153.668 13.1564 158.667" fill="url(#paint5_linear)"/>
<path d="M15.4228 149.957C13.0819 141.185 9.22178 135.121 2.32966 130.208C1.80668 134.473 2.85887 138.919 5.23095 142.498C7.60926 146.085 11.2888 148.78 15.4228 149.957Z" fill="url(#paint6_linear)"/>
<path d="M-1.97884 165.086C-2.09713 159.987 1.18394 154.981 5.90942 153.063C5.52964 157.59 1.96841 162.826 -1.97884 165.086Z" fill="url(#paint7_linear)"/>
<path d="M2.43533 189.504C-2.67617 187.923 -8.37913 188.334 -13.2167 190.625C-18.0542 192.916 -21.9828 197.069 -24 202.025C-14.3934 200.201 -4.91751 195.936 2.43533 189.504Z" fill="url(#paint8_linear)"/>
<path d="M12.9757 183.012C11.3818 187.725 11.6869 193.428 15.2295 197.487C16.6739 192.649 15.8209 187.177 12.9757 183.012Z" fill="url(#paint9_linear)"/>
<path d="M19.2017 180.39C19.6437 186.454 23.5225 192.145 28.9951 194.785C29.269 194.915 29.5803 195.04 29.8605 194.928C30.2901 194.754 30.3336 194.162 30.2776 193.701C29.5865 187.656 25.1101 181.816 19.2017 180.39Z" fill="url(#paint10_linear)"/>
<path d="M23.2671 179.78C25.9629 182.693 29.8977 184.424 33.8699 184.443C37.842 184.462 41.7892 182.774 44.5162 179.886C37.7611 179.145 29.9724 178.653 23.2671 179.78Z" fill="url(#paint11_linear)"/>
<path d="M24.2823 125.782C24.2885 125.782 24.2636 125.851 24.22 125.981C24.1702 126.118 24.1017 126.311 24.0146 126.554C23.8216 127.065 23.5476 127.799 23.199 128.739C22.8379 129.686 22.4145 130.85 21.9289 132.207C21.6861 132.886 21.4246 133.608 21.1444 134.374C20.8767 135.146 20.5965 135.961 20.3039 136.814C19.1085 140.232 17.7762 144.342 16.3442 148.911C14.9372 153.487 13.4554 158.543 11.9985 163.879C10.5603 169.22 9.29025 174.332 8.20694 178.995C7.15475 183.671 6.25199 187.886 5.59827 191.453C5.43017 192.344 5.2683 193.19 5.11887 193.993C4.9819 194.797 4.85116 195.556 4.73286 196.266C4.49005 197.685 4.27837 198.906 4.13517 199.908C3.98575 200.898 3.86123 201.676 3.7803 202.212C3.73672 202.467 3.70559 202.666 3.68068 202.809C3.65578 202.946 3.64333 203.015 3.6371 203.015C3.63087 203.015 3.6371 202.946 3.65578 202.809C3.67446 202.66 3.69936 202.461 3.73049 202.205C3.8052 201.664 3.90482 200.885 4.03556 199.889C4.16008 198.881 4.35308 197.66 4.58967 196.235C4.70173 195.525 4.82625 194.765 4.957 193.956C5.10019 193.153 5.25584 192.3 5.41772 191.41C6.04654 187.842 6.93685 183.615 7.97658 178.933C9.04744 174.257 10.3113 169.146 11.7495 163.798C13.2064 158.462 14.6944 153.407 16.1139 148.83C17.5645 144.261 18.9093 140.158 20.1296 136.746C20.4284 135.893 20.7211 135.077 20.9888 134.305C21.2752 133.54 21.5429 132.817 21.7919 132.145C22.29 130.794 22.7258 129.63 23.0994 128.69C23.4667 127.756 23.7593 127.027 23.9586 126.517C24.0582 126.28 24.1329 126.093 24.1889 125.956C24.2449 125.844 24.2761 125.782 24.2823 125.782Z" fill="#1C1C1E"/>
<path d="M-12.8182 145.101C-12.812 145.101 -12.7746 145.132 -12.6999 145.213C-12.6189 145.3 -12.5131 145.412 -12.3761 145.555C-12.096 145.854 -11.6851 146.302 -11.1745 146.9C-10.1535 148.083 -8.71529 149.845 -7.19616 152.205C-5.67703 154.552 -4.12055 157.546 -3.03723 161.101C-1.92279 164.644 -1.23171 168.666 -0.540631 172.875C0.8353 181.298 2.5163 188.838 3.73659 194.298C4.35295 197.013 4.85103 199.217 5.19968 200.754C5.36778 201.508 5.49853 202.093 5.59191 202.51C5.62927 202.703 5.6604 202.853 5.6853 202.971C5.70398 203.077 5.71643 203.127 5.71021 203.127C5.70398 203.127 5.69153 203.077 5.6604 202.977C5.62927 202.859 5.59191 202.709 5.5421 202.523C5.43626 202.105 5.29307 201.52 5.10629 200.773C4.73896 199.235 4.20976 197.038 3.56226 194.329C2.2984 188.882 0.580037 181.342 -0.795895 172.912C-1.48697 168.703 -2.1656 164.694 -3.26137 161.17C-4.326 157.634 -5.85136 154.658 -7.34558 152.304C-8.8398 149.945 -10.2531 148.17 -11.243 146.969C-11.7411 146.365 -12.1396 145.904 -12.4073 145.593C-12.5318 145.443 -12.6314 145.325 -12.7123 145.238C-12.787 145.151 -12.8244 145.107 -12.8182 145.101Z" fill="#1C1C1E"/>
<path d="M25.2847 179.487C25.2847 179.493 25.2038 179.512 25.0419 179.531C24.8551 179.549 24.6186 179.574 24.3446 179.605C24.189 179.618 24.0209 179.636 23.8403 179.655C23.6535 179.686 23.4543 179.711 23.2426 179.742C22.813 179.805 22.3274 179.867 21.792 179.985C21.5243 180.041 21.2441 180.091 20.9515 180.153C20.6651 180.228 20.36 180.303 20.0549 180.384C19.4324 180.527 18.7849 180.751 18.0938 180.963C16.7365 181.436 15.2734 182.052 13.8166 182.849C12.3659 183.658 11.0771 184.586 9.98138 185.514C9.44595 185.993 8.93542 186.448 8.51206 186.927C8.05757 187.375 7.69024 187.848 7.34781 188.272C6.98671 188.683 6.73767 189.106 6.48863 189.461C6.23337 189.81 6.04659 190.133 5.89717 190.401C5.75397 190.644 5.63568 190.843 5.53606 191.005C5.4489 191.142 5.40532 191.21 5.39287 191.21C5.38664 191.204 5.41777 191.13 5.48626 190.986C5.57342 190.818 5.67926 190.607 5.80378 190.358C5.94075 190.084 6.11508 189.747 6.35789 189.386C6.6007 189.025 6.84351 188.589 7.19839 188.166C7.53459 187.73 7.89569 187.251 8.35019 186.79C8.77355 186.298 9.28408 185.837 9.81951 185.346C10.9215 184.399 12.2165 183.453 13.6858 182.637C15.1551 181.834 16.6369 181.218 18.0128 180.751C18.7101 180.545 19.3639 180.328 19.9927 180.191C20.304 180.116 20.6091 180.047 20.9017 179.979C21.1943 179.929 21.4807 179.873 21.7484 179.829C22.2838 179.724 22.7819 179.674 23.2115 179.624C23.4232 179.599 23.6286 179.574 23.8154 179.556C23.996 179.543 24.1703 179.537 24.3259 179.531C24.6061 179.518 24.8427 179.512 25.0295 179.499C25.2038 179.481 25.2847 179.481 25.2847 179.487Z" fill="#1C1C1E"/>
<path d="M27.2085 145.263C27.221 145.276 27.0467 145.444 26.7229 145.73C26.3556 146.048 25.8886 146.452 25.3345 146.938C24.1516 147.946 22.5079 149.329 20.6837 150.841C18.8595 152.354 17.1972 153.712 15.9832 154.689C15.4041 155.15 14.9185 155.53 14.5387 155.828C14.1963 156.096 13.9971 156.233 13.9909 156.221C13.9784 156.208 14.1527 156.04 14.4765 155.754C14.8438 155.436 15.3108 155.032 15.8649 154.546C17.0478 153.537 18.6914 152.155 20.5156 150.642C22.3398 149.129 24.0022 147.772 25.21 146.801C25.789 146.34 26.2746 145.96 26.6544 145.655C27.0031 145.394 27.1961 145.251 27.2085 145.263Z" fill="#1C1C1E"/>
<path d="M28.8706 154.197C28.8893 154.266 25.3467 155.374 20.9512 156.669C16.5557 157.97 12.9758 158.966 12.9571 158.898C12.9384 158.829 16.481 157.721 20.8765 156.42C25.272 155.125 28.8519 154.129 28.8706 154.197Z" fill="#1C1C1E"/>
<path d="M15.7779 150.643C15.7655 150.649 15.6347 150.468 15.4106 150.132C15.1616 149.752 14.8503 149.273 14.4767 148.706C13.686 147.505 12.5591 145.867 11.2268 144.13C9.89443 142.387 8.61188 140.874 7.66554 139.785C7.21727 139.274 6.84371 138.845 6.54487 138.502C6.27715 138.197 6.14018 138.023 6.15264 138.01C6.16509 137.998 6.33319 138.147 6.61958 138.434C6.90597 138.714 7.31688 139.137 7.80251 139.66C8.78621 140.712 10.0937 142.219 11.4322 143.969C12.7708 145.718 13.8728 147.38 14.6324 148.607C15.0121 149.223 15.3048 149.721 15.4978 150.076C15.6908 150.431 15.7904 150.63 15.7779 150.643Z" fill="#1C1C1E"/>
<path d="M3.46243 155.598C3.49356 155.623 3.15736 156.133 2.62815 156.967C2.09895 157.802 1.37673 158.96 0.635847 160.267C-0.105041 161.575 -0.733863 162.789 -1.18213 163.667C-1.6304 164.551 -1.89811 165.099 -1.93547 165.08C-1.9666 165.067 -1.75492 164.488 -1.35023 163.586C-0.945545 162.683 -0.341629 161.45 0.405485 160.136C1.1526 158.823 1.89971 157.671 2.4725 156.862C3.04529 156.058 3.4313 155.579 3.46243 155.598Z" fill="#1C1C1E"/>
<path d="M2.56597 189.536C2.56597 189.542 2.49126 189.567 2.34806 189.61C2.17373 189.654 1.96205 189.71 1.70679 189.772C1.1091 189.909 0.312181 190.096 -0.65284 190.314C-2.63891 190.775 -5.40946 191.354 -8.35432 192.35C-11.2992 193.352 -13.8269 194.628 -15.5391 195.724C-16.3982 196.272 -17.0706 196.751 -17.5189 197.1C-17.9734 197.449 -18.2224 197.642 -18.2349 197.629C-18.2411 197.623 -18.1851 197.567 -18.0792 197.461C-17.9672 197.362 -17.8115 197.206 -17.5874 197.025C-17.1516 196.652 -16.4978 196.141 -15.6449 195.575C-13.9452 194.429 -11.405 193.115 -8.44149 192.107C-5.47171 191.105 -2.68872 190.557 -0.690195 190.139C0.281052 189.953 1.08419 189.791 1.68811 189.673C2.24845 189.567 2.55974 189.517 2.56597 189.536Z" fill="#1C1C1E"/>
<path d="M14.5574 194.086C14.4889 194.099 14.0656 191.608 13.6173 188.533C13.1691 185.451 12.8578 182.948 12.9325 182.942C13.001 182.929 13.4243 185.42 13.8726 188.495C14.3208 191.571 14.6321 194.074 14.5574 194.086Z" fill="#1C1C1E"/>
<path d="M27.0465 189.555C27.0154 189.579 26.5983 189.056 25.9196 188.216C25.2472 187.375 24.3071 186.217 23.2549 184.96C22.1965 183.702 21.219 182.581 20.5031 181.772C19.7933 180.963 19.3513 180.458 19.3824 180.433C19.3949 180.421 19.5194 180.533 19.7373 180.739C19.9552 180.95 20.2665 181.255 20.64 181.648C21.3871 182.426 22.3895 183.534 23.4542 184.792C24.5126 186.056 25.4278 187.232 26.069 188.104C26.3866 188.54 26.6418 188.895 26.8099 189.144C26.978 189.399 27.0652 189.542 27.0465 189.555Z" fill="#1C1C1E"/>
<path d="M-6.00098 201.135V207.305H-4.45694L1.02811 224.619H13.1874L18.5043 207.479L20.5589 207.305V201.135H-6.00098Z" fill="url(#paint12_linear)"/>
<path d="M19.5319 207.479C19.5319 207.547 14.1589 207.609 7.53448 207.609C0.91009 207.609 -4.46289 207.553 -4.46289 207.479C-4.46289 207.41 0.91009 207.348 7.53448 207.348C14.1589 207.348 19.5319 207.404 19.5319 207.479Z" fill="#1C1C1E"/>
<path d="M28.2794 167.783C28.2857 167.801 28.0055 167.876 27.5012 167.994C26.9533 168.125 26.2311 168.3 25.3657 168.511C23.5664 168.959 21.0947 169.632 18.4175 170.535C15.7341 171.437 13.3621 172.39 11.6562 173.125C10.8406 173.479 10.1619 173.778 9.64518 174.002C9.17201 174.214 8.90429 174.32 8.89806 174.308C8.89184 174.289 9.14087 174.152 9.60159 173.915C10.0623 173.672 10.7409 173.349 11.5814 172.956C13.2687 172.178 15.647 171.195 18.3366 170.292C21.0262 169.389 23.5166 168.735 25.3283 168.337C26.2373 168.138 26.972 167.988 27.4825 167.901C27.993 167.808 28.2794 167.764 28.2794 167.783Z" fill="#1C1C1E"/>
<path d="M40.372 221.175C39.8677 221.194 39.4194 221.655 39.4194 222.159C39.4194 222.663 39.8864 223.124 40.3907 223.111C40.895 223.099 41.4491 222.564 41.3931 222.059C41.337 221.555 40.7642 221.044 40.2724 221.181" fill="#F2F2F7"/>
<path d="M48.5901 220.996C48.5154 221.096 48.0049 220.803 47.3138 220.697C46.6289 220.573 46.0499 220.685 46.0126 220.567C45.9628 220.467 46.5791 220.137 47.3885 220.274C48.1917 220.405 48.671 220.915 48.5901 220.996Z" fill="#1C1C1E"/>
<path d="M42.4764 213.867L42.246 226.835C42.246 226.835 55.3516 231.424 55.5446 233.827L30.3794 234.288L29.9062 214.066L42.4764 213.867Z" fill="url(#paint13_linear)"/>
<path d="M34.4445 225.889C33.9589 226.033 33.6352 226.587 33.7535 227.072C33.878 227.564 34.4383 227.9 34.9239 227.763C35.4096 227.633 35.8205 226.979 35.6462 226.506C35.4718 226.033 34.7932 225.671 34.3512 225.92" fill="#F2F2F7"/>
<path d="M30.3789 234.287L30.41 232.245L54.5231 232.569C54.5231 232.569 55.65 233.036 55.5379 233.827L30.3789 234.287Z" fill="#1C1C1E"/>
<path d="M42.6505 226.705C42.6505 226.83 42.0341 226.892 41.4365 227.303C40.8263 227.695 40.5275 228.23 40.4154 228.187C40.3033 228.168 40.4714 227.427 41.2061 226.948C41.9345 226.456 42.6754 226.587 42.6505 226.705Z" fill="#1C1C1E"/>
<path d="M45.315 227.744C45.3461 227.863 44.8169 228.08 44.406 228.61C43.9827 229.126 43.8893 229.687 43.7647 229.687C43.6527 229.705 43.5531 228.989 44.0698 228.342C44.5866 227.694 45.3088 227.626 45.315 227.744Z" fill="#1C1C1E"/>
<path d="M46.8714 230.876C46.7593 230.907 46.5788 230.291 46.8839 229.612C47.1827 228.934 47.7555 228.653 47.8115 228.759C47.88 228.859 47.5189 229.226 47.2761 229.787C47.0146 230.341 46.9897 230.864 46.8714 230.876Z" fill="#1C1C1E"/>
<path d="M42.3766 223.741C42.3268 223.854 41.7602 223.698 41.0692 223.754C40.3719 223.798 39.8364 224.04 39.7742 223.941C39.6995 223.854 40.2224 223.387 41.038 223.331C41.8536 223.262 42.4389 223.642 42.3766 223.741Z" fill="#1C1C1E"/>
<path d="M27.4157 104.675L24.5269 122.637L26.6374 137.48L26.7246 140.705L28.8601 156.537C28.7418 159.545 28.1317 172.108 27.6709 174.698C27.1044 177.911 28.6796 223.547 28.6796 223.547L43.1922 222.906C43.1922 222.906 48.6773 155.236 48.6586 154.495C48.6399 153.748 56.2044 103.872 56.2044 103.872L27.4157 104.675Z" fill="#1C1C1E"/>
<path d="M64.1052 107.447C64.1052 107.447 66.4026 157.528 65.643 163.711C65.0329 168.691 49.8042 222.521 49.8042 222.521L36.4932 220.236L41.7292 162.142L43.6219 104.222L64.1052 107.447Z" fill="#1C1C1E"/>
<path d="M53.9816 127.301C54.0625 127.314 52.2632 142.051 49.9534 160.218C47.6436 178.391 43.273 222.926 43.1921 222.913C43.1111 222.901 47.351 178.354 49.6546 160.181C51.9644 142.013 53.9007 127.289 53.9816 127.301Z" fill="#8E8E93"/>
<path d="M49.9784 21.4791C49.2064 19.96 48.4282 18.4222 48.011 16.7723C47.5939 15.1162 47.569 13.3107 48.2725 11.7605C48.6834 10.8515 49.3309 10.0545 49.6547 9.11443C50.103 7.81943 49.9162 6.28785 50.7193 5.17341C51.977 3.43637 54.6603 3.84106 56.6028 2.93207C58.1157 2.22231 59.1679 0.696955 60.7618 0.186428C62.1501 -0.26184 63.663 0.16775 65.0078 0.740537C66.3464 1.31332 67.6539 2.04798 69.1045 2.23476C70.138 2.37173 71.184 2.22231 72.2237 2.24099C73.2634 2.26589 74.3654 2.49625 75.1001 3.23091C75.8347 3.9718 75.9842 5.33528 75.1935 6.00768C77.0114 5.69638 78.7236 7.51436 78.7049 9.35724C78.68 11.2001 77.2916 12.8251 75.6106 13.5909C73.9358 14.3567 72.0182 14.4065 70.1754 14.2633C64.9705 13.8586 59.7345 11.8787 56.1919 8.04356" fill="#1C1C1E"/>
<path d="M51.1051 14.9675L47.5563 40.7491C46.9524 45.1322 52.4063 53.1761 56.8205 53.5621C60.9359 53.9232 62.3429 50.9596 62.9033 46.8692C63.171 44.9267 63.3951 39.286 63.4325 39.0868C63.4325 39.0868 70.0818 39.3732 71.4515 32.9418C72.1114 29.835 72.9519 23.3227 73.643 17.4205C74.3839 11.0825 70.1316 5.24259 63.8745 3.99118L63.2519 3.86666C56.4594 2.92032 51.8647 8.15633 51.1051 14.9675Z" fill="#F7F7FC"/>
<path opacity="0.2" d="M63.4261 39.0929C63.4261 39.0929 59.317 38.5201 55.5254 34.934C55.5254 34.934 56.7644 40.3381 63.314 41.0416L63.4261 39.0929Z" fill="url(#paint14_linear)"/>
<path d="M70.7482 22.9046C70.6672 23.3965 70.1879 23.7327 69.6773 23.658C69.1668 23.5833 68.8119 23.1288 68.8929 22.6369C68.9738 22.145 69.4532 21.8088 69.9637 21.8836C70.4742 21.9583 70.8291 22.4128 70.7482 22.9046Z" fill="#1C1C1E"/>
<path d="M71.6197 20.3085C71.4827 20.4081 70.885 19.7481 69.8951 19.5551C68.9052 19.3435 68.0771 19.7108 67.9962 19.5676C67.9526 19.5053 68.1145 19.3123 68.4756 19.1442C68.8305 18.9761 69.4095 18.8578 70.0259 18.9886C70.6422 19.1131 71.1154 19.4431 71.3706 19.7357C71.6259 20.0283 71.6882 20.2711 71.6197 20.3085Z" fill="#1C1C1E"/>
<path d="M61.5084 21.3114C61.4275 21.8033 60.9481 22.1395 60.4376 22.0647C59.927 21.99 59.5722 21.5355 59.6531 21.0437C59.734 20.5518 60.2134 20.2156 60.724 20.2904C61.2345 20.3651 61.5831 20.8196 61.5084 21.3114Z" fill="#1C1C1E"/>
<path d="M61.8453 18.5537C61.7083 18.6533 61.1106 17.9933 60.1207 17.8003C59.1308 17.5886 58.3027 17.956 58.2218 17.8128C58.1782 17.7505 58.3401 17.5575 58.7012 17.3894C59.0561 17.2213 59.6351 17.103 60.2514 17.2338C60.8678 17.3583 61.341 17.6945 61.5962 17.9809C61.8515 18.2735 61.9138 18.5101 61.8453 18.5537Z" fill="#1C1C1E"/>
<path d="M63.9743 26.6159C63.9805 26.5599 64.6156 26.5723 65.6428 26.647C65.8981 26.672 66.1534 26.672 66.2281 26.5039C66.3215 26.3358 66.2717 26.0369 66.2094 25.7194C66.0911 25.0594 65.9728 24.3684 65.8483 23.6462C65.3565 20.6951 65.0576 18.2919 65.1759 18.2732C65.2942 18.2545 65.7923 20.6328 66.2779 23.5839C66.39 24.3123 66.502 25.0034 66.6079 25.6634C66.6452 25.9684 66.7448 26.3295 66.5394 26.6844C66.4335 26.8587 66.2219 26.9583 66.0475 26.9708C65.8732 26.9895 65.73 26.9646 65.6055 26.9459C64.5907 26.7965 63.9619 26.672 63.9743 26.6159Z" fill="#1C1C1E"/>
<path d="M60.9173 26.7209C61.0792 26.7458 60.8675 27.8167 61.6333 28.7692C62.3991 29.7218 63.5695 29.8276 63.5509 29.9771C63.5509 30.0456 63.252 30.1327 62.7664 30.0518C62.287 29.9708 61.627 29.6844 61.1539 29.1054C60.6869 28.5264 60.5686 27.854 60.6185 27.4057C60.6745 26.9388 60.8488 26.696 60.9173 26.7209Z" fill="#1C1C1E"/>
<path d="M62.8785 14.7181C62.7291 14.9671 61.7641 14.6434 60.575 14.55C59.3858 14.4317 58.3834 14.5874 58.2776 14.3134C58.234 14.1827 58.4457 13.9648 58.8753 13.778C59.3049 13.5912 59.9524 13.4667 60.6621 13.529C61.3781 13.5912 61.9945 13.8278 62.3805 14.0893C62.7727 14.3445 62.9408 14.5998 62.8785 14.7181Z" fill="#1C1C1E"/>
<path d="M71.8316 17.3705C71.6137 17.5635 70.9787 17.1899 70.1569 17.0156C69.3475 16.8101 68.6128 16.8662 68.5008 16.5985C68.451 16.4677 68.6066 16.2685 68.9553 16.1128C69.2977 15.9634 69.8331 15.8887 70.3935 16.0194C70.9538 16.1502 71.4021 16.449 71.6386 16.7417C71.8815 17.028 71.925 17.2771 71.8316 17.3705Z" fill="#1C1C1E"/>
<path d="M50.6761 19.8425C50.5765 19.774 46.511 17.6447 45.7701 22.0838C45.0292 26.5167 49.6364 26.3486 49.6675 26.2241C49.6924 26.0996 50.6761 19.8425 50.6761 19.8425Z" fill="#F7F7FC"/>
<path opacity="0.2" d="M48.59 24.3176C48.5713 24.2989 48.5028 24.3612 48.3658 24.3985C48.2289 24.4359 48.0047 24.4421 47.7868 24.3113C47.3448 24.0623 47.0771 23.2529 47.1891 22.4498C47.2452 22.0451 47.3946 21.6716 47.5876 21.3789C47.7744 21.0801 48.0234 20.8871 48.2662 20.8809C48.509 20.8684 48.6522 21.0365 48.6896 21.1673C48.727 21.3042 48.6834 21.3852 48.7083 21.3976C48.7207 21.4101 48.8141 21.3416 48.8079 21.1486C48.8017 21.0552 48.7705 20.9431 48.6771 20.8435C48.5838 20.7377 48.4343 20.6692 48.2662 20.6567C47.9176 20.6256 47.5627 20.8871 47.3448 21.2108C47.1082 21.5346 46.9339 21.9455 46.8716 22.4C46.7533 23.2965 47.0709 24.2117 47.681 24.5043C47.9798 24.6351 48.2538 24.5853 48.4094 24.5043C48.5651 24.4234 48.6024 24.3238 48.59 24.3176Z" fill="url(#paint15_linear)"/>
<path d="M74.9133 11.4371C74.1537 13.0745 70.2376 13.7095 67.3675 12.8441C64.7215 12.0472 63.7627 10.3662 62.0817 8.90312C61.017 7.97545 61.017 7.97545 59.28 7.7949C57.8729 7.6517 56.746 9.04631 55.6876 9.9802C56.2791 13.5041 54.7102 16.9968 53.1848 20.2281C53.0167 20.583 52.8237 20.969 52.4688 21.1433C51.8649 21.4422 51.1489 20.969 50.7878 20.4024C50.215 19.4934 50.1465 18.3603 50.1652 17.2895C50.215 14.8427 50.6446 12.3834 51.6345 10.1483C52.6307 7.91319 54.2058 5.90844 56.2729 4.59477C58.8566 2.95735 62.1066 2.4904 65.095 3.13167C68.0835 3.77917 70.798 5.4913 72.8276 7.77622C73.774 8.83463 74.5958 10.0549 74.9133 11.4371Z" fill="#1C1C1E"/>
<path d="M65.8922 22.1571C65.9296 22.1571 65.9171 21.7774 66.0915 21.1236C66.2658 20.4886 66.7016 19.5547 67.6604 18.845C68.5881 18.129 70.1134 17.7305 71.589 18.2784C72.3174 18.5399 73.0085 19.038 73.5003 19.7228C74.0046 20.3952 74.291 21.2606 74.2973 22.1571C74.291 23.0475 74.0046 23.9129 73.5003 24.5915C73.0085 25.2763 72.3174 25.7744 71.589 26.0359C70.1134 26.5838 68.5881 26.1853 67.6604 25.4693C66.7016 24.7534 66.2658 23.8257 66.0915 23.1906C65.9171 22.5432 65.9296 22.1571 65.8922 22.1571C65.8798 22.1571 65.8735 22.2505 65.8673 22.4311C65.8611 22.6116 65.8798 22.8794 65.9545 23.2218C66.0915 23.888 66.5086 24.8841 67.5048 25.6686C68.4698 26.453 70.0947 26.92 71.6948 26.341C72.4855 26.067 73.2388 25.5316 73.7743 24.7969C74.3284 24.0685 74.6397 23.1222 74.6459 22.1571C74.6397 21.1859 74.3222 20.2458 73.7743 19.5174C73.2388 18.7765 72.4855 18.2473 71.6948 17.9733C70.0947 17.3943 68.4635 17.8613 67.5048 18.6457C66.5086 19.4302 66.0915 20.4263 65.9545 21.0925C65.8798 21.4287 65.8611 21.7027 65.8673 21.8832C65.8735 22.0638 65.8798 22.1571 65.8922 22.1571Z" fill="#1C1C1E"/>
<path d="M55.3698 20.3215C55.4071 20.3215 55.3947 19.9417 55.569 19.288C55.7433 18.6529 56.1791 17.719 57.1379 17.0093C58.0656 16.2933 59.591 15.8948 61.0665 16.4427C61.7949 16.7042 62.486 17.2023 62.9779 17.8872C63.4822 18.5596 63.7686 19.425 63.7748 20.3215C63.7686 21.2118 63.4822 22.0772 62.9779 22.7558C62.486 23.4407 61.7949 23.9388 61.0665 24.2003C59.591 24.7481 58.0656 24.3497 57.1379 23.6337C56.1791 22.9177 55.7433 21.99 55.569 21.355C55.3947 20.7013 55.4071 20.3215 55.3698 20.3215C55.3573 20.3215 55.3511 20.4149 55.3449 20.5954C55.3386 20.776 55.3573 21.0437 55.432 21.3861C55.569 22.0523 55.9861 23.0485 56.9823 23.8329C57.9473 24.6174 59.5723 25.0843 61.1723 24.5053C61.963 24.2314 62.7164 23.696 63.2518 22.9613C63.8059 22.2329 64.1172 21.2865 64.1234 20.3215C64.1172 19.3502 63.7997 18.4101 63.2518 17.6817C62.7164 16.9408 61.963 16.4116 61.1723 16.1377C59.5723 15.5586 57.9411 16.0256 56.9823 16.8101C55.9861 17.5945 55.569 18.5907 55.432 19.2569C55.3573 19.5931 55.3386 19.867 55.3449 20.0476C55.3511 20.2281 55.3573 20.3215 55.3698 20.3215Z" fill="#1C1C1E"/>
<path d="M64.0366 20.4701C64.0802 20.5572 64.6467 20.2957 65.3005 20.495C65.9604 20.688 66.2842 21.2234 66.3713 21.1674C66.4149 21.1487 66.39 20.9806 66.2468 20.7565C66.1036 20.5385 65.811 20.2708 65.4063 20.1463C65.0016 20.028 64.6156 20.084 64.3728 20.1899C64.1238 20.302 64.0117 20.4327 64.0366 20.4701Z" fill="#1C1C1E"/>
<path d="M49.4053 19.1821C49.4053 19.2818 50.8186 19.344 52.5618 19.3191C54.3051 19.2942 55.7184 19.1946 55.7184 19.095C55.7184 18.9954 54.3051 18.9331 52.5618 18.958C50.8186 18.9829 49.4053 19.0888 49.4053 19.1821Z" fill="#1C1C1E"/>
<path d="M77.4658 73.3037L66.4023 80.6067L66.5642 83.5018L69.4531 89.5908C69.4531 89.5908 70.7854 90.8546 74.7077 86.8887C78.6239 82.9228 83.5859 75.0345 83.5859 75.0345L77.4658 73.3037Z" fill="#F7F7FC"/>
<path d="M96.0941 58.081C95.9696 57.7884 95.6956 57.5891 95.3719 57.5455L89.9491 56.8171C89.4697 56.7611 88.9903 56.9043 88.6292 57.2156L73.1079 70.5453L73.8114 71.2302L79.6327 72.631L96.1937 58.3238L96.0941 58.081Z" fill="#1C1C1E"/>
<path d="M91.7915 59.184C91.8725 59.3085 92.0842 59.321 92.2523 59.2151C92.4266 59.1031 92.4951 58.9163 92.4141 58.7918C92.3332 58.6672 92.1215 58.6548 91.9534 58.7606C91.7729 58.8665 91.7044 59.0595 91.7915 59.184Z" fill="white"/>
<path d="M96.1995 58.3238C96.1933 58.3487 95.8198 58.3176 95.1349 58.2429C94.4002 58.1557 93.4228 58.0437 92.2461 57.9067C91.6297 57.832 90.9635 57.7448 90.2538 57.6577C89.9176 57.5954 89.5751 57.6826 89.3137 57.9005C89.0273 58.1495 88.7284 58.4048 88.4296 58.6663C87.2031 59.7184 85.8645 60.8702 84.4636 62.0843C81.6433 64.5 79.0782 66.679 77.2104 68.2417C76.3014 68.9889 75.5543 69.6115 74.9878 70.0784C74.4586 70.508 74.1597 70.7383 74.141 70.7197C74.1286 70.701 74.3963 70.4395 74.9006 69.985C75.4485 69.4994 76.1769 68.8519 77.0548 68.0736C78.8852 66.4674 81.4254 64.2634 84.2457 61.8477C85.659 60.6461 87.0038 59.5005 88.2303 58.4483C88.5354 58.1869 88.8405 57.9316 89.1331 57.6888C89.4569 57.4148 89.9176 57.3215 90.2911 57.3962C91.0009 57.502 91.6671 57.5954 92.2772 57.6826C93.4477 57.8631 94.4189 58.0125 95.1536 58.1246C95.826 58.2304 96.1995 58.2989 96.1995 58.3238Z" fill="#8E8E93"/>
<path d="M90.5653 61.1079C90.5653 61.1079 90.0734 60.8713 89.3886 62.2099C88.7037 63.5547 86.6429 67.3774 86.6429 67.3774L84.3206 65.1672L80.7843 64.6567C80.7843 64.6567 79.8504 65.1361 80.2862 65.6591C80.7283 66.1883 82.7766 67.172 82.7766 67.172L83.723 69.9052L79.7757 66.4249C79.7757 66.4249 78.1445 66.3937 78.3251 67.4459C78.5119 68.4981 80.7719 72.271 80.7719 72.271L78.5368 71.4554L76.283 69.0397C76.283 69.0397 75.4362 68.8467 75.5483 69.6437C75.6604 70.4406 77.7647 73.8026 77.7647 73.8026L80.7283 76.4299C80.7283 76.4299 82.6396 76.8097 82.9758 76.3116C83.312 75.8136 83.5735 75.0415 83.5735 75.0415C83.5735 75.0415 84.6444 75.054 84.9619 74.6244C85.2794 74.1948 85.379 73.3979 85.379 73.3979C85.379 73.3979 86.8608 74.1077 87.2966 73.2921C87.7325 72.4765 88.05 70.7208 88.0811 70.0048C88.1122 69.295 90.6773 63.3119 90.6649 63.1064C90.6586 62.901 91.6548 60.9709 90.5653 61.1079Z" fill="#F7F7FC"/>
<path opacity="0.2" d="M83.1006 76.3486C83.1006 76.3922 82.727 76.442 82.1293 76.3735C81.5316 76.305 80.7098 76.0871 79.9004 75.6388C79.0911 75.1844 78.4685 74.6053 78.0949 74.1322C77.7213 73.659 77.5657 73.3166 77.6031 73.2917C77.6902 73.2232 78.512 74.4684 80.0748 75.3151C81.6188 76.193 83.113 76.2365 83.1006 76.3486Z" fill="url(#paint16_linear)"/>
<path opacity="0.2" d="M82.6334 74.8908C82.5587 74.953 82.042 74.4674 81.5439 73.7514C81.0458 73.0354 80.7594 72.3817 80.8466 72.3319C80.9337 72.2821 81.3509 72.8424 81.8427 73.5397C82.3284 74.2433 82.7081 74.8223 82.6334 74.8908Z" fill="url(#paint17_linear)"/>
<path opacity="0.2" d="M85.2609 72.4383C85.1861 72.5006 84.6694 72.0212 84.2211 71.2865C83.7666 70.5518 83.5736 69.8794 83.667 69.8421C83.7604 69.8047 84.0966 70.39 84.5324 71.0997C84.9682 71.8095 85.3418 72.376 85.2609 72.4383Z" fill="url(#paint18_linear)"/>
<path opacity="0.2" d="M87.8259 70.5894C87.7201 70.6018 87.5582 69.8609 87.2096 69.008C86.8672 68.155 86.475 67.5076 86.5621 67.4391C86.6368 67.3768 87.1847 67.962 87.552 68.871C87.9193 69.78 87.9255 70.5831 87.8259 70.5894Z" fill="url(#paint19_linear)"/>
<path d="M72.7655 75.0349L80.0499 81.5845C80.0499 81.5845 68.644 94.0426 65.1201 96.8007C61.5962 99.5588 66.247 77.9984 66.247 77.9984L72.7655 75.0349Z" fill="url(#paint20_linear)"/>
<path d="M48.0175 36.0664L44.9855 40.2689L33.1935 44.6333L27.8455 84.7407L23.4873 120.608C23.4873 120.608 31.7118 122.071 33.7539 119.089C36.1322 115.609 54.7042 118.747 55.9431 119.681L58.3588 111.575L60.3137 120.963C60.3137 120.963 63.7504 121.735 65.5435 116.605L64.784 98.8114C64.784 98.8114 67.1996 66.7229 67.0626 61.8853C66.9257 57.0478 63.6508 43.6122 63.6508 43.6122L62.4305 47.5719L51.8091 38.5132L48.0175 36.0664Z" fill="url(#paint21_linear)"/>
<path d="M36.6051 43.4067C36.6051 43.4067 28.8538 43.3818 26.351 57.7326C23.8482 72.0896 20.2433 87.4863 22.0987 93.2453C23.954 99.0043 31.2321 115.596 31.2321 115.596L41.2123 111.998L37.1156 85.9423L41.8535 60.4408C41.8598 60.4471 42.445 44.4526 36.6051 43.4067Z" fill="url(#paint22_linear)"/>
<path d="M45.3085 117.57L41.2118 112.004L32.7321 115.055C32.7321 115.055 32.4519 117.757 32.7819 120.951C33.0807 123.771 33.5663 126.791 33.5663 126.791L43.6088 121.437C43.6088 121.437 44.0322 123.529 44.5925 124.693C45.1528 125.863 47.0891 124.624 47.0891 124.624L45.3085 117.57Z" fill="#F7F7FC"/>
<path d="M41.86 60.4478C41.86 60.4478 41.8414 60.6034 41.7916 60.9023C41.7355 61.2136 41.6608 61.6556 41.5612 62.2346C41.3495 63.4175 41.0382 65.1359 40.646 67.3399C39.8366 71.7728 38.6661 78.1481 37.2342 85.9679V85.9305C38.4109 93.3519 39.8179 102.236 41.3557 111.98L41.3744 112.098L41.2624 112.142C38.0685 113.294 34.7127 114.508 31.2822 115.747L31.1515 115.796L31.0954 115.666C30.0806 113.312 29.0097 110.828 27.9264 108.307C26.0213 103.793 24.166 99.3848 22.5659 95.0453C22.3604 94.5037 22.1861 93.9558 21.9993 93.4141C21.9122 93.1402 21.8561 92.8538 21.7877 92.5736C21.7129 92.2934 21.6507 92.0133 21.632 91.7269C21.5635 91.1603 21.4826 90.5938 21.4826 90.0272C21.4577 89.4606 21.439 88.9003 21.4639 88.3462C21.5137 86.1173 21.7316 83.9445 22.0118 81.8401C22.5597 77.6251 23.3068 73.6592 23.9854 69.9486C24.6765 66.2379 25.324 62.7825 25.9092 59.6259C26.1769 58.0446 26.4945 56.5441 26.8058 55.1308C27.005 54.4335 27.2042 53.7549 27.391 53.1012C27.6151 52.4537 27.8579 51.8435 28.0821 51.2396C29.0658 48.88 30.3296 47.0122 31.662 45.7919C32.9819 44.553 34.2831 43.9428 35.1858 43.6626C35.6403 43.5194 35.9952 43.4634 36.238 43.4323C36.3501 43.4261 36.4435 43.4198 36.512 43.4136C36.5742 43.4136 36.6054 43.4198 36.6054 43.4198C36.6054 43.4198 36.4808 43.4323 36.2443 43.4634C36.0077 43.507 35.6528 43.5693 35.2045 43.7187C34.3142 44.0113 33.0379 44.6339 31.7429 45.8728C30.4355 47.0931 29.1965 48.9547 28.2377 51.3019C28.0198 51.8996 27.777 52.5097 27.5591 53.151C27.3723 53.8047 27.1855 54.4771 26.9863 55.1682C26.6812 56.5752 26.3762 58.0695 26.1147 59.6571C25.5357 62.8136 24.9068 66.2752 24.222 69.9859C23.5558 73.6966 22.8149 77.6625 22.2795 81.8712C21.9993 83.9694 21.7877 86.136 21.7441 88.3462C21.7192 88.9003 21.7379 89.4544 21.7628 90.0085C21.7628 90.5689 21.8437 91.123 21.9122 91.6771C21.9309 91.9572 21.9993 92.2312 22.0678 92.4989C22.1363 92.7728 22.1861 93.0468 22.2733 93.3145C22.4601 93.8562 22.6344 94.3978 22.8398 94.9395C24.4399 99.2665 26.2952 103.674 28.2004 108.182C29.2837 110.704 30.3545 113.188 31.3694 115.535L31.1826 115.454C34.6193 114.215 37.9751 113.007 41.169 111.862L41.0756 112.017C39.5564 102.274 38.1681 93.383 37.01 85.9554V85.9368L37.0163 85.9181C38.4918 78.1045 39.6934 71.7354 40.5277 67.3088C40.9511 65.111 41.281 63.3926 41.5052 62.2159C41.6172 61.6432 41.7044 61.2011 41.7666 60.8898C41.8165 60.5972 41.86 60.4478 41.86 60.4478Z" fill="white"/>
<path d="M62.4301 47.5531C62.4426 47.5594 62.3616 47.7461 62.1998 48.0823C62.013 48.4621 61.7702 48.9415 61.4776 49.533C60.8176 50.8093 59.9211 52.5463 58.8689 54.576L58.7693 54.7752L58.6385 54.5947C57.7109 53.3246 56.6462 51.9486 55.4758 50.5416C53.1784 47.7773 50.9059 45.4488 49.2 43.8238C48.3533 43.0082 47.6498 42.3669 47.1642 41.9187C46.6785 41.4766 46.4108 41.2214 46.4233 41.2089C46.4357 41.1902 46.7283 41.4144 47.2389 41.8315C47.7494 42.2549 48.4778 42.8712 49.3432 43.6681C51.0865 45.2558 53.3963 47.5718 55.6999 50.3486C56.8766 51.7556 57.935 53.144 58.8565 54.4328L58.6261 54.4515C59.7156 52.4467 60.6433 50.7284 61.3281 49.4583C61.6519 48.8855 61.9134 48.4123 62.1188 48.045C62.3118 47.7212 62.4177 47.5469 62.4301 47.5531Z" fill="white"/>
<path d="M65.0449 49.6954C65.1445 49.658 65.6488 51.4822 65.2877 53.9104L65.2255 54.34L65.0138 53.9477C64.9017 53.7423 64.7897 53.5181 64.6838 53.2878C64.1235 52.0239 63.8184 50.8223 63.5071 49.9943C63.2083 49.16 62.9655 48.6681 63.0028 48.6432C63.034 48.6245 63.3515 49.0853 63.7064 49.9195C64.0737 50.7414 64.4099 51.9367 64.9578 53.1633C65.0574 53.3874 65.1694 53.5991 65.2753 53.8045L65.0013 53.8419C65.213 52.715 65.157 51.6379 65.1383 50.897C65.1134 50.1437 65.0138 49.7079 65.0449 49.6954Z" fill="white"/>
<path d="M62.9409 49.6264C62.9471 49.6264 62.9533 49.6824 62.9533 49.7883C62.9533 49.9128 62.9595 50.0684 62.9595 50.2615C62.9658 50.6786 62.9595 51.2887 62.9533 52.0732C62.9284 53.6484 62.8661 55.9208 62.7105 58.7287C62.4117 64.3445 61.7268 72.0834 61.0233 80.6253C60.2948 89.1611 59.6287 96.8875 59.1493 102.51C58.894 105.293 58.6948 107.553 58.5453 109.14C58.4706 109.906 58.4084 110.51 58.3648 110.939C58.3399 111.132 58.3274 111.282 58.3088 111.406C58.2963 111.512 58.2838 111.568 58.2776 111.562C58.2714 111.562 58.2714 111.506 58.2776 111.4C58.2838 111.276 58.2901 111.12 58.3025 110.927C58.3337 110.491 58.371 109.887 58.427 109.121C58.5516 107.534 58.7197 105.268 58.9313 102.485C59.3921 96.8626 60.0209 89.13 60.7182 80.5942C61.4217 72.046 62.1377 64.3134 62.4926 58.71C62.6731 55.9084 62.7728 53.6359 62.8288 52.067C62.8537 51.3012 62.8786 50.6973 62.891 50.2615C62.8973 50.0684 62.9097 49.9128 62.916 49.7883C62.9284 49.6762 62.9346 49.6264 62.9409 49.6264Z" fill="white"/>
<path d="M67.1244 63.5665C67.2054 63.5728 66.7633 71.5046 66.1283 81.2793C65.4932 91.0541 64.9142 98.9735 64.8333 98.9672C64.7523 98.961 65.1944 91.0292 65.8294 81.2544C66.4583 71.4797 67.0373 63.5603 67.1244 63.5665Z" fill="white"/>
<path d="M43.7961 53.9783C43.7401 53.9783 43.7401 53.2623 43.4599 52.1604C43.186 51.0646 42.5509 49.5828 41.3805 48.3065C40.21 47.0302 38.7843 46.2769 37.7134 45.9095C36.6363 45.5298 35.9203 45.4737 35.9328 45.4177C35.9328 45.399 36.1133 45.3928 36.4371 45.4301C36.7608 45.4613 37.2215 45.5422 37.7819 45.7103C38.8901 46.034 40.3843 46.7874 41.5984 48.1073C42.8124 49.4272 43.435 50.9837 43.6654 52.1168C43.7837 52.6896 43.8273 53.1565 43.8335 53.4803C43.8335 53.7978 43.8148 53.9783 43.7961 53.9783Z" fill="white"/>
<path opacity="0.2" d="M65.2443 96.5585C67.4295 90.6625 67.772 84.1191 66.34 77.999C65.9478 84.2311 65.624 90.4695 65.2256 96.7017" fill="url(#paint23_linear)"/>
<path opacity="0.2" d="M41.4425 62.6704C38.8837 75.9566 36.8104 88.5579 37.0968 86.8146L41.2121 111.999L43.6402 115.597C41.5297 98.6937 39.7802 79.5053 41.4425 62.6704Z" fill="url(#paint24_linear)"/>
<path d="M43.5842 121.536C43.6215 121.611 41.0191 123.067 37.7692 124.798C34.5192 126.529 31.8483 127.874 31.8109 127.799C31.7736 127.724 34.376 126.267 37.626 124.537C40.8759 122.806 43.5468 121.461 43.5842 121.536Z" fill="#8E8E93"/>
<path d="M39.2136 75.5765C39.1887 75.6201 38.3731 75.2403 37.0346 74.6862C35.696 74.1321 33.8157 73.441 31.6803 72.8495C29.551 72.2643 27.5774 71.8907 26.1454 71.679C24.7134 71.4611 23.8169 71.374 23.8169 71.3242C23.8169 71.2993 24.0473 71.2993 24.4519 71.3179C24.8566 71.3304 25.4481 71.374 26.1703 71.4549C27.6209 71.6106 29.6132 71.953 31.7612 72.5444C33.9091 73.1421 35.7894 73.8768 37.1155 74.4869C37.7754 74.792 38.3047 75.0535 38.6658 75.2527C39.0331 75.4395 39.2261 75.5578 39.2136 75.5765Z" fill="white"/>
<path d="M38.2051 95.7924C38.2113 95.8111 38.037 95.9044 37.7133 96.0414C37.3895 96.1846 36.9101 96.3714 36.3062 96.5831C35.1046 97.0065 33.4174 97.5108 31.5122 97.8905C29.6071 98.2641 27.8514 98.4509 26.5813 98.5131C25.9462 98.5443 25.4295 98.5567 25.0746 98.5443C24.7197 98.538 24.5205 98.5256 24.5205 98.5007C24.5205 98.4509 25.305 98.4011 26.5626 98.2828C27.8203 98.1645 29.5573 97.9466 31.45 97.573C33.3427 97.1995 35.0299 96.7387 36.2377 96.3652C37.4456 96.0041 38.1864 95.7488 38.2051 95.7924Z" fill="white"/>
<path d="M43.4971 56.345C43.4473 56.3823 42.943 55.5979 41.9095 54.527C41.399 53.9916 40.7328 53.4063 39.9546 52.8211C39.1577 52.2483 38.2425 51.688 37.2214 51.2024C36.1941 50.7354 35.1668 50.3992 34.2205 50.1626C33.2679 49.9447 32.3901 49.814 31.6492 49.7766C30.1674 49.6832 29.246 49.8077 29.2397 49.7455C29.2397 49.7206 29.4639 49.6832 29.881 49.6272C30.0865 49.5961 30.348 49.5649 30.6468 49.5587C30.9456 49.5525 31.2881 49.5214 31.6616 49.5463C32.415 49.5587 33.3115 49.6646 34.289 49.87C35.2602 50.0941 36.3124 50.4303 37.3646 50.9035C38.4106 51.3954 39.3444 51.9806 40.1414 52.5783C40.9321 53.1884 41.592 53.8048 42.0901 54.3714C42.3516 54.6391 42.5508 54.9192 42.7376 55.1496C42.9244 55.38 43.0676 55.5916 43.1796 55.7722C43.4038 56.1271 43.5158 56.3325 43.4971 56.345Z" fill="white"/>
<path d="M58.8752 103.457C58.869 103.481 58.5888 103.45 58.0908 103.376C57.5865 103.307 56.8643 103.189 55.9677 103.033C54.1747 102.728 51.7092 102.267 48.9947 101.707C46.2802 101.147 43.8334 100.593 42.0652 100.163C41.1811 99.9514 40.4714 99.7646 39.9795 99.6339C39.4877 99.5031 39.22 99.416 39.2262 99.3973C39.2324 99.3786 39.5126 99.416 40.0106 99.5156C40.571 99.6276 41.2807 99.7708 42.115 99.9452C43.9579 100.331 46.3798 100.835 49.0569 101.396C51.7341 101.944 54.1622 102.436 56.0051 102.815C56.8456 102.99 57.5491 103.139 58.1094 103.257C58.6075 103.363 58.8815 103.432 58.8752 103.457Z" fill="white"/>
<path d="M60.5627 81.1361C60.5564 81.2233 55.557 80.9244 49.4058 80.4637C43.2483 80.003 38.2614 79.5547 38.2676 79.4676C38.2738 79.3804 43.267 79.6792 49.4245 80.14C55.5819 80.6007 60.5689 81.0489 60.5627 81.1361Z" fill="white"/>
<path d="M62.1935 61.4931C62.1935 61.518 61.9071 61.5491 61.3904 61.5927C60.8736 61.6363 60.1203 61.6861 59.1926 61.7359C57.3373 61.8293 54.766 61.904 51.9332 61.8853C49.0942 61.8666 46.5291 61.7608 44.6738 61.6487C43.7461 61.5927 42.999 61.5304 42.476 61.4806C41.9592 61.4308 41.6729 61.3935 41.6729 61.3686C41.6729 61.3437 41.9592 61.3437 42.4822 61.3561C43.0675 61.3748 43.8021 61.3935 44.68 61.4184C46.5353 61.4744 49.1004 61.5429 51.9332 61.5616C54.766 61.5802 57.3311 61.5429 59.1864 61.5055C60.0643 61.4931 60.7989 61.4806 61.3842 61.4682C61.9071 61.462 62.1935 61.4682 62.1935 61.4931Z" fill="white"/>
<path d="M48.9449 43.1505C48.9512 43.2003 48.3784 43.3 47.4569 43.4992C46.5355 43.6922 45.2779 43.9973 43.9144 44.4331C42.5509 44.8751 41.3555 45.3607 40.4901 45.7405C39.6309 46.1203 39.1017 46.3693 39.083 46.3258C39.0644 46.2884 39.55 45.9646 40.3967 45.5288C41.2372 45.093 42.4388 44.5638 43.8148 44.1218C45.1907 43.6797 46.4795 43.4058 47.4133 43.2688C48.3535 43.1318 48.9387 43.1069 48.9449 43.1505Z" fill="white"/>
<path d="M61.4027 50.1801C61.3841 50.1988 61.1848 50.0183 60.8299 49.6883C60.4315 49.3085 59.9272 48.8416 59.3357 48.2812C58.0781 47.0921 56.3286 45.4609 54.3425 43.7176C52.3564 41.9744 50.5198 40.4428 49.1812 39.347C48.5524 38.8303 48.0232 38.3944 47.5936 38.0458C47.22 37.7345 47.0208 37.5539 47.0333 37.5353C47.0457 37.5166 47.2699 37.666 47.6683 37.9399C48.0668 38.2201 48.6271 38.6372 49.3182 39.1602C50.6941 40.2124 52.5619 41.7191 54.548 43.4686C56.5341 45.2181 58.2649 46.8804 59.4851 48.1131C60.0953 48.7295 60.5809 49.24 60.9047 49.5949C61.2471 49.9622 61.4214 50.1677 61.4027 50.1801Z" fill="white"/>
<path d="M67.1122 61.854C67.0935 61.9474 66.0787 61.8416 64.8211 61.7855C63.5634 61.7295 62.5424 61.7482 62.5362 61.6548C62.5299 61.5676 63.5572 61.4057 64.8398 61.4618C66.1161 61.5116 67.1247 61.7669 67.1122 61.854Z" fill="white"/>
<path d="M65.643 82.6181C65.643 82.7053 64.597 82.7551 63.3145 82.724C62.0319 82.6928 60.9922 82.5995 60.9922 82.5061C60.9922 82.4189 62.0381 82.3691 63.3207 82.4002C64.6032 82.4314 65.643 82.5247 65.643 82.6181Z" fill="white"/>
<path d="M64.9146 103.369C64.9333 103.457 63.6196 103.774 61.9822 104.073C60.3448 104.372 59.0062 104.546 58.9875 104.459C58.9688 104.372 60.2825 104.054 61.9199 103.755C63.5636 103.45 64.9021 103.282 64.9146 103.369Z" fill="white"/>
<path d="M74.652 87.144C74.6085 87.1627 74.2972 86.6085 73.7866 85.7182C73.2761 84.8279 72.5664 83.5952 71.7383 82.2691C70.9103 80.9429 70.1196 79.7662 69.5343 78.9133C68.9553 78.0666 68.5942 77.5373 68.6316 77.5124C68.6627 77.4875 69.0923 77.9607 69.7211 78.7825C70.3499 79.5981 71.178 80.7624 72.0122 82.101C72.8465 83.4395 73.5251 84.6909 73.9859 85.6124C74.4466 86.5338 74.6894 87.1253 74.652 87.144Z" fill="white"/>
<path d="M48.148 223.934C48.1169 224.052 47.5067 223.971 46.8281 224.22C46.1432 224.45 45.7199 224.905 45.6202 224.83C45.5144 224.78 45.8568 224.108 46.6849 223.815C47.5067 223.523 48.1978 223.828 48.148 223.934Z" fill="#1C1C1E"/>
<path d="M50.4769 225.583C50.4769 225.708 49.9103 225.789 49.3873 226.206C48.8519 226.604 48.6277 227.127 48.5095 227.096C48.3912 227.09 48.4721 226.368 49.1258 225.864C49.7858 225.359 50.5018 225.471 50.4769 225.583Z" fill="#1C1C1E"/>
<path d="M51.2357 228.996C51.1237 228.996 51.0925 228.361 51.547 227.776C52.0015 227.185 52.6241 227.054 52.649 227.166C52.6926 227.278 52.2506 227.552 51.8832 228.038C51.5097 228.517 51.3602 229.015 51.2357 228.996Z" fill="#1C1C1E"/>
</g>
<path d="M351.536 60.0482C351.168 56.8577 352.216 52.6463 354.763 49.8973C359.059 45.2562 366.461 45.3091 368.11 38.9396C368.525 37.3354 368.262 35.839 367.515 34.6772C365.548 31.6199 360.817 31.2488 357.204 31.6656C354.897 31.9329 352.594 32.6444 350.296 33.8028L353.208 22.5533C357.838 21.2007 362.815 21.3746 367.431 22.571C376.89 25.0226 382.814 30.9202 380.37 40.3621C378.141 48.9733 371.183 50.7305 365.93 53.6094C363.015 55.2072 361.919 56.8347 361.367 58.9668C361.082 60.0692 361.028 61.5333 361.386 62.6011L351.536 60.0482ZM352.988 77.3041C343.794 74.921 346.893 62.5631 356.18 64.9703C365.328 67.3418 362.146 79.6776 352.988 77.3041Z" fill="url(#paint25_linear)"/>
<path d="M352.705 229.162C350.374 227.807 347.577 227.59 344.886 227.403C339.97 227.068 335.048 226.726 330.132 226.39C326.105 226.111 321.979 225.843 318.107 226.968C314.229 228.093 310.587 230.902 309.636 234.824L309.611 234.954C316.603 236.39 323.626 237.825 330.754 238.198C337.882 238.571 345.172 237.838 351.754 235.066C353.14 234.482 354.681 233.537 354.743 232.033C354.793 230.803 353.773 229.783 352.705 229.162Z" fill="#F2F2F7"/>
<path d="M338.603 105.42C344.302 108.372 348.671 113.455 351.809 119.049C354.954 124.642 356.974 130.782 358.981 136.879L360.734 168.313C354.103 157.033 348.783 143.777 347.347 130.77C348.82 130.639 350.287 130.509 351.76 130.378C348.801 129.925 346.316 127.781 344.737 125.245C343.158 122.703 342.344 119.776 341.549 116.886C343.345 117.153 345.135 117.42 346.931 117.688C342.723 114.872 339.666 110.373 338.603 105.42Z" fill="url(#paint26_linear)"/>
<path d="M338.603 105.42C344.302 108.372 348.671 113.455 351.809 119.049C354.954 124.642 356.974 130.782 358.981 136.879L360.734 168.313C354.103 157.033 348.783 143.777 347.347 130.77C348.82 130.639 350.287 130.509 351.76 130.378C348.801 129.925 346.316 127.781 344.737 125.245C343.158 122.703 342.344 119.776 341.549 116.886C343.345 117.153 345.135 117.42 346.931 117.688C342.723 114.872 339.666 110.373 338.603 105.42Z" fill="#1C1C1E"/>
<path d="M361.722 175.685C361.722 175.685 376.115 158.464 375.948 142.019H370.137C370.137 142.019 376.451 137.868 375.954 135.544C375.457 133.219 375.289 124.413 375.289 124.413L369.975 125.743C369.975 125.743 373.959 123.748 374.462 120.597C374.959 117.44 373.3 102.823 373.3 102.823C373.3 102.823 366.824 109.634 364.829 116.607C362.835 123.58 357.608 131.722 359.143 152.982C360.678 174.243 361.722 175.685 361.722 175.685Z" fill="url(#paint27_linear)"/>
<path d="M354.426 177.306C354.426 177.306 338.833 166.921 335.371 153.665L340.045 152.391C340.045 152.391 334.06 150.434 333.954 148.457C333.849 146.481 332.052 139.365 332.052 139.365L336.614 139.272C336.614 139.272 332.972 138.538 331.885 136.115C330.791 133.685 328.933 121.572 328.933 121.572C328.933 121.572 335.632 125.63 338.758 130.801C341.884 135.972 347.875 141.372 351.287 158.799C354.705 176.225 354.426 177.306 354.426 177.306Z" fill="url(#paint28_linear)"/>
<path d="M369.354 117.838C369.36 117.838 369.354 117.9 369.329 118.024C369.304 118.161 369.273 118.341 369.23 118.559C369.137 119.05 369 119.74 368.826 120.616C368.646 121.505 368.428 122.598 368.192 123.866C367.95 125.134 367.67 126.576 367.39 128.179C366.8 131.374 366.172 135.196 365.52 139.44C364.886 143.691 364.246 148.371 363.674 153.299C363.108 158.228 362.667 162.932 362.313 167.214C361.983 171.496 361.722 175.362 361.567 178.606C361.474 180.228 361.418 181.695 361.362 182.987C361.3 184.28 361.263 185.386 361.238 186.3C361.207 187.188 361.182 187.891 361.163 188.394C361.151 188.618 361.144 188.798 361.132 188.941C361.126 189.065 361.12 189.127 361.113 189.127C361.107 189.127 361.101 189.065 361.101 188.941C361.101 188.798 361.101 188.618 361.095 188.394C361.101 187.891 361.107 187.195 361.113 186.3C361.12 185.392 361.138 184.28 361.182 182.987C361.219 181.695 361.256 180.228 361.337 178.6C361.461 175.349 361.698 171.484 362.015 167.196C362.35 162.907 362.791 158.197 363.351 153.268C363.929 148.34 364.575 143.654 365.228 139.403C365.899 135.152 366.551 131.336 367.167 128.142C367.459 126.545 367.757 125.103 368.018 123.835C368.273 122.567 368.503 121.48 368.708 120.591C368.907 119.721 369.056 119.037 369.168 118.546C369.217 118.329 369.261 118.155 369.298 118.018C369.336 117.894 369.354 117.838 369.354 117.838Z" fill="#1C1C1E"/>
<path d="M363.717 186.23C363.717 186.23 376.886 171.29 380.975 162.254L377.886 160.936C380.124 161.303 382.417 160.346 384.151 158.886C385.885 157.425 387.159 155.505 388.408 153.609L384.344 152.919C388.041 151.882 391.298 149.358 393.231 146.04C388.433 146.829 384.089 149.464 380.515 152.758C377.619 155.424 375.164 158.525 372.809 161.688C371.659 163.23 370.652 164.877 369.813 166.611C367.601 171.185 363.711 180.743 363.717 186.23Z" fill="url(#paint29_linear)"/>
<path d="M335.166 130.267C335.172 130.267 335.204 130.31 335.253 130.403C335.315 130.515 335.39 130.652 335.483 130.826C335.688 131.224 335.974 131.771 336.335 132.461C337.074 133.878 338.1 135.953 339.336 138.532C341.81 143.691 345.035 150.912 348.186 159.054C351.331 167.201 353.804 174.715 355.445 180.196C356.265 182.937 356.899 185.162 357.309 186.709C357.508 187.461 357.664 188.058 357.775 188.493C357.819 188.679 357.856 188.835 357.887 188.959C357.912 189.065 357.918 189.121 357.918 189.121C357.912 189.121 357.894 189.071 357.856 188.965C357.819 188.847 357.769 188.692 357.713 188.511C357.583 188.083 357.409 187.492 357.185 186.746C356.738 185.211 356.073 182.993 355.221 180.265C353.525 174.808 351.02 167.313 347.882 159.172C344.731 151.036 341.543 143.809 339.125 138.632C337.919 136.04 336.919 133.952 336.216 132.516C335.881 131.814 335.614 131.261 335.421 130.857C335.34 130.683 335.272 130.534 335.222 130.422C335.179 130.323 335.16 130.273 335.166 130.267Z" fill="#1C1C1E"/>
<path d="M362.598 192.633C362.573 192.633 362.605 192.248 362.673 191.552C362.735 190.855 362.878 189.855 363.096 188.624C363.524 186.163 364.345 182.789 365.687 179.215C367.042 175.642 368.658 172.565 369.963 170.44C370.615 169.371 371.175 168.526 371.585 167.96C371.989 167.389 372.225 167.084 372.244 167.096C372.262 167.109 372.064 167.444 371.691 168.029C371.312 168.613 370.789 169.477 370.162 170.552C368.913 172.702 367.34 175.772 365.992 179.327C364.655 182.882 363.804 186.225 363.319 188.668C363.077 189.886 362.903 190.88 362.797 191.57C362.692 192.254 362.623 192.633 362.598 192.633Z" fill="#1C1C1E"/>
<path d="M374.046 189.114H345.222V194.993H374.046V189.114Z" fill="url(#paint30_linear)"/>
<path d="M371.299 195L368.179 214.775H350.765L347.857 195H371.299Z" fill="url(#paint31_linear)"/>
<path d="M346.993 195C346.993 194.913 352.443 194.839 359.168 194.839C365.892 194.839 371.343 194.913 371.343 195C371.343 195.087 365.892 195.162 359.168 195.162C352.443 195.162 346.993 195.087 346.993 195Z" fill="#1C1C1E"/>
<path d="M324.278 220.785L324.551 213.918L336.521 213.464L336.334 221.873L331.984 224.496L324.278 220.785Z" fill="#F7F7FC"/>
<path d="M336.596 220.307L336.589 221.096C336.589 221.096 349.883 226.583 349.995 229.113L323.501 228.721L323.992 219.909C327.913 221.798 332.034 222.065 336.596 220.307Z" fill="url(#paint32_linear)"/>
<path d="M326.64 222.774C326.124 222.905 325.764 223.476 325.875 223.998C325.987 224.52 326.565 224.893 327.081 224.769C327.597 224.645 328.057 223.974 327.883 223.47C327.715 222.967 327.013 222.563 326.54 222.805" fill="white"/>
<path d="M323.514 228.721L323.632 226.602L348.976 227.752C348.976 227.752 350.15 228.28 350.001 229.113L323.514 228.721Z" fill="white"/>
<path d="M336.683 221.17C336.677 221.301 336.031 221.35 335.384 221.754C334.732 222.146 334.396 222.699 334.278 222.649C334.16 222.624 334.365 221.854 335.148 221.375C335.937 220.884 336.714 221.052 336.683 221.17Z" fill="#1C1C1E"/>
<path d="M339.449 222.357C339.473 222.481 338.914 222.692 338.467 223.233C338.001 223.761 337.882 224.352 337.758 224.345C337.634 224.364 337.559 223.606 338.125 222.941C338.684 222.282 339.449 222.239 339.449 222.357Z" fill="#1C1C1E"/>
<path d="M340.978 225.708C340.859 225.733 340.692 225.086 341.033 224.384C341.369 223.676 341.984 223.408 342.04 223.514C342.109 223.62 341.711 223.999 341.444 224.577C341.152 225.155 341.108 225.702 340.978 225.708Z" fill="#1C1C1E"/>
<path d="M308.269 205.453L308.462 226.005L317.939 225.322L320.015 205.298L308.269 205.453Z" fill="#F7F7FC"/>
<path d="M318.262 221.289C318.262 221.289 311.6 225.913 308.362 221.929L307.523 223.868L303.757 237.659C303.515 238.553 303.943 239.535 304.826 239.871C305.503 240.132 306.255 239.983 306.765 239.504C309.506 236.956 319.53 227.535 319.431 226.261L319.387 222.88C319.381 222.171 318.933 221.544 318.262 221.289Z" fill="url(#paint33_linear)"/>
<path d="M305.155 239.957L319.437 225.079V225.819C319.511 226.62 319.151 226.937 318.759 227.453C317.603 228.976 314.409 232.388 306.821 239.504C306.38 239.914 305.752 240.088 305.155 239.957Z" fill="white"/>
<path d="M317.336 222.879C316.889 223.178 316.739 223.843 317.032 224.29C317.324 224.738 318.013 224.893 318.467 224.601C318.921 224.309 319.126 223.52 318.784 223.103C318.442 222.687 317.622 222.55 317.255 222.942" fill="white"/>
<path d="M309.263 232.345C309.164 232.395 308.76 231.481 307.697 230.984C306.647 230.462 305.659 230.704 305.634 230.599C305.621 230.555 305.845 230.419 306.268 230.363C306.684 230.307 307.287 230.363 307.871 230.642C308.455 230.922 308.872 231.357 309.071 231.717C309.282 232.072 309.307 232.333 309.263 232.345Z" fill="#1C1C1E"/>
<path d="M307.983 234.675C307.896 234.749 307.324 234.184 306.398 233.923C305.479 233.643 304.677 233.811 304.652 233.699C304.602 233.612 305.466 233.239 306.516 233.556C307.567 233.861 308.076 234.631 307.983 234.675Z" fill="#1C1C1E"/>
<path d="M311.644 229.355C311.557 229.436 310.68 228.56 309.276 228.032C307.884 227.485 306.622 227.541 306.622 227.423C306.591 227.329 307.927 227.087 309.425 227.671C310.929 228.243 311.731 229.306 311.644 229.355Z" fill="#1C1C1E"/>
<path d="M311.954 225.16C311.904 225.266 310.916 224.862 309.63 224.812C308.343 224.75 307.318 225.067 307.281 224.955C307.231 224.868 308.262 224.365 309.648 224.427C311.034 224.483 312.01 225.08 311.954 225.16Z" fill="#1C1C1E"/>
<path d="M308.896 224.774C308.871 224.768 308.878 224.532 308.996 224.122C309.114 223.712 309.356 223.121 309.847 222.518C310.096 222.233 310.375 221.86 310.91 221.723C311.177 221.655 311.531 221.76 311.699 222.027C311.867 222.288 311.879 222.581 311.83 222.854C311.606 223.942 310.444 224.818 309.157 224.749C307.871 224.656 306.858 223.749 306.535 222.717C306.473 222.456 306.454 222.139 306.647 221.878C306.839 221.611 307.218 221.555 307.461 221.648C307.97 221.816 308.244 222.17 308.511 222.444C309.027 223.028 309.306 223.594 309.462 223.991C309.611 224.389 309.642 224.625 309.617 224.631C309.549 224.662 309.331 223.712 308.306 222.624C308.045 222.369 307.747 222.052 307.374 221.953C307.193 221.903 307.019 221.947 306.926 222.077C306.833 222.201 306.827 222.425 306.889 222.636C307.162 223.482 308.088 224.308 309.182 224.37C310.264 224.439 311.283 223.662 311.475 222.792C311.519 222.581 311.5 222.357 311.407 222.214C311.314 222.071 311.152 222.003 310.972 222.04C310.605 222.114 310.307 222.431 310.058 222.699C309.083 223.817 308.971 224.805 308.896 224.774Z" fill="#1C1C1E"/>
<path d="M339.79 100.679L339.995 102.941L345.526 112.853C345.526 112.853 348 127.75 346.689 137.681C345.06 149.999 342.966 167.823 342.22 176.362C341.779 181.408 337.323 218.691 337.323 218.691L323.825 218.56C323.825 218.56 324.539 178.003 324.713 170.383C324.85 164.405 324.371 138.62 324.371 138.62L323.793 104.383L340.766 100.107" fill="#1C1C1E"/>
<path d="M320.052 219.22L324.328 136.165L326.851 104.135L307.803 99.0944L307.119 103.053C307.119 103.053 300.158 120.218 300.395 125.252C301.053 139.366 302.806 175.567 302.806 175.567L307.181 218.946L320.052 219.22Z" fill="#1C1C1E"/>
<path d="M325.08 106.955C325.067 106.955 325.049 107.061 325.03 107.272C325.005 107.521 324.98 107.819 324.949 108.18C324.887 108.963 324.819 110.106 324.763 111.511C324.638 114.326 324.558 118.216 324.489 122.517C324.421 126.793 324.359 130.658 324.315 133.523C324.284 134.891 324.253 136.016 324.234 136.855C324.228 137.215 324.222 137.513 324.216 137.762C324.216 137.967 324.222 138.079 324.234 138.079C324.247 138.079 324.266 137.973 324.284 137.768C324.309 137.519 324.334 137.221 324.365 136.861C324.427 136.078 324.489 134.934 324.551 133.53C324.676 130.714 324.757 126.824 324.825 122.523C324.893 118.247 324.955 114.382 324.999 111.517C325.03 110.15 325.061 109.025 325.08 108.186C325.086 107.825 325.092 107.527 325.098 107.278C325.092 107.067 325.092 106.955 325.08 106.955Z" fill="#8E8E93"/>
<path d="M303.316 114.711C303.309 114.736 303.49 114.798 303.819 114.904C303.987 114.96 304.186 115.016 304.434 115.059C304.677 115.103 304.95 115.178 305.261 115.196C305.876 115.283 306.628 115.296 307.448 115.234C308.269 115.153 309.17 114.985 310.077 114.687C310.978 114.376 311.799 113.972 312.501 113.543C313.197 113.096 313.781 112.636 314.222 112.194C314.459 111.989 314.633 111.766 314.8 111.585C314.968 111.405 315.099 111.231 315.198 111.088C315.397 110.802 315.503 110.641 315.484 110.628C315.434 110.591 314.981 111.206 314.067 112.014C313.613 112.424 313.029 112.853 312.346 113.27C311.65 113.674 310.854 114.059 309.978 114.363C309.095 114.649 308.225 114.823 307.43 114.917C306.628 114.991 305.901 115.004 305.298 114.948C304.068 114.873 303.334 114.649 303.316 114.711Z" fill="url(#paint34_linear)"/>
<path d="M338.119 108.298C338.088 108.316 338.268 108.807 338.728 109.522C339.181 110.237 339.946 111.15 340.971 111.952C342.003 112.747 343.078 113.263 343.88 113.524C344.688 113.791 345.21 113.847 345.216 113.81C345.253 113.704 343.171 113.263 341.176 111.685C339.15 110.143 338.212 108.235 338.119 108.298Z" fill="url(#paint35_linear)"/>
<path d="M329.542 181.974C329.561 182.011 330.201 181.744 331.207 181.235C332.208 180.725 333.569 179.967 335.017 179.035C336.465 178.102 337.721 177.183 338.603 176.486C339.486 175.784 339.995 175.312 339.97 175.281C339.939 175.244 339.374 175.647 338.46 176.294C337.547 176.94 336.279 177.829 334.837 178.749C333.401 179.675 332.065 180.458 331.096 181.023C330.126 181.589 329.523 181.931 329.542 181.974Z" fill="#8E8E93"/>
<path d="M315.13 49.32L330.344 48.1267L336.216 52.3652L332.544 87.3854L337.41 104.551H310.183L306.678 72.992L315.13 49.32Z" fill="#F7F7FC"/>
<path d="M297.76 107.384C293.851 104.637 287.176 99.2615 286.542 96.2225C285.709 92.2264 297.53 60.4255 299.86 57.7656C302.191 55.0994 313.197 49.9474 313.197 49.9474L313.812 48.9468C314.477 47.8654 315.478 45.6841 316.746 45.6841L316.926 47.2067L317.162 50.5129C317.454 52.2282 318.747 60.1147 320.189 64.1978C321.519 67.9578 322.221 71.9104 322.258 75.9002C322.376 88.2303 322.581 115.128 322.196 118.701C321.699 123.362 319.623 132.399 319.623 132.399C319.623 132.399 303.222 126.998 299.431 118.502C297.784 114.792 297.76 107.384 297.76 107.384Z" fill="url(#paint36_linear)"/>
<path d="M361.61 88.9518C361.61 88.9518 354.016 67.6165 351.667 60.9481C349.604 55.0938 345.203 53.7079 345.203 53.7079L334.837 49.8175C334.421 48.2265 332.445 46.8841 330.922 46.4553L329.94 46.0202L328.803 47.5118C328.803 47.5118 331.164 49.6497 331.494 51.8186C331.68 53.0367 332.376 57.8842 331.357 61.0662C330.294 64.3662 329.698 67.7906 329.549 71.246C329.244 78.3743 328.921 90.1948 329.828 94.3835C331.158 100.542 335.216 130.373 335.216 130.373C335.216 130.373 344.526 124.196 346.832 121.076C349.591 117.347 348.646 110.268 346.03 103.084C345.781 102.401 346.154 103.786 346.03 103.084C346.303 103.202 346.571 103.308 346.844 103.37C352.301 104.625 354.153 105.943 359.69 101.214C365.227 96.4903 361.61 88.9518 361.61 88.9518Z" fill="url(#paint37_linear)"/>
<path d="M313.141 54.7023C313.153 54.7458 312.401 54.9509 311.214 55.3425C310.027 55.734 308.405 56.343 306.69 57.1696C304.975 58.0024 303.496 58.9035 302.458 59.5933C301.414 60.2832 300.792 60.7493 300.767 60.712C300.755 60.6934 300.898 60.5629 301.165 60.3329C301.432 60.103 301.83 59.7922 302.34 59.4193C303.359 58.6798 304.832 57.7413 306.56 56.9024C308.287 56.0634 309.934 55.4792 311.146 55.1374C311.749 54.9634 312.246 54.8453 312.594 54.7769C312.948 54.7148 313.141 54.6837 313.141 54.7023Z" fill="white"/>
<path d="M345.955 59.252C345.93 59.2831 345.47 58.9475 344.718 58.4316C343.966 57.9158 342.904 57.226 341.686 56.5548C340.461 55.8836 339.318 55.3615 338.472 55.0011C337.633 54.6406 337.099 54.4417 337.118 54.3982C337.13 54.3609 337.683 54.4977 338.547 54.8084C339.411 55.1192 340.585 55.6226 341.822 56.2937C343.053 56.9712 344.109 57.6921 344.836 58.2576C345.57 58.8294 345.98 59.2209 345.955 59.252Z" fill="white"/>
<path d="M314.471 104.103C314.49 104.103 314.484 104.32 314.452 104.706C314.44 104.898 314.421 105.134 314.359 105.408C314.303 105.675 314.26 105.992 314.142 106.321C314.042 106.657 313.93 107.024 313.756 107.397C313.613 107.782 313.396 108.161 313.178 108.571C312.706 109.367 312.097 110.187 311.339 110.939C310.568 111.679 309.735 112.269 308.934 112.729C308.524 112.934 308.138 113.145 307.747 113.282C307.368 113.444 307.001 113.549 306.665 113.642C306.336 113.748 306.019 113.785 305.746 113.835C305.472 113.891 305.236 113.91 305.043 113.916C304.658 113.934 304.44 113.941 304.44 113.916C304.434 113.854 305.298 113.835 306.609 113.437C306.939 113.338 307.293 113.22 307.653 113.052C308.026 112.909 308.399 112.698 308.803 112.486C309.58 112.027 310.388 111.449 311.134 110.721C311.873 109.988 312.47 109.193 312.942 108.428C313.16 108.037 313.384 107.664 313.533 107.291C313.713 106.93 313.831 106.576 313.943 106.253C314.372 104.96 314.409 104.097 314.471 104.103Z" fill="white"/>
<path d="M301.445 66.23C301.365 66.2486 300.954 64.639 300.526 62.6316C300.097 60.6305 299.811 58.9898 299.892 58.9711C299.972 58.9525 300.383 60.5621 300.811 62.5695C301.24 64.5769 301.52 66.2113 301.445 66.23Z" fill="white"/>
<path d="M348.572 58.1824C348.64 58.2445 347.484 59.3942 346.527 61.1282C345.551 62.8559 345.172 64.4344 345.085 64.4096C345.048 64.4033 345.098 63.9932 345.278 63.3593C345.458 62.7254 345.781 61.8677 346.272 60.9852C346.763 60.1027 347.329 59.3756 347.776 58.8971C348.224 58.4061 348.547 58.1575 348.572 58.1824Z" fill="white"/>
<path d="M357.335 89.0875C357.316 89.0999 357.111 88.8824 356.75 88.4784C356.57 88.2734 356.353 88.031 356.079 87.7575C355.812 87.4841 355.52 87.1609 355.159 86.8315C354.47 86.1541 353.606 85.3959 352.605 84.6066C351.592 83.8298 350.436 83.0281 349.162 82.2885C347.882 81.5552 346.614 80.9523 345.44 80.4614C344.253 79.9828 343.165 79.6099 342.233 79.3551C341.773 79.2122 341.344 79.119 340.971 79.0195C340.598 78.9201 340.275 78.8517 340.008 78.7958C339.48 78.6839 339.188 78.6094 339.188 78.5907C339.194 78.5721 339.486 78.6031 340.026 78.6839C340.294 78.7212 340.623 78.7709 341.002 78.858C341.381 78.9387 341.816 79.0195 342.282 79.1501C343.227 79.3862 344.333 79.7405 345.533 80.2066C346.726 80.6913 348.012 81.2941 349.305 82.0337C350.592 82.7857 351.754 83.5998 352.767 84.3953C353.767 85.2032 354.631 85.9863 355.302 86.6886C355.65 87.0304 355.936 87.366 356.197 87.6519C356.458 87.9378 356.67 88.1926 356.837 88.4101C357.173 88.8327 357.353 89.0751 357.335 89.0875Z" fill="white"/>
<path d="M344.296 68.8776C344.377 68.8652 344.743 71.4319 345.116 74.6014C345.489 77.7709 345.725 80.3501 345.645 80.3563C345.564 80.3687 345.197 77.802 344.824 74.6325C344.458 71.463 344.221 68.8838 344.296 68.8776Z" fill="white"/>
<path d="M346.142 103.132C346.129 103.151 345.887 103.002 345.446 102.722C345.017 102.43 344.389 102.008 343.687 101.405C342.985 100.802 342.177 100.025 341.456 99.012C340.729 98.0115 340.095 96.7934 339.616 95.451C339.374 94.7798 339.181 94.1148 339.014 93.4622C338.858 92.8035 338.777 92.1634 338.659 91.573C338.436 90.3859 338.007 89.3605 337.373 88.708C336.758 88.043 336.08 87.6949 335.626 87.465C335.154 87.2661 334.887 87.1543 334.899 87.1294C334.906 87.1108 335.179 87.1853 335.676 87.3594C336.149 87.5644 336.863 87.8876 337.528 88.565C338.218 89.23 338.69 90.3114 338.927 91.517C339.057 92.1199 339.144 92.76 339.299 93.3939C339.461 94.034 339.66 94.6928 339.896 95.3515C340.362 96.6753 340.977 97.8685 341.68 98.8567C342.37 99.851 343.153 100.628 343.83 101.249C344.514 101.871 345.11 102.312 345.52 102.629C345.924 102.94 346.148 103.114 346.142 103.132Z" fill="white"/>
<path d="M307.703 103.003C307.703 103.003 301.644 105.607 303.62 108.807C304.975 111.007 307.784 112.977 307.784 112.977C310.618 111.349 312.607 109.652 313.993 106.508L307.703 103.003Z" fill="#F7F7FC"/>
<path d="M297.76 107.385C297.772 107.36 298.152 107.658 298.941 108.037C299.73 108.398 300.961 108.839 302.558 108.926L302.471 109C302.626 107.913 303.142 106.707 304.043 105.632C304.944 104.563 306.169 103.6 307.654 102.891L307.641 102.898C307.977 102.686 308.294 102.369 308.524 102.003C308.735 101.636 308.953 101.195 308.884 100.791C308.804 100.368 308.536 99.9704 308.226 99.6161C307.915 99.2619 307.542 98.9325 307.157 98.6466L307.138 98.6342L307.126 98.6218C306.56 97.9568 306.007 97.2359 305.541 96.4404C305.081 95.6449 304.634 94.8432 304.062 94.1036C303.819 93.7867 303.565 93.4821 303.31 93.1776C303.055 92.8607 302.825 92.5375 302.601 92.2143C302.154 91.568 301.731 90.9217 301.327 90.2753L301.309 90.2443V90.207C301.203 88.7962 301.128 87.4352 301.184 86.1052C301.259 84.8001 301.334 83.5447 301.402 82.3515C301.545 79.9837 301.675 77.8707 301.781 76.0932C301.899 74.3531 301.992 72.9486 302.054 71.948C302.092 71.4819 302.117 71.109 302.141 70.8355C302.166 70.5807 302.179 70.4502 302.191 70.4502C302.197 70.4502 302.204 70.5807 302.197 70.8355C302.185 71.1152 302.172 71.4881 302.16 71.9542C302.117 72.9548 302.048 74.3593 301.967 76.1057C301.874 77.8769 301.769 79.9899 301.65 82.3639C301.588 83.551 301.52 84.8063 301.452 86.1177C301.402 87.4165 301.483 88.7838 301.588 90.1821L301.57 90.12C301.974 90.7539 302.396 91.4002 302.844 92.0465C303.067 92.3635 303.291 92.6867 303.54 92.9912C303.788 93.2957 304.049 93.6064 304.298 93.9296C304.882 94.6816 305.342 95.5144 305.796 96.2912C306.256 97.0681 306.79 97.7765 307.349 98.4353L307.325 98.4105C307.741 98.7212 308.114 99.0506 308.443 99.4297C308.766 99.8026 309.065 100.231 309.164 100.741C309.208 100.996 309.158 101.282 309.071 101.499C308.99 101.723 308.884 101.94 308.754 102.146C308.499 102.549 308.176 102.879 307.772 103.127L307.76 103.134C306.318 103.811 305.1 104.75 304.217 105.781C303.335 106.819 302.819 107.975 302.651 109.031L302.639 109.112L302.564 109.106C300.923 108.994 299.693 108.522 298.904 108.13C298.512 107.931 298.22 107.745 298.04 107.608C297.847 107.465 297.754 107.391 297.76 107.385Z" fill="white"/>
<path d="M301.426 90.4989C301.414 90.5487 301.029 90.4617 300.407 90.4492C299.786 90.4368 298.922 90.53 298.033 90.8594C297.151 91.195 296.436 91.6984 295.982 92.121C295.522 92.5436 295.292 92.8606 295.249 92.8295C295.224 92.8108 295.398 92.4504 295.833 91.9718C296.268 91.4933 296.995 90.9402 297.927 90.586C298.86 90.2379 299.773 90.1696 300.413 90.2379C301.066 90.3125 301.439 90.4679 301.426 90.4989Z" fill="white"/>
<path d="M318.921 113.71C318.946 113.76 318.48 113.81 318.194 114.369C318.063 114.636 317.983 115.022 318.138 115.37C318.281 115.724 318.704 115.948 319.157 115.929C319.605 115.91 320.009 115.643 320.12 115.283C320.245 114.922 320.133 114.543 319.977 114.288C319.642 113.754 319.17 113.748 319.188 113.698C319.188 113.686 319.294 113.654 319.487 113.704C319.673 113.748 319.934 113.891 320.145 114.177C320.344 114.456 320.518 114.891 320.375 115.37C320.245 115.854 319.716 116.209 319.17 116.227C318.623 116.258 318.07 115.96 317.889 115.488C317.703 115.028 317.833 114.574 318.007 114.282C318.194 113.984 318.442 113.816 318.623 113.754C318.809 113.679 318.921 113.698 318.921 113.71Z" fill="white"/>
<path d="M319.866 105.651C319.891 105.701 319.425 105.75 319.139 106.31C319.008 106.577 318.927 106.962 319.083 107.31C319.226 107.664 319.648 107.888 320.102 107.87C320.549 107.851 320.953 107.584 321.065 107.223C321.19 106.863 321.078 106.484 320.922 106.229C320.587 105.694 320.114 105.688 320.133 105.638C320.133 105.626 320.239 105.595 320.431 105.645C320.618 105.688 320.879 105.831 321.09 106.117C321.289 106.397 321.463 106.832 321.32 107.31C321.19 107.795 320.661 108.149 320.114 108.168C319.568 108.199 319.014 107.901 318.834 107.428C318.648 106.968 318.778 106.515 318.952 106.223C319.139 105.924 319.387 105.757 319.568 105.694C319.76 105.62 319.866 105.632 319.866 105.651Z" fill="white"/>
<path opacity="0.2" d="M300.961 89.9457C301.035 89.9892 301.116 90.0389 301.191 90.0824C299.892 89.1191 298.164 88.7525 296.592 89.1191C295.019 89.4858 293.621 90.561 292.875 91.9966C292.602 92.5311 292.44 93.252 292.863 93.6808C293.192 94.0102 293.745 93.9978 294.162 93.7989C294.578 93.6 294.901 93.2458 295.243 92.9288C296.902 91.3627 299.165 90.4553 301.452 90.4367" fill="url(#paint38_linear)"/>
<path opacity="0.2" d="M329.324 87.0307C329.399 88.2115 330.816 89.4855 332.003 89.5104C333.19 89.5352 334.464 89.2866 335.489 89.8832C336.857 90.6787 337.068 92.5183 337.292 94.0844C337.814 97.7263 339.367 101.43 342.406 103.5C342.991 103.898 343.656 104.239 344.364 104.233C345.073 104.227 345.818 103.786 345.967 103.096C345.967 103.096 344.37 101.71 343.426 101.101C341.418 99.7958 340.53 97.2477 339.846 94.9545C339.361 93.3324 339.05 91.5923 338.292 90.0759C336.801 87.0928 334.601 86.7261 329.324 87.0307Z" fill="url(#paint39_linear)"/>
<path d="M330.133 93.3203C330.12 93.3141 330.176 93.1711 330.288 92.8914C330.418 92.5869 330.586 92.1954 330.798 91.6982C331.04 91.1886 331.245 90.5298 331.531 89.7841C331.823 89.0383 332.084 88.1682 332.389 87.2049C333.594 83.3642 334.787 77.9139 335.527 71.8172C336.217 65.7143 336.304 60.1272 335.838 56.1311C335.713 55.1367 335.633 54.2232 335.459 53.4463C335.291 52.6695 335.216 51.9796 335.036 51.4452C334.893 50.9293 334.781 50.5129 334.688 50.196C334.613 49.9101 334.576 49.7547 334.589 49.7547C334.601 49.7485 334.657 49.8977 334.75 50.1773C334.856 50.4881 334.986 50.8983 335.154 51.4141C335.353 51.9485 335.452 52.6322 335.633 53.4152C335.831 54.1983 335.925 55.1057 336.061 56.1062C336.59 60.121 336.54 65.7329 335.844 71.8545C335.098 77.9698 333.868 83.4326 332.6 87.2733C332.283 88.2304 332.009 89.1004 331.699 89.8462C331.394 90.592 331.177 91.2445 330.916 91.7479C330.679 92.2327 330.493 92.6242 330.35 92.9225C330.22 93.1898 330.145 93.3265 330.133 93.3203Z" fill="white"/>
<path d="M337.976 80.344C337.56 79.2875 337.342 78.1502 337.336 77.0128C337.336 76.3292 337.317 75.6207 337.087 74.9744C336.857 74.328 336.13 73.7252 335.465 73.8868L335.223 78.927L337.976 80.344Z" fill="#F7F7FC"/>
<path d="M335.701 68.7594L334.881 86.1359C334.862 86.5087 334.576 86.8071 334.209 86.8443L325.397 87.7579C324.949 87.8014 324.564 87.4472 324.57 86.9997L324.869 70.2074C324.875 69.847 325.142 69.5362 325.503 69.4803L334.837 67.9825C335.303 67.908 335.72 68.2871 335.701 68.7594Z" fill="#1C1C1E"/>
<path d="M329.579 72.2955C329.654 72.0718 329.853 71.7797 330.213 71.8419C330.35 71.8356 330.648 71.9972 330.698 72.2334C330.748 72.4633 330.661 72.7243 330.474 72.8735C330.288 73.0226 330.008 73.0413 329.809 72.917C329.604 72.7865 329.505 72.5192 329.579 72.2955Z" fill="#F7F7FC"/>
<path d="M331.86 75.6449C332.065 75.6635 336.913 77.2669 336.913 77.2669L339.641 79.3613C339.641 79.3613 340.71 80.654 340.381 82.9907C340.052 85.3275 339.057 86.2846 336.577 87.3348H331.587L328.803 85.7066C328.256 85.3834 327.958 84.7619 328.051 84.1342L328.069 84.0286L327.715 83.606C327.491 83.3388 327.454 82.9721 327.609 82.6613C327.827 82.2387 328.343 82.0772 328.765 82.2947L331.867 83.8857L333.818 83.8359L334.004 83.1647L330.978 82.158L326.982 79.9641C326.454 79.6721 326.273 79.0009 326.584 78.485C326.851 78.0438 327.398 77.8573 327.877 78.05L331.494 79.4732L335.192 80.4489L334.427 79.1624L329.89 76.8008C329.884 76.7946 329.337 75.4087 331.86 75.6449Z" fill="#F7F7FC"/>
<path d="M339.647 79.3677C339.597 79.4299 338.355 78.5536 336.826 77.3852L336.869 77.4101C336.813 77.3915 336.745 77.3728 336.683 77.3479C334.775 76.7265 333.246 76.1547 333.271 76.0801C333.296 76.0056 334.862 76.4468 336.776 77.0683C336.838 77.0869 336.9 77.1118 336.962 77.1304L336.987 77.1366L337.006 77.1491C338.522 78.3237 339.691 79.3056 339.647 79.3677Z" fill="#8E8E93"/>
<path d="M335.135 85.6084C335.148 85.6457 334.762 85.8197 334.104 86.0123C333.463 86.1988 332.451 86.4039 331.425 86.0061C330.922 85.8197 330.493 85.5711 330.101 85.3598C329.741 85.1547 329.393 84.962 329.064 84.7818C328.473 84.4462 328.125 84.2162 328.144 84.1789C328.162 84.1417 328.548 84.3032 329.163 84.5953C329.505 84.7631 329.859 84.9372 330.232 85.1236C330.636 85.3225 331.065 85.5587 331.531 85.7327C332.469 86.0994 333.408 85.944 334.06 85.8135C334.713 85.6705 335.123 85.5649 335.135 85.6084Z" fill="#8E8E93"/>
<path d="M322.041 92.836C322.029 92.8422 321.96 92.6993 321.836 92.4321C321.705 92.1338 321.525 91.736 321.308 91.245C320.866 90.2072 320.239 88.697 319.524 86.8077C318.088 83.0353 316.299 77.7342 314.888 71.7307C314.167 68.729 313.682 65.8267 313.322 63.1792C313.179 61.8492 313.011 60.5876 312.967 59.4006C312.93 58.8102 312.899 58.2322 312.868 57.6853C312.862 57.1322 312.862 56.604 312.862 56.1006C312.831 55.0876 312.899 54.174 312.949 53.3723C312.974 52.9745 312.999 52.6017 313.017 52.2536C313.054 51.9118 313.104 51.6011 313.141 51.3214C313.222 50.7869 313.284 50.3581 313.328 50.035C313.378 49.7429 313.402 49.5875 313.415 49.5875C313.427 49.5875 313.415 49.7429 313.39 50.0412C313.359 50.3706 313.315 50.7994 313.26 51.3338C313.228 51.6197 313.197 51.9305 313.16 52.2661C313.148 52.6079 313.135 52.9808 313.117 53.3785C313.079 54.1802 313.036 55.0876 313.079 56.0944C313.092 56.5977 313.098 57.126 313.11 57.6729C313.148 58.2198 313.191 58.7916 313.228 59.382C313.284 60.5628 313.465 61.8181 313.614 63.1419C313.993 65.7769 314.478 68.6668 315.199 71.6561C316.609 77.6409 318.356 82.9421 319.735 86.7269C320.419 88.6224 321.009 90.145 321.42 91.1953C321.612 91.6987 321.768 92.1027 321.892 92.4072C322.004 92.6869 322.053 92.836 322.041 92.836Z" fill="white"/>
<path d="M348.795 115.264C348.814 115.276 348.677 115.494 348.41 115.879C348.149 116.265 347.739 116.805 347.21 117.458C346.154 118.757 344.569 120.46 342.612 122.106C340.648 123.753 338.702 125.015 337.242 125.835C336.509 126.245 335.906 126.55 335.483 126.743C335.061 126.942 334.818 127.035 334.812 127.016C334.8 126.997 335.023 126.861 335.427 126.631C335.837 126.407 336.415 126.065 337.13 125.636C338.553 124.779 340.467 123.492 342.413 121.858C344.352 120.223 345.949 118.564 347.043 117.309C347.59 116.681 348.025 116.165 348.317 115.805C348.609 115.444 348.777 115.252 348.795 115.264Z" fill="white"/>
<path d="M320.108 129.764C320.102 129.783 319.76 129.683 319.145 129.478C318.529 129.279 317.659 128.95 316.59 128.515C314.453 127.645 311.563 126.271 308.549 124.444C305.541 122.605 302.993 120.672 301.24 119.174C300.364 118.428 299.668 117.801 299.208 117.347C298.742 116.899 298.493 116.645 298.512 116.626C298.524 116.607 298.804 116.831 299.295 117.254C299.78 117.676 300.494 118.273 301.389 119C303.173 120.448 305.727 122.344 308.723 124.171C311.718 125.992 314.577 127.39 316.684 128.31C317.734 128.77 318.598 129.13 319.194 129.366C319.785 129.602 320.114 129.745 320.108 129.764Z" fill="white"/>
<path d="M332.824 9.35221C333.532 8.93582 334.029 8.18383 334.135 7.3697C334.241 6.55556 333.948 5.70414 333.364 5.11995C332.911 4.66628 332.308 4.38661 331.885 3.90186C331.537 3.50411 331.338 2.9945 331.065 2.54083C330.195 1.07414 328.542 0.154356 326.845 0.0176312C325.148 -0.112879 323.433 0.489954 322.084 1.53403C321.55 1.95042 321.04 2.44139 320.388 2.62783C319.76 2.80806 319.089 2.67134 318.43 2.67755C316.876 2.68998 315.354 3.58491 314.589 4.93972C313.825 6.29454 313.837 8.05332 314.627 9.39571C312.949 10.0234 311.867 11.9376 312.197 13.6963C312.526 15.4551 314.235 16.8472 316.019 16.8224C317.125 16.8037 318.163 16.319 319.17 15.8715C323.259 14.0506 327.56 12.7082 331.96 11.8754" fill="#1C1C1E"/>
<path d="M315.143 36.8087C313.005 34.4408 311.743 31.3086 311.644 28.1204C311.544 24.9322 312.079 20.961 314.067 18.4689C312.7 16.9711 313.284 15.318 314.279 13.553C315.273 11.788 317.032 10.5824 318.859 9.69364C321.575 8.37611 324.564 7.62412 327.585 7.51847C330.046 7.43146 333.321 7.8665 333.644 9.63771C333.98 11.4897 332.774 12.3101 332.774 12.3101C332.774 12.3101 335.21 13.0185 337.335 15.0756C340.393 18.0401 341.574 21.0232 341.145 24.3356C340.716 27.6543 339.989 30.2334 337.988 32.3278" fill="url(#paint40_linear)"/>
<path d="M335.987 36.2119C336.31 35.8887 336.77 35.5967 337.236 35.4599L337.142 35.4475C337.23 35.4289 337.317 35.4226 337.404 35.4164C337.739 35.3481 338.075 35.3791 338.348 35.5718H338.342C338.852 35.7831 339.299 36.1808 339.529 36.6905C339.933 37.573 339.722 38.673 339.106 39.4187C338.572 40.0651 337.671 40.469 336.863 40.2391C336.117 40.0278 335.589 39.3193 335.409 38.5673C335.197 37.747 335.384 36.8085 335.987 36.2119Z" fill="url(#paint41_linear)"/>
<path d="M317.162 50.5065L315.198 22.074C315.186 20.7875 316.168 19.7062 317.448 19.5881L330.642 16.4248C334.862 16.0332 337.596 21.2536 337.814 25.4859C338.05 30.1843 338.162 35.9391 337.559 39.438C336.353 46.4732 331.003 47.2935 331.003 47.2935C331.003 47.2873 331.052 51.5382 331.052 51.5382L326.18 64.7632L317.162 50.5065Z" fill="#F7F7FC"/>
<path d="M335.334 31.3468C335.347 31.8254 334.949 32.2293 334.452 32.248C333.955 32.2666 333.538 31.8999 333.532 31.4214C333.52 30.9429 333.917 30.5389 334.415 30.5203C334.912 30.5016 335.322 30.8683 335.334 31.3468Z" fill="#1C1C1E"/>
<path d="M336.527 28.4571C336.415 28.5752 335.738 28.0594 334.762 28.0469C333.793 28.0221 333.072 28.5131 332.966 28.395C332.916 28.339 333.034 28.1277 333.345 27.9102C333.656 27.6865 334.178 27.4752 334.787 27.4876C335.396 27.5 335.899 27.73 336.191 27.9599C336.49 28.1899 336.583 28.4074 336.527 28.4571Z" fill="#1C1C1E"/>
<path d="M326.223 31.3468C326.236 31.8254 325.838 32.2293 325.341 32.248C324.844 32.2666 324.427 31.8999 324.421 31.4214C324.409 30.9429 324.806 30.5389 325.304 30.5203C325.801 30.5016 326.211 30.8683 326.223 31.3468Z" fill="#1C1C1E"/>
<path d="M326.969 28.5259C326.858 28.644 326.174 28.1282 325.204 28.1158C324.235 28.0909 323.514 28.5819 323.408 28.4638C323.359 28.4078 323.47 28.1965 323.787 27.979C324.098 27.7553 324.62 27.544 325.229 27.5564C325.832 27.5689 326.342 27.7988 326.634 28.0287C326.926 28.2587 327.025 28.47 326.969 28.5259Z" fill="#1C1C1E"/>
<path d="M330.412 35.7777C330.406 35.7217 331.015 35.6223 331.997 35.5104C332.246 35.4856 332.482 35.4421 332.525 35.2743C332.587 35.0941 332.488 34.8268 332.37 34.5347C332.146 33.9319 331.904 33.298 331.655 32.633C330.667 29.9296 329.958 27.7047 330.064 27.6674C330.176 27.6301 331.065 29.7929 332.053 32.4963C332.289 33.1613 332.519 33.8014 332.737 34.4104C332.83 34.6963 332.985 35.0133 332.855 35.3862C332.786 35.5726 332.6 35.7031 332.444 35.7466C332.283 35.7963 332.146 35.7963 332.022 35.8025C331.021 35.8398 330.412 35.8336 330.412 35.7777Z" fill="#1C1C1E"/>
<path opacity="0.2" d="M331.04 47.3007C331.04 47.3007 326.292 47.5493 321.631 44.6656C321.631 44.6656 323.986 49.6996 331.046 49.1216L331.04 47.3007Z" fill="url(#paint42_linear)"/>
<path opacity="0.2" d="M330.238 38.0895C329.778 37.4183 329.014 37.0019 328.281 37.0206C327.771 37.033 327.274 37.263 326.994 37.7042C326.715 38.1455 326.69 38.8042 327 39.2766C327.348 39.811 328.02 39.9913 328.573 39.8607C329.126 39.7365 329.58 39.3636 330.015 38.9907C330.133 38.885 330.257 38.7794 330.325 38.6302C330.394 38.4811 330.4 38.276 330.294 38.1393" fill="url(#paint43_linear)"/>
<path d="M327.541 36.4176C327.696 36.4114 327.69 37.4679 328.585 38.2261C329.48 38.9905 330.605 38.8848 330.611 39.034C330.623 39.1024 330.356 39.2391 329.884 39.2453C329.418 39.2577 328.74 39.0961 328.193 38.63C327.647 38.1639 327.417 37.5487 327.386 37.1136C327.348 36.6724 327.466 36.4114 327.541 36.4176Z" fill="#1C1C1E"/>
<path d="M327.392 25.8908C327.292 26.1519 326.323 26.0151 325.179 26.1394C324.036 26.2389 323.11 26.562 322.961 26.3259C322.892 26.214 323.06 25.9654 323.433 25.7106C323.806 25.462 324.396 25.2258 325.08 25.1575C325.764 25.0891 326.391 25.2072 326.808 25.3812C327.224 25.5552 327.435 25.7665 327.392 25.8908Z" fill="#1C1C1E"/>
<path d="M336.204 25.6411C336.03 25.8586 335.365 25.6224 334.557 25.6038C333.749 25.5541 333.065 25.7343 332.91 25.4981C332.842 25.3863 332.954 25.1625 333.252 24.9574C333.55 24.7523 334.041 24.5908 334.594 24.6094C335.147 24.6343 335.626 24.8394 335.899 25.0693C336.191 25.3055 336.285 25.5292 336.204 25.6411Z" fill="#1C1C1E"/>
<path d="M331.562 18.451C331.562 18.451 324.949 18.2273 319.804 25.598C316.41 30.4579 315.596 36.623 315.596 36.623L313.266 24.8149L315.285 19.4889L319.903 16.9906L328.585 16.6674L331.829 18.3516" fill="url(#paint44_linear)"/>
<path d="M318.592 18.8175C329.176 16.4807 337.528 20.1288 338.914 28.4193L341.158 23.0249L335.8 16.3191L329.834 14.6474L317.722 16.257L318.592 18.8175Z" fill="url(#paint45_linear)"/>
<path d="M313.999 35.8216C314.347 35.4736 314.844 35.1566 315.341 35.0137L315.242 35.0013C315.335 34.9826 315.428 34.9702 315.522 34.964C315.888 34.8956 316.243 34.9267 316.535 35.1318H316.522C317.075 35.3617 317.548 35.7905 317.796 36.3374C318.225 37.2883 318.008 38.4691 317.343 39.2708C316.765 39.9668 315.801 40.4019 314.931 40.1533C314.13 39.9233 313.558 39.1651 313.365 38.3572C313.154 37.4747 313.353 36.4679 313.999 35.8216Z" fill="url(#paint46_linear)"/>
<path d="M316.565 32.1108C316.559 32.1233 316.385 32.0922 316.099 31.9306C315.82 31.769 315.441 31.4583 315.149 30.9487C314.856 30.4453 314.67 29.7057 314.875 28.9413C314.968 28.5684 315.117 28.2018 315.186 27.8227C315.26 27.4436 315.198 27.052 314.925 26.7724C314.658 26.4865 314.272 26.3125 313.912 26.1136C313.545 25.9209 313.203 25.6537 312.961 25.3492C312.464 24.7339 312.265 24.0317 312.234 23.4537C312.196 22.8695 312.333 22.4034 312.464 22.1113C312.594 21.813 312.719 21.6825 312.725 21.6887C312.787 21.7073 312.333 22.3288 312.433 23.4413C312.489 23.9819 312.694 24.6345 313.16 25.1814C313.39 25.461 313.682 25.6848 314.042 25.8712C314.39 26.0639 314.8 26.2379 315.13 26.5859C315.478 26.9339 315.552 27.4746 315.459 27.8848C315.378 28.3074 315.223 28.6741 315.13 29.0221C314.931 29.7119 315.074 30.3831 315.323 30.8679C315.571 31.3589 315.907 31.6696 316.155 31.856C316.41 32.0176 316.572 32.086 316.565 32.1108Z" fill="white"/>
<path d="M315 17.7362C315.062 17.7548 314.639 18.3266 314.652 19.3769C314.658 19.8927 314.795 20.5142 315.155 21.0859C315.503 21.6701 316.156 22.0741 316.802 22.5837C317.125 22.8447 317.43 23.1368 317.616 23.5097C317.809 23.8763 317.852 24.2927 317.815 24.6532C317.74 25.3803 317.51 25.9769 317.541 26.4865C317.554 27.0024 317.74 27.3939 317.945 27.5866C318.144 27.7916 318.324 27.8165 318.312 27.8414C318.312 27.8538 318.269 27.8476 318.188 27.8352C318.113 27.8165 317.995 27.773 317.871 27.6736C317.622 27.4809 317.386 27.0521 317.343 26.499C317.28 25.9334 317.504 25.3057 317.554 24.6345C317.579 24.299 317.535 23.9509 317.367 23.6402C317.206 23.3232 316.926 23.056 316.622 22.8074C316.006 22.3227 315.298 21.8814 314.925 21.2289C314.546 20.595 314.422 19.9238 314.44 19.3831C314.453 18.83 314.602 18.4074 314.732 18.1339C314.869 17.848 314.987 17.7299 315 17.7362Z" fill="white"/>
<path d="M322.314 22.8886C322.327 22.8948 322.233 22.9942 322.028 22.9507C321.929 22.9259 321.817 22.8637 321.73 22.7519C321.637 22.64 321.581 22.4722 321.581 22.2982C321.568 21.9377 321.774 21.571 321.798 21.2044C321.829 20.8377 321.512 20.5083 321.102 20.2908C320.686 20.0795 320.232 19.8061 319.977 19.4394C319.71 19.0789 319.573 18.6936 319.524 18.3704C319.424 17.7055 319.623 17.3139 319.648 17.3264C319.698 17.3326 319.58 17.7303 319.723 18.3269C319.791 18.6253 319.94 18.9609 320.189 19.2778C320.437 19.601 320.798 19.8123 321.245 20.0422C321.463 20.1603 321.68 20.3157 321.836 20.5145C321.997 20.7072 322.09 20.9869 322.059 21.223C322.003 21.6953 321.786 22.0123 321.78 22.3044C321.749 22.5965 321.923 22.7829 322.066 22.8513C322.209 22.9072 322.308 22.8637 322.314 22.8886Z" fill="white"/>
<path d="M324.434 17.19C324.44 17.1713 324.502 17.1713 324.583 17.2459C324.657 17.3205 324.726 17.4696 324.701 17.6561C324.682 17.8425 324.577 18.0227 324.521 18.203C324.465 18.377 324.459 18.5883 324.502 18.7996C324.595 19.2346 324.875 19.564 325.068 19.8064C325.266 20.0425 325.397 20.2041 325.366 20.229C325.341 20.2538 325.167 20.1544 324.918 19.9493C324.682 19.738 324.334 19.39 324.216 18.8617C324.16 18.6007 324.173 18.3335 324.266 18.1097C324.359 17.8922 324.465 17.7493 324.496 17.6188C324.577 17.3515 324.415 17.221 324.434 17.19Z" fill="white"/>
<path d="M335.042 13.5418C335.061 13.5542 335.023 13.6536 334.924 13.8214C334.831 13.9892 334.657 14.2192 334.501 14.5113C334.34 14.8034 334.284 15.1762 334.396 15.6051C334.489 16.0277 334.713 16.5124 334.706 17.0842C334.7 17.6435 334.52 18.1655 334.246 18.5571C333.973 18.9548 333.613 19.2221 333.296 19.3774C332.643 19.6944 332.177 19.626 332.183 19.5949C332.177 19.5452 332.618 19.539 333.202 19.1972C333.488 19.0294 333.799 18.7684 334.029 18.4079C334.265 18.0475 334.42 17.5751 334.42 17.078C334.433 16.5808 334.234 16.1209 334.141 15.6548C334.029 15.1887 334.122 14.7039 334.327 14.4056C334.52 14.1011 334.713 13.896 334.837 13.7531C334.955 13.6163 335.023 13.5293 335.042 13.5418Z" fill="white"/>
<path d="M339.964 18.5636C340.008 18.6134 339.647 18.7687 339.504 19.2846C339.436 19.5518 339.299 19.875 339.193 20.2106C339.088 20.5586 338.995 20.9625 338.783 21.3603C338.342 22.1869 337.472 22.51 336.906 22.5287C336.316 22.5535 335.993 22.3422 336.005 22.3236C336.018 22.2739 336.353 22.3982 336.888 22.3298C337.404 22.2614 338.149 21.9445 338.528 21.2298C338.715 20.8755 338.814 20.484 338.939 20.1298C339.069 19.7631 339.212 19.4834 339.305 19.2162C339.405 18.9427 339.585 18.7501 339.722 18.6631C339.871 18.5761 339.952 18.5512 339.964 18.5636Z" fill="white"/>
<path d="M340.785 25.6356C340.816 25.648 340.791 25.8158 340.636 26.0333C340.486 26.2446 340.188 26.4994 339.778 26.5989C339.374 26.6983 338.989 26.6113 338.759 26.487C338.522 26.3627 338.423 26.2322 338.442 26.2011C338.479 26.1328 339.02 26.487 339.709 26.3192C340.399 26.1576 340.716 25.5921 340.785 25.6356Z" fill="white"/>
<path d="M328.796 12.3734C328.821 12.4169 328.498 12.5785 328.193 13.0384C327.895 13.4796 327.646 14.2751 327.976 15.0333C328.137 15.4062 328.386 15.8101 328.355 16.2452C328.33 16.6678 328.131 16.9909 327.945 17.2147C327.559 17.6684 327.23 17.8237 327.218 17.7989C327.187 17.7616 327.472 17.5378 327.783 17.0904C327.932 16.8667 328.088 16.5683 328.088 16.2327C328.106 15.8909 327.895 15.5553 327.709 15.1452C327.522 14.7163 327.51 14.2502 327.591 13.8649C327.678 13.4734 327.845 13.1502 328.032 12.9203C328.411 12.448 328.79 12.3485 328.796 12.3734Z" fill="white"/>
<path d="M322.065 17.3267C321.985 17.2957 322.215 16.668 322.233 15.8725C322.264 15.077 322.072 14.4369 322.152 14.412C322.221 14.3747 322.55 15.0148 322.519 15.8849C322.501 16.7488 322.128 17.364 322.065 17.3267Z" fill="white"/>
<path d="M317.181 16.5625C317.168 16.5439 317.243 16.488 317.305 16.3512C317.367 16.2145 317.423 15.9908 317.367 15.7236C317.28 15.1767 316.739 14.549 316.292 13.7535C316.068 13.3495 315.919 12.9207 315.882 12.5105C315.838 12.1003 315.919 11.7212 316.068 11.4416C316.211 11.1619 316.416 10.9879 316.578 10.9133C316.746 10.845 316.845 10.8636 316.845 10.876C316.851 10.9009 316.758 10.9195 316.634 11.0065C316.51 11.0935 316.354 11.2613 316.255 11.5224C316.019 12.032 316.118 12.8523 316.547 13.6105C316.969 14.3687 317.516 15.0399 317.572 15.6925C317.603 16.0094 317.51 16.2705 317.398 16.4072C317.299 16.5501 317.187 16.575 317.181 16.5625Z" fill="white"/>
<path d="M323.948 13.5102C323.936 13.4978 323.992 13.417 324.104 13.2989C324.203 13.1746 324.402 13.0006 324.421 12.7582C324.427 12.5283 324.209 12.2113 323.967 11.9441C323.712 11.6644 323.37 11.4034 323.035 11.0927C322.712 10.7757 322.37 10.4277 322.308 9.96159C322.27 9.51413 322.451 9.1661 322.587 8.89886C322.898 8.37682 323.159 8.10959 323.184 8.12823C323.221 8.15309 323.016 8.46383 322.768 8.99209C322.656 9.25311 322.519 9.5887 322.569 9.93052C322.612 10.2599 322.917 10.5893 323.228 10.8876C323.874 11.4718 324.62 12.0435 324.62 12.7831C324.545 13.1498 324.29 13.2803 324.172 13.3859C324.042 13.4792 323.961 13.5289 323.948 13.5102Z" fill="white"/>
<path d="M330.499 12.4722C330.475 12.4349 330.792 12.3044 330.891 11.8445C330.941 11.6208 330.922 11.3473 330.81 11.0614C330.698 10.7756 330.512 10.4773 330.307 10.1541C330.108 9.83093 329.934 9.4829 329.89 9.12245C329.834 8.74956 329.977 8.43883 330.108 8.2151C330.375 7.74278 330.76 7.6682 330.754 7.71792C330.767 7.74899 330.481 7.87329 330.282 8.31453C330.189 8.52583 330.089 8.79928 330.151 9.08516C330.201 9.38347 330.363 9.68799 330.555 10.0049C330.748 10.3219 330.953 10.6388 331.059 10.9744C331.177 11.3038 331.177 11.6456 331.084 11.9004C330.997 12.1552 330.841 12.3293 330.717 12.4038C330.593 12.4846 330.506 12.4908 330.499 12.4722Z" fill="white"/>
<path d="M332.767 12.3046C332.767 12.3232 332.481 12.3295 331.959 12.3232C331.444 12.3046 330.698 12.3232 329.772 12.3667C327.932 12.4724 325.39 12.8391 322.755 13.8334C320.12 14.8278 317.92 16.1453 316.354 17.1211C315.608 17.5996 314.993 17.9973 314.515 18.3081C314.08 18.5877 313.837 18.7369 313.825 18.7245C313.812 18.7058 314.036 18.5318 314.452 18.2211C314.869 17.9103 315.478 17.4753 316.248 16.9595C317.79 15.934 319.99 14.5792 322.656 13.5724C325.322 12.5656 327.907 12.2176 329.759 12.1679C330.692 12.1554 331.444 12.1679 331.959 12.2176C332.481 12.2487 332.767 12.2797 332.767 12.3046Z" fill="#1C1C1E"/>
<path d="M316.019 18.4882C316.019 18.4882 316.043 18.482 316.087 18.4633C316.143 18.4447 316.205 18.4136 316.286 18.3825C316.379 18.3452 316.485 18.3017 316.603 18.2458C316.733 18.1961 316.882 18.1464 317.05 18.0842C317.721 17.8543 318.716 17.5684 319.984 17.4379C321.245 17.2949 322.774 17.3074 324.433 17.5435C325.266 17.6554 326.13 17.8294 327.025 18.0345C327.92 18.2396 328.833 18.4757 329.759 18.7803C333.476 19.9362 336.316 22.3413 337.571 24.5414C338.218 25.6352 338.503 26.6419 338.677 27.3256C338.764 27.6736 338.814 27.9408 338.845 28.1273C338.864 28.2081 338.876 28.2826 338.889 28.3386C338.901 28.3883 338.907 28.4069 338.907 28.4069C338.907 28.4069 338.907 28.3821 338.901 28.3324C338.895 28.2764 338.883 28.2018 338.876 28.1211C338.852 27.9346 338.814 27.6612 338.74 27.3069C338.584 26.6109 338.311 25.5979 337.671 24.4792C336.422 22.2357 333.557 19.7808 329.809 18.6187C328.883 18.3142 327.957 18.078 327.062 17.8729C326.167 17.674 325.291 17.5 324.452 17.3882C322.774 17.1644 321.239 17.1582 319.965 17.3198C318.691 17.469 317.69 17.7673 317.025 18.0221C316.864 18.0904 316.715 18.1464 316.584 18.1961C316.466 18.252 316.36 18.3017 316.267 18.3452C316.193 18.3825 316.13 18.4136 316.074 18.4385C316.037 18.4757 316.012 18.4882 316.019 18.4882Z" fill="#1C1C1E"/>
<path d="M329.803 18.7681C329.803 18.7619 329.722 18.7619 329.573 18.7743C329.424 18.7805 329.2 18.8054 328.92 18.8489C328.355 18.9421 327.547 19.1472 326.615 19.5698C324.75 20.4088 322.414 22.1365 320.524 24.6349C319.573 25.8778 318.853 27.1829 318.225 28.3761C317.603 29.5694 317.1 30.6818 316.733 31.6389C316.367 32.5898 316.143 33.3915 316.019 33.9446C315.956 34.2242 315.919 34.4418 315.9 34.5909C315.882 34.7401 315.869 34.8209 315.876 34.8209C315.882 34.8209 315.901 34.7463 315.932 34.5971C315.963 34.448 316.012 34.2367 316.081 33.957C316.224 33.4101 316.466 32.6208 316.845 31.6762C317.218 30.7315 317.734 29.6315 318.362 28.4445C318.995 27.2575 319.716 25.9648 320.661 24.7343C322.532 22.2546 324.837 20.5393 326.671 19.6755C327.59 19.2404 328.386 19.0229 328.939 18.9111C329.219 18.8613 329.436 18.8241 329.585 18.8054C329.722 18.7868 329.803 18.7743 329.803 18.7681Z" fill="#1C1C1E"/>
<defs>
<linearGradient id="paint0_linear" x1="46.6866" y1="208.612" x2="46.6866" y2="233.945" gradientUnits="userSpaceOnUse">
<stop stop-color="#00E4E4"/>
<stop offset="1" stop-color="#00B373"/>
</linearGradient>
<linearGradient id="paint1_linear" x1="-0.888098" y1="24.3021" x2="0.196353" y2="80.3213" gradientUnits="userSpaceOnUse">
<stop stop-color="#FFCC00"/>
<stop offset="1" stop-color="#FFF5CC"/>
</linearGradient>
<linearGradient id="paint2_linear" x1="22.6103" y1="165.064" x2="22.6103" y2="174.107" gradientUnits="userSpaceOnUse">
<stop stop-color="#B5DBFF"/>
<stop offset="1" stop-color="#76E2F8"/>
</linearGradient>
<linearGradient id="paint3_linear" x1="22.2941" y1="120.16" x2="22.2941" y2="141.926" gradientUnits="userSpaceOnUse">
<stop stop-color="#B5DBFF"/>
<stop offset="1" stop-color="#76E2F8"/>
</linearGradient>
<linearGradient id="paint4_linear" x1="23.3481" y1="138.452" x2="23.3481" y2="156.42" gradientUnits="userSpaceOnUse">
<stop stop-color="#B5DBFF"/>
<stop offset="1" stop-color="#76E2F8"/>
</linearGradient>
<linearGradient id="paint5_linear" x1="25.8013" y1="150.929" x2="25.8013" y2="159.16" gradientUnits="userSpaceOnUse">
<stop stop-color="#B5DBFF"/>
<stop offset="1" stop-color="#76E2F8"/>
</linearGradient>
<linearGradient id="paint6_linear" x1="8.81053" y1="130.208" x2="8.81053" y2="149.957" gradientUnits="userSpaceOnUse">
<stop stop-color="#B5DBFF"/>
<stop offset="1" stop-color="#76E2F8"/>
</linearGradient>
<linearGradient id="paint7_linear" x1="1.96375" y1="153.063" x2="1.96375" y2="165.086" gradientUnits="userSpaceOnUse">
<stop stop-color="#B5DBFF"/>
<stop offset="1" stop-color="#76E2F8"/>
</linearGradient>
<linearGradient id="paint8_linear" x1="-10.7823" y1="188.556" x2="-10.7823" y2="202.025" gradientUnits="userSpaceOnUse">
<stop stop-color="#B5DBFF"/>
<stop offset="1" stop-color="#76E2F8"/>
</linearGradient>
<linearGradient id="paint9_linear" x1="13.9873" y1="183.012" x2="13.9873" y2="197.487" gradientUnits="userSpaceOnUse">
<stop stop-color="#B5DBFF"/>
<stop offset="1" stop-color="#76E2F8"/>
</linearGradient>
<linearGradient id="paint10_linear" x1="24.7494" y1="180.39" x2="24.7494" y2="194.971" gradientUnits="userSpaceOnUse">
<stop stop-color="#B5DBFF"/>
<stop offset="1" stop-color="#76E2F8"/>
</linearGradient>
<linearGradient id="paint11_linear" x1="33.8916" y1="179.115" x2="33.8916" y2="184.443" gradientUnits="userSpaceOnUse">
<stop stop-color="#B5DBFF"/>
<stop offset="1" stop-color="#76E2F8"/>
</linearGradient>
<linearGradient id="paint12_linear" x1="7.27895" y1="200.841" x2="7.27895" y2="224.619" gradientUnits="userSpaceOnUse">
<stop stop-color="#4560E6"/>
<stop offset="1" stop-color="#262680"/>
</linearGradient>
<linearGradient id="paint13_linear" x1="42.7254" y1="213.867" x2="42.7254" y2="234.288" gradientUnits="userSpaceOnUse">
<stop stop-color="#00E4E4"/>
<stop offset="1" stop-color="#00B373"/>
</linearGradient>
<linearGradient id="paint14_linear" x1="59.4757" y1="34.934" x2="59.4757" y2="41.0416" gradientUnits="userSpaceOnUse">
<stop stop-opacity="0"/>
<stop offset="1"/>
</linearGradient>
<linearGradient id="paint15_linear" x1="47.8277" y1="20.6542" x2="47.8277" y2="24.5848" gradientUnits="userSpaceOnUse">
<stop stop-opacity="0"/>
<stop offset="1"/>
</linearGradient>
<linearGradient id="paint16_linear" x1="80.3492" y1="73.289" x2="80.3492" y2="76.4073" gradientUnits="userSpaceOnUse">
<stop stop-opacity="0"/>
<stop offset="1"/>
</linearGradient>
<linearGradient id="paint17_linear" x1="81.7369" y1="72.3288" x2="81.7369" y2="74.8961" gradientUnits="userSpaceOnUse">
<stop stop-opacity="0"/>
<stop offset="1"/>
</linearGradient>
<linearGradient id="paint18_linear" x1="84.458" y1="69.8404" x2="84.458" y2="72.4437" gradientUnits="userSpaceOnUse">
<stop stop-opacity="0"/>
<stop offset="1"/>
</linearGradient>
<linearGradient id="paint19_linear" x1="87.2153" y1="67.4345" x2="87.2153" y2="70.5895" gradientUnits="userSpaceOnUse">
<stop stop-opacity="0"/>
<stop offset="1"/>
</linearGradient>
<linearGradient id="paint20_linear" x1="71.9253" y1="75.0349" x2="71.9253" y2="97.0444" gradientUnits="userSpaceOnUse">
<stop stop-color="#00E4E4"/>
<stop offset="1" stop-color="#00B373"/>
</linearGradient>
<linearGradient id="paint21_linear" x1="45.2778" y1="36.0664" x2="45.2778" y2="121.005" gradientUnits="userSpaceOnUse">
<stop stop-color="#00E4E4"/>
<stop offset="1" stop-color="#00B373"/>
</linearGradient>
<linearGradient id="paint22_linear" x1="31.73" y1="43.4067" x2="31.73" y2="115.596" gradientUnits="userSpaceOnUse">
<stop stop-color="#00E4E4"/>
<stop offset="1" stop-color="#00B373"/>
</linearGradient>
<linearGradient id="paint23_linear" x1="66.2139" y1="77.999" x2="66.2139" y2="96.7017" gradientUnits="userSpaceOnUse">
<stop stop-opacity="0"/>
<stop offset="1"/>
</linearGradient>
<linearGradient id="paint24_linear" x1="40.3553" y1="62.6704" x2="40.3553" y2="115.597" gradientUnits="userSpaceOnUse">
<stop stop-opacity="0"/>
<stop offset="1"/>
</linearGradient>
<linearGradient id="paint25_linear" x1="369.653" y1="23.2328" x2="351.218" y2="76.7275" gradientUnits="userSpaceOnUse">
<stop stop-color="#FFCC00"/>
<stop offset="1" stop-color="#FFF5CC"/>
</linearGradient>
<linearGradient id="paint26_linear" x1="349.668" y1="105.42" x2="349.668" y2="168.313" gradientUnits="userSpaceOnUse">
<stop stop-color="#B5DBFF"/>
<stop offset="1" stop-color="#76E2F8"/>
</linearGradient>
<linearGradient id="paint27_linear" x1="367.423" y1="102.823" x2="367.423" y2="175.685" gradientUnits="userSpaceOnUse">
<stop stop-color="#B5DBFF"/>
<stop offset="1" stop-color="#76E2F8"/>
</linearGradient>
<linearGradient id="paint28_linear" x1="341.682" y1="121.572" x2="341.682" y2="177.306" gradientUnits="userSpaceOnUse">
<stop stop-color="#B5DBFF"/>
<stop offset="1" stop-color="#76E2F8"/>
</linearGradient>
<linearGradient id="paint29_linear" x1="378.474" y1="146.04" x2="378.474" y2="186.23" gradientUnits="userSpaceOnUse">
<stop stop-color="#B5DBFF"/>
<stop offset="1" stop-color="#76E2F8"/>
</linearGradient>
<linearGradient id="paint30_linear" x1="359.634" y1="189.04" x2="359.634" y2="194.993" gradientUnits="userSpaceOnUse">
<stop stop-color="#4560E6"/>
<stop offset="1" stop-color="#262680"/>
</linearGradient>
<linearGradient id="paint31_linear" x1="359.578" y1="194.753" x2="359.578" y2="214.775" gradientUnits="userSpaceOnUse">
<stop stop-color="#4560E6"/>
<stop offset="1" stop-color="#262680"/>
</linearGradient>
<linearGradient id="paint32_linear" x1="336.748" y1="219.909" x2="336.748" y2="229.113" gradientUnits="userSpaceOnUse">
<stop stop-color="#00E4E4"/>
<stop offset="1" stop-color="#00B373"/>
</linearGradient>
<linearGradient id="paint33_linear" x1="311.561" y1="221.289" x2="311.561" y2="239.998" gradientUnits="userSpaceOnUse">
<stop stop-color="#00E4E4"/>
<stop offset="1" stop-color="#00B373"/>
</linearGradient>
<linearGradient id="paint34_linear" x1="309.401" y1="110.627" x2="309.401" y2="115.272" gradientUnits="userSpaceOnUse">
<stop stop-color="#00E4E4"/>
<stop offset="1" stop-color="#00B373"/>
</linearGradient>
<linearGradient id="paint35_linear" x1="341.666" y1="108.296" x2="341.666" y2="113.82" gradientUnits="userSpaceOnUse">
<stop stop-color="#00E4E4"/>
<stop offset="1" stop-color="#00B373"/>
</linearGradient>
<linearGradient id="paint36_linear" x1="304.46" y1="45.6841" x2="304.46" y2="132.399" gradientUnits="userSpaceOnUse">
<stop stop-color="#00E4E4"/>
<stop offset="1" stop-color="#00B373"/>
</linearGradient>
<linearGradient id="paint37_linear" x1="345.787" y1="46.0202" x2="345.787" y2="130.373" gradientUnits="userSpaceOnUse">
<stop stop-color="#00E4E4"/>
<stop offset="1" stop-color="#00B373"/>
</linearGradient>
<linearGradient id="paint38_linear" x1="297.028" y1="88.9794" x2="297.028" y2="93.9399" gradientUnits="userSpaceOnUse">
<stop stop-opacity="0"/>
<stop offset="1"/>
</linearGradient>
<linearGradient id="paint39_linear" x1="337.646" y1="86.9428" x2="337.646" y2="104.233" gradientUnits="userSpaceOnUse">
<stop stop-opacity="0"/>
<stop offset="1"/>
</linearGradient>
<linearGradient id="paint40_linear" x1="326.431" y1="7.14177" x2="326.431" y2="36.8087" gradientUnits="userSpaceOnUse">
<stop stop-color="#4560E6"/>
<stop offset="1" stop-color="#262680"/>
</linearGradient>
<linearGradient id="paint41_linear" x1="337.53" y1="35.3834" x2="337.53" y2="40.3042" gradientUnits="userSpaceOnUse">
<stop stop-color="#00E4E4"/>
<stop offset="1" stop-color="#00B373"/>
</linearGradient>
<linearGradient id="paint42_linear" x1="326.339" y1="44.6656" x2="326.339" y2="49.1679" gradientUnits="userSpaceOnUse">
<stop stop-opacity="0"/>
<stop offset="1"/>
</linearGradient>
<linearGradient id="paint43_linear" x1="328.576" y1="37.02" x2="328.576" y2="39.9015" gradientUnits="userSpaceOnUse">
<stop stop-opacity="0"/>
<stop offset="1"/>
</linearGradient>
<linearGradient id="paint44_linear" x1="322.547" y1="16.4179" x2="322.547" y2="36.623" gradientUnits="userSpaceOnUse">
<stop stop-color="#4560E6"/>
<stop offset="1" stop-color="#262680"/>
</linearGradient>
<linearGradient id="paint45_linear" x1="329.44" y1="14.4752" x2="329.44" y2="28.4193" gradientUnits="userSpaceOnUse">
<stop stop-color="#4560E6"/>
<stop offset="1" stop-color="#262680"/>
</linearGradient>
<linearGradient id="paint46_linear" x1="315.651" y1="34.9313" x2="315.651" y2="40.2239" gradientUnits="userSpaceOnUse">
<stop stop-color="#00E4E4"/>
<stop offset="1" stop-color="#00B373"/>
</linearGradient>
<clipPath id="clip0">
<rect width="120" height="240" fill="white" transform="translate(-24)"/>
</clipPath>
</defs>
</svg>
