<svg width="64" height="64" viewBox="0 0 64 64" fill="none" xmlns="http://www.w3.org/2000/svg">
<g clip-path="url(#clip0)">
<path d="M54.4348 32.3095C54.4348 34.8866 54.0421 37.3736 53.3108 39.71C53.2317 39.9707 53.1463 40.2285 53.0547 40.4846C52.766 41.3199 52.4307 42.1334 52.055 42.9251C51.7398 43.5927 51.3951 44.2431 51.0211 44.875C50.276 46.1434 49.4221 47.3387 48.4688 48.4487C47.4722 49.6115 46.3698 50.6812 45.1776 51.6437C40.9223 55.07 35.512 57.1224 29.622 57.1224C15.9185 57.1224 4.80908 46.013 4.80908 32.3095C4.80908 18.606 15.9182 7.49661 29.6218 7.49661C43.3255 7.49661 54.4348 18.606 54.4348 32.3095Z" fill="url(#paint0_linear)"/>
<g style="mix-blend-mode:overlay" opacity="0.5">
<path d="M29.6214 15.499C28.6478 15.499 27.8584 29.573 27.8584 30.5466C27.8584 31.167 28.1796 31.7116 28.6641 32.0257L46.8263 50.1879C49.8903 47.2386 52.1971 43.5092 53.4288 39.3192C49.3731 35.2931 29.6214 15.499 29.6214 15.499Z" fill="url(#paint1_linear)"/>
</g>
<path d="M29.622 33.7122C30.3964 33.7122 31.0242 33.0843 31.0242 32.3099C31.0242 31.5355 30.3964 30.9077 29.622 30.9077C28.8475 30.9077 28.2197 31.5355 28.2197 32.3099C28.2197 33.0843 28.8475 33.7122 29.622 33.7122Z" fill="url(#paint2_linear)"/>
<path d="M29.6215 12.6025C29.4513 12.6025 29.2971 12.6715 29.1855 12.7831C29.074 12.8946 29.0049 13.0487 29.0049 13.2191V17.74C29.0049 17.8676 29.0436 17.9862 29.1101 18.0846C29.1544 18.1502 29.211 18.2068 29.2766 18.2511C29.3094 18.2733 29.3445 18.2923 29.3814 18.308C29.4551 18.3391 29.5363 18.3565 29.6213 18.3565C29.7915 18.3565 29.9456 18.2875 30.0573 18.1758C30.1688 18.0642 30.2379 17.9102 30.2379 17.7399V13.219C30.238 12.8785 29.9619 12.6025 29.6215 12.6025Z" fill="url(#paint3_linear)"/>
<path d="M29.6214 46.2627C29.2809 46.2627 29.0049 46.5388 29.0049 46.8792V51.4001C29.0049 51.4588 29.0156 51.5144 29.031 51.5682C29.1045 51.8263 29.3396 52.0166 29.6213 52.0166C29.7064 52.0166 29.7875 51.9992 29.8611 51.9681C30.0824 51.8744 30.2378 51.6553 30.2378 51.4V46.8791C30.2379 46.5387 29.9618 46.2627 29.6214 46.2627Z" fill="url(#paint4_linear)"/>
<path d="M48.7121 31.6931H44.1912C43.8507 31.6931 43.5747 31.9691 43.5747 32.3096C43.5747 32.6501 43.8507 32.9261 44.1912 32.9261H48.7121C49.0526 32.9261 49.3286 32.6501 49.3286 32.3096C49.3287 31.9691 49.0526 31.6931 48.7121 31.6931Z" fill="url(#paint5_linear)"/>
<path d="M15.6687 32.3096C15.6687 32.1819 15.6299 32.0632 15.5634 31.9648C15.5192 31.8992 15.4626 31.8426 15.3969 31.7983C15.2986 31.7318 15.1799 31.6931 15.0522 31.6931H10.5312C10.3609 31.6931 10.2068 31.7621 10.0952 31.8737C9.98368 31.9853 9.91455 32.1393 9.91455 32.3097C9.91455 32.6502 10.1906 32.9262 10.5311 32.9262H15.0519C15.2222 32.9262 15.3763 32.8572 15.4879 32.7456C15.5996 32.6339 15.6687 32.4799 15.6687 32.3096Z" fill="url(#paint6_linear)"/>
<path d="M40.3597 22.4431L43.5564 19.2464C43.7972 19.0056 43.7972 18.6152 43.5564 18.3745C43.3157 18.1336 42.9253 18.1337 42.6845 18.3745L39.4878 21.5712C39.2469 21.8121 39.2469 22.2024 39.4878 22.4431C39.7285 22.6839 40.1189 22.6839 40.3597 22.4431Z" fill="url(#paint7_linear)"/>
<path d="M19.7549 42.176C19.5141 41.9353 19.1237 41.9353 18.883 42.176L15.6862 45.3728C15.4786 45.5804 15.4511 45.8989 15.6016 46.1373C15.6207 46.1675 15.6436 46.1958 15.6685 46.223C15.6749 46.23 15.6794 46.2379 15.6862 46.2448C15.8037 46.3623 15.9569 46.4216 16.1109 46.4243C16.1146 46.4244 16.1184 46.4254 16.1221 46.4254C16.2799 46.4254 16.4376 46.3652 16.5581 46.2448L19.7549 43.048C19.8451 42.9578 19.9016 42.8465 19.9241 42.7299C19.9316 42.691 19.9354 42.6517 19.9354 42.6122C19.9355 42.4542 19.8754 42.2963 19.7549 42.176Z" fill="url(#paint8_linear)"/>
<path d="M43.5568 45.3726L40.36 42.1759C40.2848 42.1006 40.1943 42.0517 40.099 42.0235C40.0074 41.9963 39.9114 41.9891 39.8177 42.0053C39.697 42.0265 39.5814 42.0825 39.4883 42.1756C39.2474 42.4165 39.2474 42.8067 39.4883 43.0475L42.685 46.2442C42.7212 46.2803 42.7613 46.3092 42.8032 46.3345C43.0402 46.4777 43.3523 46.449 43.557 46.2442C43.6552 46.1461 43.7112 46.0227 43.7292 45.8951C43.7553 45.7101 43.6994 45.5153 43.5568 45.3726Z" fill="url(#paint9_linear)"/>
<path d="M16.5584 18.3746C16.438 18.2542 16.2801 18.194 16.1224 18.194C16.083 18.194 16.0435 18.1977 16.0046 18.2052C15.888 18.2279 15.7767 18.2841 15.6865 18.3745C15.5661 18.4949 15.5059 18.6527 15.5059 18.8105C15.5059 18.8499 15.5096 18.8894 15.5171 18.9282C15.5397 19.0449 15.596 19.1561 15.6864 19.2464L18.8831 22.4431C18.8886 22.4486 18.8951 22.4523 18.9009 22.4575C18.9571 22.5098 19.0197 22.5511 19.0871 22.5785C19.1612 22.6086 19.2402 22.6236 19.3191 22.6236C19.4769 22.6236 19.6347 22.5634 19.7551 22.443C19.8454 22.3528 19.9019 22.2414 19.9244 22.1249C19.9319 22.086 19.9356 22.0466 19.9356 22.0071C19.9356 21.8494 19.8754 21.6915 19.755 21.5711L16.5584 18.3746Z" fill="url(#paint10_linear)"/>
<path d="M52.0547 42.9253C51.7396 43.5929 51.3949 44.2433 51.0209 44.8752C50.2757 46.1435 49.4219 47.3389 48.4686 48.4489C47.472 49.6117 46.3696 50.6814 45.1774 51.6439L27.7214 34.2099C26.6704 33.1604 26.6704 31.4589 27.7214 30.4094C27.7679 30.3629 27.8145 30.3193 27.8641 30.2774C28.87 29.4019 30.3729 29.4019 31.3789 30.2774C31.4286 30.3193 31.4751 30.3628 31.5216 30.4094C31.5681 30.4559 31.6147 30.5057 31.6551 30.5554H31.6566C31.6876 30.5569 31.7187 30.5585 31.7529 30.56C31.8119 30.5647 31.8771 30.5678 31.9469 30.5724C32.3132 30.5957 32.8147 30.6345 33.3969 30.6873C33.5707 30.7028 33.7524 30.7199 33.9402 30.7385C34.0752 30.7524 34.2135 30.7649 34.3547 30.7804C34.4744 30.7928 34.5955 30.8053 34.7195 30.8177C34.8095 30.8269 34.9011 30.8379 34.9927 30.8472C35.1387 30.8627 35.2846 30.8798 35.4321 30.8969C36.1339 30.9777 36.8604 31.0692 37.5542 31.1718C37.649 31.1857 37.7436 31.1998 37.8369 31.2152C37.8507 31.2167 37.8664 31.2183 37.8802 31.2214C37.9889 31.2385 38.0961 31.2555 38.2016 31.2712C38.3071 31.2898 38.4112 31.3069 38.5137 31.3239C38.582 31.3363 38.6504 31.3473 38.7186 31.3597C38.8226 31.3783 38.9266 31.3969 39.0291 31.4172C39.0804 31.4264 39.1316 31.4358 39.1812 31.4452C39.2867 31.4669 39.3876 31.487 39.4871 31.5073C39.5181 31.5135 39.5477 31.5197 39.5772 31.5259C39.6176 31.5352 39.658 31.5447 39.6969 31.5523C39.7155 31.5554 39.7341 31.56 39.7527 31.5647C39.8102 31.5785 39.8676 31.591 39.9219 31.6034C39.9606 31.6127 39.9979 31.6222 40.0336 31.6298C40.178 31.667 40.3131 31.7027 40.4404 31.7384C40.4699 31.7477 40.4994 31.757 40.5274 31.7648C40.5507 31.771 40.5724 31.7787 40.5941 31.785C40.6267 31.7959 40.6577 31.8068 40.6889 31.8162C40.6997 31.8193 40.7106 31.8223 40.7215 31.827C40.7836 31.8488 40.8411 31.8689 40.8954 31.8907C40.9 31.8922 40.9046 31.8953 40.9109 31.8968C40.9404 31.9092 40.9699 31.9217 40.9979 31.9325C41.0646 31.962 41.1236 31.99 41.1765 32.0195C41.1999 32.0334 41.2199 32.0459 41.2401 32.0583C41.3052 32.1002 41.355 32.1422 41.3876 32.184C41.3985 32.1949 41.4062 32.2074 41.4125 32.2182C41.414 32.2213 41.4156 32.2228 41.4156 32.2244C41.4234 32.2383 41.4295 32.2524 41.4327 32.2678C41.4374 32.2817 41.4389 32.2958 41.4389 32.3097L52.0547 42.9253Z" fill="url(#paint11_linear)"/>
<path d="M31.3846 34.0724C30.411 34.0724 29.6216 33.2831 29.6216 32.3094C29.6216 31.3358 30.411 30.5464 31.3846 30.5464C32.3582 30.5464 41.4382 31.3358 41.4382 32.3094C41.4383 33.2832 32.3582 34.0724 31.3846 34.0724Z" fill="url(#paint12_linear)"/>
<path d="M31.3844 30.5465C31.3844 31.5202 30.595 32.3095 29.6214 32.3095C28.6478 32.3095 27.8584 31.5202 27.8584 30.5465C27.8584 29.5729 28.6478 15.4989 29.6214 15.4989C30.595 15.499 31.3844 29.5729 31.3844 30.5465Z" fill="url(#paint13_linear)"/>
<path d="M29.6221 34.9978C31.1066 34.9978 32.3101 33.7944 32.3101 32.3098C32.3101 30.8253 31.1066 29.6218 29.6221 29.6218C28.1375 29.6218 26.9341 30.8253 26.9341 32.3098C26.9341 33.7944 28.1375 34.9978 29.6221 34.9978Z" fill="url(#paint14_linear)"/>
<g style="mix-blend-mode:overlay" opacity="0.5">
<path d="M28.3882 53.5811C27.6229 54.5882 27.2402 55.6191 27.2402 56.6735V57.0082C28.0239 57.0828 28.8179 57.1225 29.6212 57.1225C35.5112 57.1225 40.9216 55.0701 45.1769 51.6438C46.3691 50.6813 47.4715 49.6116 48.4681 48.4488C48.8707 47.98 49.2545 47.4951 49.6209 46.9968L40.1705 37.5532C38.7044 36.2458 36.9275 35.5923 34.84 35.5923C32.8696 35.5923 31.1749 36.1728 29.756 37.3338C28.3366 38.4948 27.6274 39.9902 27.6274 41.8197C27.6274 42.7257 27.8702 43.333 28.3525 43.646L33.7069 49.0271L31.2161 50.8401C30.0964 51.6605 29.1535 52.574 28.3882 53.5811Z" fill="url(#paint15_linear)"/>
</g>
<path d="M27.2407 60.082V56.6735C27.2407 55.619 27.6233 54.5883 28.3887 53.5811C29.1538 52.574 30.0967 51.6603 31.2166 50.8401L34.5942 48.3816C35.7202 47.5623 36.6756 46.6608 37.4618 45.6773C38.2475 44.6945 38.6405 43.7108 38.6405 42.7273C38.6405 41.7445 38.3178 40.884 37.673 40.1462C37.0276 39.4091 36.0837 39.0402 34.8406 39.0402C33.7851 39.0402 32.9286 39.3316 32.2723 39.9136C31.6152 40.496 31.2871 41.3573 31.2871 42.4981C31.2871 42.871 31.1051 43.1973 30.7417 43.4767C30.378 43.7561 29.9028 43.8957 29.3167 43.8957C28.1908 43.8957 27.628 43.204 27.628 41.8197C27.628 39.9902 28.3372 38.495 29.7566 37.3338C31.1755 36.1728 32.8702 35.5923 34.8406 35.5923C36.928 35.5923 38.705 36.2457 40.1711 37.5531C41.6366 38.8605 42.3701 40.5497 42.3701 42.6222C42.3701 44.0273 41.9771 45.3441 41.1915 46.5732C40.4052 47.8025 39.4553 48.8443 38.3415 49.6986C37.2271 50.5535 36.1128 51.361 34.9991 52.1218C33.8847 52.8827 32.935 53.6496 32.1492 54.4221C31.363 55.1951 30.9706 55.9443 30.9706 56.67V58.0042H41.3146C41.6428 58.0042 41.9302 58.1626 42.1766 58.4792C42.423 58.796 42.5462 59.1776 42.5462 59.6228C42.5462 60.0687 42.4236 60.4617 42.179 60.8015C41.9343 61.1418 41.649 61.3118 41.323 61.3118H28.8831C28.5103 61.3118 28.1431 61.1946 27.7826 60.9605C27.4211 60.7262 27.2407 60.4337 27.2407 60.082Z" fill="url(#paint16_linear)"/>
<path d="M42.6865 54.1479C42.6865 53.8907 42.7569 53.6329 42.8978 53.375L51.4123 36.6115C51.7641 35.9322 52.3034 35.5925 53.0308 35.5925C53.4291 35.5925 53.84 35.733 54.2621 36.0147C54.6843 36.2963 54.8955 36.6363 54.8955 37.035C54.8955 37.1757 54.8365 37.3637 54.7194 37.598L47.4716 52.0584H52.6436V47.1752C52.6436 46.3493 53.2648 45.9365 54.5084 45.9365C55.024 45.9365 55.4638 46.0432 55.8278 46.2554C56.1911 46.4677 56.3731 46.7743 56.3731 47.1753V52.0585H58.0971C58.4956 52.0585 58.8061 52.2329 59.0294 52.5814C59.252 52.9299 59.3636 53.3363 59.3636 53.8002C59.3636 54.2179 59.2344 54.6072 58.9765 54.9667C58.7183 55.3267 58.4251 55.5065 58.097 55.5065H56.373V60.0727C56.373 60.4509 56.185 60.7517 55.81 60.976C55.4344 61.2002 55.0008 61.312 54.5081 61.312C53.992 61.312 53.5521 61.2004 53.1888 60.976C52.8248 60.7517 52.6434 60.4509 52.6434 60.0727V55.5065H43.9883C43.6126 55.5065 43.3021 55.385 43.056 55.141C42.8098 54.8968 42.6865 54.5658 42.6865 54.1479Z" fill="url(#paint17_linear)"/>
<path d="M61.9136 28.0616H59.0692H58.9372C56.8705 13.7336 44.5128 2.68814 29.6216 2.68814C13.2881 2.68814 0 15.9761 0 32.3095C0 39.0491 2.32463 45.6455 6.54563 50.8834C10.703 56.0424 16.5293 59.6978 22.951 61.1764C23.1268 61.217 23.3024 61.2363 23.4755 61.2363C24.5359 61.2363 25.4946 60.507 25.7428 59.4296C26.0313 58.1763 25.2493 56.9265 23.9958 56.638C18.5868 55.3925 13.6775 52.3111 10.172 47.9613C6.56425 43.4844 4.65737 38.0723 4.65737 32.3098C4.65737 18.5444 15.8563 7.34564 29.6216 7.34564C41.9391 7.34564 52.2001 16.3129 54.2226 28.0618H51.7663C49.9111 28.0618 48.9821 30.3046 50.2939 31.6163L55.3676 36.69C56.1808 37.5031 57.4992 37.5031 58.3124 36.69L63.3861 31.6163C64.6977 30.3045 63.7686 28.0616 61.9136 28.0616Z" fill="url(#paint18_linear)"/>
</g>
<defs>
<linearGradient id="paint0_linear" x1="29.622" y1="7.49661" x2="29.622" y2="57.1224" gradientUnits="userSpaceOnUse">
<stop stop-color="#EDF5FF"/>
<stop offset="1" stop-color="#D8ECFF"/>
</linearGradient>
<linearGradient id="paint1_linear" x1="40.6436" y1="15.499" x2="40.6436" y2="50.1879" gradientUnits="userSpaceOnUse">
<stop stop-opacity="0"/>
<stop offset="1"/>
</linearGradient>
<linearGradient id="paint2_linear" x1="29.6213" y1="31.6242" x2="29.6213" y2="35.8092" gradientUnits="userSpaceOnUse">
<stop stop-color="#F18D00"/>
<stop offset="1" stop-color="#ED7103"/>
</linearGradient>
<linearGradient id="paint3_linear" x1="29.6214" y1="12.6025" x2="29.6214" y2="18.3565" gradientUnits="userSpaceOnUse">
<stop stop-color="#00E4E4"/>
<stop offset="1" stop-color="#00B373"/>
</linearGradient>
<linearGradient id="paint4_linear" x1="29.6213" y1="46.2627" x2="29.6213" y2="52.0166" gradientUnits="userSpaceOnUse">
<stop stop-color="#00E4E4"/>
<stop offset="1" stop-color="#00B373"/>
</linearGradient>
<linearGradient id="paint5_linear" x1="46.4516" y1="31.6931" x2="46.4516" y2="32.9261" gradientUnits="userSpaceOnUse">
<stop stop-color="#00E4E4"/>
<stop offset="1" stop-color="#00B373"/>
</linearGradient>
<linearGradient id="paint6_linear" x1="12.7916" y1="31.6931" x2="12.7916" y2="32.9262" gradientUnits="userSpaceOnUse">
<stop stop-color="#00E4E4"/>
<stop offset="1" stop-color="#00B373"/>
</linearGradient>
<linearGradient id="paint7_linear" x1="41.5221" y1="18.1939" x2="41.5221" y2="22.6237" gradientUnits="userSpaceOnUse">
<stop stop-color="#00E4E4"/>
<stop offset="1" stop-color="#00B373"/>
</linearGradient>
<linearGradient id="paint8_linear" x1="17.7209" y1="41.9955" x2="17.7209" y2="46.4254" gradientUnits="userSpaceOnUse">
<stop stop-color="#00E4E4"/>
<stop offset="1" stop-color="#00B373"/>
</linearGradient>
<linearGradient id="paint9_linear" x1="41.5215" y1="41.9968" x2="41.5215" y2="46.4237" gradientUnits="userSpaceOnUse">
<stop stop-color="#00E4E4"/>
<stop offset="1" stop-color="#00B373"/>
</linearGradient>
<linearGradient id="paint10_linear" x1="17.7207" y1="18.194" x2="17.7207" y2="22.6236" gradientUnits="userSpaceOnUse">
<stop stop-color="#00E4E4"/>
<stop offset="1" stop-color="#00B373"/>
</linearGradient>
<linearGradient id="paint11_linear" x1="39.4159" y1="38.0527" x2="28.5762" y2="26.1465" gradientUnits="userSpaceOnUse">
<stop stop-color="#C3C3C3" stop-opacity="0"/>
<stop offset="0.267" stop-color="#A4A4A4" stop-opacity="0.267"/>
<stop offset="0.542" stop-color="#8B8B8B" stop-opacity="0.542"/>
<stop offset="0.794" stop-color="#7C7C7C" stop-opacity="0.794"/>
<stop offset="1" stop-color="#777777"/>
</linearGradient>
<linearGradient id="paint12_linear" x1="35.5299" y1="30.5024" x2="35.5299" y2="34.0724" gradientUnits="userSpaceOnUse">
<stop stop-color="#4560E6"/>
<stop offset="1" stop-color="#262680"/>
</linearGradient>
<linearGradient id="paint13_linear" x1="29.6214" y1="15.2888" x2="29.6214" y2="32.3095" gradientUnits="userSpaceOnUse">
<stop stop-color="#4560E6"/>
<stop offset="1" stop-color="#262680"/>
</linearGradient>
<linearGradient id="paint14_linear" x1="29.6221" y1="29.5546" x2="29.6221" y2="34.9978" gradientUnits="userSpaceOnUse">
<stop stop-color="#4560E6"/>
<stop offset="1" stop-color="#262680"/>
</linearGradient>
<linearGradient id="paint15_linear" x1="38.4305" y1="35.5923" x2="38.4305" y2="57.1225" gradientUnits="userSpaceOnUse">
<stop stop-opacity="0"/>
<stop offset="1"/>
</linearGradient>
<linearGradient id="paint16_linear" x1="34.8935" y1="35.5923" x2="34.8935" y2="61.3118" gradientUnits="userSpaceOnUse">
<stop stop-color="#00E4E4"/>
<stop offset="1" stop-color="#00B373"/>
</linearGradient>
<linearGradient id="paint17_linear" x1="51.0251" y1="35.5925" x2="51.0251" y2="61.312" gradientUnits="userSpaceOnUse">
<stop stop-color="#00E4E4"/>
<stop offset="1" stop-color="#00B373"/>
</linearGradient>
<linearGradient id="paint18_linear" x1="32" y1="1.95629" x2="32" y2="61.2363" gradientUnits="userSpaceOnUse">
<stop stop-color="#4560E6"/>
<stop offset="1" stop-color="#262680"/>
</linearGradient>
<clipPath id="clip0">
<rect width="64" height="64" fill="white"/>
</clipPath>
</defs>
</svg>
