<svg width="168" height="32" viewBox="0 0 168 32" fill="none" xmlns="http://www.w3.org/2000/svg">
<path d="M2 14.654C2 13.8217 2.38856 13.0372 3.05055 12.5328L13.5758 4.51359C15.0078 3.42255 16.9922 3.42255 18.4242 4.51359L28.9494 12.5328C29.6114 13.0372 30 13.8217 30 14.654V26.6666C30 28.1394 28.8061 29.3333 27.3333 29.3333H4.66667C3.19391 29.3333 2 28.1394 2 26.6666V14.654Z" fill="url(#paint0_linear_239_7943)"/>
<path d="M4.66699 8.66667C4.66699 7.19391 5.8609 6 7.33366 6H24.667C26.1397 6 27.3337 7.19391 27.3337 8.66667V23.3333C27.3337 24.8061 26.1397 26 24.667 26H7.33366C5.8609 26 4.66699 24.8061 4.66699 23.3333V8.66667Z" fill="url(#paint1_linear_239_7943)"/>
<path d="M16.5483 21.3333V20.4421C18.7557 20.2555 20 19.164 20 17.4092C20 15.9101 19.1002 14.9913 17.3005 14.6044L16.5483 14.4593V11.8825C17.3005 11.9861 17.8348 12.525 17.8559 13.1813H19.8102C19.7821 11.5923 18.5167 10.4593 16.5483 10.2866V9.33325H15.5571V10.2797C13.4482 10.4455 12.2109 11.5371 12.2109 13.2296C12.2109 14.6666 13.1178 15.6269 14.812 16.0137L15.5571 16.1864V18.8807C14.6643 18.784 14.0598 18.259 14.0105 17.5405H12C12.007 19.2331 13.3497 20.3246 15.5571 20.449V21.3333H16.5483ZM18.0105 17.6303C18.0105 18.3626 17.4692 18.8324 16.5483 18.8877V16.3592C17.5466 16.5526 18.0105 16.9602 18.0105 17.6303ZM14.2425 13.0569C14.2425 12.4006 14.7909 11.917 15.5571 11.8756V14.259C14.6995 14.0794 14.2425 13.6649 14.2425 13.0569Z" fill="white"/>
<path d="M18.667 7.33325C18.667 4.01954 21.3533 1.33325 24.667 1.33325C27.9807 1.33325 30.667 4.01954 30.667 7.33325C30.667 10.647 27.9807 13.3333 24.667 13.3333C21.3533 13.3333 18.667 10.647 18.667 7.33325Z" fill="url(#paint2_linear_239_7943)"/>
<path d="M21.818 9.66667C22.94 9.66667 23.6331 8.77397 23.6331 7.3241C23.6331 5.865 22.9341 5 21.818 5C20.7049 5 20 5.86807 20 7.32718C20 8.78012 20.6961 9.66667 21.818 9.66667ZM21.818 8.78628C21.3716 8.78628 21.0955 8.29683 21.0955 7.3241C21.0955 6.35752 21.3716 5.88039 21.818 5.88039C22.2645 5.88039 22.5376 6.35444 22.5376 7.32718C22.5376 8.29683 22.2674 8.78628 21.818 8.78628Z" fill="url(#paint3_linear_239_7943)"/>
<path d="M25.1099 7.47801C25.7648 7.47801 26.1878 7.01319 26.1878 6.25286C26.1878 5.48021 25.759 5.03694 25.1099 5.03694C24.4608 5.03694 24.0349 5.48329 24.0349 6.25286C24.0349 7.01627 24.4578 7.47801 25.1099 7.47801ZM25.1099 6.87467C24.916 6.87467 24.778 6.69613 24.778 6.25286C24.778 5.80651 24.916 5.64336 25.1099 5.64336C25.3096 5.64336 25.4418 5.80651 25.4418 6.25286C25.4418 6.69613 25.3066 6.87467 25.1099 6.87467ZM25.6297 9.55585L28.4581 5.1139H27.7415L24.9101 9.55585H25.6297ZM28.2584 9.62973C28.9133 9.62973 29.3333 9.16183 29.3333 8.4015C29.3333 7.62885 28.9075 7.18865 28.2584 7.18865C27.6093 7.18865 27.1805 7.63193 27.1805 8.40457C27.1805 9.16799 27.6063 9.62973 28.2584 9.62973ZM28.2584 9.02331C28.0616 9.02331 27.9265 8.84477 27.9265 8.40457C27.9265 7.95515 28.0616 7.792 28.2584 7.792C28.4552 7.792 28.5903 7.95822 28.5903 8.40457C28.5903 8.84477 28.4552 9.02331 28.2584 9.02331Z" fill="url(#paint4_linear_239_7943)"/>
<path d="M2 14.4821C2 13.9702 2.55299 13.6493 2.99743 13.9033L13.3539 19.8213C14.9936 20.7582 17.0064 20.7582 18.6461 19.8213L29.0026 13.9033C29.447 13.6493 30 13.9702 30 14.4821V26.6667C30 28.1394 28.8061 29.3333 27.3333 29.3333H4.66667C3.19391 29.3333 2 28.1394 2 26.6667V14.4821Z" fill="url(#paint5_linear_239_7943)"/>
<path d="M44.5535 21.9973C47.298 21.9973 49.1069 20.3247 49.1069 17.7681V11.524H49.6293C50.6507 11.524 51.2745 10.9426 51.2745 9.96299V8.31435H49.8321V9.64441C49.8321 10.0984 49.6137 10.3134 49.1537 10.3134H47.3682V17.6168C47.3682 19.3371 46.2766 20.4123 44.5535 20.4123C42.8381 20.4123 41.7465 19.3292 41.7465 17.6168V10.3134H40V17.7681C40 20.3247 41.8089 21.9973 44.5535 21.9973ZM45.2552 9.39751L47.1031 7.04004H45.3799L44.0311 9.39751H45.2552Z" fill="white"/>
<path d="M51.7784 21.8061H53.4626V16.9239C53.4626 15.6257 54.2267 14.7655 55.4118 14.7655C56.5814 14.7655 57.1584 15.4585 57.1584 16.7168V21.8061H58.8503V16.3823C58.8503 14.4629 57.8133 13.2842 56.0044 13.2842C54.7413 13.2842 53.868 13.8735 53.4236 14.8293H53.3846V13.4275H51.7784V21.8061Z" fill="white"/>
<path d="M64.087 20.4123C62.7927 20.4123 61.9506 19.3451 61.9506 17.5929C61.9506 15.8487 62.7927 14.7417 64.087 14.7417C65.4047 14.7417 66.2702 15.8726 66.2702 17.5929C66.2702 19.3212 65.4047 20.4123 64.087 20.4123ZM64.1026 24.96C66.4417 24.96 67.9544 23.6539 67.9544 21.6548V13.4275H66.317V14.8611H66.2858C65.7868 13.8895 64.8355 13.2921 63.6738 13.2921C61.5686 13.2921 60.2275 14.9487 60.2275 17.585C60.2275 20.1973 61.5764 21.838 63.6348 21.838C64.8044 21.838 65.7712 21.2406 66.2312 20.3327H66.2624V21.7105C66.2624 22.8574 65.4827 23.622 64.165 23.622C63.206 23.622 62.4574 23.1601 62.2157 22.4592H60.5238C60.7343 23.9087 62.169 24.96 64.1026 24.96Z" fill="white"/>
<path d="M80.2835 20.261H75.0439V10.3134H73.2973V21.8061H80.2835V20.261Z" fill="white"/>
<path d="M87.0718 20.3884H87.1108V21.8061H88.7247V14.6302H89.0756C90.0814 14.6302 90.6818 14.0567 90.6818 13.1089V11.5957H89.2471V12.7904C89.2471 13.2204 89.0444 13.4275 88.6 13.4275H87.0406V18.3097C87.0406 19.6159 86.3077 20.4761 85.0913 20.4761C83.9296 20.4761 83.337 19.7911 83.337 18.5168V13.4275H81.6528V18.8513C81.6528 20.7707 82.7444 21.9574 84.5299 21.9574C85.7853 21.9574 86.6195 21.392 87.0718 20.3884Z" fill="white"/>
<path d="M94.7645 20.5477C93.4468 20.5477 92.5892 19.4805 92.5892 17.6168C92.5892 15.7611 93.4468 14.6939 94.7645 14.6939C96.09 14.6939 96.9399 15.7611 96.9399 17.6168C96.9399 19.4805 96.09 20.5477 94.7645 20.5477ZM98.6553 17.6726C98.6553 16.4142 98.2966 15.4107 97.6806 14.7018V14.662H97.9379C98.6709 14.662 99.1387 14.1364 99.1387 13.3399V11.7789H97.7118V12.862C97.7118 13.3718 97.5013 13.555 96.8931 13.555C96.1992 13.555 95.8171 13.2762 94.7645 13.2762C92.4254 13.2762 90.8738 14.9328 90.8738 17.6168C90.8738 20.3088 92.4098 21.9654 94.7801 21.9654C97.0959 21.9654 98.6553 20.2929 98.6553 17.6726Z" fill="white"/>
<path d="M100.633 21.8061H102.317V16.9239C102.317 15.6257 103.081 14.7655 104.266 14.7655C105.436 14.7655 106.013 15.4585 106.013 16.7168V21.8061H107.705V16.3823C107.705 14.4629 106.668 13.2842 104.859 13.2842C103.596 13.2842 102.722 13.8735 102.278 14.8293H102.239V13.4275H100.633V21.8061Z" fill="white"/>
<path d="M112.941 20.4123C111.647 20.4123 110.805 19.3451 110.805 17.5929C110.805 15.8487 111.647 14.7417 112.941 14.7417C114.259 14.7417 115.125 15.8726 115.125 17.5929C115.125 19.3212 114.259 20.4123 112.941 20.4123ZM112.957 24.96C115.296 24.96 116.809 23.6539 116.809 21.6548V13.4275H115.171V14.8611H115.14C114.641 13.8895 113.69 13.2921 112.528 13.2921C110.423 13.2921 109.082 14.9487 109.082 17.585C109.082 20.1973 110.431 21.838 112.489 21.838C113.659 21.838 114.626 21.2406 115.086 20.3327H115.117V21.7105C115.117 22.8574 114.337 23.622 113.019 23.622C112.06 23.622 111.312 23.1601 111.07 22.4592H109.378C109.589 23.9087 111.023 24.96 112.957 24.96Z" fill="white"/>
<path d="M126.105 22.0212C128.81 22.0212 130.401 19.7035 130.401 16.0399C130.401 12.4001 128.795 10.0984 126.105 10.0984C123.415 10.0984 121.793 12.4081 121.793 16.0478C121.793 19.7115 123.391 22.0212 126.105 22.0212ZM126.105 20.5238C124.475 20.5238 123.563 18.8274 123.563 16.0478C123.563 13.3081 124.499 11.5957 126.105 11.5957C127.711 11.5957 128.639 13.3001 128.639 16.0478C128.639 18.8354 127.727 20.5238 126.105 20.5238Z" fill="white"/>
<path d="M134.031 15.785C135.529 15.785 136.511 14.67 136.511 12.9735C136.511 11.2612 135.521 10.1621 134.031 10.1621C132.542 10.1621 131.544 11.2612 131.544 12.9735C131.544 14.6779 132.542 15.785 134.031 15.785ZM134.031 14.6939C133.291 14.6939 132.792 14.0487 132.792 12.9735C132.792 11.8983 133.291 11.2612 134.031 11.2612C134.78 11.2612 135.271 11.8983 135.271 12.9735C135.271 14.0487 134.772 14.6939 134.031 14.6939ZM134.531 21.8061L142.281 10.3134H140.869L133.104 21.8061H134.531ZM141.361 21.9495C142.85 21.9495 143.84 20.8345 143.84 19.138C143.84 17.4257 142.85 16.3266 141.361 16.3266C139.871 16.3266 138.873 17.4257 138.873 19.138C138.873 20.8424 139.864 21.9495 141.361 21.9495ZM141.361 20.8583C140.62 20.8583 140.113 20.2132 140.113 19.138C140.113 18.0628 140.62 17.4257 141.361 17.4257C142.101 17.4257 142.6 18.0628 142.6 19.138C142.6 20.2132 142.101 20.8583 141.361 20.8583Z" fill="white"/>
<path d="M155.694 20.261H150.454V10.3134H148.708V21.8061H155.694V20.261Z" fill="white"/>
<path d="M159.971 20.5876C159.067 20.5876 158.474 20.1097 158.474 19.377C158.474 18.6602 159.043 18.2062 160.049 18.1345L162.069 18.0071V18.6681C162.069 19.7593 161.149 20.5876 159.971 20.5876ZM159.504 21.9495C160.579 21.9495 161.616 21.3601 162.092 20.4283H162.131V21.8061H163.745V16.0319C163.745 14.3514 162.474 13.2762 160.486 13.2762C158.459 13.2762 157.196 14.3912 157.102 15.9045H158.693C158.841 15.1558 159.449 14.6779 160.424 14.6779C161.453 14.6779 162.069 15.2355 162.069 16.1673V16.8124L159.823 16.9478C157.874 17.0593 156.775 17.9593 156.775 19.4247C156.775 20.93 157.897 21.9495 159.504 21.9495ZM161.344 12.193C162.334 12.193 162.965 11.4205 162.973 10.1143H161.944C161.944 10.8072 161.718 11.1178 161.336 11.1178C160.774 11.1178 160.564 10.0506 159.449 10.0506C158.466 10.0506 157.827 10.8072 157.827 12.1293H158.856C158.856 11.4046 159.09 11.1258 159.433 11.1258C159.979 11.1258 160.236 12.193 161.344 12.193Z" fill="white"/>
<path d="M165.551 21.8061H167.235V13.4275H165.551V21.8061ZM166.393 12.0736C166.931 12.0736 167.36 11.6276 167.36 11.086C167.36 10.5364 166.931 10.0984 166.393 10.0984C165.855 10.0984 165.419 10.5364 165.419 11.086C165.419 11.6276 165.855 12.0736 166.393 12.0736Z" fill="white"/>
<defs>
<linearGradient id="paint0_linear_239_7943" x1="16" y1="3.69531" x2="16" y2="29.3333" gradientUnits="userSpaceOnUse">
<stop stop-color="#B5DBFF"/>
<stop offset="1" stop-color="#76E2F8"/>
</linearGradient>
<linearGradient id="paint1_linear_239_7943" x1="16.0003" y1="6" x2="16.0003" y2="26" gradientUnits="userSpaceOnUse">
<stop stop-color="#00D998"/>
<stop offset="1" stop-color="#00B373"/>
</linearGradient>
<linearGradient id="paint2_linear_239_7943" x1="24.667" y1="1.33325" x2="24.667" y2="13.3333" gradientUnits="userSpaceOnUse">
<stop stop-color="#FFCC00"/>
<stop offset="1" stop-color="#FFF5CC"/>
</linearGradient>
<linearGradient id="paint3_linear_239_7943" x1="24.6667" y1="4.94167" x2="24.6667" y2="9.66667" gradientUnits="userSpaceOnUse">
<stop stop-color="#4560E6"/>
<stop offset="1" stop-color="#262680"/>
</linearGradient>
<linearGradient id="paint4_linear_239_7943" x1="24.6667" y1="4.94167" x2="24.6667" y2="9.66667" gradientUnits="userSpaceOnUse">
<stop stop-color="#4560E6"/>
<stop offset="1" stop-color="#262680"/>
</linearGradient>
<linearGradient id="paint5_linear_239_7943" x1="16" y1="13.6205" x2="16" y2="29.3333" gradientUnits="userSpaceOnUse">
<stop stop-color="#4560E6"/>
<stop offset="1" stop-color="#262680"/>
</linearGradient>
</defs>
</svg>
