<svg width="210" height="40" viewBox="0 0 210 40" fill="none" xmlns="http://www.w3.org/2000/svg">
<path d="M2.615 18.3175C2.615 17.2772 3.12304 16.2965 3.9886 15.6661L17.7504 5.64198C19.6227 4.27819 22.2173 4.27819 24.0896 5.64198L37.8514 15.6661C38.717 16.2965 39.225 17.2772 39.225 18.3175V33.3332C39.225 35.1742 37.664 36.6666 35.7383 36.6666H6.10167C4.17603 36.6666 2.615 35.1742 2.615 33.3332V18.3175Z" fill="url(#paint0_linear_258_9094)"/>
<path d="M6.10167 10.8333C6.10167 8.99238 7.6627 7.5 9.58833 7.5H32.2517C34.1773 7.5 35.7383 8.99238 35.7383 10.8333V29.1667C35.7383 31.0076 34.1773 32.5 32.2517 32.5H9.58833C7.6627 32.5 6.10167 31.0076 6.10167 29.1667V10.8333Z" fill="url(#paint1_linear_258_9094)"/>
<path d="M21.6369 26.6666V25.5526C24.5231 25.3194 26.15 23.955 26.15 21.7616C26.15 19.8876 24.9735 18.7391 22.6204 18.2555L21.6369 18.0742V14.8531C22.6204 14.9826 23.319 15.6562 23.3466 16.4766H25.9018C25.8651 14.4904 24.2106 13.0742 21.6369 12.8583V11.6666H20.3409V12.8496C17.5835 13.0569 15.9657 14.4213 15.9657 16.537C15.9657 18.3332 17.1515 19.5336 19.3666 20.0172L20.3409 20.2331V23.6009C19.1736 23.48 18.3831 22.8237 18.3188 21.9256H15.69C15.6992 24.0413 17.4548 25.4058 20.3409 25.5612V26.6666H21.6369ZM23.5488 22.0379C23.5488 22.9533 22.841 23.5405 21.6369 23.6096V20.4489C22.9421 20.6907 23.5488 21.2002 23.5488 22.0379ZM18.6221 16.3211C18.6221 15.5008 19.3391 14.8963 20.3409 14.8445V17.8237C19.2196 17.5992 18.6221 17.0811 18.6221 16.3211Z" fill="white"/>
<path d="M24.4067 9.16656C24.4067 5.02443 27.919 1.66656 32.2517 1.66656C36.5843 1.66656 40.0967 5.02443 40.0967 9.16656C40.0967 13.3087 36.5843 16.6666 32.2517 16.6666C27.919 16.6666 24.4067 13.3087 24.4067 9.16656Z" fill="url(#paint2_linear_258_9094)"/>
<path d="M28.5271 12.0833C29.994 12.0833 30.9003 10.9675 30.9003 9.15512C30.9003 7.33124 29.9863 6.25 28.5271 6.25C27.0716 6.25 26.15 7.33509 26.15 9.15897C26.15 10.9752 27.0601 12.0833 28.5271 12.0833ZM28.5271 10.9829C27.9434 10.9829 27.5824 10.371 27.5824 9.15512C27.5824 7.9469 27.9434 7.35048 28.5271 7.35048C29.1108 7.35048 29.4679 7.94305 29.4679 9.15897C29.4679 10.371 29.1146 10.9829 28.5271 10.9829Z" fill="url(#paint3_linear_258_9094)"/>
<path d="M32.8311 9.34752C33.6875 9.34752 34.2405 8.76649 34.2405 7.81607C34.2405 6.85026 33.6798 6.29617 32.8311 6.29617C31.9825 6.29617 31.4256 6.85411 31.4256 7.81607C31.4256 8.77034 31.9786 9.34752 32.8311 9.34752ZM32.8311 8.59334C32.5777 8.59334 32.3972 8.37016 32.3972 7.81607C32.3972 7.25814 32.5777 7.0542 32.8311 7.0542C33.0923 7.0542 33.2651 7.25814 33.2651 7.81607C33.2651 8.37016 33.0884 8.59334 32.8311 8.59334ZM33.5109 11.9448L37.209 6.39237H36.272L32.57 11.9448H33.5109ZM36.9478 12.0372C37.8042 12.0372 38.3533 11.4523 38.3533 10.5019C38.3533 9.53606 37.7965 8.98582 36.9478 8.98582C36.0991 8.98582 35.5385 9.53991 35.5385 10.5057C35.5385 11.46 36.0953 12.0372 36.9478 12.0372ZM36.9478 11.2791C36.6905 11.2791 36.5139 11.056 36.5139 10.5057C36.5139 9.94393 36.6905 9.74 36.9478 9.74C37.2051 9.74 37.3818 9.94778 37.3818 10.5057C37.3818 11.056 37.2051 11.2791 36.9478 11.2791Z" fill="url(#paint4_linear_258_9094)"/>
<path d="M2.615 18.1026C2.615 17.4628 3.33803 17.0616 3.91913 17.3791L17.4603 24.7766C19.6041 25.9478 22.2359 25.9478 24.3797 24.7766L37.9209 17.3791C38.502 17.0616 39.225 17.4628 39.225 18.1026V33.3333C39.225 35.1743 37.664 36.6667 35.7383 36.6667H6.10167C4.17603 36.6667 2.615 35.1743 2.615 33.3333V18.1026Z" fill="url(#paint5_linear_258_9094)"/>
<path d="M56.6285 28.0806C60.5047 28.0806 63.0491 25.8753 63.0491 22.5098V14.5143H63.9044C65.3769 14.5143 66.2648 13.7199 66.2648 12.3821V10.0723H64.0452V11.8909C64.0452 12.4657 63.742 12.7375 63.1357 12.7375H60.2665V22.2694C60.2665 24.4016 58.8698 25.7185 56.6285 25.7185C54.3981 25.7185 53.0014 24.4016 53.0014 22.2694V12.7375H50.208V22.5098C50.208 25.8753 52.7632 28.0806 56.6285 28.0806ZM57.6788 11.5355L60.2015 8.4H57.5922L55.784 11.5355H57.6788Z" fill="white"/>
<path d="M66.4246 27.8193H69.1206V21.4019C69.1206 19.8133 70.1059 18.7368 71.6542 18.7368C73.1916 18.7368 73.9496 19.6147 73.9496 21.1825V27.8193H76.6455V20.6599C76.6455 18.0992 75.2055 16.5314 72.6719 16.5314C70.9071 16.5314 69.6836 17.3258 69.0665 18.6427H69.0123V16.7405H66.4246V27.8193Z" fill="white"/>
<path d="M83.475 25.7603C81.7751 25.7603 80.6924 24.4434 80.6924 22.2485C80.6924 20.0746 81.7751 18.695 83.475 18.695C85.1965 18.695 86.3117 20.0955 86.3117 22.2485C86.3117 24.412 85.1965 25.7603 83.475 25.7603ZM83.4641 32C86.8097 32 89.0077 30.2859 89.0077 27.6416V16.7405H86.3658V18.6427H86.3225C85.6621 17.3676 84.3411 16.5523 82.7062 16.5523C79.772 16.5523 77.9314 18.7368 77.9314 22.2381C77.9314 25.6872 79.8154 27.8298 82.6521 27.8298C84.2978 27.8298 85.6512 27.0354 86.2467 25.8439H86.3117V27.7148C86.3117 29.1258 85.3048 30.0769 83.5508 30.0769C82.2731 30.0769 81.2879 29.502 80.9955 28.6554H78.3212C78.5919 30.5995 80.6274 32 83.4641 32Z" fill="white"/>
<path d="M94.9142 27.8193H97.6102V12.7375H94.9142V27.8193Z" fill="white"/>
<path d="M107.027 25.8962H107.081V27.8193H109.68V18.4964H110.351C111.802 18.4964 112.658 17.7229 112.658 16.4165V14.3366H110.46V15.9252C110.46 16.4687 110.167 16.7405 109.583 16.7405H106.984V23.1474C106.984 24.757 106.02 25.823 104.461 25.823C102.945 25.823 102.144 24.966 102.144 23.3773V16.7405H99.4483V23.8999C99.4483 26.4606 101.029 28.0179 103.519 28.0179C105.263 28.0179 106.421 27.2445 107.027 25.8962Z" fill="white"/>
<path d="M118.014 25.9798C116.293 25.9798 115.199 24.6315 115.199 22.2799C115.199 19.9387 116.304 18.58 118.014 18.58C119.725 18.58 120.83 19.9387 120.83 22.2799C120.83 24.6211 119.736 25.9798 118.014 25.9798ZM123.569 22.4053C123.569 20.7853 123.071 19.4893 122.237 18.5904V18.5382H122.594C123.71 18.5382 124.381 17.8379 124.381 16.7091V14.577H122.183V16.0193C122.183 16.6673 121.88 16.9077 121.035 16.9077C120.061 16.9077 119.509 16.5105 118.014 16.5105C114.647 16.5105 112.46 18.7159 112.46 22.2799C112.46 25.8544 114.636 28.0388 118.047 28.0388C121.338 28.0388 123.569 25.8335 123.569 22.4053Z" fill="white"/>
<path d="M125.872 27.8193H128.568V21.4019C128.568 19.8133 129.554 18.7368 131.102 18.7368C132.639 18.7368 133.397 19.6147 133.397 21.1825V27.8193H136.093V20.6599C136.093 18.0992 134.653 16.5314 132.12 16.5314C130.355 16.5314 129.131 17.3258 128.514 18.6427H128.46V16.7405H125.872V27.8193Z" fill="white"/>
<path d="M142.923 25.7603C141.223 25.7603 140.14 24.4434 140.14 22.2485C140.14 20.0746 141.223 18.695 142.923 18.695C144.644 18.695 145.759 20.0955 145.759 22.2485C145.759 24.412 144.644 25.7603 142.923 25.7603ZM142.912 32C146.258 32 148.455 30.2859 148.455 27.6416V16.7405H145.814V18.6427H145.77C145.11 17.3676 143.789 16.5523 142.154 16.5523C139.22 16.5523 137.379 18.7368 137.379 22.2381C137.379 25.6872 139.263 27.8298 142.1 27.8298C143.746 27.8298 145.099 27.0354 145.695 25.8439H145.759V27.7148C145.759 29.1258 144.753 30.0769 142.999 30.0769C141.721 30.0769 140.736 29.502 140.443 28.6554H137.769C138.04 30.5995 140.075 32 142.912 32Z" fill="white"/>
<path d="M160.263 28.1224C164.107 28.1224 166.391 25.081 166.391 20.2523C166.391 15.4236 164.085 12.4344 160.263 12.4344C156.43 12.4344 154.113 15.4445 154.113 20.2627C154.113 25.1019 156.408 28.1224 160.263 28.1224ZM160.263 25.9171C158.141 25.9171 156.928 23.8267 156.928 20.2523C156.928 16.7405 158.162 14.6397 160.263 14.6397C162.353 14.6397 163.576 16.73 163.576 20.2627C163.576 23.8372 162.374 25.9171 160.263 25.9171Z" fill="white"/>
<path d="M170.979 20.1164C173.134 20.1164 174.552 18.6322 174.552 16.312C174.552 13.9812 173.123 12.5284 170.979 12.5284C168.835 12.5284 167.406 13.9812 167.406 16.3224C167.406 18.6322 168.825 20.1164 170.979 20.1164ZM170.979 18.5382C170.026 18.5382 169.377 17.7438 169.377 16.3224C169.377 14.8801 170.026 14.1171 170.979 14.1171C171.943 14.1171 172.582 14.8801 172.582 16.3224C172.582 17.7438 171.943 18.5382 170.979 18.5382ZM171.954 27.8193L182.651 12.7375H180.518L169.821 27.8193H171.954ZM181.493 28.0179C183.647 28.0179 185.055 26.5337 185.055 24.2135C185.055 21.8827 183.636 20.4299 181.493 20.4299C179.349 20.4299 177.92 21.8827 177.92 24.2239C177.92 26.5337 179.338 28.0179 181.493 28.0179ZM181.493 26.4397C180.54 26.4397 179.879 25.6453 179.879 24.2239C179.879 22.7816 180.54 22.0186 181.493 22.0186C182.456 22.0186 183.095 22.7816 183.095 24.2239C183.095 25.6453 182.445 26.4397 181.493 26.4397Z" fill="white"/>
<path d="M190.355 27.8193H193.051V12.7375H190.355V27.8193Z" fill="white"/>
<path d="M199.133 26.0321C197.964 26.0321 197.184 25.4572 197.184 24.5479C197.184 23.67 197.931 23.1056 199.231 23.022L201.883 22.8652V23.7118C201.883 25.0496 200.66 26.0321 199.133 26.0321ZM198.321 27.997C199.794 27.997 201.234 27.2549 201.894 26.053H201.948V27.8193H204.547V20.1895C204.547 17.9633 202.695 16.5105 199.848 16.5105C196.924 16.5105 195.095 17.9947 194.976 20.0641H197.477C197.65 19.1444 198.462 18.5486 199.74 18.5486C201.071 18.5486 201.883 19.2175 201.883 20.3777V21.172L198.852 21.3392C196.058 21.5065 194.488 22.6875 194.488 24.6524C194.488 26.6487 196.102 27.997 198.321 27.997ZM201.093 15.1518C202.49 15.1518 203.421 14.1171 203.432 12.3403H201.883C201.883 13.2182 201.58 13.6259 201.039 13.6259C200.27 13.6259 199.934 12.2567 198.365 12.2567C196.979 12.2567 196.047 13.2496 196.047 15.0682H197.596C197.596 14.1589 197.921 13.7826 198.408 13.7826C199.166 13.7826 199.545 15.1518 201.093 15.1518Z" fill="white"/>
<path d="M206.385 27.8193H209.081V16.7405H206.385V27.8193ZM207.717 15.0682C208.55 15.0682 209.2 14.4306 209.2 13.6572C209.2 12.8733 208.55 12.2462 207.717 12.2462C206.905 12.2462 206.244 12.8733 206.244 13.6572C206.244 14.4306 206.905 15.0682 207.717 15.0682Z" fill="white"/>
<defs>
<linearGradient id="paint0_linear_258_9094" x1="20.92" y1="4.61914" x2="20.92" y2="36.6666" gradientUnits="userSpaceOnUse">
<stop stop-color="#B5DBFF"/>
<stop offset="1" stop-color="#76E2F8"/>
</linearGradient>
<linearGradient id="paint1_linear_258_9094" x1="20.92" y1="7.5" x2="20.92" y2="32.5" gradientUnits="userSpaceOnUse">
<stop stop-color="#00D998"/>
<stop offset="1" stop-color="#00B373"/>
</linearGradient>
<linearGradient id="paint2_linear_258_9094" x1="32.2517" y1="1.66656" x2="32.2517" y2="16.6666" gradientUnits="userSpaceOnUse">
<stop stop-color="#FFCC00"/>
<stop offset="1" stop-color="#FFF5CC"/>
</linearGradient>
<linearGradient id="paint3_linear_258_9094" x1="32.2517" y1="6.17708" x2="32.2517" y2="12.0833" gradientUnits="userSpaceOnUse">
<stop stop-color="#4560E6"/>
<stop offset="1" stop-color="#262680"/>
</linearGradient>
<linearGradient id="paint4_linear_258_9094" x1="32.2517" y1="6.17708" x2="32.2517" y2="12.0833" gradientUnits="userSpaceOnUse">
<stop stop-color="#4560E6"/>
<stop offset="1" stop-color="#262680"/>
</linearGradient>
<linearGradient id="paint5_linear_258_9094" x1="20.92" y1="17.0256" x2="20.92" y2="36.6667" gradientUnits="userSpaceOnUse">
<stop stop-color="#4560E6"/>
<stop offset="1" stop-color="#262680"/>
</linearGradient>
</defs>
</svg>
