<svg width="210" height="40" viewBox="0 0 210 40" fill="none" xmlns="http://www.w3.org/2000/svg">
<path d="M2.90039 18.3175C2.90039 17.2772 3.38609 16.2965 4.21358 15.6661L17.3702 5.64198C19.1601 4.27819 21.6406 4.27819 23.4306 5.64198L36.5872 15.6661C37.4147 16.2965 37.9004 17.2772 37.9004 18.3175V33.3332C37.9004 35.1742 36.408 36.6666 34.5671 36.6666H6.23372C4.39277 36.6666 2.90039 35.1742 2.90039 33.3332V18.3175Z" fill="url(#paint0_linear_236_15202)"/>
<path d="M6.2334 10.8333C6.2334 8.99238 7.72578 7.5 9.56673 7.5H31.2334C33.0743 7.5 34.5667 8.99238 34.5667 10.8333V29.1667C34.5667 31.0076 33.0743 32.5 31.2334 32.5H9.56673C7.72578 32.5 6.2334 31.0076 6.2334 29.1667V10.8333Z" fill="url(#paint1_linear_236_15202)"/>
<path d="M21.0858 26.6665V25.5525C23.845 25.3194 25.4004 23.9549 25.4004 21.7615C25.4004 19.8876 24.2756 18.739 22.026 18.2554L21.0858 18.0741V14.853C22.026 14.9826 22.6939 15.6561 22.7202 16.4765H25.1631C25.128 14.4903 23.5463 13.0741 21.0858 12.8582V11.6665H19.8468V12.8496C17.2106 13.0568 15.664 14.4213 15.664 16.537C15.664 18.3332 16.7976 19.5335 18.9153 20.0171L19.8468 20.233V23.6009C18.7308 23.48 17.9751 22.8237 17.9136 21.9256H15.4004C15.4092 24.0413 17.0876 25.4057 19.8468 25.5611V26.6665H21.0858ZM22.9136 22.0378C22.9136 22.9532 22.2369 23.5404 21.0858 23.6095V20.4489C22.3336 20.6907 22.9136 21.2002 22.9136 22.0378ZM18.2036 16.3211C18.2036 15.5007 18.889 14.8962 19.8468 14.8444V17.8237C18.7747 17.5991 18.2036 17.081 18.2036 16.3211Z" fill="white"/>
<path d="M23.7334 9.1665C23.7334 5.02437 27.0913 1.6665 31.2334 1.6665C35.3755 1.6665 38.7334 5.02437 38.7334 9.1665C38.7334 13.3086 35.3755 16.6665 31.2334 16.6665C27.0913 16.6665 23.7334 13.3086 23.7334 9.1665Z" fill="url(#paint2_linear_236_15202)"/>
<path d="M27.6729 12.0833C29.0754 12.0833 29.9418 10.9675 29.9418 9.15512C29.9418 7.33124 29.068 6.25 27.6729 6.25C26.2815 6.25 25.4004 7.33509 25.4004 9.15897C25.4004 10.9752 26.2705 12.0833 27.6729 12.0833ZM27.6729 10.9829C27.1149 10.9829 26.7698 10.371 26.7698 9.15512C26.7698 7.9469 27.1149 7.35048 27.6729 7.35048C28.231 7.35048 28.5724 7.94305 28.5724 9.15897C28.5724 10.371 28.2346 10.9829 27.6729 10.9829Z" fill="url(#paint3_linear_236_15202)"/>
<path d="M31.7877 9.34752C32.6064 9.34752 33.1351 8.76649 33.1351 7.81607C33.1351 6.85026 32.5991 6.29617 31.7877 6.29617C30.9764 6.29617 30.444 6.85411 30.444 7.81607C30.444 8.77034 30.9727 9.34752 31.7877 9.34752ZM31.7877 8.59334C31.5454 8.59334 31.3729 8.37016 31.3729 7.81607C31.3729 7.25814 31.5454 7.0542 31.7877 7.0542C32.0374 7.0542 32.2026 7.25814 32.2026 7.81607C32.2026 8.37016 32.0337 8.59334 31.7877 8.59334ZM32.4375 11.9448L35.973 6.39237H35.0772L31.5381 11.9448H32.4375ZM35.7234 12.0372C36.5421 12.0372 37.0671 11.4523 37.0671 10.5019C37.0671 9.53606 36.5347 8.98582 35.7234 8.98582C34.912 8.98582 34.376 9.53991 34.376 10.5057C34.376 11.46 34.9083 12.0372 35.7234 12.0372ZM35.7234 11.2791C35.4774 11.2791 35.3085 11.056 35.3085 10.5057C35.3085 9.94393 35.4774 9.74 35.7234 9.74C35.9693 9.74 36.1382 9.94778 36.1382 10.5057C36.1382 11.056 35.9693 11.2791 35.7234 11.2791Z" fill="url(#paint4_linear_236_15202)"/>
<path d="M2.90039 18.1026C2.90039 17.4628 3.59163 17.0616 4.14717 17.3791L17.0928 24.7766C19.1423 25.9478 21.6584 25.9478 23.708 24.7766L36.6536 17.3791C37.2092 17.0616 37.9004 17.4628 37.9004 18.1026V33.3333C37.9004 35.1743 36.408 36.6667 34.5671 36.6667H6.23372C4.39277 36.6667 2.90039 35.1743 2.90039 33.3333V18.1026Z" fill="url(#paint5_linear_236_15202)"/>
<path d="M56.0922 27.4966C59.5229 27.4966 61.7841 25.4059 61.7841 22.2102V14.405H62.4371C63.7138 14.405 64.4935 13.6783 64.4935 12.4537V10.3929H62.6905V12.0555C62.6905 12.623 62.4176 12.8918 61.8425 12.8918H59.6106V22.021C59.6106 24.1714 58.2462 25.5154 56.0922 25.5154C53.948 25.5154 52.5836 24.1615 52.5836 22.021V12.8918H50.4004V22.2102C50.4004 25.4059 52.6615 27.4966 56.0922 27.4966ZM56.9694 11.7469L59.2793 8.80005H57.1253L55.4392 11.7469H56.9694Z" fill="#1A2C58"/>
<path d="M65.1234 27.2576H67.2286V21.1549C67.2286 19.5321 68.1837 18.4569 69.6652 18.4569C71.1271 18.4569 71.8483 19.3231 71.8483 20.896V27.2576H73.9633V20.4779C73.9633 18.0786 72.667 16.6052 70.4059 16.6052C68.827 16.6052 67.7354 17.3419 67.1799 18.5366H67.1311V16.7844H65.1234V27.2576Z" fill="#1A2C58"/>
<path d="M80.5092 25.5154C78.8913 25.5154 77.8387 24.1814 77.8387 21.9912C77.8387 19.8109 78.8913 18.4271 80.5092 18.4271C82.1563 18.4271 83.2381 19.8408 83.2381 21.9912C83.2381 24.1515 82.1563 25.5154 80.5092 25.5154ZM80.5287 31.2C83.4525 31.2 85.3433 29.5673 85.3433 27.0685V16.7844H83.2966V18.5764H83.2576C82.6339 17.3618 81.4448 16.6152 79.9926 16.6152C77.3611 16.6152 75.6848 18.6859 75.6848 21.9812C75.6848 25.2466 77.3709 27.2975 79.9439 27.2975C81.4058 27.2975 82.6144 26.5508 83.1894 25.4159H83.2284V27.1382C83.2284 28.5718 82.2538 29.5275 80.6066 29.5275C79.4078 29.5275 78.4722 28.9501 78.1701 28.074H76.0551C76.3183 29.8859 78.1116 31.2 80.5287 31.2Z" fill="#1A2C58"/>
<path d="M100.755 25.3263H94.2052V12.8918H92.022V27.2576H100.755V25.3263Z" fill="#1A2C58"/>
<path d="M109.24 25.4856H109.289V27.2576H111.306V18.2877H111.745C113.002 18.2877 113.753 17.5709 113.753 16.3862V14.4946H111.959V15.988C111.959 16.5256 111.706 16.7844 111.15 16.7844H109.201V22.8872C109.201 24.5199 108.285 25.5951 106.765 25.5951C105.312 25.5951 104.572 24.7389 104.572 23.146V16.7844H102.466V23.5641C102.466 25.9634 103.831 27.4468 106.063 27.4468C107.632 27.4468 108.675 26.74 109.24 25.4856Z" fill="#1A2C58"/>
<path d="M118.856 25.6847C117.209 25.6847 116.137 24.3506 116.137 22.021C116.137 19.7014 117.209 18.3673 118.856 18.3673C120.513 18.3673 121.575 19.7014 121.575 22.021C121.575 24.3506 120.513 25.6847 118.856 25.6847ZM123.719 22.0907C123.719 20.5177 123.271 19.2633 122.501 18.3773V18.3275H122.823C123.739 18.3275 124.324 17.6704 124.324 16.6749V14.7236H122.54V16.0776C122.54 16.7147 122.277 16.9437 121.517 16.9437C120.649 16.9437 120.172 16.5952 118.856 16.5952C115.932 16.5952 113.993 18.666 113.993 22.021C113.993 25.386 115.913 27.4568 118.876 27.4568C121.77 27.4568 123.719 25.3661 123.719 22.0907Z" fill="#1A2C58"/>
<path d="M126.191 27.2576H128.297V21.1549C128.297 19.5321 129.252 18.4569 130.733 18.4569C132.195 18.4569 132.916 19.3231 132.916 20.896V27.2576H135.031V20.4779C135.031 18.0786 133.735 16.6052 131.474 16.6052C129.895 16.6052 128.803 17.3419 128.248 18.5366H128.199V16.7844H126.191V27.2576Z" fill="#1A2C58"/>
<path d="M141.577 25.5154C139.959 25.5154 138.907 24.1814 138.907 21.9912C138.907 19.8109 139.959 18.4271 141.577 18.4271C143.224 18.4271 144.306 19.8408 144.306 21.9912C144.306 24.1515 143.224 25.5154 141.577 25.5154ZM141.597 31.2C144.521 31.2 146.411 29.5673 146.411 27.0685V16.7844H144.365V18.5764H144.326C143.702 17.3618 142.513 16.6152 141.061 16.6152C138.429 16.6152 136.753 18.6859 136.753 21.9812C136.753 25.2466 138.439 27.2975 141.012 27.2975C142.474 27.2975 143.682 26.5508 144.257 25.4159H144.296V27.1382C144.296 28.5718 143.322 29.5275 141.675 29.5275C140.476 29.5275 139.54 28.9501 139.238 28.074H137.123C137.386 29.8859 139.18 31.2 141.597 31.2Z" fill="#1A2C58"/>
<path d="M158.031 27.5264C161.413 27.5264 163.402 24.6294 163.402 20.0498C163.402 15.5001 161.394 12.623 158.031 12.623C154.669 12.623 152.642 15.5101 152.642 20.0598C152.642 24.6393 154.64 27.5264 158.031 27.5264ZM158.031 25.6548C155.994 25.6548 154.854 23.5343 154.854 20.0598C154.854 16.6351 156.024 14.4946 158.031 14.4946C160.039 14.4946 161.199 16.6251 161.199 20.0598C161.199 23.5442 160.059 25.6548 158.031 25.6548Z" fill="#1A2C58"/>
<path d="M167.94 19.7312C169.811 19.7312 171.039 18.3375 171.039 16.2169C171.039 14.0765 169.801 12.7026 167.94 12.7026C166.078 12.7026 164.831 14.0765 164.831 16.2169C164.831 18.3474 166.078 19.7312 167.94 19.7312ZM167.94 18.3673C167.014 18.3673 166.39 17.5609 166.39 16.2169C166.39 14.8729 167.014 14.0765 167.94 14.0765C168.875 14.0765 169.489 14.8729 169.489 16.2169C169.489 17.5609 168.866 18.3673 167.94 18.3673ZM168.564 27.2576L178.251 12.8918H176.487L166.78 27.2576H168.564ZM177.101 27.4368C178.963 27.4368 180.201 26.0431 180.201 23.9225C180.201 21.7821 178.963 20.4082 177.101 20.4082C175.24 20.4082 173.992 21.7821 173.992 23.9225C173.992 26.053 175.23 27.4368 177.101 27.4368ZM177.101 26.0729C176.175 26.0729 175.542 25.2665 175.542 23.9225C175.542 22.5785 176.175 21.7821 177.101 21.7821C178.027 21.7821 178.651 22.5785 178.651 23.9225C178.651 25.2665 178.027 26.0729 177.101 26.0729Z" fill="#1A2C58"/>
<path d="M195.017 25.3263H188.468V12.8918H186.285V27.2576H195.017V25.3263Z" fill="#1A2C58"/>
<path d="M200.365 25.7344C199.234 25.7344 198.493 25.1371 198.493 24.2212C198.493 23.3252 199.205 22.7577 200.462 22.6681L202.986 22.5088V23.3352C202.986 24.6991 201.836 25.7344 200.365 25.7344ZM199.78 27.4368C201.125 27.4368 202.421 26.7001 203.016 25.5353H203.064V27.2576H205.082V20.0399C205.082 17.9392 203.493 16.5952 201.008 16.5952C198.474 16.5952 196.895 17.989 196.778 19.8806H198.766C198.951 18.9448 199.712 18.3474 200.93 18.3474C202.216 18.3474 202.986 19.0443 202.986 20.2091V21.0155L200.179 21.1848C197.743 21.3241 196.369 22.4491 196.369 24.2809C196.369 26.1625 197.772 27.4368 199.78 27.4368ZM202.08 15.2413C203.318 15.2413 204.107 14.2756 204.117 12.6429H202.83C202.83 13.509 202.548 13.8973 202.07 13.8973C201.368 13.8973 201.105 12.5632 199.712 12.5632C198.484 12.5632 197.684 13.509 197.684 15.1616H198.971C198.971 14.2557 199.263 13.9072 199.692 13.9072C200.374 13.9072 200.696 15.2413 202.08 15.2413Z" fill="#1A2C58"/>
<path d="M207.339 27.2576H209.444V16.7844H207.339V27.2576ZM208.392 15.092C209.064 15.092 209.6 14.5344 209.6 13.8575C209.6 13.1705 209.064 12.623 208.392 12.623C207.719 12.623 207.174 13.1705 207.174 13.8575C207.174 14.5344 207.719 15.092 208.392 15.092Z" fill="#1A2C58"/>
<defs>
<linearGradient id="paint0_linear_236_15202" x1="20.4004" y1="4.61914" x2="20.4004" y2="36.6666" gradientUnits="userSpaceOnUse">
<stop stop-color="#B5DBFF"/>
<stop offset="1" stop-color="#76E2F8"/>
</linearGradient>
<linearGradient id="paint1_linear_236_15202" x1="20.4001" y1="7.5" x2="20.4001" y2="32.5" gradientUnits="userSpaceOnUse">
<stop stop-color="#00D998"/>
<stop offset="1" stop-color="#00B373"/>
</linearGradient>
<linearGradient id="paint2_linear_236_15202" x1="31.2334" y1="1.6665" x2="31.2334" y2="16.6665" gradientUnits="userSpaceOnUse">
<stop stop-color="#FFCC00"/>
<stop offset="1" stop-color="#FFF5CC"/>
</linearGradient>
<linearGradient id="paint3_linear_236_15202" x1="31.2337" y1="6.17708" x2="31.2337" y2="12.0833" gradientUnits="userSpaceOnUse">
<stop stop-color="#4560E6"/>
<stop offset="1" stop-color="#262680"/>
</linearGradient>
<linearGradient id="paint4_linear_236_15202" x1="31.2337" y1="6.17708" x2="31.2337" y2="12.0833" gradientUnits="userSpaceOnUse">
<stop stop-color="#4560E6"/>
<stop offset="1" stop-color="#262680"/>
</linearGradient>
<linearGradient id="paint5_linear_236_15202" x1="20.4004" y1="17.0256" x2="20.4004" y2="36.6667" gradientUnits="userSpaceOnUse">
<stop stop-color="#4560E6"/>
<stop offset="1" stop-color="#262680"/>
</linearGradient>
</defs>
</svg>
