<svg width="48" height="48" viewBox="0 0 48 48" fill="none" xmlns="http://www.w3.org/2000/svg">
<path d="M3 21.9811C3 20.7327 3.58283 19.5559 4.57583 18.7994L20.3637 6.77048C22.5117 5.13394 25.4883 5.13394 27.6363 6.77048L43.4242 18.7994C44.4172 19.5559 45 20.7327 45 21.9811V40C45 42.2091 43.2091 44 41 44H7C4.79086 44 3 42.2091 3 40V21.9811Z" fill="url(#paint0_linear_2_523)"/>
<path d="M7 13C7 10.7909 8.79086 9 11 9H37C39.2091 9 41 10.7909 41 13V35C41 37.2091 39.2091 39 37 39H11C8.79086 39 7 37.2091 7 35V13Z" fill="url(#paint1_linear_2_523)"/>
<path d="M24.8225 32V30.6632C28.1336 30.3834 30 28.7461 30 26.114C30 23.8653 28.6503 22.487 25.9508 21.9067L24.8225 21.6891V17.8238C25.9508 17.9793 26.7522 18.7876 26.7838 19.772H29.7153C29.6731 17.3886 27.775 15.6891 24.8225 15.4301V14H23.3357V15.4197C20.1722 15.6684 18.3163 17.3057 18.3163 19.8446C18.3163 22 19.6766 23.4404 22.2179 24.0207L23.3357 24.2798V28.3212C21.9965 28.1762 21.0896 27.3886 21.0158 26.3109H18C18.0105 28.8497 20.0246 30.487 23.3357 30.6736V32H24.8225ZM27.0158 26.4456C27.0158 27.544 26.2039 28.2487 24.8225 28.3316V24.5389C26.3199 24.829 27.0158 25.4404 27.0158 26.4456ZM21.3638 19.5855C21.3638 18.601 22.1863 17.8756 23.3357 17.8135V21.3886C22.0492 21.1192 21.3638 20.4974 21.3638 19.5855Z" fill="white"/>
<path d="M28 11C28 6.02944 32.0294 2 37 2C41.9706 2 46 6.02944 46 11C46 15.9706 41.9706 20 37 20C32.0294 20 28 15.9706 28 11Z" fill="url(#paint2_linear_2_523)"/>
<path d="M32.727 14.5C34.41 14.5 35.4497 13.161 35.4497 10.9861C35.4497 8.79749 34.4012 7.5 32.727 7.5C31.0573 7.5 30 8.80211 30 10.9908C30 13.1702 31.0441 14.5 32.727 14.5ZM32.727 13.1794C32.0574 13.1794 31.6433 12.4453 31.6433 10.9861C31.6433 9.53628 32.0574 8.82058 32.727 8.82058C33.3967 8.82058 33.8064 9.53166 33.8064 10.9908C33.8064 12.4453 33.4011 13.1794 32.727 13.1794Z" fill="url(#paint3_linear_2_523)"/>
<path d="M37.6648 11.217C38.6472 11.217 39.2816 10.5198 39.2816 9.37929C39.2816 8.22032 38.6384 7.55541 37.6648 7.55541C36.6912 7.55541 36.0524 8.22493 36.0524 9.37929C36.0524 10.5244 36.6868 11.217 37.6648 11.217ZM37.6648 10.312C37.374 10.312 37.167 10.0442 37.167 9.37929C37.167 8.70976 37.374 8.46504 37.6648 8.46504C37.9644 8.46504 38.1626 8.70976 38.1626 9.37929C38.1626 10.0442 37.96 10.312 37.6648 10.312ZM38.4446 14.3338L42.6871 7.67084H41.6122L37.3652 14.3338H38.4446ZM42.3876 14.4446C43.37 14.4446 44 13.7427 44 12.6022C44 11.4433 43.3612 10.783 42.3876 10.783C41.4139 10.783 40.7707 11.4479 40.7707 12.6069C40.7707 13.752 41.4095 14.4446 42.3876 14.4446ZM42.3876 13.535C42.0924 13.535 41.8897 13.2672 41.8897 12.6069C41.8897 11.9327 42.0924 11.688 42.3876 11.688C42.6827 11.688 42.8854 11.9373 42.8854 12.6069C42.8854 13.2672 42.6827 13.535 42.3876 13.535Z" fill="url(#paint4_linear_2_523)"/>
<path d="M3 21.7232C3 20.9554 3.82948 20.474 4.49614 20.8549L20.0309 29.7319C22.4903 31.1373 25.5097 31.1373 27.9691 29.7319L43.5039 20.8549C44.1705 20.474 45 20.9554 45 21.7232V40C45 42.2091 43.2091 44 41 44H7C4.79086 44 3 42.2091 3 40V21.7232Z" fill="url(#paint5_linear_2_523)"/>
<defs>
<linearGradient id="paint0_linear_2_523" x1="24" y1="5.54307" x2="24" y2="44" gradientUnits="userSpaceOnUse">
<stop stop-color="#B5DBFF"/>
<stop offset="1" stop-color="#76E2F8"/>
</linearGradient>
<linearGradient id="paint1_linear_2_523" x1="24" y1="9" x2="24" y2="39" gradientUnits="userSpaceOnUse">
<stop stop-color="#00D998"/>
<stop offset="1" stop-color="#00B373"/>
</linearGradient>
<linearGradient id="paint2_linear_2_523" x1="37" y1="2" x2="37" y2="20" gradientUnits="userSpaceOnUse">
<stop stop-color="#FFCC00"/>
<stop offset="1" stop-color="#FFF5CC"/>
</linearGradient>
<linearGradient id="paint3_linear_2_523" x1="37" y1="7.4125" x2="37" y2="14.5" gradientUnits="userSpaceOnUse">
<stop stop-color="#4560E6"/>
<stop offset="1" stop-color="#262680"/>
</linearGradient>
<linearGradient id="paint4_linear_2_523" x1="37" y1="7.4125" x2="37" y2="14.5" gradientUnits="userSpaceOnUse">
<stop stop-color="#4560E6"/>
<stop offset="1" stop-color="#262680"/>
</linearGradient>
<linearGradient id="paint5_linear_2_523" x1="24" y1="20.4307" x2="24" y2="44" gradientUnits="userSpaceOnUse">
<stop stop-color="#4560E6"/>
<stop offset="1" stop-color="#262680"/>
</linearGradient>
</defs>
</svg>
