<svg width="93" height="16" viewBox="0 0 93 16" fill="none" xmlns="http://www.w3.org/2000/svg">
<g clip-path="url(#clip0_23_2303)">
<path d="M20.5759 11.9997V5.12775H19.2448V4.06055H23.3103V5.12775H22.0223V11.9997H20.5759Z" fill="white"/>
<path d="M23.2959 11.9998L24.9103 4.05903H26.4191L28.0287 11.9998H26.6831L26.3615 10.1566H24.9871L24.6607 11.9998H23.2959ZM24.1631 3.38383L25.0447 1.60303H26.2607L27.1567 3.38383H26.1599L25.6575 2.23503L25.1551 3.38383H24.1631ZM25.1407 9.21263H26.2031L25.6719 5.95183L25.1407 9.21263Z" fill="white"/>
<path d="M28.6127 11.9999V4.05908H29.6095L31.5535 8.55668V4.05908H32.7503V11.9999H31.8015L29.8383 7.27348V11.9999H28.6127Z" fill="white"/>
<path d="M36.7167 11.9997V5.12775H35.3855V4.06055H39.4511V5.12775H38.1631V11.9997H36.7167Z" fill="white"/>
<path d="M39.8864 11.9999V4.05908H41.7056C42.1232 4.05908 42.4832 4.09268 42.7824 4.16148C43.0832 4.23028 43.3439 4.34548 43.5647 4.50548C43.7871 4.66708 43.952 4.88628 44.0624 5.16148C44.1728 5.43828 44.2272 5.77588 44.2272 6.17428C44.2272 6.67188 44.1535 7.07988 44.0047 7.39508C43.8559 7.71028 43.6111 7.94068 43.2703 8.08468L44.3743 11.9999H42.9232L41.9743 8.37428H41.3328V11.9999H39.8864ZM41.3328 7.45108H41.6816C42.1088 7.45108 42.4144 7.35988 42.5936 7.17748C42.7744 6.99508 42.8639 6.68468 42.8639 6.24308C42.8639 5.81908 42.7856 5.51508 42.6288 5.33108C42.472 5.14708 42.1856 5.05588 41.7664 5.05588H41.3312V7.45108H41.3328Z" fill="white"/>
<path d="M49.5327 4.99829V9.33269C49.5327 9.69269 49.5135 10.0111 49.4735 10.2831C49.4335 10.5567 49.3631 10.8095 49.2623 11.0447C49.1615 11.2799 49.0287 11.4719 48.8623 11.6223C48.6959 11.7727 48.4831 11.8895 48.2223 11.9711C47.9615 12.0527 47.6559 12.0959 47.3055 12.0959C46.9519 12.0959 46.6431 12.0543 46.3839 11.9711C46.1231 11.8879 45.9103 11.7711 45.7423 11.6223C45.5743 11.4719 45.4415 11.2799 45.3407 11.0447C45.2399 10.8095 45.1695 10.5567 45.1295 10.2831C45.0895 10.0095 45.0703 9.69269 45.0703 9.33269V4.05909H46.4735V9.47989C46.4735 9.66549 46.4783 9.82389 46.4879 9.95349C46.4975 10.0847 46.5183 10.2223 46.5503 10.3647C46.5823 10.5087 46.6271 10.6239 46.6863 10.7087C46.7455 10.7951 46.8271 10.8671 46.9311 10.9247C47.0351 10.9823 47.1599 11.0111 47.3071 11.0111C47.4543 11.0111 47.5791 10.9823 47.6831 10.9247C47.7871 10.8671 47.8671 10.7951 47.9231 10.7087C47.9791 10.6223 48.0239 10.5071 48.0575 10.3647C48.0911 10.2207 48.1119 10.0847 48.1199 9.95509C48.1279 9.82549 48.1327 9.66709 48.1327 9.47829V4.05909H49.3151C49.4623 4.03029 49.5567 3.98229 49.5983 3.91509C49.6655 3.79989 49.6991 3.59829 49.6991 3.31189V3.08789H50.6671V3.30869C50.6671 3.90549 50.5311 4.34709 50.2607 4.63029C50.0799 4.81109 49.8383 4.93429 49.5327 4.99829Z" fill="white"/>
<path d="M54.5312 4.84944C54.784 5.27024 54.9088 5.83824 54.9088 6.55024V9.48144C54.9088 9.89584 54.8688 10.2622 54.7872 10.5758C54.7056 10.891 54.576 11.163 54.4 11.395C54.2224 11.627 53.9856 11.8014 53.6896 11.9198C53.392 12.0382 53.0368 12.0974 52.6224 12.0974C51.8048 12.0974 51.2192 11.875 50.864 11.4318C50.5088 10.9886 50.3328 10.339 50.3328 9.48304V6.55024C50.3328 6.12944 50.3728 5.76304 50.4528 5.45424C50.5328 5.14544 50.6608 4.87664 50.8384 4.64944C51.016 4.42224 51.2528 4.25264 51.5488 4.13904C51.8464 4.02544 52.2032 3.96944 52.6224 3.96944C52.9696 3.96944 53.2768 4.00944 53.5424 4.08944C53.8928 4.08624 54.1024 4.02864 54.1696 3.91664C54.2368 3.80144 54.2704 3.59984 54.2704 3.31344V3.08784H55.2384V3.30864C55.2384 3.90544 55.1024 4.34704 54.832 4.63024C54.7456 4.71504 54.6464 4.78864 54.5312 4.84944ZM52.3248 3.59024L51.1424 1.63184H52.5024L53.0816 3.59024H52.3248ZM52.6208 11.0222C52.7616 11.0222 52.8816 11.0014 52.9792 10.9598C53.0784 10.9182 53.1568 10.8638 53.216 10.7966C53.2752 10.7294 53.3216 10.6414 53.3552 10.5326C53.3888 10.4238 53.4112 10.315 53.4224 10.2062C53.4336 10.0974 53.4384 9.96784 53.4384 9.81904V6.21424C53.4384 6.02224 53.4288 5.86384 53.4096 5.73584C53.3904 5.60784 53.3536 5.48784 53.2976 5.37424C53.2416 5.26064 53.1584 5.17584 53.0464 5.11984C52.9344 5.06384 52.792 5.03664 52.6208 5.03664C52.448 5.03664 52.3056 5.06384 52.192 5.11984C52.0784 5.17584 51.9952 5.26064 51.9408 5.37424C51.8864 5.48784 51.8496 5.60784 51.8304 5.73584C51.8112 5.86384 51.8016 6.02384 51.8016 6.21424V9.82064C51.8016 9.97104 51.8064 10.1006 51.8176 10.2078C51.8288 10.3166 51.8512 10.4254 51.8848 10.5342C51.9184 10.643 51.9632 10.731 52.0208 10.7982C52.0784 10.8654 52.1568 10.9198 52.2576 10.9614C52.36 11.0014 52.48 11.0222 52.6208 11.0222Z" fill="white"/>
<path d="M55.7727 11.9999V4.05908H56.7695L58.7135 8.55668V4.05908H59.9103V11.9999H58.9615L56.9983 7.27348V11.9999H55.7727Z" fill="white"/>
<path d="M62.8895 12.1052C62.1391 12.1052 61.5983 11.87 61.2687 11.4012C60.9391 10.9324 60.7727 10.2492 60.7727 9.35164V6.76604C60.7727 6.31004 60.8079 5.91644 60.8799 5.58524C60.9519 5.25404 61.0719 4.96444 61.2415 4.71644C61.4111 4.46684 61.6431 4.28124 61.9407 4.15644C62.2383 4.03164 62.6015 3.96924 63.0319 3.96924C63.8175 3.96924 64.3807 4.16124 64.7231 4.54684C65.0655 4.93084 65.2351 5.51484 65.2351 6.29724V6.68444H63.8511V6.27164C63.8511 6.09564 63.8463 5.95164 63.8383 5.84124C63.8303 5.72924 63.8111 5.61724 63.7807 5.50364C63.7503 5.39004 63.7071 5.30364 63.6495 5.24284C63.5919 5.18204 63.5135 5.13244 63.4143 5.09404C63.3151 5.05564 63.1935 5.03644 63.0495 5.03644C62.9407 5.03644 62.8447 5.04924 62.7599 5.07644C62.6751 5.10364 62.6047 5.13724 62.5471 5.17724C62.4895 5.21724 62.4415 5.27324 62.4015 5.34684C62.3615 5.42044 62.3311 5.49084 62.3103 5.55964C62.2895 5.62844 62.2735 5.71644 62.2623 5.82524C62.2511 5.93404 62.2431 6.03004 62.2415 6.11324C62.2383 6.19644 62.2367 6.30364 62.2367 6.43484V9.63804C62.2367 10.1164 62.2959 10.4668 62.4143 10.6892C62.5327 10.9116 62.7567 11.022 63.0895 11.022C63.2623 11.022 63.4063 10.9884 63.5231 10.9244C63.6399 10.8588 63.7311 10.7596 63.7967 10.6268C63.8623 10.494 63.9087 10.342 63.9359 10.1724C63.9631 10.0012 63.9759 9.79484 63.9759 9.55164V8.90044H63.1183V7.96764H65.2783V11.9996H64.3391L64.2335 11.1948C63.9951 11.8012 63.5471 12.1052 62.8895 12.1052Z" fill="white"/>
<path d="M69.1487 11.9997V5.12775H67.8175V4.06055H71.8831V5.12775H70.5951V11.9997H69.1487Z" fill="white"/>
<path d="M72.3344 11.9999V4.05908H73.7808V7.37748H75.3952V4.05908H76.8416V11.9999H75.3952V8.40788H73.7808V11.9999H72.3344Z" fill="white"/>
<path d="M77.4336 11.9999L79.048 4.05908H80.5568L82.1664 11.9999H80.8208L80.5008 10.1567H79.1264L78.8 11.9999H77.4336ZM79.2784 9.21268H80.3408L79.8096 5.95188L79.2784 9.21268Z" fill="white"/>
<path d="M82.7504 11.9999V4.05908H83.7472L85.6912 8.55668V4.05908H86.888V11.9999H85.9392L83.976 7.27348V11.9999H82.7504Z" fill="white"/>
<path d="M87.8943 11.9999V4.05908H89.3407V7.37748H90.955V4.05908H92.4014V11.9999H90.955V8.40788H89.3407V11.9999H87.8943Z" fill="white"/>
<path d="M15.5999 5.4784C15.5375 5.2896 15.4687 5.1056 15.3919 4.9232C15.3151 4.7376 15.2303 4.5552 15.1407 4.376C15.0463 4.1936 14.9471 4.016 14.8399 3.8416C14.7311 3.6608 14.6143 3.4848 14.4895 3.3152C14.3615 3.1376 14.2255 2.9648 14.0831 2.7984C13.9359 2.6256 13.7807 2.4592 13.6175 2.3008V2.296H13.6127C13.4399 2.1248 13.2591 1.9632 13.0719 1.8096C12.8687 1.6432 12.6559 1.4864 12.4367 1.3392C12.1951 1.1776 11.9423 1.0288 11.6831 0.8928C11.3823 0.7376 11.0703 0.6 10.7487 0.4832C10.7295 0.4768 10.7119 0.4688 10.6927 0.464C10.3055 0.3248 9.90555 0.216 9.49435 0.1392L9.46875 0.144V0.1344C8.99515 0.0464 8.50555 0 8.00635 0C7.50715 0 7.01755 0.0464 6.54395 0.1344C6.49435 0.1424 6.44475 0.152 6.39515 0.1632C6.02715 0.2384 5.66715 0.3392 5.31995 0.464C4.71355 0.6784 4.14075 0.9664 3.61275 1.3152C3.24955 1.5536 2.90715 1.8224 2.58875 2.1152C2.52315 2.176 2.45755 2.2368 2.39515 2.3008C2.21595 2.4752 2.04475 2.6592 1.88315 2.8528C1.69435 3.0768 1.51835 3.3104 1.35515 3.5552C1.20795 3.7744 1.07195 4 0.947148 4.2336C0.833548 4.448 0.727948 4.6688 0.631948 4.8928C0.543948 5.104 0.463948 5.3184 0.393548 5.5376C0.326348 5.744 0.267148 5.9552 0.217548 6.1696C0.169548 6.3744 0.129548 6.5808 0.0975477 6.7904C0.0671477 6.9904 0.0431477 7.1936 0.0287477 7.3984C0.0143477 7.5968 0.00634766 7.7984 0.00634766 8C0.00634766 8.1984 0.0143477 8.3968 0.0287477 8.592C0.174348 10.5872 1.05115 12.3792 2.39515 13.6992C3.21595 14.5088 4.21275 15.1424 5.31995 15.536C5.71515 15.6784 6.12315 15.7888 6.54395 15.8656C7.01755 15.9536 7.50715 16 8.00635 16C8.50555 16 8.99515 15.9536 9.46875 15.8656C9.88955 15.7888 10.2975 15.6784 10.6927 15.536C11.7999 15.1424 12.7967 14.5088 13.6175 13.6992C15.0927 12.2496 16.0063 10.232 16.0063 8C16.0063 7.1184 15.8639 6.2704 15.5999 5.4784ZM5.31995 1.088C5.69115 0.9424 6.07515 0.8272 6.47195 0.744C6.49595 0.7392 6.51995 0.7344 6.54395 0.7296L6.57435 0.7232C7.03835 0.632 7.51675 0.584 8.00635 0.584C8.50715 0.584 8.99515 0.6336 9.46875 0.7296C9.47835 0.7312 9.48635 0.7328 9.49595 0.7344H9.49915C9.91035 0.8192 10.3087 0.9376 10.6927 1.088C10.6943 1.088 10.6959 1.0896 10.6991 1.0896L10.6927 1.0912L2.87035 2.656C3.17275 2.3648 3.49915 2.0992 3.84795 1.864C4.30555 1.552 4.79835 1.2912 5.31995 1.088ZM1.71355 4.0816C1.86395 3.84 2.02875 3.608 2.20475 3.3856L11.5887 1.5088C11.8383 1.6464 12.0767 1.7984 12.3071 1.9616C12.5151 2.1104 12.7151 2.2688 12.9055 2.4384L1.34235 4.7504C1.45435 4.52 1.57755 4.2976 1.71355 4.0816ZM0.852748 6.0416C0.911948 5.824 0.980748 5.6112 1.06075 5.4032L13.4207 2.9312L13.6175 3.1568C13.6991 3.2496 13.7759 3.3456 13.8527 3.4416C13.9839 3.6096 14.1087 3.784 14.2239 3.9648L0.711948 6.6672C0.748748 6.4544 0.796748 6.2464 0.852748 6.0416ZM0.606348 8.4768C0.595148 8.32 0.590348 8.16 0.590348 8C0.590348 7.9616 0.590348 7.9216 0.591948 7.8832C0.595148 7.68 0.606348 7.4784 0.625548 7.28L1.62875 7.0784C2.02555 6.9984 2.39515 7.3024 2.39515 7.7056V12.8416C1.36795 11.6544 0.711948 10.1392 0.606348 8.4768ZM13.6175 12.8416V6.4608C13.6175 6.1584 13.3407 5.9312 13.0431 5.9904L11.2063 6.3568C10.9071 6.416 10.6911 6.68 10.6911 6.984V14.9104C10.2975 15.064 9.88955 15.1856 9.46715 15.2704V7.2896C9.46715 6.9872 9.19035 6.76 8.89275 6.8192L7.05595 7.1872C6.75675 7.2464 6.54235 7.5104 6.54235 7.8144V15.2704C6.11995 15.1856 5.71195 15.064 5.31835 14.9104V7.128C5.31835 6.6704 5.64155 6.2768 6.08955 6.1872L14.5407 4.496C14.6367 4.672 14.7247 4.8544 14.8047 5.04C14.8847 5.2208 14.9567 5.4048 15.0207 5.5936C15.2815 6.3488 15.4223 7.1584 15.4223 8C15.4223 9.8496 14.7423 11.5424 13.6175 12.8416Z" fill="white"/>
</g>
<defs>
<clipPath id="clip0_23_2303">
<rect width="92.3936" height="16" fill="white" transform="translate(0.00634766)"/>
</clipPath>
</defs>
</svg>
