<svg width="12" height="40" viewBox="0 0 12 40" fill="none" xmlns="http://www.w3.org/2000/svg">
<rect opacity="0.2" x="5" width="2" height="40" fill="#2AAC7E" fill-opacity="0.5"/>
<path d="M6 14C9.31368 14 12 16.6863 12 20C12 23.3137 9.31368 26 6 26C2.68629 26 0 23.3137 0 20C0 16.6863 2.68629 14 6 14ZM7.93182 18.1818L5.25 20.8636L4.0682 19.6818C3.89246 19.5061 3.60754 19.5061 3.4318 19.6818C3.25607 19.8576 3.25607 20.1424 3.4318 20.3182L4.93182 21.8182C5.10756 21.9939 5.39244 21.9939 5.56818 21.8182L8.56818 18.8182C8.74392 18.6425 8.74392 18.3575 8.56818 18.1818C8.39244 18.0061 8.10756 18.0061 7.93182 18.1818Z" fill="#5856D6"/>
</svg>
