<svg width="16" height="16" viewBox="0 0 16 16" fill="none" xmlns="http://www.w3.org/2000/svg">
<path d="M2.96348 2.66881L3.61383 2.23505C4.22322 1.82863 5.0454 1.96057 5.53499 2.54338L6.50938 3.70317C6.93398 4.20861 7.0006 4.92864 6.67414 5.48329L5.76547 7.02681C6.05605 7.70782 6.50658 8.33058 7.11709 8.8952C7.72759 9.45982 8.40361 9.87896 9.14524 10.1525L10.5134 9.2152C11.032 8.85991 11.724 8.8941 12.2306 9.30007L13.4107 10.2459C13.9996 10.7177 14.1721 11.5546 13.8144 12.2037L13.431 12.8993C13.0494 13.5916 12.3323 14.0108 11.5485 13.9998C9.69787 13.9737 7.67559 12.8878 5.48158 10.742C3.28441 8.59312 2.12547 6.56517 2.00469 4.65809C1.95388 3.85558 2.31861 3.09886 2.96348 2.66881Z" fill="#2AAC7E"/>
</svg>
