<svg width="16" height="16" viewBox="0 0 16 16" fill="none" xmlns="http://www.w3.org/2000/svg">
<path d="M11.913 9.41026C11.913 6.05026 10.3478 4.5641 10.3478 4.5641C9.58033 6.41232 7.93472 6.70695 6.45668 6.97157C4.92043 7.24661 3.56522 7.48925 3.56522 9.41026H3.04348V9.94872C3.04348 10.4558 3.23131 10.7154 3.38705 10.856C3.47172 10.9325 3.55694 10.9819 3.61956 11.0115C3.65045 11.0261 3.67442 11.0352 3.68801 11.04L3.69453 11.0422L3.69786 11.0433L3.96961 11.1134L4.05973 11.3924L4.06084 11.3957C4.06206 11.3993 4.06428 11.4058 4.06755 11.415C4.07408 11.4334 4.08475 11.4626 4.09979 11.5009C4.12991 11.5777 4.17732 11.6908 4.24383 11.8281C4.37745 12.1039 4.58489 12.4704 4.87907 12.8348C5.46423 13.5595 6.37275 14.2564 7.73913 14.2564H10.6729C9.93148 14.874 8.96104 15.3333 7.73913 15.3333C5.97508 15.3333 4.79664 14.4149 4.07745 13.5242C3.71946 13.0808 3.47038 12.6397 3.31052 12.3097C3.24871 12.1822 3.19976 12.0702 3.16263 11.9798C3.03258 11.9163 2.86648 11.8169 2.69991 11.6665C2.33391 11.3359 2 10.7878 2 9.94872V7.25641C2 3.48718 5.13043 1.33333 7.73913 1.33333C9.82609 1.33333 10.3478 2.41026 10.3478 2.41026C12.4348 2.41026 13.4783 5.10256 13.4783 7.25641V8.4773C13.7902 8.66344 14 9.01145 14 9.41026V9.94872C14 10.3603 13.7765 10.7178 13.4479 10.8991C13.2558 12.1904 12.1745 13.1795 10.8696 13.1795H8.26087C8.22061 13.1795 8.18141 13.1748 8.14376 13.1659C8.09716 13.1748 8.0491 13.1795 8 13.1795H7.47826C7.04626 13.1795 6.69565 12.8176 6.69565 12.3718C6.69565 11.926 7.04626 11.5641 7.47826 11.5641H8C8.34054 11.5641 8.63051 11.789 8.73802 12.1026H10.8696C11.551 12.1026 12.1308 11.653 12.3457 11.0256H11.913V9.41026Z" fill="white"/>
</svg>
